%TF.GenerationSoftware,Altium Limited,Altium Designer,23.6.0 (18)*%
G04 Layer_Physical_Order=2*
G04 Layer_Color=16711680*
%FSLAX45Y45*%
%MOMM*%
%TF.SameCoordinates,1BF17B70-E076-4422-95A1-EF062E3CA17A*%
%TF.FilePolarity,Positive*%
%TF.FileFunction,Copper,L2,Bot,Signal*%
%TF.Part,Single*%
G01*
G75*
%TA.AperFunction,SMDPad,CuDef*%
%ADD12R,1.02000X1.47000*%
%ADD14R,1.47000X1.02000*%
%ADD16R,1.00000X1.45000*%
%TA.AperFunction,Conductor*%
%ADD34C,0.65000*%
%ADD35C,0.30000*%
%ADD36C,1.00000*%
%ADD37C,0.80000*%
%ADD39C,0.50000*%
%TA.AperFunction,ViaPad*%
%ADD43C,4.00000*%
%TA.AperFunction,ComponentPad*%
%ADD44R,1.80000X1.80000*%
%ADD45C,1.80000*%
%ADD46C,1.20000*%
%ADD47R,1.20000X1.20000*%
%ADD48C,1.99500*%
%ADD49C,1.31000*%
%ADD50C,2.03000*%
%ADD51C,1.52400*%
%ADD52C,2.78100*%
%ADD53C,1.30000*%
%ADD54R,2.22000X2.22000*%
%ADD55C,2.22000*%
%ADD56C,2.80000*%
%ADD57C,1.50000*%
%ADD58R,1.50000X1.50000*%
%TA.AperFunction,ViaPad*%
%ADD59C,0.60000*%
%ADD60C,0.50000*%
%ADD61C,0.80000*%
%ADD62C,1.00000*%
G36*
X2617500Y6182500D02*
Y5745000D01*
X1647500Y4775000D01*
X5000D01*
X1616Y5783505D01*
X10581Y5792500D01*
X1070000D01*
X1502500Y6225000D01*
X2575000D01*
X2617500Y6182500D01*
D02*
G37*
G36*
X3917500Y4567500D02*
X3974128D01*
X3985738Y4559743D01*
X4000505Y4553626D01*
X4001431Y4539496D01*
X3987379Y4531383D01*
X3966117Y4510121D01*
X3951083Y4484080D01*
X3943300Y4455035D01*
Y4424965D01*
X3946324Y4413678D01*
X4015073Y4482426D01*
X4057499Y4440000D01*
X4099926Y4482426D01*
X4168675Y4413677D01*
X4171700Y4424965D01*
Y4455035D01*
X4163917Y4484080D01*
X4148883Y4510121D01*
X4127620Y4531383D01*
X4113569Y4539496D01*
X4114495Y4553626D01*
X4129262Y4559743D01*
X4140872Y4567500D01*
X4197500D01*
X4252500Y4512500D01*
Y4095000D01*
X4195000Y4037500D01*
X3597500D01*
X3067500Y4567500D01*
X2869375D01*
X2859262Y4574257D01*
X2844495Y4580374D01*
X2843569Y4594504D01*
X2857620Y4602617D01*
X2878883Y4623879D01*
X2893917Y4649920D01*
X2901700Y4678965D01*
Y4709035D01*
X2898675Y4720323D01*
X2829926Y4651573D01*
X2787499Y4694000D01*
X2745073Y4651573D01*
X2676324Y4720322D01*
X2673300Y4709035D01*
Y4678965D01*
X2681083Y4649920D01*
X2696117Y4623879D01*
X2717379Y4602617D01*
X2731431Y4594504D01*
X2730505Y4580374D01*
X2715738Y4574257D01*
X2705625Y4567500D01*
X2605000D01*
X2577500Y4595000D01*
Y4852500D01*
X2612500Y4887500D01*
X3597500D01*
X3917500Y4567500D01*
D02*
G37*
G36*
X3538671Y4024233D02*
X3533811Y4012500D01*
X3054288D01*
X2930776Y4136011D01*
X2933178Y4141809D01*
X2939000Y4171079D01*
Y4200921D01*
X2933178Y4230191D01*
X2921757Y4257762D01*
X2905178Y4282576D01*
X2884076Y4303678D01*
X2879627Y4306650D01*
Y4319350D01*
X2884076Y4322322D01*
X2905178Y4343424D01*
X2921757Y4368238D01*
X2933178Y4395809D01*
X2939000Y4425079D01*
Y4454921D01*
X2933178Y4484191D01*
X2925047Y4503820D01*
X2933533Y4516520D01*
X3046384D01*
X3538671Y4024233D01*
D02*
G37*
G36*
X12502500Y4617500D02*
X12027500Y4142500D01*
X10720000D01*
X10610000Y4032500D01*
X9465000D01*
X9085000Y3652500D01*
X6915000D01*
X6555000Y4012500D01*
X6347381D01*
X6342521Y4024233D01*
X6865902Y4547614D01*
X6876385Y4561276D01*
X6882975Y4577185D01*
X6885222Y4594258D01*
Y4750560D01*
X6895462Y4756472D01*
X6921528Y4782538D01*
X6939959Y4814462D01*
X6949500Y4850069D01*
Y4886931D01*
X6939959Y4922538D01*
X6921528Y4954462D01*
X6895462Y4980528D01*
X6863538Y4998959D01*
X6827931Y5008500D01*
X6791069D01*
X6755462Y4998959D01*
X6723538Y4980528D01*
X6697472Y4954462D01*
X6679041Y4922538D01*
X6669500Y4886931D01*
Y4850069D01*
X6679041Y4814462D01*
X6697472Y4782538D01*
X6723538Y4756472D01*
X6753294Y4739293D01*
Y4621581D01*
X6144213Y4012500D01*
X4258689D01*
X4253829Y4024233D01*
X4288548Y4058952D01*
X4299599Y4075491D01*
X4303480Y4095000D01*
Y4512500D01*
X4299599Y4532009D01*
X4288548Y4548548D01*
X4233548Y4603548D01*
X4217009Y4614599D01*
X4203416Y4617303D01*
X4195886Y4628531D01*
X4195461Y4631179D01*
X4203178Y4649809D01*
X4209000Y4679079D01*
Y4708921D01*
X4203178Y4738191D01*
X4191757Y4765762D01*
X4175178Y4790576D01*
X4154076Y4811678D01*
X4129262Y4828257D01*
X4101691Y4839678D01*
X4072421Y4845500D01*
X4042578D01*
X4013309Y4839678D01*
X3985738Y4828257D01*
X3960924Y4811678D01*
X3939822Y4790576D01*
X3923243Y4765762D01*
X3911822Y4738191D01*
X3906000Y4708921D01*
Y4679079D01*
X3908488Y4666568D01*
X3896784Y4660312D01*
X3633548Y4923548D01*
X3617009Y4934599D01*
X3597500Y4938480D01*
X2612500D01*
X2592991Y4934599D01*
X2576452Y4923548D01*
X2541452Y4888548D01*
X2530401Y4872009D01*
X2526520Y4852500D01*
Y4595000D01*
X2530401Y4575491D01*
X2541452Y4558952D01*
X2568952Y4531452D01*
X2585491Y4520401D01*
X2605000Y4516520D01*
X2641467D01*
X2649953Y4503820D01*
X2641822Y4484191D01*
X2636000Y4454921D01*
Y4425079D01*
X2641822Y4395809D01*
X2653243Y4368238D01*
X2669822Y4343424D01*
X2690924Y4322322D01*
X2695373Y4319350D01*
Y4306650D01*
X2690924Y4303678D01*
X2669822Y4282576D01*
X2653243Y4257762D01*
X2641822Y4230191D01*
X2636000Y4200921D01*
Y4171079D01*
X2641822Y4141809D01*
X2653243Y4114238D01*
X2669822Y4089424D01*
X2690924Y4068322D01*
X2715738Y4051743D01*
X2743309Y4040322D01*
X2772578Y4034500D01*
X2802421D01*
X2831691Y4040322D01*
X2837489Y4042724D01*
X2855979Y4024233D01*
X2851119Y4012500D01*
X2500D01*
Y4721969D01*
X5000Y4724021D01*
X1647500D01*
X1667009Y4727901D01*
X1683548Y4738952D01*
X2653548Y5708952D01*
X2664599Y5725491D01*
X2668480Y5745000D01*
Y6182500D01*
X2664599Y6202009D01*
X2653548Y6218548D01*
X2611048Y6261048D01*
X2594509Y6272099D01*
X2575000Y6275980D01*
X1502500D01*
X1482991Y6272099D01*
X1466452Y6261048D01*
X1048884Y5843480D01*
X10581D01*
X2500Y5852212D01*
Y7807500D01*
X12502500D01*
Y4617500D01*
D02*
G37*
G36*
Y3977500D02*
Y5000D01*
X11481Y2502D01*
X2500Y11481D01*
Y3632500D01*
X3835000D01*
X4335000Y3132500D01*
X7855000D01*
X8122500Y2865000D01*
Y2595000D01*
X8120000Y2592500D01*
X8168949D01*
Y2503500D01*
X8154000D01*
Y2361500D01*
X8221879D01*
X8227816Y2359041D01*
X8247500Y2356449D01*
X8267183Y2359041D01*
X8273121Y2361500D01*
X8341000D01*
Y2503500D01*
X8321051D01*
Y2592500D01*
X9097500D01*
X9112500Y2577500D01*
X10105000Y3570000D01*
X10770000D01*
X11182500Y3982500D01*
X12497500D01*
X12502500Y3977500D01*
D02*
G37*
%LPC*%
G36*
X2288785Y6088700D02*
X2256214D01*
X2238421Y6083932D01*
X2272500Y6049853D01*
X2306579Y6083932D01*
X2288785Y6088700D01*
D02*
G37*
G36*
X2391432Y5999079D02*
X2357353Y5965000D01*
X2391432Y5930921D01*
X2396200Y5948715D01*
Y5981285D01*
X2391432Y5999079D01*
D02*
G37*
G36*
X2153568Y5999080D02*
X2148800Y5981285D01*
Y5948715D01*
X2153568Y5930921D01*
X2187647Y5965000D01*
X2153568Y5999080D01*
D02*
G37*
G36*
X2272500Y5880147D02*
X2238420Y5846068D01*
X2256214Y5841300D01*
X2288785D01*
X2306580Y5846068D01*
X2272500Y5880147D01*
D02*
G37*
G36*
X864946Y5361750D02*
X835054D01*
X805736Y5355918D01*
X793855Y5350997D01*
X850001Y5294852D01*
X906146Y5350997D01*
X894264Y5355918D01*
X864946Y5361750D01*
D02*
G37*
G36*
X990998Y5266144D02*
X934853Y5209999D01*
X990998Y5153855D01*
X995919Y5165736D01*
X1001750Y5195054D01*
Y5224946D01*
X995919Y5254264D01*
X990998Y5266144D01*
D02*
G37*
G36*
X709003Y5266145D02*
X704082Y5254264D01*
X698250Y5224946D01*
Y5195054D01*
X704082Y5165736D01*
X709003Y5153855D01*
X765148Y5209999D01*
X709003Y5266145D01*
D02*
G37*
G36*
X850001Y5125147D02*
X793856Y5069002D01*
X805736Y5064082D01*
X835054Y5058250D01*
X864946D01*
X894264Y5064082D01*
X906145Y5069003D01*
X850001Y5125147D01*
D02*
G37*
G36*
X2802535Y4808200D02*
X2772465D01*
X2761177Y4805175D01*
X2787499Y4778853D01*
X2813822Y4805176D01*
X2802535Y4808200D01*
D02*
G37*
G36*
X4057499Y4355147D02*
X4015352Y4313000D01*
X4057499Y4270853D01*
X4099646Y4313000D01*
X4057499Y4355147D01*
D02*
G37*
G36*
X3946324Y4212322D02*
X3943300Y4201035D01*
Y4170965D01*
X3946324Y4159678D01*
X3972646Y4186000D01*
X3946324Y4212322D01*
D02*
G37*
G36*
X4168675Y4212323D02*
X4142352Y4186000D01*
X4168675Y4159677D01*
X4171700Y4170965D01*
Y4201035D01*
X4168675Y4212323D01*
D02*
G37*
G36*
X4057499Y4101147D02*
X4031177Y4074825D01*
X4042465Y4071800D01*
X4072535D01*
X4083822Y4074824D01*
X4057499Y4101147D01*
D02*
G37*
G36*
X2288785Y7588700D02*
X2256214D01*
X2238421Y7583932D01*
X2272500Y7549853D01*
X2306579Y7583932D01*
X2288785Y7588700D01*
D02*
G37*
G36*
X420949Y7612700D02*
X379051D01*
X337958Y7604526D01*
X299249Y7588492D01*
X297518Y7587335D01*
X400000Y7484853D01*
X502482Y7587335D01*
X500751Y7588492D01*
X462042Y7604526D01*
X420949Y7612700D01*
D02*
G37*
G36*
X2391432Y7499079D02*
X2357353Y7465000D01*
X2391432Y7430921D01*
X2396200Y7448715D01*
Y7481286D01*
X2391432Y7499079D01*
D02*
G37*
G36*
X2153568Y7499080D02*
X2148800Y7481286D01*
Y7448715D01*
X2153568Y7430921D01*
X2187647Y7465000D01*
X2153568Y7499080D01*
D02*
G37*
G36*
X2272500Y7380148D02*
X2238420Y7346068D01*
X2256214Y7341300D01*
X2288785D01*
X2306580Y7346068D01*
X2272500Y7380148D01*
D02*
G37*
G36*
X10060000Y7317500D02*
D01*
D01*
D01*
D02*
G37*
G36*
X587335Y7502482D02*
X484853Y7400000D01*
X587335Y7297518D01*
X588492Y7299249D01*
X604526Y7337958D01*
X612700Y7379051D01*
Y7420949D01*
X604526Y7462042D01*
X588492Y7500751D01*
X587335Y7502482D01*
D02*
G37*
G36*
X212665Y7502483D02*
X211508Y7500751D01*
X195474Y7462042D01*
X187300Y7420949D01*
Y7379051D01*
X195474Y7337958D01*
X211508Y7299249D01*
X212665Y7297518D01*
X315147Y7400000D01*
X212665Y7502483D01*
D02*
G37*
G36*
X5088713Y7637500D02*
X5051287D01*
X5014579Y7630198D01*
X4980001Y7615876D01*
X4948882Y7595083D01*
X4922418Y7568618D01*
X4901624Y7537499D01*
X4887302Y7502921D01*
X4880000Y7466214D01*
Y7428787D01*
X4887302Y7392079D01*
X4901624Y7357502D01*
X4922418Y7326382D01*
X4948882Y7299918D01*
X4980001Y7279125D01*
X5014579Y7264802D01*
X5051287Y7257500D01*
X5088713D01*
X5125421Y7264802D01*
X5159999Y7279125D01*
X5191118Y7299918D01*
X5217582Y7326382D01*
X5238376Y7357502D01*
X5252698Y7392079D01*
X5260000Y7428787D01*
Y7466214D01*
X5252698Y7502921D01*
X5238376Y7537499D01*
X5217582Y7568618D01*
X5191118Y7595083D01*
X5159999Y7615876D01*
X5125421Y7630198D01*
X5088713Y7637500D01*
D02*
G37*
G36*
X400000Y7315147D02*
X297518Y7212665D01*
X299249Y7211508D01*
X337958Y7195474D01*
X379051Y7187300D01*
X420949D01*
X462042Y7195474D01*
X500751Y7211508D01*
X502483Y7212665D01*
X400000Y7315147D01*
D02*
G37*
G36*
X12124623Y7650000D02*
X12075377D01*
X12027078Y7640392D01*
X11981581Y7621547D01*
X11940634Y7594187D01*
X11905813Y7559365D01*
X11878453Y7518419D01*
X11859608Y7472922D01*
X11850000Y7424623D01*
Y7375377D01*
X11859608Y7327078D01*
X11878453Y7281581D01*
X11905813Y7240634D01*
X11940634Y7205813D01*
X11981581Y7178453D01*
X12027078Y7159608D01*
X12075377Y7150000D01*
X12124623D01*
X12172922Y7159608D01*
X12218419Y7178453D01*
X12259365Y7205813D01*
X12294187Y7240634D01*
X12321547Y7281581D01*
X12340392Y7327078D01*
X12350000Y7375377D01*
Y7424623D01*
X12340392Y7472922D01*
X12321547Y7518419D01*
X12294187Y7559365D01*
X12259365Y7594187D01*
X12218419Y7621547D01*
X12172922Y7640392D01*
X12124623Y7650000D01*
D02*
G37*
G36*
X10170000Y6927500D02*
X9950000D01*
Y6707500D01*
X10170000D01*
Y6927500D01*
D02*
G37*
G36*
X2288357Y6876000D02*
X2256643D01*
X2225538Y6869813D01*
X2196238Y6857676D01*
X2169868Y6840057D01*
X2147443Y6817632D01*
X2129824Y6791262D01*
X2117687Y6761962D01*
X2111500Y6730857D01*
Y6699143D01*
X2117687Y6668038D01*
X2129824Y6638738D01*
X2147443Y6612369D01*
X2169868Y6589943D01*
X2196238Y6572324D01*
X2225538Y6560187D01*
X2256643Y6554000D01*
X2288357D01*
X2319462Y6560187D01*
X2348762Y6572324D01*
X2375131Y6589943D01*
X2397557Y6612369D01*
X2415176Y6638738D01*
X2427313Y6668038D01*
X2433500Y6699143D01*
Y6730857D01*
X2427313Y6761962D01*
X2415176Y6791262D01*
X2397557Y6817632D01*
X2375131Y6840057D01*
X2348762Y6857676D01*
X2319462Y6869813D01*
X2288357Y6876000D01*
D02*
G37*
G36*
X868620Y6351550D02*
X831380D01*
X794856Y6344285D01*
X760451Y6330034D01*
X729488Y6309345D01*
X703156Y6283012D01*
X682466Y6252049D01*
X668215Y6217644D01*
X660950Y6181120D01*
Y6143880D01*
X668215Y6107356D01*
X682466Y6072951D01*
X703156Y6041988D01*
X729488Y6015655D01*
X760451Y5994966D01*
X794856Y5980715D01*
X831380Y5973450D01*
X868620D01*
X905144Y5980715D01*
X939549Y5994966D01*
X970512Y6015655D01*
X996845Y6041988D01*
X1017534Y6072951D01*
X1031785Y6107356D01*
X1039050Y6143880D01*
Y6181120D01*
X1031785Y6217644D01*
X1017534Y6252049D01*
X996845Y6283012D01*
X970512Y6309345D01*
X939549Y6330034D01*
X905144Y6344285D01*
X868620Y6351550D01*
D02*
G37*
G36*
X5088713Y6137500D02*
X5051287D01*
X5014579Y6130198D01*
X4980001Y6115876D01*
X4948882Y6095083D01*
X4922418Y6068618D01*
X4901624Y6037499D01*
X4887302Y6002921D01*
X4880000Y5966214D01*
Y5928787D01*
X4887302Y5892079D01*
X4901624Y5857502D01*
X4922418Y5826382D01*
X4948882Y5799918D01*
X4980001Y5779125D01*
X5014579Y5764802D01*
X5051287Y5757500D01*
X5088713D01*
X5125421Y5764802D01*
X5159999Y5779125D01*
X5191118Y5799918D01*
X5217582Y5826382D01*
X5238376Y5857502D01*
X5252698Y5892079D01*
X5260000Y5928787D01*
Y5966214D01*
X5252698Y6002921D01*
X5238376Y6037499D01*
X5217582Y6068618D01*
X5191118Y6095083D01*
X5159999Y6115876D01*
X5125421Y6130198D01*
X5088713Y6137500D01*
D02*
G37*
G36*
X11693620Y6066550D02*
X11656380D01*
X11619856Y6059285D01*
X11585451Y6045034D01*
X11554488Y6024345D01*
X11528156Y5998012D01*
X11507466Y5967049D01*
X11493215Y5932644D01*
X11485950Y5896120D01*
Y5858880D01*
X11493215Y5822356D01*
X11507466Y5787951D01*
X11528156Y5756988D01*
X11554488Y5730656D01*
X11585451Y5709966D01*
X11619856Y5695715D01*
X11656380Y5688450D01*
X11693620D01*
X11730144Y5695715D01*
X11764549Y5709966D01*
X11795512Y5730656D01*
X11821845Y5756988D01*
X11842534Y5787951D01*
X11856785Y5822356D01*
X11864050Y5858880D01*
Y5896120D01*
X11856785Y5932644D01*
X11842534Y5967049D01*
X11821845Y5998012D01*
X11795512Y6024345D01*
X11764549Y6045034D01*
X11730144Y6059285D01*
X11693620Y6066550D01*
D02*
G37*
G36*
X10077640Y5797500D02*
X10047360D01*
X10018112Y5789663D01*
X9991889Y5774523D01*
X9970477Y5753112D01*
X9955337Y5726888D01*
X9947500Y5697640D01*
Y5667360D01*
X9955337Y5638112D01*
X9970477Y5611889D01*
X9991889Y5590478D01*
X10018112Y5575337D01*
X10047360Y5567500D01*
X10077640D01*
X10106888Y5575337D01*
X10133112Y5590478D01*
X10154523Y5611889D01*
X10169663Y5638112D01*
X10177500Y5667360D01*
Y5697640D01*
X10169663Y5726888D01*
X10154523Y5753112D01*
X10133112Y5774523D01*
X10106888Y5789663D01*
X10077640Y5797500D01*
D02*
G37*
G36*
X11689946Y5076750D02*
X11660054D01*
X11630736Y5070918D01*
X11618856Y5065997D01*
X11675000Y5009853D01*
X11731144Y5065997D01*
X11719264Y5070918D01*
X11689946Y5076750D01*
D02*
G37*
G36*
X5299021Y4971200D02*
X5271979D01*
X5268568Y4970286D01*
X5285501Y4953353D01*
X5302434Y4970285D01*
X5299021Y4971200D01*
D02*
G37*
G36*
X11815997Y4981145D02*
X11759853Y4925001D01*
X11815997Y4868856D01*
X11820918Y4880736D01*
X11826750Y4910054D01*
Y4939946D01*
X11820918Y4969264D01*
X11815997Y4981145D01*
D02*
G37*
G36*
X11534003D02*
X11529082Y4969264D01*
X11523250Y4939946D01*
Y4910054D01*
X11529082Y4880736D01*
X11534003Y4868856D01*
X11590147Y4925001D01*
X11534003Y4981145D01*
D02*
G37*
G36*
X5387286Y4885432D02*
X5370353Y4868500D01*
X5387286Y4851568D01*
X5388200Y4854979D01*
Y4882021D01*
X5387286Y4885432D01*
D02*
G37*
G36*
X5183715Y4885433D02*
X5182800Y4882021D01*
Y4854979D01*
X5183715Y4851566D01*
X5200648Y4868500D01*
X5183715Y4885433D01*
D02*
G37*
G36*
X2433500Y5126000D02*
X2111500D01*
Y4804000D01*
X2433500D01*
Y5126000D01*
D02*
G37*
G36*
X11675000Y4840148D02*
X11618855Y4784003D01*
X11630736Y4779082D01*
X11660054Y4773250D01*
X11689946D01*
X11719264Y4779082D01*
X11731145Y4784003D01*
X11675000Y4840148D01*
D02*
G37*
G36*
X5285501Y4783647D02*
X5268568Y4766714D01*
X5271979Y4765800D01*
X5299021D01*
X5302433Y4766715D01*
X5285501Y4783647D01*
D02*
G37*
G36*
X3723456Y3539500D02*
X3693044D01*
X3663669Y3531629D01*
X3637331Y3516423D01*
X3621540Y3500631D01*
X3613000Y3496339D01*
X3604460Y3500631D01*
X3588668Y3516423D01*
X3562331Y3531629D01*
X3532956Y3539500D01*
X3502544D01*
X3473169Y3531629D01*
X3446831Y3516423D01*
X3425327Y3494919D01*
X3410121Y3468581D01*
X3408965Y3464266D01*
X3395336Y3462472D01*
X3389826Y3472016D01*
X3375266Y3486576D01*
X3357434Y3496871D01*
X3337545Y3502200D01*
X3316955D01*
X3297066Y3496871D01*
X3279234Y3486576D01*
X3264674Y3472016D01*
X3259164Y3462472D01*
X3245535Y3464266D01*
X3244379Y3468581D01*
X3229173Y3494919D01*
X3207668Y3516423D01*
X3181331Y3531629D01*
X3151956Y3539500D01*
X3121544D01*
X3092169Y3531629D01*
X3065831Y3516423D01*
X3049459Y3500051D01*
X2932000D01*
Y3516000D01*
X2790000D01*
Y3448621D01*
X2787541Y3442683D01*
X2784949Y3423000D01*
Y3422500D01*
X2787541Y3402816D01*
X2790000Y3396879D01*
Y3329000D01*
X2932000D01*
Y3347949D01*
X3049459D01*
X3065831Y3331577D01*
X3092169Y3316371D01*
X3121544Y3308500D01*
X3151956D01*
X3181331Y3316371D01*
X3207668Y3331577D01*
X3229173Y3353081D01*
X3244379Y3379419D01*
X3245535Y3383734D01*
X3259164Y3385528D01*
X3264674Y3375984D01*
X3279234Y3361424D01*
X3297066Y3351129D01*
X3316955Y3345800D01*
X3337545D01*
X3357434Y3351129D01*
X3375266Y3361424D01*
X3389826Y3375984D01*
X3395336Y3385528D01*
X3408965Y3383734D01*
X3410121Y3379419D01*
X3425327Y3353081D01*
X3446831Y3331577D01*
X3473169Y3316371D01*
X3502544Y3308500D01*
X3532956D01*
X3562331Y3316371D01*
X3588668Y3331577D01*
X3604460Y3347369D01*
X3613000Y3351661D01*
X3621540Y3347369D01*
X3637331Y3331577D01*
X3663669Y3316371D01*
X3693044Y3308500D01*
X3723456D01*
X3752831Y3316371D01*
X3779168Y3331577D01*
X3800673Y3353081D01*
X3815879Y3379419D01*
X3823750Y3408794D01*
Y3439206D01*
X3815879Y3468581D01*
X3800673Y3494919D01*
X3779168Y3516423D01*
X3752831Y3531629D01*
X3723456Y3539500D01*
D02*
G37*
G36*
X12256615Y3911200D02*
X12223385D01*
X12191289Y3902600D01*
X12162511Y3885985D01*
X12139015Y3862489D01*
X12122400Y3833711D01*
X12113800Y3801615D01*
Y3768385D01*
X12122400Y3736289D01*
X12139015Y3707512D01*
X12162511Y3684015D01*
X12191289Y3667401D01*
X12201837Y3664574D01*
Y3651426D01*
X12191289Y3648600D01*
X12162511Y3631985D01*
X12139015Y3608489D01*
X12122400Y3579711D01*
X12113800Y3547615D01*
Y3514385D01*
X12122400Y3482289D01*
X12139015Y3453512D01*
X12162511Y3430015D01*
X12191289Y3413401D01*
X12223385Y3404800D01*
X12256615D01*
X12288711Y3413401D01*
X12317488Y3430015D01*
X12340985Y3453512D01*
X12357599Y3482289D01*
X12366200Y3514385D01*
Y3547615D01*
X12357599Y3579711D01*
X12340985Y3608489D01*
X12317488Y3631985D01*
X12288711Y3648600D01*
X12278163Y3651426D01*
Y3664574D01*
X12288711Y3667401D01*
X12317488Y3684015D01*
X12340985Y3707512D01*
X12357599Y3736289D01*
X12366200Y3768385D01*
Y3801615D01*
X12357599Y3833711D01*
X12340985Y3862489D01*
X12317488Y3885985D01*
X12288711Y3902600D01*
X12256615Y3911200D01*
D02*
G37*
G36*
X12244047Y3365900D02*
X12235953D01*
X12240000Y3361853D01*
X12244047Y3365900D01*
D02*
G37*
G36*
X12151100Y3281047D02*
Y3272953D01*
X12155147Y3277000D01*
X12151100Y3281047D01*
D02*
G37*
G36*
X12328900D02*
X12324853Y3277000D01*
X12328900Y3272953D01*
Y3281047D01*
D02*
G37*
G36*
X12240000Y3192147D02*
X12235953Y3188100D01*
X12244047D01*
X12240000Y3192147D01*
D02*
G37*
G36*
X7997347Y2827700D02*
X7991653D01*
X7994500Y2824853D01*
X7997347Y2827700D01*
D02*
G37*
G36*
X8082200Y2742847D02*
X8079353Y2740000D01*
X8082200Y2737153D01*
Y2742847D01*
D02*
G37*
G36*
X7906800D02*
Y2737153D01*
X7909647Y2740000D01*
X7906800Y2742847D01*
D02*
G37*
G36*
X5303931Y2976500D02*
X5267069D01*
X5231462Y2966959D01*
X5199538Y2948528D01*
X5173472Y2922462D01*
X5155041Y2890538D01*
X5145500Y2854931D01*
Y2818069D01*
X5155041Y2782462D01*
X5173472Y2750538D01*
X5199538Y2724472D01*
X5231462Y2706041D01*
X5267069Y2696500D01*
X5303931D01*
X5339538Y2706041D01*
X5371462Y2724472D01*
X5397528Y2750538D01*
X5415959Y2782462D01*
X5425500Y2818069D01*
Y2854931D01*
X5415959Y2890538D01*
X5397528Y2922462D01*
X5371462Y2948528D01*
X5339538Y2966959D01*
X5303931Y2976500D01*
D02*
G37*
G36*
X7994500Y2655147D02*
X7991653Y2652300D01*
X7997347D01*
X7994500Y2655147D01*
D02*
G37*
G36*
X12256615Y3149200D02*
X12223385D01*
X12191289Y3140600D01*
X12162511Y3123985D01*
X12139015Y3100489D01*
X12122400Y3071711D01*
X12113800Y3039615D01*
Y3006385D01*
X12122400Y2974289D01*
X12139015Y2945512D01*
X12162511Y2922015D01*
X12191289Y2905401D01*
X12201837Y2902574D01*
Y2889426D01*
X12191289Y2886600D01*
X12162511Y2869985D01*
X12139015Y2846489D01*
X12122400Y2817711D01*
X12113800Y2785615D01*
Y2752385D01*
X12122400Y2720289D01*
X12139015Y2691512D01*
X12162511Y2668015D01*
X12191289Y2651401D01*
X12223385Y2642800D01*
X12256615D01*
X12288711Y2651401D01*
X12317488Y2668015D01*
X12340985Y2691512D01*
X12357599Y2720289D01*
X12366200Y2752385D01*
Y2785615D01*
X12357599Y2817711D01*
X12340985Y2846489D01*
X12317488Y2869985D01*
X12288711Y2886600D01*
X12278163Y2889426D01*
Y2902574D01*
X12288711Y2905401D01*
X12317488Y2922015D01*
X12340985Y2945512D01*
X12357599Y2974289D01*
X12366200Y3006385D01*
Y3039615D01*
X12357599Y3071711D01*
X12340985Y3100489D01*
X12317488Y3123985D01*
X12288711Y3140600D01*
X12256615Y3149200D01*
D02*
G37*
G36*
X10390047Y2531400D02*
X10381953D01*
X10386000Y2527353D01*
X10390047Y2531400D01*
D02*
G37*
G36*
X6065931Y2976500D02*
X6029069D01*
X5993462Y2966959D01*
X5961538Y2948528D01*
X5935472Y2922462D01*
X5917041Y2890538D01*
X5907500Y2854931D01*
Y2818069D01*
X5917041Y2782462D01*
X5935472Y2750538D01*
X5961538Y2724472D01*
X5972700Y2718028D01*
Y2652000D01*
X5956500D01*
Y2510000D01*
X6143500D01*
Y2652000D01*
X6124801D01*
Y2719472D01*
X6133462Y2724472D01*
X6159528Y2750538D01*
X6177959Y2782462D01*
X6187500Y2818069D01*
Y2854931D01*
X6177959Y2890538D01*
X6159528Y2922462D01*
X6133462Y2948528D01*
X6101538Y2966959D01*
X6065931Y2976500D01*
D02*
G37*
G36*
X6827931D02*
X6791069D01*
X6755462Y2966959D01*
X6723538Y2948528D01*
X6697472Y2922462D01*
X6679041Y2890538D01*
X6669500Y2854931D01*
Y2818069D01*
X6679041Y2782462D01*
X6697472Y2750538D01*
X6723538Y2724472D01*
X6733949Y2718461D01*
Y2652000D01*
X6716500D01*
Y2510000D01*
X6784379D01*
X6790317Y2507541D01*
X6810000Y2504950D01*
X6829684Y2507541D01*
X6835621Y2510000D01*
X6903500D01*
Y2652000D01*
X6886051D01*
Y2719039D01*
X6895462Y2724472D01*
X6921528Y2750538D01*
X6939959Y2782462D01*
X6949500Y2818069D01*
Y2854931D01*
X6939959Y2890538D01*
X6921528Y2922462D01*
X6895462Y2948528D01*
X6863538Y2966959D01*
X6827931Y2976500D01*
D02*
G37*
G36*
X3942500Y2633551D02*
X2937500D01*
X2917817Y2630959D01*
X2899475Y2623362D01*
X2883724Y2611276D01*
X2871638Y2595525D01*
X2864041Y2577184D01*
X2861449Y2557500D01*
X2864041Y2537817D01*
X2871638Y2519475D01*
X2883724Y2503724D01*
X2899475Y2491638D01*
X2917817Y2484041D01*
X2937500Y2481449D01*
X3942500D01*
X3962184Y2484041D01*
X3980525Y2491638D01*
X3996276Y2503724D01*
X4008362Y2519475D01*
X4015959Y2537817D01*
X4018551Y2557500D01*
X4015959Y2577184D01*
X4008362Y2595525D01*
X3996276Y2611276D01*
X3980525Y2623362D01*
X3962184Y2630959D01*
X3942500Y2633551D01*
D02*
G37*
G36*
X10910615Y2568700D02*
X10877385D01*
X10845289Y2560100D01*
X10816512Y2543485D01*
X10793015Y2519989D01*
X10776401Y2491211D01*
X10773574Y2480663D01*
X10760426D01*
X10757600Y2491211D01*
X10740985Y2519989D01*
X10717489Y2543485D01*
X10688711Y2560100D01*
X10656615Y2568700D01*
X10623385D01*
X10591289Y2560100D01*
X10562512Y2543485D01*
X10539015Y2519989D01*
X10522401Y2491211D01*
X10513800Y2459115D01*
Y2425885D01*
X10522401Y2393789D01*
X10539015Y2365012D01*
X10562512Y2341515D01*
X10591289Y2324901D01*
X10601837Y2322074D01*
Y2308926D01*
X10591289Y2306100D01*
X10562512Y2289485D01*
X10539015Y2265989D01*
X10522401Y2237211D01*
X10519574Y2226663D01*
X10506426D01*
X10503600Y2237211D01*
X10486985Y2265989D01*
X10463489Y2289485D01*
X10434711Y2306100D01*
X10402615Y2314700D01*
X10369385D01*
X10337289Y2306100D01*
X10308512Y2289485D01*
X10285015Y2265989D01*
X10268401Y2237211D01*
X10259800Y2205115D01*
Y2171885D01*
X10268401Y2139789D01*
X10285015Y2111012D01*
X10308512Y2087515D01*
X10337289Y2070901D01*
X10369385Y2062300D01*
X10402615D01*
X10434711Y2070901D01*
X10463489Y2087515D01*
X10486985Y2111012D01*
X10503600Y2139789D01*
X10506426Y2150337D01*
X10519574D01*
X10522401Y2139789D01*
X10539015Y2111012D01*
X10562512Y2087515D01*
X10591289Y2070901D01*
X10623385Y2062300D01*
X10656615D01*
X10688711Y2070901D01*
X10717489Y2087515D01*
X10740985Y2111012D01*
X10757600Y2139789D01*
X10760426Y2150337D01*
X10773574D01*
X10776401Y2139789D01*
X10793015Y2111012D01*
X10816512Y2087515D01*
X10845289Y2070901D01*
X10877385Y2062300D01*
X10910615D01*
X10942711Y2070901D01*
X10971489Y2087515D01*
X10994985Y2111012D01*
X11011600Y2139789D01*
X11020200Y2171885D01*
Y2205115D01*
X11011600Y2237211D01*
X10994985Y2265989D01*
X10971489Y2289485D01*
X10942711Y2306100D01*
X10932163Y2308926D01*
Y2322074D01*
X10942711Y2324901D01*
X10971489Y2341515D01*
X10994985Y2365012D01*
X11011600Y2393789D01*
X11020200Y2425885D01*
Y2459115D01*
X11011600Y2491211D01*
X10994985Y2519989D01*
X10971489Y2543485D01*
X10942711Y2560100D01*
X10910615Y2568700D01*
D02*
G37*
G36*
X10474900Y2446547D02*
X10470853Y2442500D01*
X10474900Y2438453D01*
Y2446547D01*
D02*
G37*
G36*
X10297100D02*
Y2438453D01*
X10301147Y2442500D01*
X10297100Y2446547D01*
D02*
G37*
G36*
X10386000Y2357647D02*
X10381953Y2353600D01*
X10390047D01*
X10386000Y2357647D01*
D02*
G37*
G36*
X11257525Y2767900D02*
X11237475D01*
X11218951Y2760227D01*
X11204773Y2746049D01*
X11197100Y2727525D01*
Y2707475D01*
X11204536Y2689523D01*
Y2365812D01*
X11201228Y2362504D01*
X11193555Y2343980D01*
Y2323930D01*
X11201228Y2305406D01*
X11215406Y2291228D01*
X11233930Y2283555D01*
X11253980D01*
X11272504Y2291228D01*
X11286682Y2305406D01*
X11294355Y2323930D01*
Y2343980D01*
X11286919Y2361932D01*
Y2685643D01*
X11290227Y2688951D01*
X11297900Y2707475D01*
Y2727525D01*
X11290227Y2746049D01*
X11276049Y2760227D01*
X11257525Y2767900D01*
D02*
G37*
G36*
X11390025Y2750400D02*
X11369975D01*
X11351451Y2742727D01*
X11337273Y2728549D01*
X11329600Y2710025D01*
Y2689975D01*
X11337273Y2671451D01*
X11338809Y2669915D01*
Y2360085D01*
X11337273Y2358549D01*
X11329600Y2340025D01*
Y2319975D01*
X11337273Y2301451D01*
X11351451Y2287273D01*
X11369975Y2279600D01*
X11390025D01*
X11408549Y2287273D01*
X11422727Y2301451D01*
X11430400Y2319975D01*
Y2340025D01*
X11422727Y2358549D01*
X11421192Y2360085D01*
Y2669915D01*
X11422727Y2671451D01*
X11430400Y2689975D01*
Y2710025D01*
X11422727Y2728549D01*
X11408549Y2742727D01*
X11390025Y2750400D01*
D02*
G37*
G36*
X8864876Y2181400D02*
X8844825D01*
X8826301Y2173727D01*
X8812124Y2159549D01*
X8804451Y2141025D01*
Y2138853D01*
X8632973Y1967376D01*
X8624044Y1954013D01*
X8620909Y1938250D01*
Y1896192D01*
X7746220D01*
X7730025Y1902900D01*
X7709975D01*
X7691451Y1895227D01*
X7677273Y1881049D01*
X7669600Y1862525D01*
Y1842475D01*
X7677273Y1823951D01*
X7691451Y1809773D01*
X7709975Y1802100D01*
X7730025D01*
X7748549Y1809773D01*
X7752585Y1813809D01*
X8632015D01*
X8633551Y1812273D01*
X8652075Y1804600D01*
X8672125D01*
X8690649Y1812273D01*
X8704827Y1826451D01*
X8712500Y1844975D01*
Y1865025D01*
X8704827Y1883549D01*
X8703291Y1885085D01*
Y1921188D01*
X8862704Y2080600D01*
X8864876D01*
X8883400Y2088273D01*
X8897577Y2102451D01*
X8905250Y2120975D01*
Y2141025D01*
X8897577Y2159549D01*
X8883400Y2173727D01*
X8864876Y2181400D01*
D02*
G37*
G36*
X10065026Y2789930D02*
X10044976D01*
X10026451Y2782257D01*
X10012274Y2768079D01*
X10004601Y2749555D01*
Y2729505D01*
X10012274Y2710981D01*
X10013809Y2709445D01*
Y2335135D01*
X10016945Y2319372D01*
X10023809Y2309100D01*
Y1943216D01*
X9882373Y1801780D01*
X9882234Y1801572D01*
X9872951Y1797727D01*
X9858773Y1783549D01*
X9851100Y1765025D01*
Y1744975D01*
X9858773Y1726451D01*
X9872951Y1712273D01*
X9891475Y1704600D01*
X9911525D01*
X9930049Y1712273D01*
X9944227Y1726451D01*
X9951900Y1744975D01*
Y1754800D01*
X10094127Y1897027D01*
X10103056Y1910390D01*
X10106191Y1926154D01*
Y2325136D01*
X10103056Y2340899D01*
X10096192Y2351172D01*
Y2709445D01*
X10097728Y2710981D01*
X10105401Y2729505D01*
Y2749555D01*
X10097728Y2768079D01*
X10083550Y2782257D01*
X10065026Y2789930D01*
D02*
G37*
G36*
X3865000Y2883551D02*
X2915000D01*
X2895317Y2880959D01*
X2884572Y2876509D01*
X2876975Y2873362D01*
X2861224Y2861276D01*
X2546224Y2546276D01*
X2534138Y2530525D01*
X2526541Y2512183D01*
X2523949Y2492500D01*
Y1742500D01*
X2526541Y1722817D01*
X2534138Y1704475D01*
X2546224Y1688724D01*
X2548724Y1686224D01*
X2564475Y1674138D01*
X2582817Y1666541D01*
X2602500Y1663949D01*
X2622183Y1666541D01*
X2640525Y1674138D01*
X2656276Y1686224D01*
X2668362Y1701975D01*
X2675959Y1720317D01*
X2678551Y1740000D01*
X2676051Y1758989D01*
Y2460999D01*
X2946501Y2731449D01*
X3865000D01*
X3884683Y2734041D01*
X3903025Y2741638D01*
X3918776Y2753724D01*
X3930862Y2769475D01*
X3938459Y2787817D01*
X3941051Y2807500D01*
X3938459Y2827184D01*
X3930862Y2845525D01*
X3918776Y2861276D01*
X3903025Y2873362D01*
X3884683Y2880959D01*
X3865000Y2883551D01*
D02*
G37*
G36*
X10997525Y1735400D02*
X10977475D01*
X10958951Y1727727D01*
X10944773Y1713549D01*
X10937100Y1695025D01*
Y1674975D01*
X10944773Y1656451D01*
X10946309Y1654915D01*
Y1597062D01*
X10824647Y1475400D01*
X10822475D01*
X10803951Y1467727D01*
X10789773Y1453549D01*
X10782100Y1435025D01*
Y1414975D01*
X10789773Y1396451D01*
X10803951Y1382273D01*
X10822475Y1374600D01*
X10842525D01*
X10861049Y1382273D01*
X10875227Y1396451D01*
X10882900Y1414975D01*
Y1417147D01*
X11016627Y1550873D01*
X11025556Y1564237D01*
X11028691Y1580000D01*
Y1654915D01*
X11030227Y1656451D01*
X11037900Y1674975D01*
Y1695025D01*
X11030227Y1713549D01*
X11016049Y1727727D01*
X10997525Y1735400D01*
D02*
G37*
G36*
X10746498Y1300405D02*
X10726447D01*
X10707923Y1292732D01*
X10693746Y1278554D01*
X10686073Y1260030D01*
Y1239980D01*
X10693746Y1221456D01*
X10707923Y1207278D01*
X10726447Y1199605D01*
X10728619D01*
X10960556Y967668D01*
X10967273Y951451D01*
X10981451Y937273D01*
X10999975Y929600D01*
X11020025D01*
X11038549Y937273D01*
X11052727Y951451D01*
X11060400Y969975D01*
Y990025D01*
X11052727Y1008549D01*
X11038549Y1022727D01*
X11020025Y1030400D01*
X11014331D01*
X10786873Y1257858D01*
Y1260030D01*
X10779199Y1278554D01*
X10765022Y1292732D01*
X10746498Y1300405D01*
D02*
G37*
G36*
X8168610Y1252900D02*
X8151390D01*
X8134756Y1248443D01*
X8119843Y1239833D01*
X8107667Y1227657D01*
X8099057Y1212744D01*
X8094600Y1196110D01*
Y1178890D01*
X8099057Y1162257D01*
X8100966Y1158951D01*
Y881049D01*
X8099057Y877743D01*
X8094600Y861110D01*
Y843890D01*
X8099057Y827256D01*
X8107667Y812343D01*
X8119843Y800167D01*
X8134756Y791557D01*
X8151390Y787100D01*
X8168610D01*
X8185243Y791557D01*
X8200157Y800167D01*
X8212333Y812343D01*
X8220943Y827256D01*
X8225400Y843890D01*
Y861110D01*
X8220943Y877743D01*
X8219034Y881049D01*
Y1158951D01*
X8220943Y1162257D01*
X8225400Y1178890D01*
Y1196110D01*
X8220943Y1212744D01*
X8212333Y1227657D01*
X8200157Y1239833D01*
X8185243Y1248443D01*
X8168610Y1252900D01*
D02*
G37*
G36*
X4108610Y1455400D02*
X4091390D01*
X4074756Y1450943D01*
X4059843Y1442333D01*
X4047667Y1430157D01*
X4039057Y1415244D01*
X4034600Y1398610D01*
Y1381390D01*
X4039057Y1364756D01*
X4043613Y1356866D01*
Y881102D01*
X4037667Y875156D01*
X4029057Y860243D01*
X4024600Y843610D01*
Y826390D01*
X4029057Y809756D01*
X4037667Y794843D01*
X4049843Y782667D01*
X4064756Y774057D01*
X4081390Y769600D01*
X4098610D01*
X4115243Y774057D01*
X4130157Y782667D01*
X4142333Y794843D01*
X4150943Y809756D01*
X4155400Y826390D01*
Y843610D01*
X4150943Y860243D01*
X4146387Y868134D01*
Y1343898D01*
X4152333Y1349843D01*
X4160943Y1364756D01*
X4165400Y1381390D01*
Y1398610D01*
X4160943Y1415244D01*
X4152333Y1430157D01*
X4140157Y1442333D01*
X4125243Y1450943D01*
X4108610Y1455400D01*
D02*
G37*
G36*
X1883521Y652700D02*
X1856479D01*
X1853066Y651785D01*
X1870000Y634852D01*
X1886933Y651786D01*
X1883521Y652700D01*
D02*
G37*
G36*
X5333610Y882900D02*
X5316390D01*
X5299756Y878443D01*
X5284843Y869833D01*
X5272667Y857657D01*
X5264057Y842744D01*
X5259600Y826110D01*
Y808890D01*
X5264057Y792256D01*
X5272667Y777343D01*
X5284843Y765167D01*
X5299756Y756557D01*
X5316390Y752100D01*
X5333610D01*
X5350243Y756557D01*
X5365156Y765167D01*
X5366102Y766113D01*
X5634565D01*
X5747450Y653227D01*
Y651890D01*
X5751907Y635256D01*
X5760517Y620343D01*
X5772693Y608167D01*
X5787606Y599557D01*
X5804240Y595100D01*
X5821460D01*
X5838093Y599557D01*
X5853007Y608167D01*
X5865183Y620343D01*
X5873793Y635256D01*
X5878250Y651890D01*
Y669110D01*
X5873793Y685743D01*
X5865183Y700656D01*
X5853007Y712833D01*
X5838093Y721443D01*
X5821460Y725900D01*
X5820122D01*
X5692186Y853836D01*
X5675515Y864976D01*
X5655850Y868887D01*
X5366102D01*
X5365156Y869833D01*
X5350243Y878443D01*
X5333610Y882900D01*
D02*
G37*
G36*
X1768214Y566932D02*
X1767300Y563521D01*
Y536479D01*
X1768214Y533067D01*
X1785147Y549999D01*
X1768214Y566932D01*
D02*
G37*
G36*
X1971786Y566933D02*
X1954852Y549999D01*
X1971785Y533066D01*
X1972700Y536479D01*
Y563521D01*
X1971786Y566933D01*
D02*
G37*
G36*
X1870000Y465147D02*
X1853067Y448214D01*
X1856479Y447300D01*
X1883521D01*
X1886932Y448214D01*
X1870000Y465147D01*
D02*
G37*
G36*
X2510000Y690000D02*
X2230000D01*
Y410000D01*
X2510000D01*
Y690000D01*
D02*
G37*
G36*
X1388431D02*
X1351569D01*
X1315962Y680459D01*
X1284038Y662028D01*
X1257972Y635962D01*
X1239541Y604038D01*
X1230000Y568431D01*
Y531569D01*
X1239541Y495962D01*
X1257972Y464038D01*
X1284038Y437972D01*
X1315962Y419541D01*
X1351569Y410000D01*
X1388431D01*
X1424038Y419541D01*
X1455962Y437972D01*
X1482028Y464038D01*
X1500459Y495962D01*
X1510000Y531569D01*
Y568431D01*
X1500459Y604038D01*
X1482028Y635962D01*
X1455962Y662028D01*
X1424038Y680459D01*
X1388431Y690000D01*
D02*
G37*
G36*
X12124623Y650000D02*
X12075377D01*
X12027078Y640392D01*
X11981581Y621547D01*
X11940634Y594187D01*
X11905813Y559365D01*
X11878453Y518419D01*
X11859608Y472922D01*
X11850000Y424623D01*
Y375377D01*
X11859608Y327078D01*
X11878453Y281581D01*
X11905813Y240635D01*
X11940634Y205813D01*
X11981581Y178453D01*
X12027078Y159608D01*
X12075377Y150000D01*
X12124623D01*
X12172922Y159608D01*
X12218419Y178453D01*
X12259365Y205813D01*
X12294187Y240635D01*
X12321547Y281581D01*
X12340392Y327078D01*
X12350000Y375377D01*
Y424623D01*
X12340392Y472922D01*
X12321547Y518419D01*
X12294187Y559365D01*
X12259365Y594187D01*
X12218419Y621547D01*
X12172922Y640392D01*
X12124623Y650000D01*
D02*
G37*
G36*
X424623D02*
X375377D01*
X327078Y640392D01*
X281581Y621547D01*
X240635Y594187D01*
X205813Y559365D01*
X178453Y518419D01*
X159608Y472922D01*
X150000Y424623D01*
Y375377D01*
X159608Y327078D01*
X178453Y281581D01*
X205813Y240635D01*
X240635Y205813D01*
X281581Y178453D01*
X327078Y159608D01*
X375377Y150000D01*
X424623D01*
X472922Y159608D01*
X518419Y178453D01*
X559365Y205813D01*
X594187Y240635D01*
X621547Y281581D01*
X640392Y327078D01*
X650000Y375377D01*
Y424623D01*
X640392Y472922D01*
X621547Y518419D01*
X594187Y559365D01*
X559365Y594187D01*
X518419Y621547D01*
X472922Y640392D01*
X424623Y650000D01*
D02*
G37*
G36*
X11309749Y404750D02*
X11280251D01*
X11251319Y398995D01*
X11224067Y387707D01*
X11199540Y371318D01*
X11178681Y350460D01*
X11162293Y325933D01*
X11151005Y298680D01*
X11145250Y269749D01*
Y240251D01*
X11151005Y211320D01*
X11162293Y184067D01*
X11178681Y159540D01*
X11199540Y138682D01*
X11224067Y122293D01*
X11251319Y111005D01*
X11280251Y105250D01*
X11309749D01*
X11338680Y111005D01*
X11365933Y122293D01*
X11390460Y138682D01*
X11411318Y159540D01*
X11427706Y184067D01*
X11438995Y211320D01*
X11444750Y240251D01*
Y269749D01*
X11438995Y298680D01*
X11427706Y325933D01*
X11411318Y350460D01*
X11390460Y371318D01*
X11365933Y387707D01*
X11338680Y398995D01*
X11309749Y404750D01*
D02*
G37*
G36*
X10594749D02*
X10565251D01*
X10536320Y398995D01*
X10509067Y387707D01*
X10484540Y371318D01*
X10463682Y350460D01*
X10447293Y325933D01*
X10436005Y298680D01*
X10430250Y269749D01*
Y240251D01*
X10436005Y211320D01*
X10447293Y184067D01*
X10463682Y159540D01*
X10484540Y138682D01*
X10509067Y122293D01*
X10536320Y111005D01*
X10565251Y105250D01*
X10594749D01*
X10623680Y111005D01*
X10650933Y122293D01*
X10675460Y138682D01*
X10696318Y159540D01*
X10712707Y184067D01*
X10723995Y211320D01*
X10729750Y240251D01*
Y269749D01*
X10723995Y298680D01*
X10712707Y325933D01*
X10696318Y350460D01*
X10675460Y371318D01*
X10650933Y387707D01*
X10623680Y398995D01*
X10594749Y404750D01*
D02*
G37*
%LPD*%
D12*
X2699000Y3422500D02*
D03*
X2861000D02*
D03*
D14*
X10527500Y4091000D02*
D03*
Y3929000D02*
D03*
X10337500Y4091000D02*
D03*
Y3929000D02*
D03*
X8757500Y3227000D02*
D03*
Y3065000D02*
D03*
X8247500Y2270500D02*
D03*
Y2432500D02*
D03*
X6810000Y2419000D02*
D03*
Y2581000D02*
D03*
X6050000Y2419000D02*
D03*
Y2581000D02*
D03*
D16*
X5940000Y3847500D02*
D03*
X5750000D02*
D03*
D34*
X8160000Y855000D02*
Y1187500D01*
D35*
X10055001Y2335135D02*
Y2739530D01*
Y2335135D02*
X10065000Y2325136D01*
Y1926154D02*
Y2325136D01*
X9911500Y1770412D02*
Y1772654D01*
X10065000Y1926154D01*
X9901500Y1755000D02*
Y1760412D01*
X9911500Y1770412D01*
X8662100Y1938250D02*
X8854850Y2131000D01*
X8662100Y1855000D02*
Y1938250D01*
X7720000Y1852500D02*
X7722500Y1855000D01*
X8662100D01*
X11380000Y2330000D02*
Y2700000D01*
X11243955Y2333955D02*
X11245727Y2335727D01*
Y2715727D01*
X11247500Y2717500D01*
X10832500Y1425000D02*
X10987500Y1580000D01*
Y1685000D01*
X11006477Y980000D02*
X11010000D01*
X10736473Y1250005D02*
X11006477Y980000D01*
X8160000Y852500D02*
Y855000D01*
D36*
X6809500Y2836500D02*
X6810000Y2836000D01*
Y2581000D02*
Y2836000D01*
X6048750Y2591000D02*
X6049750Y2590000D01*
X6050000D01*
X6047500Y2836500D02*
X6048750Y2835250D01*
Y2591000D02*
Y2835250D01*
X2600000Y1742500D02*
X2602500Y1740000D01*
X2600000Y1742500D02*
Y2492500D01*
X2915000Y2807500D01*
X2862000Y3424000D02*
X3136750D01*
X2861000Y3422500D02*
Y3423000D01*
X2862000Y3424000D01*
X2937500Y2557500D02*
X3942500D01*
X2915000Y2807500D02*
X3865000D01*
X2370000Y550000D02*
Y567500D01*
X2375000Y572500D01*
X8245000Y2472500D02*
Y2736500D01*
X8248500Y2740000D01*
X8247500Y2432500D02*
Y2470000D01*
X8245000Y2472500D02*
X8247500Y2470000D01*
D37*
X6072500Y3847500D02*
X6819258Y4594258D01*
Y4858742D01*
X6809500Y4868500D02*
X6819258Y4858742D01*
X5940000Y3847500D02*
X6072500D01*
X2787500Y4186000D02*
X3126000Y3847500D01*
X5750000D01*
X4057500Y4186000D02*
Y4439999D01*
X4057499Y4440000D02*
X4057500D01*
X4057499Y4440000D02*
X4057500Y4439999D01*
X4057499Y4440000D02*
X4057499Y4440000D01*
D39*
X4095000Y1385000D02*
X4100000Y1390000D01*
X4095000Y840000D02*
Y1385000D01*
X4090000Y835000D02*
X4095000Y840000D01*
X8502500Y3107500D02*
X8622000Y3227000D01*
X8757500D01*
X8502500Y2740000D02*
Y3107500D01*
X8757500Y3227000D02*
Y3827500D01*
X10141500Y3929000D02*
X10337500D01*
X9277500Y3065000D02*
X10141500Y3929000D01*
X8757500Y3065000D02*
X9277500D01*
X10337500Y3929000D02*
X10358500D01*
X10527500D02*
X10765300D01*
X10768800Y3925500D01*
X10360000Y3927500D02*
X10361500Y3929000D01*
X10527500D01*
X10358500D02*
X10360000Y3927500D01*
X8756500Y2740000D02*
X8757500Y2741000D01*
Y3065000D01*
X5325000Y817500D02*
X5655850D01*
X5812850Y660500D01*
D43*
X12100000Y400000D02*
D03*
X400000D02*
D03*
Y7400000D02*
D03*
X12100000D02*
D03*
D44*
X2370000Y550000D02*
D03*
D45*
X1870000D02*
D03*
X1370000D02*
D03*
X5285500Y2836500D02*
D03*
X6047500D02*
D03*
X6809500D02*
D03*
X5285500Y4868500D02*
D03*
X6809500D02*
D03*
D46*
X10060000Y7317500D02*
D03*
D47*
Y6817500D02*
D03*
D48*
X11295000Y255000D02*
D03*
X10580000D02*
D03*
D49*
X3136750Y3424000D02*
D03*
X3327250D02*
D03*
X3517750D02*
D03*
X3708250D02*
D03*
D50*
X4057500Y4186000D02*
D03*
Y4440000D02*
D03*
Y4694000D02*
D03*
X2787500D02*
D03*
Y4440000D02*
D03*
Y4186000D02*
D03*
D51*
X10894000Y2188500D02*
D03*
X10386000D02*
D03*
X10640000D02*
D03*
X10386000Y2442500D02*
D03*
X10640000D02*
D03*
X10894000D02*
D03*
X12240000Y2769000D02*
D03*
Y3023000D02*
D03*
Y3277000D02*
D03*
Y3531000D02*
D03*
Y3785000D02*
D03*
D52*
X11675000Y4925000D02*
D03*
Y5877500D02*
D03*
X850000Y5210000D02*
D03*
Y6162500D02*
D03*
D53*
X10062500Y5682500D02*
D03*
Y4682500D02*
D03*
D54*
X2272500Y4965000D02*
D03*
D55*
Y5965000D02*
D03*
Y6715000D02*
D03*
Y7465000D02*
D03*
D56*
X5070000Y5947500D02*
D03*
Y7447500D02*
D03*
D57*
X8756500Y2740000D02*
D03*
X8502500D02*
D03*
X8248500D02*
D03*
D58*
X7994500D02*
D03*
D59*
X10189683Y2632379D02*
D03*
Y2527353D02*
D03*
X9941500D02*
D03*
X9735000Y2576945D02*
D03*
X6155002Y3107500D02*
D03*
X12155000Y2507500D02*
D03*
X12305000Y1607500D02*
D03*
X12155000Y1307500D02*
D03*
X12305000Y1007500D02*
D03*
X12155000Y707500D02*
D03*
X12005000Y3407500D02*
D03*
X11855000Y3107500D02*
D03*
X12005000Y2807500D02*
D03*
Y1607500D02*
D03*
X11855000Y1307500D02*
D03*
X12005000Y1007500D02*
D03*
X11855000Y707500D02*
D03*
X11705000Y3407500D02*
D03*
Y2807500D02*
D03*
Y1007500D02*
D03*
X11555000Y707500D02*
D03*
X11705000Y407501D02*
D03*
X11405000Y3407500D02*
D03*
Y2207500D02*
D03*
Y1007500D02*
D03*
Y407501D02*
D03*
X10955000Y3107500D02*
D03*
X11105000Y2807500D02*
D03*
X10955000Y1307500D02*
D03*
X10805000Y3407500D02*
D03*
X10655001Y3107500D02*
D03*
X10355001D02*
D03*
Y1907500D02*
D03*
Y1307500D02*
D03*
Y707500D02*
D03*
X10055001Y3107500D02*
D03*
X10205001Y1007500D02*
D03*
X10055001Y707500D02*
D03*
X10205001Y407501D02*
D03*
X10055001Y107501D02*
D03*
X9755001Y3107500D02*
D03*
Y1907500D02*
D03*
X9905001Y1007500D02*
D03*
X9755001Y707500D02*
D03*
Y107501D02*
D03*
X9455001Y1307500D02*
D03*
X9605001Y407501D02*
D03*
X9305001Y1607500D02*
D03*
X9155001Y1307500D02*
D03*
X9005001Y1607500D02*
D03*
X8855001Y1307500D02*
D03*
X9005001Y407501D02*
D03*
X8855001Y107501D02*
D03*
X8555001Y2507500D02*
D03*
Y707500D02*
D03*
X8705001Y407501D02*
D03*
X8555001Y107501D02*
D03*
X8255001Y1307500D02*
D03*
Y707500D02*
D03*
X8405001Y407501D02*
D03*
X8255001Y107501D02*
D03*
X7955001Y2507500D02*
D03*
Y1307500D02*
D03*
Y707500D02*
D03*
X8105001Y407501D02*
D03*
X7955001Y107501D02*
D03*
X7805001Y2807500D02*
D03*
X7655001Y2507500D02*
D03*
X7805001Y2207500D02*
D03*
X7655001Y1907500D02*
D03*
X7805001Y1607500D02*
D03*
X7655001Y1307500D02*
D03*
Y707500D02*
D03*
X7505002Y2807500D02*
D03*
X7355002Y2507500D02*
D03*
X7505002Y2207500D02*
D03*
X7355002Y1907500D02*
D03*
X7205002Y2807500D02*
D03*
X7055002Y2507500D02*
D03*
X7205002Y2207500D02*
D03*
X7055002Y1907500D02*
D03*
X7205002Y1607500D02*
D03*
Y407501D02*
D03*
X6905002Y2207500D02*
D03*
X6755002Y1907500D02*
D03*
X6905002Y1607500D02*
D03*
X6605002Y2807500D02*
D03*
X6455002Y2507500D02*
D03*
X6605002Y2207500D02*
D03*
X6455002Y1907500D02*
D03*
X6605002Y407501D02*
D03*
X6305002Y2807500D02*
D03*
Y2207500D02*
D03*
X6155002Y1907500D02*
D03*
Y1307500D02*
D03*
X5855002Y2507500D02*
D03*
X6005002Y2207500D02*
D03*
X5855002Y1907500D02*
D03*
X6005002Y1607500D02*
D03*
X5855002Y1307500D02*
D03*
X6005002Y1007500D02*
D03*
Y407501D02*
D03*
X5555002Y2507500D02*
D03*
X5705002Y2207500D02*
D03*
X5555002Y1907500D02*
D03*
X5705002Y1007500D02*
D03*
X5405002Y2207500D02*
D03*
X5255002Y1307500D02*
D03*
X4955002Y2507500D02*
D03*
X5105002Y2207500D02*
D03*
X4955002Y1907500D02*
D03*
X5105002Y1607500D02*
D03*
X4955002Y1307500D02*
D03*
X4655002Y2507500D02*
D03*
X4805002Y2207500D02*
D03*
X4655002Y1907500D02*
D03*
X4805002Y1607500D02*
D03*
X4655002Y1307500D02*
D03*
X4805002Y1007500D02*
D03*
X4355002Y2507500D02*
D03*
X4505002Y2207500D02*
D03*
X4355002Y1907500D02*
D03*
X4505002Y1607500D02*
D03*
X4355002Y1307500D02*
D03*
X4055003Y2507500D02*
D03*
X4205003Y2207500D02*
D03*
Y1607500D02*
D03*
X3905003D02*
D03*
Y407501D02*
D03*
X3605003Y1607500D02*
D03*
X3455003Y1307500D02*
D03*
X3605003Y407501D02*
D03*
X3305003Y1607500D02*
D03*
Y1007500D02*
D03*
X3155003Y707500D02*
D03*
X3305003Y407501D02*
D03*
X2855003Y3107500D02*
D03*
X3005003Y1607500D02*
D03*
Y407501D02*
D03*
X2855003Y107501D02*
D03*
X2555003Y3107500D02*
D03*
X2705003Y407501D02*
D03*
X2555003Y107501D02*
D03*
X2405003Y3407500D02*
D03*
X2255003Y3107500D02*
D03*
X2405003Y2807500D02*
D03*
X2255003Y1907500D02*
D03*
X2405003Y1607500D02*
D03*
X2255003Y1307500D02*
D03*
X2405003Y1007500D02*
D03*
X2255003Y107501D02*
D03*
X2105003Y3407500D02*
D03*
X1955003Y3107500D02*
D03*
X2105003Y2807500D02*
D03*
X1955003Y1907500D02*
D03*
X2105003Y1607500D02*
D03*
X1955003Y1307500D02*
D03*
X2105003Y1007500D02*
D03*
X1955003Y707500D02*
D03*
X2105003Y407501D02*
D03*
X1955003Y107501D02*
D03*
X1805003Y3407500D02*
D03*
X1655003Y3107500D02*
D03*
X1805003Y2807500D02*
D03*
X1655003Y1907500D02*
D03*
X1805003Y1607500D02*
D03*
X1655003Y707500D02*
D03*
X1805003Y407501D02*
D03*
X1655003Y107501D02*
D03*
X1505003Y3407500D02*
D03*
X1355003Y3107500D02*
D03*
X1505003Y2807500D02*
D03*
X1355003Y1907500D02*
D03*
X1505003Y1607500D02*
D03*
X1355003Y1307500D02*
D03*
X1505003Y1007500D02*
D03*
Y407501D02*
D03*
X1355003Y107501D02*
D03*
X1205003Y3407500D02*
D03*
X1055003Y3107500D02*
D03*
Y1307500D02*
D03*
X1205003Y1007500D02*
D03*
X1055003Y707500D02*
D03*
X1205003Y407501D02*
D03*
X1055003Y107501D02*
D03*
X905004Y3407500D02*
D03*
X755004Y3107500D02*
D03*
X905004Y2807500D02*
D03*
X755004Y2507500D02*
D03*
Y1907500D02*
D03*
X905004Y1607500D02*
D03*
X755004Y707500D02*
D03*
X905004Y407501D02*
D03*
X755004Y107501D02*
D03*
X605004Y3407500D02*
D03*
X455004Y3107500D02*
D03*
X605004Y2807500D02*
D03*
X455004Y2507500D02*
D03*
Y1907500D02*
D03*
X605004Y1607500D02*
D03*
X455004Y1307500D02*
D03*
X605004Y1007500D02*
D03*
X455004Y707500D02*
D03*
Y107501D02*
D03*
X305004Y3407500D02*
D03*
X155004Y3107500D02*
D03*
Y1307500D02*
D03*
X305004Y1007500D02*
D03*
X155004Y707500D02*
D03*
Y107501D02*
D03*
D60*
X10055001Y2739530D02*
D03*
X8854850Y2131000D02*
D03*
X2602500Y1740000D02*
D03*
X10975000Y4285555D02*
D03*
X9901500Y1755000D02*
D03*
X3942500Y2557500D02*
D03*
X2937500D02*
D03*
X3865000Y2807500D02*
D03*
X7720000Y1852500D02*
D03*
X11380000Y2700000D02*
D03*
X11247500Y2717500D02*
D03*
X11380000Y2330000D02*
D03*
X11243955Y2333955D02*
D03*
X10768800Y3925500D02*
D03*
X8662100Y1855000D02*
D03*
X10987500Y1685000D02*
D03*
X10832500Y1425000D02*
D03*
X11010000Y980000D02*
D03*
X10736473Y1250005D02*
D03*
D61*
X4100000Y1390000D02*
D03*
X8160000Y1187500D02*
D03*
Y852500D02*
D03*
X5325000Y817500D02*
D03*
X4090000Y835000D02*
D03*
X5812850Y660500D02*
D03*
D62*
X8872500Y3750000D02*
D03*
X8805000Y4202500D02*
D03*
X8507500Y4097500D02*
D03*
X8505000Y3922500D02*
D03*
X8510000Y3750000D02*
D03*
X8905000Y3907500D02*
D03*
X8902500Y4080000D02*
D03*
X9025000Y3842500D02*
D03*
X9020000Y4007500D02*
D03*
X9012500Y4175000D02*
D03*
%TF.MD5,a1171e505ad64cd1e213d7c31fa5afbd*%
M02*
