%TF.GenerationSoftware,Altium Limited,Altium Designer,23.6.0 (18)*%
G04 Layer_Color=255*
%FSLAX45Y45*%
%MOMM*%
%TF.SameCoordinates,1BF17B70-E076-4422-95A1-EF062E3CA17A*%
%TF.FilePolarity,Positive*%
%TF.FileFunction,Pads,Bot*%
%TF.Part,Single*%
G01*
G75*
%TA.AperFunction,SMDPad,CuDef*%
%ADD12R,1.02000X1.47000*%
%ADD14R,1.47000X1.02000*%
%ADD16R,1.00000X1.45000*%
%TA.AperFunction,ViaPad*%
%ADD43C,4.00000*%
%TA.AperFunction,ComponentPad*%
%ADD44R,1.80000X1.80000*%
%ADD45C,1.80000*%
%ADD46C,1.20000*%
%ADD47R,1.20000X1.20000*%
%ADD48C,1.99500*%
%ADD49C,1.31000*%
%ADD50C,2.03000*%
%ADD51C,1.52400*%
%ADD52C,2.78100*%
%ADD53C,1.30000*%
%ADD54R,2.22000X2.22000*%
%ADD55C,2.22000*%
%ADD56C,2.80000*%
%ADD57C,1.50000*%
%ADD58R,1.50000X1.50000*%
D12*
X2699000Y3422500D02*
D03*
X2861000D02*
D03*
D14*
X10527500Y4091000D02*
D03*
Y3929000D02*
D03*
X10337500Y4091000D02*
D03*
Y3929000D02*
D03*
X8757500Y3227000D02*
D03*
Y3065000D02*
D03*
X8247500Y2270500D02*
D03*
Y2432500D02*
D03*
X6810000Y2419000D02*
D03*
Y2581000D02*
D03*
X6050000Y2419000D02*
D03*
Y2581000D02*
D03*
D16*
X5940000Y3847500D02*
D03*
X5750000D02*
D03*
D43*
X12100000Y400000D02*
D03*
X400000D02*
D03*
Y7400000D02*
D03*
X12100000D02*
D03*
D44*
X2370000Y550000D02*
D03*
D45*
X1870000D02*
D03*
X1370000D02*
D03*
X5285500Y2836500D02*
D03*
X6047500D02*
D03*
X6809500D02*
D03*
X5285500Y4868500D02*
D03*
X6809500D02*
D03*
D46*
X10060000Y7317500D02*
D03*
D47*
Y6817500D02*
D03*
D48*
X11295000Y255000D02*
D03*
X10580000D02*
D03*
D49*
X3136750Y3424000D02*
D03*
X3327250D02*
D03*
X3517750D02*
D03*
X3708250D02*
D03*
D50*
X4057500Y4186000D02*
D03*
Y4440000D02*
D03*
Y4694000D02*
D03*
X2787500D02*
D03*
Y4440000D02*
D03*
Y4186000D02*
D03*
D51*
X10894000Y2188500D02*
D03*
X10386000D02*
D03*
X10640000D02*
D03*
X10386000Y2442500D02*
D03*
X10640000D02*
D03*
X10894000D02*
D03*
X12240000Y2769000D02*
D03*
Y3023000D02*
D03*
Y3277000D02*
D03*
Y3531000D02*
D03*
Y3785000D02*
D03*
D52*
X11675000Y4925000D02*
D03*
Y5877500D02*
D03*
X850000Y5210000D02*
D03*
Y6162500D02*
D03*
D53*
X10062500Y5682500D02*
D03*
Y4682500D02*
D03*
D54*
X2272500Y4965000D02*
D03*
D55*
Y5965000D02*
D03*
Y6715000D02*
D03*
Y7465000D02*
D03*
D56*
X5070000Y5947500D02*
D03*
Y7447500D02*
D03*
D57*
X8756500Y2740000D02*
D03*
X8502500D02*
D03*
X8248500D02*
D03*
D58*
X7994500D02*
D03*
%TF.MD5,d90f09248c771c25bebfb56850bb5b70*%
M02*
