%TF.GenerationSoftware,Altium Limited,Altium Designer,23.6.0 (18)*%
G04 Layer_Color=65535*
%FSLAX45Y45*%
%MOMM*%
%TF.SameCoordinates,1BF17B70-E076-4422-95A1-EF062E3CA17A*%
%TF.FilePolarity,Positive*%
%TF.FileFunction,Legend,Top*%
%TF.Part,Single*%
G01*
G75*
%TA.AperFunction,NonConductor*%
%ADD63C,0.10000*%
%ADD64C,0.25400*%
%ADD65C,0.20000*%
%ADD66C,0.25000*%
%ADD67C,0.35000*%
G36*
X11801429Y7723332D02*
X11798462D01*
Y7720365D01*
X11795496D01*
Y7714432D01*
X11792529D01*
Y7711465D01*
X11789562D01*
Y7708498D01*
X11786596D01*
Y7702565D01*
X11783629D01*
Y7699598D01*
X11780662D01*
Y7693665D01*
X11777696D01*
Y7690698D01*
X11774729D01*
Y7687732D01*
X11771762D01*
Y7681798D01*
X11768796D01*
Y7678831D01*
X11765829D01*
Y7672898D01*
X11762862D01*
Y7669932D01*
X11759896D01*
Y7666965D01*
X11756929D01*
Y7661031D01*
X11753962D01*
Y7658065D01*
X11750996D01*
Y7652132D01*
X11748029D01*
Y7649165D01*
X11745062D01*
Y7646198D01*
X11742096D01*
Y7640265D01*
X11739129D01*
Y7637298D01*
X11736162D01*
Y7631365D01*
X11733196D01*
Y7628398D01*
X11730229D01*
Y7622465D01*
X11727262D01*
Y7619498D01*
X11724296D01*
Y7616532D01*
X11721329D01*
Y7610598D01*
X11718362D01*
Y7607631D01*
X11715396D01*
Y7604665D01*
X11712429D01*
Y7598732D01*
X11709462D01*
Y7595765D01*
X11706496D01*
Y7589831D01*
X11703529D01*
Y7586865D01*
X11700562D01*
Y7580931D01*
X11697596D01*
Y7577965D01*
X11694629D01*
Y7574998D01*
X11691662D01*
Y7569065D01*
X11688696D01*
Y7566098D01*
X11685729D01*
Y7563131D01*
X11682762D01*
Y7557198D01*
X11679796D01*
Y7554232D01*
X11676829D01*
Y7548298D01*
X11795496D01*
Y7545332D01*
X11792529D01*
Y7542365D01*
X11789562D01*
Y7536431D01*
X11786596D01*
Y7533465D01*
X11783629D01*
Y7530498D01*
X11780662D01*
Y7527532D01*
X11777696D01*
Y7524565D01*
X11774729D01*
Y7521598D01*
X11771762D01*
Y7518631D01*
X11768796D01*
Y7515665D01*
X11765829D01*
Y7512698D01*
X11762862D01*
Y7506765D01*
X11759896D01*
Y7503798D01*
X11756929D01*
Y7500832D01*
X11753962D01*
Y7497865D01*
X11750996D01*
Y7494898D01*
X11748029D01*
Y7491931D01*
X11745062D01*
Y7488965D01*
X11742096D01*
Y7485998D01*
X11739129D01*
Y7483032D01*
X11736162D01*
Y7477098D01*
X11733196D01*
Y7474132D01*
X11730229D01*
Y7471165D01*
X11727262D01*
Y7468198D01*
X11724296D01*
Y7465231D01*
X11721329D01*
Y7462265D01*
X11718362D01*
Y7459298D01*
X11715396D01*
Y7456332D01*
X11712429D01*
Y7453365D01*
X11709462D01*
Y7447431D01*
X11706496D01*
Y7444465D01*
X11703529D01*
Y7441498D01*
X11700562D01*
Y7438531D01*
X11697596D01*
Y7435565D01*
X11694629D01*
Y7432598D01*
X11691662D01*
Y7429632D01*
X11688696D01*
Y7426665D01*
X11685729D01*
Y7423698D01*
X11682762D01*
Y7417765D01*
X11679796D01*
Y7414798D01*
X11676829D01*
Y7411832D01*
X11673862D01*
Y7408865D01*
X11670896D01*
Y7405898D01*
X11667929D01*
Y7402932D01*
X11664962D01*
Y7399965D01*
X11661996D01*
Y7396998D01*
X11659029D01*
Y7391065D01*
X11656062D01*
Y7388098D01*
X11653096D01*
Y7385132D01*
X11650129D01*
Y7382165D01*
X11647162D01*
Y7379198D01*
X11644196D01*
Y7376231D01*
X11641229D01*
Y7373265D01*
X11638262D01*
Y7370298D01*
X11635296D01*
Y7367331D01*
X11632329D01*
Y7364365D01*
X11629362D01*
Y7358432D01*
X11626396D01*
Y7355465D01*
X11623429D01*
Y7352498D01*
X11620462D01*
Y7349531D01*
X11617496D01*
Y7346565D01*
X11614529D01*
Y7343598D01*
X11611562D01*
Y7340631D01*
X11608596D01*
Y7337665D01*
X11605629D01*
Y7334698D01*
X11602662D01*
Y7331732D01*
X11599696D01*
Y7325798D01*
X11596729D01*
Y7322831D01*
X11593762D01*
Y7319865D01*
X11590796D01*
Y7316898D01*
X11587829D01*
Y7313932D01*
X11584862D01*
Y7310965D01*
X11581896D01*
Y7307998D01*
X11578929D01*
Y7305032D01*
X11575962D01*
Y7299098D01*
X11572996D01*
Y7296131D01*
X11570029D01*
Y7293165D01*
X11567062D01*
Y7290198D01*
X11564096D01*
Y7287232D01*
X11561129D01*
Y7284265D01*
X11558162D01*
Y7281298D01*
X11555196D01*
Y7278331D01*
X11552229D01*
Y7275365D01*
X11549262D01*
Y7269431D01*
X11546296D01*
Y7266465D01*
X11543329D01*
Y7263498D01*
X11540362D01*
Y7260532D01*
X11537396D01*
Y7257565D01*
X11534429D01*
Y7254598D01*
X11531462D01*
Y7251631D01*
X11528496D01*
Y7248665D01*
X11525529D01*
Y7245698D01*
X11522562D01*
Y7239765D01*
X11519596D01*
Y7236798D01*
X11516629D01*
Y7233832D01*
X11513662D01*
Y7230865D01*
X11510696D01*
Y7227898D01*
X11507729D01*
Y7233832D01*
X11510696D01*
Y7239765D01*
X11513662D01*
Y7245698D01*
X11516629D01*
Y7251631D01*
X11519596D01*
Y7260532D01*
X11522562D01*
Y7266465D01*
X11525529D01*
Y7272398D01*
X11528496D01*
Y7278331D01*
X11531462D01*
Y7284265D01*
X11534429D01*
Y7290198D01*
X11537396D01*
Y7296131D01*
X11540362D01*
Y7305032D01*
X11543329D01*
Y7310965D01*
X11546296D01*
Y7316898D01*
X11549262D01*
Y7322831D01*
X11552229D01*
Y7328765D01*
X11555196D01*
Y7334698D01*
X11558162D01*
Y7343598D01*
X11561129D01*
Y7349531D01*
X11564096D01*
Y7355465D01*
X11567062D01*
Y7361398D01*
X11570029D01*
Y7367331D01*
X11572996D01*
Y7373265D01*
X11575962D01*
Y7379198D01*
X11578929D01*
Y7388098D01*
X11581896D01*
Y7394031D01*
X11584862D01*
Y7399965D01*
X11587829D01*
Y7405898D01*
X11590796D01*
Y7411832D01*
X11593762D01*
Y7417765D01*
X11596729D01*
Y7423698D01*
X11599696D01*
Y7429632D01*
X11602662D01*
Y7438531D01*
X11605629D01*
Y7444465D01*
X11608596D01*
Y7447431D01*
X11495862D01*
Y7456332D01*
X11498829D01*
Y7462265D01*
X11501796D01*
Y7471165D01*
X11504762D01*
Y7477098D01*
X11507729D01*
Y7485998D01*
X11510696D01*
Y7491931D01*
X11513662D01*
Y7500832D01*
X11516629D01*
Y7506765D01*
X11519596D01*
Y7515665D01*
X11522562D01*
Y7521598D01*
X11525529D01*
Y7530498D01*
X11528496D01*
Y7536431D01*
X11531462D01*
Y7545332D01*
X11534429D01*
Y7551265D01*
X11537396D01*
Y7560165D01*
X11540362D01*
Y7566098D01*
X11543329D01*
Y7574998D01*
X11546296D01*
Y7580931D01*
X11549262D01*
Y7589831D01*
X11552229D01*
Y7595765D01*
X11555196D01*
Y7604665D01*
X11558162D01*
Y7610598D01*
X11561129D01*
Y7619498D01*
X11564096D01*
Y7625432D01*
X11567062D01*
Y7634331D01*
X11570029D01*
Y7640265D01*
X11572996D01*
Y7643232D01*
Y7646198D01*
Y7649165D01*
X11575962D01*
Y7655098D01*
X11578929D01*
Y7663998D01*
X11581896D01*
Y7669932D01*
X11584862D01*
Y7678831D01*
X11587829D01*
Y7684765D01*
X11590796D01*
Y7693665D01*
X11593762D01*
Y7699598D01*
X11596729D01*
Y7708498D01*
X11599696D01*
Y7714432D01*
X11602662D01*
Y7723332D01*
X11605629D01*
Y7729265D01*
X11801429D01*
Y7723332D01*
D02*
G37*
G36*
X11507729Y7224931D02*
X11504762D01*
Y7227898D01*
X11507729D01*
Y7224931D01*
D02*
G37*
G36*
X10987033Y7015389D02*
X10986344D01*
Y7016078D01*
X10987033D01*
Y7015389D01*
D02*
G37*
G36*
X11898241Y6910980D02*
X11906372D01*
Y6909819D01*
X11912180D01*
Y6908657D01*
X11917987D01*
Y6907495D01*
X11921472D01*
Y6906334D01*
X11926118D01*
Y6905172D01*
X11928441D01*
Y6904011D01*
X11931926D01*
Y6902849D01*
X11934249D01*
Y6901688D01*
X11936572D01*
Y6900526D01*
X11938895D01*
Y6899365D01*
X11941218D01*
Y6898203D01*
X11943542D01*
Y6897041D01*
X11945865D01*
Y6895880D01*
X11948188D01*
Y6894718D01*
X11949349D01*
Y6893557D01*
X11951673D01*
Y6892395D01*
X11953996D01*
Y6891234D01*
X11955157D01*
Y6890072D01*
X11956319D01*
Y6888911D01*
X11957480D01*
Y6887749D01*
X11959803D01*
Y6886587D01*
X11960965D01*
Y6885426D01*
X11962126D01*
Y6884264D01*
X11963288D01*
Y6883103D01*
X11965611D01*
Y6881941D01*
X11966773D01*
Y6880779D01*
X11967934D01*
Y6879618D01*
X11969096D01*
Y6878456D01*
X11970257D01*
Y6877295D01*
X11971419D01*
Y6876133D01*
X11972581D01*
Y6874972D01*
X11973742D01*
Y6873810D01*
X11974904D01*
Y6872649D01*
X11976065D01*
Y6871487D01*
X11977227D01*
Y6870326D01*
X11978388D01*
Y6869164D01*
X11979550D01*
Y6868003D01*
X11980712D01*
Y6865679D01*
X11981873D01*
Y6864518D01*
X11983035D01*
Y6862195D01*
X11984196D01*
Y6859871D01*
X11985358D01*
Y6857548D01*
X11986519D01*
Y6855225D01*
X11987681D01*
Y6851741D01*
X11988842D01*
Y6849418D01*
X11990004D01*
Y6836640D01*
X11988842D01*
Y6831994D01*
X11987681D01*
Y6830832D01*
X11986519D01*
Y6828509D01*
X11985358D01*
Y6827348D01*
X11984196D01*
Y6826186D01*
X11983035D01*
Y6825025D01*
X11981873D01*
Y6823863D01*
X11980712D01*
Y6822702D01*
X11978388D01*
Y6821540D01*
X11977227D01*
Y6820379D01*
X11974904D01*
Y6819217D01*
X11972581D01*
Y6818055D01*
X11970257D01*
Y6816894D01*
X11967934D01*
Y6815732D01*
X11965611D01*
Y6814571D01*
X11963288D01*
Y6813409D01*
X11957480D01*
Y6812247D01*
X11956319D01*
Y6811086D01*
X11947026D01*
Y6809924D01*
X11941218D01*
Y6808763D01*
X11935411D01*
Y6807601D01*
X11928441D01*
Y6806440D01*
X11924957D01*
Y6805278D01*
X11921472D01*
Y6802955D01*
X11920310D01*
Y6801794D01*
X11919149D01*
Y6802955D01*
X11917987D01*
Y6804117D01*
X11914503D01*
Y6802955D01*
X11913341D01*
Y6801794D01*
X11912180D01*
Y6800632D01*
X11911018D01*
Y6798309D01*
X11909856D01*
Y6793663D01*
X11911018D01*
Y6792501D01*
X11915664D01*
Y6791339D01*
X11920310D01*
Y6790178D01*
X11923795D01*
Y6789016D01*
X11926118D01*
Y6787855D01*
X11927280D01*
Y6785532D01*
X11928441D01*
Y6782047D01*
X11929603D01*
Y6778562D01*
X11930765D01*
Y6777401D01*
X11931926D01*
Y6776239D01*
X11933088D01*
Y6775078D01*
X11934249D01*
Y6773916D01*
X11936572D01*
Y6772755D01*
X11937734D01*
Y6771593D01*
X11938895D01*
Y6770431D01*
X11940057D01*
Y6769270D01*
X11941218D01*
Y6768108D01*
X11942380D01*
Y6766947D01*
X11944703D01*
Y6765785D01*
X11945865D01*
Y6764624D01*
X11947026D01*
Y6763462D01*
X11948188D01*
Y6762300D01*
X11949349D01*
Y6761139D01*
X11951673D01*
Y6759977D01*
X11952834D01*
Y6758816D01*
X11953996D01*
Y6757654D01*
X11955157D01*
Y6756493D01*
X11957480D01*
Y6755331D01*
X11958642D01*
Y6754170D01*
X11960965D01*
Y6753008D01*
X11962126D01*
Y6751847D01*
X11963288D01*
Y6750685D01*
X11964450D01*
Y6749523D01*
X11966773D01*
Y6748362D01*
X11967934D01*
Y6747200D01*
X11969096D01*
Y6746039D01*
X11970257D01*
Y6744877D01*
X11972581D01*
Y6741392D01*
X11971419D01*
Y6740231D01*
X11972581D01*
Y6739069D01*
X11973742D01*
Y6740231D01*
X11980712D01*
Y6741392D01*
X11983035D01*
Y6742554D01*
X11986519D01*
Y6743715D01*
X11990004D01*
Y6744877D01*
X11994650D01*
Y6746039D01*
X12003943D01*
Y6747200D01*
X12005104D01*
Y6746039D01*
X12017881D01*
Y6747200D01*
X12024851D01*
Y6748362D01*
X12029497D01*
Y6749523D01*
X12035305D01*
Y6750685D01*
X12039951D01*
Y6751847D01*
X12042274D01*
Y6753008D01*
X12045759D01*
Y6754170D01*
X12049244D01*
Y6755331D01*
X12052728D01*
Y6756493D01*
X12055051D01*
Y6757654D01*
X12057374D01*
Y6758816D01*
X12058536D01*
Y6759977D01*
X12059697D01*
Y6761139D01*
X12060859D01*
Y6762300D01*
X12063182D01*
Y6763462D01*
X12065505D01*
Y6764624D01*
X12066667D01*
Y6766947D01*
X12067829D01*
Y6768108D01*
X12068990D01*
Y6769270D01*
X12071313D01*
Y6770431D01*
X12072475D01*
Y6771593D01*
X12074798D01*
Y6772755D01*
X12087575D01*
Y6771593D01*
X12089898D01*
Y6772755D01*
X12093383D01*
Y6771593D01*
X12108483D01*
Y6772755D01*
X12113129D01*
Y6773916D01*
X12114291D01*
Y6775078D01*
X12115453D01*
Y6776239D01*
X12116614D01*
Y6784370D01*
X12118937D01*
Y6790178D01*
X12117776D01*
Y6789016D01*
X12116614D01*
Y6787855D01*
X12115453D01*
Y6791339D01*
X12114291D01*
Y6792501D01*
X12111968D01*
Y6793663D01*
X12108483D01*
Y6794824D01*
X12106160D01*
Y6795986D01*
X12103837D01*
Y6797147D01*
X12102675D01*
Y6798309D01*
X12100352D01*
Y6799471D01*
X12098029D01*
Y6800632D01*
X12096867D01*
Y6801794D01*
X12094544D01*
Y6802955D01*
X12092221D01*
Y6804117D01*
X12091060D01*
Y6805278D01*
X12088737D01*
Y6806440D01*
X12086413D01*
Y6807601D01*
X12085252D01*
Y6808763D01*
X12084090D01*
Y6809924D01*
X12081767D01*
Y6811086D01*
X12080606D01*
Y6812247D01*
X12079444D01*
Y6813409D01*
X12078282D01*
Y6815732D01*
X12077121D01*
Y6816894D01*
X12075959D01*
Y6818055D01*
X12074798D01*
Y6820379D01*
X12073636D01*
Y6822702D01*
X12072475D01*
Y6825025D01*
X12071313D01*
Y6828509D01*
X12070152D01*
Y6843610D01*
X12071313D01*
Y6847094D01*
X12072475D01*
Y6849418D01*
X12073636D01*
Y6851741D01*
X12074798D01*
Y6852902D01*
X12075959D01*
Y6854064D01*
X12077121D01*
Y6855225D01*
X12078282D01*
Y6856387D01*
X12079444D01*
Y6857548D01*
X12080606D01*
Y6858710D01*
X12081767D01*
Y6859871D01*
X12082929D01*
Y6861033D01*
X12084090D01*
Y6862195D01*
X12086413D01*
Y6863356D01*
X12087575D01*
Y6864518D01*
X12088737D01*
Y6865679D01*
X12091060D01*
Y6866841D01*
X12092221D01*
Y6868003D01*
X12094544D01*
Y6869164D01*
X12096867D01*
Y6870326D01*
X12098029D01*
Y6871487D01*
X12102675D01*
Y6872649D01*
X12104998D01*
Y6873810D01*
X12108483D01*
Y6874972D01*
X12111968D01*
Y6876133D01*
X12116614D01*
Y6877295D01*
X12122422D01*
Y6878456D01*
X12138684D01*
Y6879618D01*
X12144491D01*
Y6878456D01*
X12154945D01*
Y6877295D01*
X12161915D01*
Y6876133D01*
X12165400D01*
Y6874972D01*
X12168884D01*
Y6873810D01*
X12172369D01*
Y6872649D01*
X12175853D01*
Y6871487D01*
X12178177D01*
Y6870326D01*
X12180500D01*
Y6869164D01*
X12181661D01*
Y6868003D01*
X12183985D01*
Y6866841D01*
X12186308D01*
Y6865679D01*
X12188631D01*
Y6864518D01*
X12189792D01*
Y6863356D01*
X12190954D01*
Y6862195D01*
X12193277D01*
Y6861033D01*
X12194438D01*
Y6859871D01*
X12196761D01*
Y6858710D01*
X12197923D01*
Y6857548D01*
X12199085D01*
Y6856387D01*
X12201408D01*
Y6855225D01*
X12202569D01*
Y6854064D01*
X12203731D01*
Y6852902D01*
X12204893D01*
Y6851741D01*
X12206054D01*
Y6850579D01*
X12207216D01*
Y6849418D01*
X12208377D01*
Y6848256D01*
X12209539D01*
Y6847094D01*
X12210700D01*
Y6844771D01*
X12211862D01*
Y6843610D01*
X12213023D01*
Y6842448D01*
X12214185D01*
Y6841287D01*
X12215346D01*
Y6840125D01*
X12216508D01*
Y6838963D01*
X12217670D01*
Y6836640D01*
X12218831D01*
Y6834317D01*
X12219993D01*
Y6830832D01*
X12221154D01*
Y6826186D01*
X12222316D01*
Y6816894D01*
X12221154D01*
Y6813409D01*
X12219993D01*
Y6811086D01*
X12218831D01*
Y6809924D01*
X12217670D01*
Y6808763D01*
X12216508D01*
Y6807601D01*
X12215346D01*
Y6806440D01*
X12214185D01*
Y6804117D01*
X12211862D01*
Y6802955D01*
X12210700D01*
Y6801794D01*
X12209539D01*
Y6800632D01*
X12208377D01*
Y6799471D01*
X12206054D01*
Y6798309D01*
X12202569D01*
Y6797147D01*
X12200246D01*
Y6795986D01*
X12196761D01*
Y6794824D01*
X12193277D01*
Y6795986D01*
X12192115D01*
Y6794824D01*
X12189792D01*
Y6793663D01*
X12187469D01*
Y6792501D01*
X12185146D01*
Y6791339D01*
X12179338D01*
Y6790178D01*
X12171207D01*
Y6789016D01*
X12163076D01*
Y6787855D01*
X12161915D01*
Y6786693D01*
X12160753D01*
Y6783209D01*
X12159592D01*
Y6782047D01*
X12158430D01*
Y6777401D01*
X12157269D01*
Y6775078D01*
X12156107D01*
Y6770431D01*
X12157269D01*
Y6761139D01*
X12158430D01*
Y6759977D01*
X12159592D01*
Y6758816D01*
X12160753D01*
Y6757654D01*
X12161915D01*
Y6756493D01*
X12163076D01*
Y6757654D01*
X12168884D01*
Y6758816D01*
X12170046D01*
Y6759977D01*
X12173530D01*
Y6761139D01*
X12175853D01*
Y6762300D01*
X12177015D01*
Y6763462D01*
X12178177D01*
Y6764624D01*
X12179338D01*
Y6765785D01*
X12180500D01*
Y6766947D01*
X12181661D01*
Y6768108D01*
X12182823D01*
Y6769270D01*
X12183985D01*
Y6770431D01*
X12186308D01*
Y6772755D01*
X12187469D01*
Y6776239D01*
X12188631D01*
Y6779724D01*
X12189792D01*
Y6780886D01*
X12192115D01*
Y6779724D01*
X12193277D01*
Y6778562D01*
X12195600D01*
Y6777401D01*
X12197923D01*
Y6778562D01*
X12199085D01*
Y6779724D01*
X12208377D01*
Y6780886D01*
X12210700D01*
Y6782047D01*
X12216508D01*
Y6783209D01*
X12218831D01*
Y6784370D01*
X12221154D01*
Y6785532D01*
X12225801D01*
Y6786693D01*
X12228124D01*
Y6787855D01*
X12232770D01*
Y6789016D01*
X12236255D01*
Y6790178D01*
X12238578D01*
Y6797147D01*
X12237416D01*
Y6799471D01*
X12236255D01*
Y6801794D01*
X12235093D01*
Y6805278D01*
X12233932D01*
Y6808763D01*
X12232770D01*
Y6813409D01*
X12231608D01*
Y6816894D01*
X12230447D01*
Y6821540D01*
X12229285D01*
Y6837802D01*
X12230447D01*
Y6840125D01*
X12231608D01*
Y6842448D01*
X12232770D01*
Y6845933D01*
X12233932D01*
Y6848256D01*
X12235093D01*
Y6850579D01*
X12236255D01*
Y6851741D01*
X12237416D01*
Y6854064D01*
X12238578D01*
Y6855225D01*
X12239739D01*
Y6857548D01*
X12240901D01*
Y6858710D01*
X12242062D01*
Y6859871D01*
X12243224D01*
Y6861033D01*
X12244385D01*
Y6862195D01*
X12245547D01*
Y6863356D01*
X12246709D01*
Y6864518D01*
X12249032D01*
Y6865679D01*
X12250193D01*
Y6866841D01*
X12251355D01*
Y6868003D01*
X12253678D01*
Y6869164D01*
X12256001D01*
Y6870326D01*
X12257163D01*
Y6871487D01*
X12259486D01*
Y6872649D01*
X12261809D01*
Y6873810D01*
X12264132D01*
Y6874972D01*
X12266455D01*
Y6876133D01*
X12268778D01*
Y6877295D01*
X12271101D01*
Y6878456D01*
X12274586D01*
Y6879618D01*
X12278071D01*
Y6880779D01*
X12281555D01*
Y6881941D01*
X12286202D01*
Y6883103D01*
X12290848D01*
Y6884264D01*
X12300140D01*
Y6885426D01*
X12318725D01*
Y6884264D01*
X12324533D01*
Y6883103D01*
X12329179D01*
Y6881941D01*
X12333825D01*
Y6880779D01*
X12338472D01*
Y6879618D01*
X12340795D01*
Y6878456D01*
X12344280D01*
Y6877295D01*
X12345441D01*
Y6876133D01*
X12347764D01*
Y6874972D01*
X12350087D01*
Y6873810D01*
X12352411D01*
Y6872649D01*
X12353572D01*
Y6871487D01*
X12355895D01*
Y6870326D01*
X12358218D01*
Y6869164D01*
X12359380D01*
Y6868003D01*
X12361703D01*
Y6866841D01*
X12364026D01*
Y6865679D01*
X12365188D01*
Y6864518D01*
X12366349D01*
Y6863356D01*
X12368672D01*
Y6862195D01*
X12369834D01*
Y6861033D01*
X12372157D01*
Y6859871D01*
X12373319D01*
Y6858710D01*
X12374480D01*
Y6857548D01*
X12375642D01*
Y6856387D01*
X12377965D01*
Y6855225D01*
X12379126D01*
Y6854064D01*
X12380288D01*
Y6852902D01*
X12381449D01*
Y6851741D01*
X12383773D01*
Y6849418D01*
X12386096D01*
Y6847094D01*
X12387257D01*
Y6845933D01*
X12388419D01*
Y6844771D01*
X12389581D01*
Y6843610D01*
X12390742D01*
Y6842448D01*
X12391904D01*
Y6841287D01*
X12393065D01*
Y6840125D01*
X12394227D01*
Y6838963D01*
X12395388D01*
Y6837802D01*
X12396550D01*
Y6836640D01*
X12397711D01*
Y6835479D01*
X12398873D01*
Y6834317D01*
X12400034D01*
Y6833156D01*
X12401196D01*
Y6831994D01*
X12402358D01*
Y6830832D01*
X12403519D01*
Y6829671D01*
X12404681D01*
Y6828509D01*
X12405842D01*
Y6827348D01*
X12407004D01*
Y6826186D01*
X12408165D01*
Y6825025D01*
X12409327D01*
Y6823863D01*
X12410489D01*
Y6822702D01*
X12411650D01*
Y6821540D01*
X12412812D01*
Y6820379D01*
X12413973D01*
Y6818055D01*
X12415135D01*
Y6816894D01*
X12416296D01*
Y6815732D01*
X12417458D01*
Y6813409D01*
X12418619D01*
Y6812247D01*
X12419781D01*
Y6811086D01*
X12420943D01*
Y6808763D01*
X12422104D01*
Y6807601D01*
X12423266D01*
Y6805278D01*
X12424427D01*
Y6804117D01*
X12425589D01*
Y6800632D01*
X12426750D01*
Y6799471D01*
X12427912D01*
Y6797147D01*
X12429073D01*
Y6793663D01*
X12430235D01*
Y6789016D01*
X12431397D01*
Y6784370D01*
X12432558D01*
Y6765785D01*
X12431397D01*
Y6762300D01*
X12430235D01*
Y6759977D01*
X12429073D01*
Y6758816D01*
X12427912D01*
Y6756493D01*
X12426750D01*
Y6755331D01*
X12424427D01*
Y6754170D01*
X12423266D01*
Y6753008D01*
X12420943D01*
Y6751847D01*
X12418619D01*
Y6750685D01*
X12416296D01*
Y6749523D01*
X12412812D01*
Y6748362D01*
X12408165D01*
Y6747200D01*
X12404681D01*
Y6746039D01*
X12397711D01*
Y6744877D01*
X12390742D01*
Y6743715D01*
X12382611D01*
Y6742554D01*
X12370996D01*
Y6741392D01*
X12364026D01*
Y6740231D01*
X12365188D01*
Y6739069D01*
X12373319D01*
Y6737908D01*
X12380288D01*
Y6736746D01*
X12387257D01*
Y6735585D01*
X12390742D01*
Y6734423D01*
X12395388D01*
Y6733262D01*
X12397711D01*
Y6732100D01*
X12401196D01*
Y6730939D01*
X12404681D01*
Y6729777D01*
X12408165D01*
Y6728615D01*
X12409327D01*
Y6727454D01*
X12411650D01*
Y6726292D01*
X12412812D01*
Y6725131D01*
X12413973D01*
Y6722807D01*
X12415135D01*
Y6711192D01*
X12416296D01*
Y6704223D01*
X12417458D01*
Y6701899D01*
X12418619D01*
Y6699576D01*
X12419781D01*
Y6698415D01*
X12420943D01*
Y6697253D01*
X12422104D01*
Y6694930D01*
X12423266D01*
Y6693768D01*
X12424427D01*
Y6692607D01*
X12425589D01*
Y6691445D01*
X12426750D01*
Y6690284D01*
X12427912D01*
Y6689122D01*
X12429073D01*
Y6686799D01*
X12430235D01*
Y6685638D01*
X12431397D01*
Y6684476D01*
X12432558D01*
Y6683315D01*
X12433720D01*
Y6682153D01*
X12434881D01*
Y6680991D01*
X12436043D01*
Y6679830D01*
X12437204D01*
Y6677507D01*
X12438366D01*
Y6676345D01*
X12439528D01*
Y6674022D01*
X12440689D01*
Y6670537D01*
X12441851D01*
Y6667053D01*
X12443012D01*
Y6664730D01*
X12444174D01*
Y6660083D01*
X12445335D01*
Y6657760D01*
X12446497D01*
Y6655437D01*
X12447658D01*
Y6653114D01*
X12448820D01*
Y6651952D01*
X12449981D01*
Y6650791D01*
X12451143D01*
Y6649629D01*
X12452305D01*
Y6648468D01*
X12453466D01*
Y6647306D01*
X12454628D01*
Y6644983D01*
X12455789D01*
Y6642660D01*
X12456951D01*
Y6638014D01*
X12458112D01*
Y6631044D01*
X12459274D01*
Y6625236D01*
X12460436D01*
Y6619429D01*
X12461597D01*
Y6598521D01*
X12460436D01*
Y6592713D01*
X12459274D01*
Y6589228D01*
X12458112D01*
Y6585743D01*
X12456951D01*
Y6583420D01*
X12455789D01*
Y6581097D01*
X12454628D01*
Y6579936D01*
X12453466D01*
Y6578774D01*
X12448820D01*
Y6577612D01*
X12445335D01*
Y6576451D01*
X12443012D01*
Y6575289D01*
X12440689D01*
Y6574128D01*
X12438366D01*
Y6572966D01*
X12434881D01*
Y6571805D01*
X12431397D01*
Y6570643D01*
X12430235D01*
Y6569482D01*
X12429073D01*
Y6568320D01*
X12430235D01*
Y6567159D01*
X12431397D01*
Y6564835D01*
X12430235D01*
Y6565997D01*
X12427912D01*
Y6567159D01*
X12425589D01*
Y6568320D01*
X12424427D01*
Y6569482D01*
X12419781D01*
Y6568320D01*
X12417458D01*
Y6567159D01*
X12416296D01*
Y6565997D01*
X12415135D01*
Y6563674D01*
X12413973D01*
Y6559028D01*
X12412812D01*
Y6556704D01*
X12411650D01*
Y6554381D01*
X12410489D01*
Y6550897D01*
X12409327D01*
Y6547412D01*
X12408165D01*
Y6545089D01*
X12407004D01*
Y6542766D01*
X12405842D01*
Y6539281D01*
X12404681D01*
Y6535796D01*
X12403519D01*
Y6532312D01*
X12402358D01*
Y6528827D01*
X12401196D01*
Y6525342D01*
X12400034D01*
Y6521858D01*
X12398873D01*
Y6519535D01*
X12397711D01*
Y6518373D01*
X12396550D01*
Y6517212D01*
X12395388D01*
Y6514888D01*
X12393065D01*
Y6513727D01*
X12391904D01*
Y6512565D01*
X12390742D01*
Y6511404D01*
X12389581D01*
Y6510242D01*
X12388419D01*
Y6509080D01*
X12387257D01*
Y6507919D01*
X12386096D01*
Y6506757D01*
X12384934D01*
Y6505596D01*
X12383773D01*
Y6503273D01*
X12382611D01*
Y6502111D01*
X12218831D01*
Y6503273D01*
X12219993D01*
Y6512565D01*
X12221154D01*
Y6514888D01*
X12222316D01*
Y6520696D01*
X12223477D01*
Y6526504D01*
X12224639D01*
Y6529989D01*
X12225801D01*
Y6534635D01*
X12226962D01*
Y6539281D01*
X12228124D01*
Y6542766D01*
X12229285D01*
Y6548574D01*
X12230447D01*
Y6552058D01*
X12231608D01*
Y6553220D01*
X12232770D01*
Y6561351D01*
X12230447D01*
Y6562512D01*
X12228124D01*
Y6561351D01*
X12226962D01*
Y6560189D01*
X12225801D01*
Y6559028D01*
X12224639D01*
Y6557866D01*
X12223477D01*
Y6556704D01*
X12222316D01*
Y6554381D01*
X12219993D01*
Y6553220D01*
X12216508D01*
Y6554381D01*
X12215346D01*
Y6562512D01*
X12216508D01*
Y6565997D01*
X12217670D01*
Y6568320D01*
X12218831D01*
Y6574128D01*
X12219993D01*
Y6582259D01*
X12221154D01*
Y6591551D01*
X12222316D01*
Y6593874D01*
X12221154D01*
Y6595036D01*
X12210700D01*
Y6593874D01*
X12203731D01*
Y6592713D01*
X12196761D01*
Y6591551D01*
X12188631D01*
Y6590390D01*
X12166561D01*
Y6589228D01*
X12165400D01*
Y6588067D01*
X12164238D01*
Y6586905D01*
X12163076D01*
Y6572966D01*
X12161915D01*
Y6562512D01*
X12160753D01*
Y6553220D01*
X12159592D01*
Y6547412D01*
X12158430D01*
Y6540443D01*
X12157269D01*
Y6535796D01*
X12156107D01*
Y6531150D01*
X12154945D01*
Y6526504D01*
X12153784D01*
Y6521858D01*
X12152622D01*
Y6517212D01*
X12151461D01*
Y6512565D01*
X12150299D01*
Y6510242D01*
X12149138D01*
Y6506757D01*
X12147976D01*
Y6504434D01*
X12146814D01*
Y6502111D01*
X12075959D01*
Y6504434D01*
X12074798D01*
Y6505596D01*
X12073636D01*
Y6506757D01*
X12072475D01*
Y6507919D01*
X12071313D01*
Y6510242D01*
X12070152D01*
Y6511404D01*
X12068990D01*
Y6512565D01*
X12067829D01*
Y6514888D01*
X12066667D01*
Y6516050D01*
X12065505D01*
Y6517212D01*
X12064344D01*
Y6518373D01*
X12063182D01*
Y6520696D01*
X12062021D01*
Y6521858D01*
X12060859D01*
Y6524181D01*
X12059697D01*
Y6526504D01*
X12058536D01*
Y6531150D01*
X12057374D01*
Y6533473D01*
X12058536D01*
Y6543927D01*
X12057374D01*
Y6549735D01*
X12056213D01*
Y6550897D01*
X12050405D01*
Y6549735D01*
X12048082D01*
Y6548574D01*
X12046920D01*
Y6543927D01*
X12045759D01*
Y6542766D01*
X12044597D01*
Y6540443D01*
X12043436D01*
Y6542766D01*
X12036466D01*
Y6543927D01*
X12035305D01*
Y6546251D01*
X12034143D01*
Y6547412D01*
X12027174D01*
Y6548574D01*
X12024851D01*
Y6549735D01*
X12019043D01*
Y6550897D01*
X12007427D01*
Y6549735D01*
X12001620D01*
Y6550897D01*
X11998135D01*
Y6552058D01*
X11993489D01*
Y6553220D01*
X11992327D01*
Y6555543D01*
X11991166D01*
Y6556704D01*
X11990004D01*
Y6557866D01*
X11988842D01*
Y6559028D01*
X11987681D01*
Y6561351D01*
X11986519D01*
Y6563674D01*
X11985358D01*
Y6564835D01*
X11984196D01*
Y6565997D01*
X11983035D01*
Y6567159D01*
X11981873D01*
Y6568320D01*
X11980712D01*
Y6569482D01*
X11979550D01*
Y6570643D01*
X11978388D01*
Y6571805D01*
X11977227D01*
Y6572966D01*
X11976065D01*
Y6574128D01*
X11974904D01*
Y6576451D01*
X11973742D01*
Y6577612D01*
X11972581D01*
Y6578774D01*
X11971419D01*
Y6579936D01*
X11970257D01*
Y6581097D01*
X11969096D01*
Y6582259D01*
X11967934D01*
Y6583420D01*
X11965611D01*
Y6584582D01*
X11964450D01*
Y6585743D01*
X11963288D01*
Y6586905D01*
X11962126D01*
Y6588067D01*
X11960965D01*
Y6589228D01*
X11958642D01*
Y6590390D01*
X11957480D01*
Y6592713D01*
X11956319D01*
Y6593874D01*
X11955157D01*
Y6595036D01*
X11953996D01*
Y6596198D01*
X11952834D01*
Y6597359D01*
X11951673D01*
Y6600844D01*
X11950511D01*
Y6604328D01*
X11949349D01*
Y6606652D01*
X11948188D01*
Y6610136D01*
X11947026D01*
Y6612459D01*
X11945865D01*
Y6615944D01*
X11944703D01*
Y6618267D01*
X11943542D01*
Y6617106D01*
X11942380D01*
Y6585743D01*
X11943542D01*
Y6581097D01*
X11944703D01*
Y6572966D01*
X11943542D01*
Y6564835D01*
X11942380D01*
Y6561351D01*
X11943542D01*
Y6560189D01*
X11942380D01*
Y6559028D01*
X11943542D01*
Y6552058D01*
X11944703D01*
Y6547412D01*
X11945865D01*
Y6542766D01*
X11947026D01*
Y6540443D01*
X11948188D01*
Y6533473D01*
X11949349D01*
Y6524181D01*
X11950511D01*
Y6516050D01*
X11951673D01*
Y6509080D01*
X11952834D01*
Y6507919D01*
X11951673D01*
Y6502111D01*
X11787893D01*
Y6507919D01*
X11786731D01*
Y6514888D01*
X11787893D01*
Y6517212D01*
X11789054D01*
Y6520696D01*
X11790216D01*
Y6529989D01*
X11792539D01*
Y6531150D01*
X11793701D01*
Y6532312D01*
X11794862D01*
Y6533473D01*
X11797185D01*
Y6535796D01*
X11796024D01*
Y6536958D01*
X11792539D01*
Y6538120D01*
X11790216D01*
Y6539281D01*
X11787893D01*
Y6540443D01*
X11785570D01*
Y6541604D01*
X11784408D01*
Y6543927D01*
X11783246D01*
Y6550897D01*
X11782085D01*
Y6562512D01*
X11780923D01*
Y6570643D01*
X11779762D01*
Y6577612D01*
X11778600D01*
Y6595036D01*
X11779762D01*
Y6605490D01*
X11780923D01*
Y6611298D01*
X11782085D01*
Y6614783D01*
X11780923D01*
Y6615944D01*
X11777439D01*
Y6617106D01*
X11773954D01*
Y6618267D01*
X11771631D01*
Y6619429D01*
X11769308D01*
Y6620590D01*
X11766985D01*
Y6621752D01*
X11765823D01*
Y6622913D01*
X11763500D01*
Y6624075D01*
X11762338D01*
Y6625236D01*
X11761177D01*
Y6626398D01*
X11760015D01*
Y6628721D01*
X11758854D01*
Y6629883D01*
X11757692D01*
Y6631044D01*
X11756530D01*
Y6633367D01*
X11755369D01*
Y6635691D01*
X11754207D01*
Y6638014D01*
X11753046D01*
Y6641498D01*
X11751884D01*
Y6644983D01*
X11750723D01*
Y6650791D01*
X11749561D01*
Y6655437D01*
X11748400D01*
Y6675183D01*
X11749561D01*
Y6678668D01*
X11750723D01*
Y6680991D01*
X11751884D01*
Y6683315D01*
X11753046D01*
Y6685638D01*
X11754207D01*
Y6686799D01*
X11755369D01*
Y6689122D01*
X11756530D01*
Y6691445D01*
X11757692D01*
Y6693768D01*
X11758854D01*
Y6696092D01*
X11760015D01*
Y6698415D01*
X11758854D01*
Y6701899D01*
X11757692D01*
Y6711192D01*
X11758854D01*
Y6730939D01*
X11760015D01*
Y6741392D01*
X11761177D01*
Y6744877D01*
X11762338D01*
Y6746039D01*
X11763500D01*
Y6747200D01*
X11764662D01*
Y6748362D01*
X11765823D01*
Y6749523D01*
X11768146D01*
Y6750685D01*
X11770469D01*
Y6751847D01*
X11773954D01*
Y6753008D01*
X11777439D01*
Y6754170D01*
X11779762D01*
Y6755331D01*
X11783246D01*
Y6756493D01*
X11785570D01*
Y6757654D01*
X11789054D01*
Y6758816D01*
X11792539D01*
Y6759977D01*
X11796024D01*
Y6761139D01*
X11798347D01*
Y6762300D01*
X11801831D01*
Y6763462D01*
X11804154D01*
Y6764624D01*
X11806478D01*
Y6765785D01*
X11808801D01*
Y6766947D01*
X11811124D01*
Y6768108D01*
X11813447D01*
Y6769270D01*
X11815770D01*
Y6770431D01*
X11818093D01*
Y6771593D01*
X11820416D01*
Y6772755D01*
X11822739D01*
Y6773916D01*
X11823901D01*
Y6775078D01*
X11825062D01*
Y6776239D01*
X11826224D01*
Y6778562D01*
X11827386D01*
Y6782047D01*
X11828547D01*
Y6785532D01*
X11829709D01*
Y6787855D01*
X11830870D01*
Y6790178D01*
X11832032D01*
Y6791339D01*
X11833194D01*
Y6793663D01*
X11834355D01*
Y6795986D01*
X11835517D01*
Y6792501D01*
X11839001D01*
Y6801794D01*
X11840163D01*
Y6798309D01*
X11841324D01*
Y6799471D01*
X11842486D01*
Y6802955D01*
X11841324D01*
Y6804117D01*
X11842486D01*
Y6808763D01*
X11841324D01*
Y6809924D01*
X11839001D01*
Y6811086D01*
X11837840D01*
Y6812247D01*
X11836678D01*
Y6813409D01*
X11835517D01*
Y6815732D01*
X11834355D01*
Y6818055D01*
X11833194D01*
Y6820379D01*
X11832032D01*
Y6822702D01*
X11830870D01*
Y6823863D01*
X11828547D01*
Y6825025D01*
X11827386D01*
Y6826186D01*
X11823901D01*
Y6827348D01*
X11821578D01*
Y6828509D01*
X11818093D01*
Y6829671D01*
X11814609D01*
Y6830832D01*
X11812285D01*
Y6831994D01*
X11809962D01*
Y6833156D01*
X11806478D01*
Y6834317D01*
X11805316D01*
Y6835479D01*
X11801831D01*
Y6836640D01*
X11800670D01*
Y6837802D01*
X11798347D01*
Y6838963D01*
X11794862D01*
Y6840125D01*
X11793701D01*
Y6841287D01*
X11790216D01*
Y6842448D01*
X11789054D01*
Y6843610D01*
X11786731D01*
Y6844771D01*
X11785570D01*
Y6845933D01*
X11783246D01*
Y6847094D01*
X11780923D01*
Y6848256D01*
X11779762D01*
Y6849418D01*
X11778600D01*
Y6850579D01*
X11777439D01*
Y6851741D01*
X11776277D01*
Y6852902D01*
X11775115D01*
Y6854064D01*
X11773954D01*
Y6855225D01*
X11772792D01*
Y6856387D01*
X11771631D01*
Y6857548D01*
X11770469D01*
Y6858710D01*
X11769308D01*
Y6859871D01*
X11768146D01*
Y6861033D01*
X11766985D01*
Y6862195D01*
X11765823D01*
Y6864518D01*
X11764662D01*
Y6865679D01*
X11763500D01*
Y6869164D01*
X11762338D01*
Y6873810D01*
X11763500D01*
Y6878456D01*
X11764662D01*
Y6880779D01*
X11765823D01*
Y6881941D01*
X11766985D01*
Y6884264D01*
X11768146D01*
Y6885426D01*
X11769308D01*
Y6886587D01*
X11771631D01*
Y6887749D01*
X11772792D01*
Y6888911D01*
X11775115D01*
Y6890072D01*
X11776277D01*
Y6891234D01*
X11778600D01*
Y6892395D01*
X11779762D01*
Y6893557D01*
X11782085D01*
Y6894718D01*
X11784408D01*
Y6895880D01*
X11787893D01*
Y6897041D01*
X11790216D01*
Y6898203D01*
X11793701D01*
Y6899365D01*
X11796024D01*
Y6900526D01*
X11799508D01*
Y6901688D01*
X11802993D01*
Y6902849D01*
X11806478D01*
Y6904011D01*
X11812285D01*
Y6905172D01*
X11818093D01*
Y6906334D01*
X11825062D01*
Y6907495D01*
X11833194D01*
Y6908657D01*
X11842486D01*
Y6909819D01*
X11850617D01*
Y6910980D01*
X11862233D01*
Y6912142D01*
X11898241D01*
Y6910980D01*
D02*
G37*
G36*
X1036124Y1784811D02*
X1037227Y1784108D01*
X1037628Y1782704D01*
X1037428Y1760038D01*
X1036525Y1758935D01*
X1035723Y1758734D01*
X1033717Y1758533D01*
X1009145Y1758433D01*
X992195Y1758533D01*
X991593Y1758333D01*
X969428Y1758433D01*
X968726Y1757932D01*
X968426Y1757631D01*
X968024Y1756026D01*
X967924Y1739879D01*
X968225Y1739177D01*
X968927Y1738475D01*
X971334Y1738073D01*
X976951Y1738274D01*
X1022584Y1738174D01*
X1022685Y1738274D01*
X1023286Y1738073D01*
X1030808Y1738174D01*
X1031511Y1737672D01*
X1032012Y1737171D01*
X1032313Y1735867D01*
X1032413Y1714504D01*
X1032213Y1713903D01*
X1031511Y1712599D01*
X1030106Y1712197D01*
X1028401Y1712298D01*
X969228Y1712097D01*
X968526Y1711596D01*
X968024Y1710292D01*
X968225Y1687826D01*
X968726Y1687124D01*
X969529Y1686923D01*
X970231Y1686823D01*
X1037929Y1686923D01*
X1039233Y1686221D01*
X1039634Y1684617D01*
Y1666163D01*
Y1665962D01*
X1039534Y1663054D01*
X1039634Y1661148D01*
X1039032Y1660145D01*
X1038130Y1659844D01*
X929511Y1659744D01*
X928508Y1659944D01*
X927806Y1660446D01*
X927606Y1661248D01*
X927505Y1662151D01*
X927706Y1662753D01*
X927907Y1784108D01*
X928408Y1784811D01*
X929812Y1785011D01*
X1036124Y1784811D01*
D02*
G37*
G36*
X764528D02*
X765430Y1784309D01*
X765831Y1783306D01*
X766032Y1781902D01*
X765831Y1760239D01*
X764929Y1759135D01*
X763926Y1758734D01*
X760716Y1758533D01*
X702445Y1758433D01*
X698133Y1758533D01*
X697531Y1758333D01*
X696528Y1757731D01*
X695826Y1757029D01*
X695425Y1755424D01*
X695324Y1740280D01*
X695525Y1739478D01*
X696127Y1738876D01*
X697130Y1738475D01*
X697932Y1738274D01*
X755401Y1738174D01*
X757707Y1738274D01*
X758309Y1738073D01*
X759312Y1737672D01*
X760014Y1736970D01*
X760215Y1736168D01*
X760416Y1734764D01*
X760215Y1713702D01*
X759312Y1712599D01*
X758510Y1712398D01*
X755501Y1712197D01*
X755100Y1712398D01*
X754498Y1712197D01*
X750185Y1712298D01*
X697631Y1712097D01*
X695926Y1711796D01*
X695224Y1711094D01*
X695024Y1709690D01*
X695124Y1708386D01*
X695024Y1692440D01*
X695224Y1692039D01*
X695024Y1691437D01*
X695224Y1687826D01*
X695926Y1687124D01*
X697330Y1686923D01*
X767336Y1686723D01*
X767837Y1686221D01*
X768038Y1685419D01*
X767837Y1660345D01*
X767336Y1659844D01*
X655006Y1660045D01*
X654705Y1660345D01*
X654505Y1661148D01*
X654705Y1784108D01*
X655407Y1784811D01*
X656811Y1785011D01*
X756103D01*
X764528Y1784811D01*
D02*
G37*
G36*
X572364Y1786616D02*
X578783Y1786415D01*
X579384Y1786215D01*
X584700Y1785914D01*
X586907Y1785713D01*
X589314Y1785513D01*
X590517Y1785312D01*
X591320Y1785111D01*
X592924Y1784510D01*
X593827Y1784008D01*
X594830Y1783607D01*
X596836Y1783406D01*
X597638Y1783206D01*
X599042Y1783005D01*
X600446Y1782203D01*
X601449Y1781601D01*
X602252Y1781401D01*
X603355Y1781100D01*
X604057Y1780799D01*
X605060Y1779796D01*
X606665Y1779395D01*
X607668Y1778993D01*
X608370Y1778291D01*
X608570Y1777890D01*
X610576Y1776687D01*
X611479Y1775784D01*
X611880Y1775583D01*
X613685Y1774179D01*
X614487Y1773377D01*
X614889Y1773177D01*
X615992Y1772073D01*
X616193Y1771672D01*
X616594Y1771271D01*
X616794Y1770870D01*
X618198Y1769466D01*
X618399Y1769064D01*
X619402Y1768061D01*
X619603Y1767660D01*
X620605Y1766256D01*
X620806Y1765855D01*
X621408Y1765253D01*
X622411Y1763448D01*
X623213Y1762244D01*
X623514Y1761141D01*
X623915Y1760138D01*
X624216Y1759837D01*
X624417Y1759436D01*
X624818Y1759035D01*
X625420Y1757631D01*
X625720Y1756327D01*
X625921Y1755525D01*
X626824Y1753820D01*
X626623Y1752014D01*
X625720Y1751112D01*
X624417Y1750811D01*
X621809Y1750610D01*
X619603Y1750410D01*
X618399Y1750209D01*
X617597Y1750008D01*
X616493Y1749708D01*
X615089Y1749306D01*
X613685Y1749106D01*
X612883Y1748905D01*
X609072Y1748705D01*
X607066Y1748504D01*
X605461Y1748304D01*
X602452Y1746899D01*
X601650Y1746699D01*
X593526Y1746398D01*
X592322Y1746197D01*
X591320Y1745796D01*
X591019Y1745495D01*
X590016Y1745094D01*
X588411Y1745295D01*
X587308Y1746197D01*
X586305Y1747602D01*
X584700Y1750610D01*
X583497Y1751814D01*
X583296Y1752215D01*
X580789Y1754722D01*
X580387Y1754923D01*
X579986Y1755324D01*
X579585Y1755525D01*
X579184Y1755926D01*
X573768Y1758533D01*
X572364Y1758935D01*
X571561Y1759135D01*
X568954Y1759336D01*
X566948Y1759536D01*
X557721Y1759336D01*
X557119Y1759135D01*
X555515Y1758935D01*
X554913Y1758734D01*
X553910Y1758333D01*
X552004Y1757631D01*
X550299Y1756728D01*
X547692Y1755324D01*
X544482Y1752917D01*
X542978Y1751814D01*
X542777Y1751413D01*
X541874Y1750309D01*
X541172Y1749607D01*
X540972Y1749206D01*
X539568Y1747401D01*
X537361Y1743189D01*
X536960Y1742787D01*
X536358Y1741383D01*
X536158Y1739979D01*
X535456Y1736669D01*
X534653Y1733460D01*
X534352Y1732357D01*
X534152Y1731554D01*
X533951Y1730150D01*
X533751Y1727543D01*
X533650Y1721625D01*
X533851Y1714605D01*
X534052Y1713000D01*
X534252Y1711997D01*
X534553Y1710894D01*
X534954Y1709490D01*
X535556Y1707083D01*
X535957Y1704676D01*
X536258Y1703372D01*
X536860Y1701767D01*
X537261Y1700764D01*
X538063Y1699560D01*
X538565Y1698457D01*
X538966Y1697454D01*
X539167Y1697053D01*
X540069Y1695950D01*
X540771Y1695047D01*
X540972Y1694646D01*
X541874Y1693543D01*
X542777Y1692640D01*
X542978Y1692239D01*
X544282Y1690935D01*
X546087Y1689932D01*
X546488Y1689331D01*
X546889Y1689130D01*
X548695Y1688127D01*
X549196Y1687626D01*
X549296Y1687325D01*
X550299Y1686923D01*
X552907Y1686723D01*
X554311Y1685920D01*
X555515Y1685118D01*
X556919Y1684918D01*
X557721Y1684717D01*
X566547Y1684316D01*
X567149Y1684516D01*
X573568Y1684717D01*
X574169Y1684918D01*
X575573Y1685118D01*
X577780Y1686522D01*
X578582Y1686723D01*
X581892Y1687024D01*
X582895Y1687425D01*
X583797Y1688328D01*
X585202Y1688729D01*
X586505Y1689030D01*
X588611Y1690534D01*
X590317Y1690835D01*
X591420Y1691537D01*
X592523Y1692640D01*
X592924Y1693643D01*
X592724Y1703472D01*
X592022Y1704375D01*
X590618Y1704977D01*
X589815Y1705177D01*
X568653Y1705277D01*
X566948Y1705177D01*
X566246Y1705679D01*
X565845Y1706681D01*
X565745Y1727843D01*
X565945Y1728846D01*
X566547Y1729448D01*
X567349Y1729649D01*
X570157Y1729448D01*
X570759Y1729649D01*
X573267Y1729548D01*
X625119Y1729649D01*
X625720Y1729448D01*
X627927Y1729649D01*
X629231Y1728947D01*
X629431Y1727543D01*
X629231Y1677596D01*
X628328Y1676693D01*
X627927Y1676493D01*
X627124Y1675691D01*
X624116Y1674086D01*
X623715Y1673685D01*
X623313Y1673484D01*
X622110Y1672682D01*
X621709Y1672481D01*
X619101Y1671077D01*
X617697Y1670074D01*
X616694Y1669673D01*
X614889Y1668670D01*
X613083Y1667868D01*
X611780Y1667366D01*
X611078Y1666865D01*
X610476Y1666263D01*
X610074Y1666062D01*
X609473Y1665862D01*
X608069Y1665661D01*
X607266Y1665460D01*
X606364Y1664758D01*
X606163Y1664357D01*
X605060Y1663856D01*
X602954Y1663555D01*
X601850Y1662853D01*
X601449Y1662452D01*
X600446Y1662051D01*
X598441Y1661850D01*
X596635Y1661649D01*
X595231Y1660646D01*
X593827Y1660045D01*
X593024Y1659844D01*
X587609Y1659643D01*
X587007Y1659443D01*
X585904Y1659142D01*
X584199Y1658440D01*
X582895Y1658139D01*
X576476Y1657939D01*
X560128Y1657638D01*
X559526Y1657838D01*
X544883Y1658039D01*
X544282Y1658239D01*
X542978Y1658741D01*
X541874Y1659242D01*
X540270Y1659643D01*
X537662Y1659844D01*
X534854Y1660045D01*
X533450Y1661047D01*
X533049Y1661449D01*
X532246Y1661649D01*
X530842Y1661850D01*
X529037Y1662051D01*
X527633Y1663054D01*
X527232Y1663455D01*
X526429Y1663655D01*
X525025Y1663856D01*
X523922Y1664357D01*
X523721Y1664758D01*
X522819Y1665661D01*
X520411Y1666062D01*
X520111Y1666363D01*
X519910Y1666764D01*
X518807Y1667868D01*
X517002Y1668870D01*
X516600Y1669272D01*
X516199Y1669472D01*
X515096Y1670375D01*
X514394Y1671077D01*
X513993Y1671278D01*
X512288Y1672581D01*
X512087Y1672983D01*
X511385Y1673685D01*
X510984Y1673885D01*
X510282Y1674587D01*
X510081Y1674989D01*
X508075Y1676994D01*
X507875Y1677395D01*
X506270Y1679000D01*
X506070Y1679402D01*
X505668Y1679803D01*
X505468Y1680204D01*
X504866Y1680806D01*
X504665Y1681207D01*
X503863Y1682611D01*
X503061Y1683413D01*
X502860Y1683814D01*
X501857Y1685620D01*
X500854Y1687024D01*
X499851Y1688829D01*
X499450Y1689230D01*
X499249Y1689631D01*
X499049Y1690233D01*
X498848Y1691035D01*
X498648Y1692239D01*
X498247Y1692640D01*
X498046Y1693041D01*
X497645Y1693443D01*
X497444Y1693844D01*
X497043Y1694245D01*
X496642Y1696652D01*
X496140Y1698758D01*
X495037Y1700864D01*
X494836Y1701667D01*
X494636Y1704274D01*
X494235Y1705879D01*
X493432Y1707083D01*
X493031Y1708487D01*
X492831Y1710493D01*
X492630Y1726740D01*
X492831Y1727342D01*
X493031Y1735566D01*
X494235Y1738174D01*
X494636Y1739578D01*
X494937Y1742687D01*
X495338Y1743690D01*
X496241Y1745395D01*
X496642Y1747000D01*
X496843Y1749006D01*
X497845Y1750410D01*
X498447Y1751011D01*
X498748Y1752315D01*
X498949Y1753118D01*
X499651Y1754221D01*
X500453Y1755424D01*
X500654Y1756227D01*
X501957Y1758132D01*
X503161Y1760138D01*
X503662Y1760640D01*
X503863Y1761041D01*
X505769Y1763548D01*
X506571Y1764752D01*
X507072Y1765454D01*
X507474Y1765654D01*
X507674Y1766056D01*
X508276Y1766657D01*
X508477Y1767058D01*
X509179Y1767760D01*
X509580Y1767961D01*
X510081Y1768663D01*
X510984Y1769566D01*
X511385Y1769766D01*
X512087Y1770468D01*
X512288Y1770870D01*
X512789Y1771371D01*
X513190Y1771572D01*
X514294Y1772474D01*
X514996Y1773177D01*
X515999Y1773578D01*
X517002Y1774179D01*
X518005Y1775182D01*
X518406Y1775383D01*
X519810Y1776386D01*
X520612Y1777188D01*
X521415Y1777389D01*
X522618Y1777589D01*
X523320Y1778091D01*
X523521Y1778492D01*
X524223Y1779194D01*
X525025Y1779395D01*
X526329Y1779695D01*
X527031Y1779996D01*
X527633Y1780598D01*
X528034Y1780799D01*
X529037Y1781200D01*
X530642Y1781601D01*
X534052Y1783206D01*
X536659Y1783406D01*
X537461Y1783607D01*
X538665Y1783808D01*
X541273Y1785011D01*
X542878Y1785412D01*
X544282Y1785613D01*
X549497Y1786014D01*
X549898D01*
X550700Y1786215D01*
X555214Y1786516D01*
X557821Y1786716D01*
X571762Y1786816D01*
X572364Y1786616D01*
D02*
G37*
G36*
X864220Y1784811D02*
X864822Y1784610D01*
X866527Y1784309D01*
X867329Y1784108D01*
X869335Y1783707D01*
X871140Y1783507D01*
X874550Y1783306D01*
X876556Y1783106D01*
X877559Y1782905D01*
X878763Y1782303D01*
X880468Y1781601D01*
X881270Y1781401D01*
X882774Y1781100D01*
X883878Y1780398D01*
X884279Y1779996D01*
X885683Y1779595D01*
X886786Y1779294D01*
X887488Y1778793D01*
X888491Y1777790D01*
X890397Y1777088D01*
X891099Y1776586D01*
X892102Y1775583D01*
X892503Y1775383D01*
X894308Y1773578D01*
X894709Y1773377D01*
X895411Y1772876D01*
X895612Y1772474D01*
X896816Y1771271D01*
X897016Y1770870D01*
X898821Y1768262D01*
X899824Y1766457D01*
X900627Y1765253D01*
X900827Y1764451D01*
X902432Y1761041D01*
X902632Y1759035D01*
X903134Y1756728D01*
X903535Y1755725D01*
X904438Y1753619D01*
X904639Y1752215D01*
X904438Y1738575D01*
X903635Y1737171D01*
X903034Y1735767D01*
X902833Y1734363D01*
X902632Y1733560D01*
X902432Y1731554D01*
X900827Y1728144D01*
X900326Y1726841D01*
X900025Y1726540D01*
X899824Y1726139D01*
X899423Y1725737D01*
X897618Y1722327D01*
X895813Y1720522D01*
X895612Y1720121D01*
X891701Y1716209D01*
X891299Y1716009D01*
X889494Y1714605D01*
X888892Y1714003D01*
X887889Y1713602D01*
X886485Y1712799D01*
X886084Y1712398D01*
X885081Y1711997D01*
X884279Y1711796D01*
X882975Y1711295D01*
X882273Y1710593D01*
X881872Y1710392D01*
X880468Y1709791D01*
X877960Y1709490D01*
X876957Y1709089D01*
X875653Y1708386D01*
X874249Y1707985D01*
X872243Y1707785D01*
X870839Y1707584D01*
X868733Y1707083D01*
X867630Y1706782D01*
X866828Y1706581D01*
X865423Y1706381D01*
X863418Y1706180D01*
X841453Y1706080D01*
X833329Y1706180D01*
X832728Y1705979D01*
X832326Y1705779D01*
X831825Y1705277D01*
X831624Y1703271D01*
X831725Y1661047D01*
X831424Y1660345D01*
X830922Y1659844D01*
X829518Y1659643D01*
X828916Y1659844D01*
X792710Y1659744D01*
X791908Y1659944D01*
X791306Y1660345D01*
X791105Y1661148D01*
X791306Y1784108D01*
X792008Y1784811D01*
X792810Y1785011D01*
X806451D01*
X864220Y1784811D01*
D02*
G37*
G36*
X287729Y1792032D02*
X342991Y1792132D01*
X381705Y1791931D01*
X391935Y1791731D01*
X400761Y1791530D01*
X411392Y1791330D01*
X423427Y1791129D01*
X435663Y1790728D01*
X439675Y1790527D01*
X443285Y1790327D01*
X448701Y1790126D01*
X458129Y1789926D01*
X461739Y1789725D01*
X465751Y1789524D01*
X468359Y1789324D01*
X469061Y1788822D01*
X469562Y1788321D01*
X470565Y1786516D01*
X471368Y1784710D01*
X471568Y1783908D01*
X471869Y1781802D01*
X473173Y1778893D01*
X473374Y1778091D01*
X473574Y1776687D01*
X473875Y1770569D01*
X474076Y1769365D01*
X474376Y1768262D01*
X474778Y1767259D01*
X475079Y1766156D01*
X475279Y1765354D01*
X475480Y1763548D01*
X475680Y1760941D01*
X475881Y1756728D01*
X476082Y1754522D01*
X476282Y1752917D01*
X476683Y1750309D01*
X476884Y1748705D01*
X477084Y1746699D01*
X477285Y1743489D01*
X477486Y1737672D01*
X477887Y1719018D01*
X478288Y1705779D01*
X478489Y1696552D01*
X478589Y1679803D01*
X478388Y1679201D01*
X478087Y1675891D01*
X477887Y1672682D01*
X477686Y1665862D01*
X477486Y1662652D01*
X477084Y1660646D01*
X476884Y1659844D01*
X476282Y1658239D01*
X475380Y1656534D01*
X474878Y1656033D01*
X473474Y1655431D01*
X472571Y1655331D01*
X471769Y1655531D01*
X470064Y1656233D01*
X469061Y1656835D01*
X468158Y1657738D01*
X467958Y1658139D01*
X466955Y1659543D01*
X466253Y1660045D01*
X465350Y1661750D01*
X464548Y1662552D01*
X464347Y1662953D01*
X463946Y1663956D01*
X463645Y1665059D01*
X462341Y1666363D01*
X461940Y1667767D01*
X461438Y1669071D01*
X460335Y1670174D01*
X459934Y1671579D01*
X459734Y1672381D01*
X459132Y1673384D01*
X458330Y1674587D01*
X458129Y1675390D01*
X457527Y1676994D01*
X456524Y1678398D01*
X456123Y1679803D01*
X455822Y1681106D01*
X455521Y1681808D01*
X454117Y1683814D01*
X453816Y1684918D01*
X453214Y1686121D01*
X452312Y1688227D01*
X451610Y1690133D01*
X450707Y1691637D01*
X449905Y1693643D01*
X449604Y1695147D01*
X449203Y1696151D01*
X448501Y1697454D01*
X447097Y1700463D01*
X446896Y1701266D01*
X446395Y1702569D01*
X445993Y1703572D01*
X444890Y1706080D01*
X444388Y1707383D01*
X443486Y1709089D01*
X443085Y1710493D01*
X442784Y1711796D01*
X442383Y1712799D01*
X442082Y1713100D01*
X441881Y1713502D01*
X441079Y1714304D01*
X440878Y1715708D01*
X440577Y1717012D01*
X439875Y1718115D01*
X439073Y1719920D01*
X438872Y1720722D01*
X438070Y1722127D01*
X437669Y1722528D01*
X437268Y1723531D01*
X437067Y1724333D01*
X436766Y1726038D01*
X436465Y1726740D01*
X435563Y1727843D01*
X435262Y1728144D01*
X434961Y1729448D01*
X434760Y1730251D01*
X434459Y1730953D01*
X433557Y1732056D01*
X433055Y1733360D01*
X432253Y1734764D01*
X431651Y1735366D01*
X431451Y1735767D01*
X431250Y1736368D01*
X431049Y1737171D01*
X430648Y1738174D01*
X429445Y1739377D01*
X428743Y1741283D01*
X428041Y1742386D01*
X427639Y1742787D01*
X427439Y1743189D01*
X426436Y1744593D01*
X425433Y1745595D01*
X424430Y1747401D01*
X424029Y1747802D01*
X423828Y1748203D01*
X422625Y1749407D01*
X422424Y1749808D01*
X421822Y1750410D01*
X421622Y1750811D01*
X420719Y1751914D01*
X418312Y1754321D01*
X417911Y1754522D01*
X416707Y1755725D01*
X416306Y1755926D01*
X412094Y1757932D01*
X410088Y1758533D01*
X409286Y1758734D01*
X407280Y1758533D01*
X406277Y1758132D01*
X404371Y1757430D01*
X401262Y1755725D01*
X400159Y1754822D01*
X399657Y1754321D01*
X399256Y1754120D01*
X398755Y1753820D01*
X398554Y1753418D01*
X397651Y1752516D01*
X397250Y1752315D01*
X396348Y1751413D01*
X396147Y1751011D01*
X394543Y1749407D01*
X394342Y1749006D01*
X392938Y1747602D01*
X392135Y1746197D01*
X391333Y1745395D01*
X391132Y1744994D01*
X390130Y1743189D01*
X389327Y1742386D01*
X387923Y1739779D01*
X387522Y1739377D01*
X386920Y1737973D01*
X386720Y1737171D01*
X385717Y1735767D01*
X384914Y1733961D01*
X383711Y1731755D01*
X383109Y1730351D01*
X382708Y1728746D01*
X381705Y1727342D01*
X381304Y1726941D01*
X381103Y1726139D01*
X380902Y1724734D01*
X380702Y1723932D01*
X380301Y1723531D01*
X380100Y1723130D01*
X379498Y1722528D01*
X379298Y1721726D01*
X378897Y1720722D01*
X378596Y1719619D01*
X377793Y1718416D01*
X377292Y1717313D01*
X377091Y1716510D01*
X376590Y1715206D01*
X376088Y1714504D01*
X375286Y1713301D01*
X374885Y1711696D01*
X374584Y1710593D01*
X374082Y1709891D01*
X372076Y1705679D01*
X371274Y1703672D01*
X370773Y1702369D01*
X368466Y1697454D01*
X368265Y1696652D01*
X367563Y1694746D01*
X366059Y1692239D01*
X365758Y1690935D01*
X365156Y1689331D01*
X364454Y1688027D01*
X364053Y1687024D01*
X363752Y1685920D01*
X362749Y1684316D01*
X362448Y1684015D01*
X362147Y1682912D01*
X361947Y1681909D01*
X361546Y1680906D01*
X360844Y1679803D01*
X360041Y1678599D01*
X359740Y1677095D01*
X359339Y1676092D01*
X359038Y1675791D01*
X358838Y1675390D01*
X358035Y1673584D01*
X357835Y1672782D01*
X357233Y1671779D01*
X356431Y1670977D01*
X356030Y1669372D01*
X355829Y1668168D01*
X354525Y1666263D01*
X353522Y1664257D01*
X353221Y1663956D01*
X353121Y1663655D01*
X352820Y1663555D01*
X352620Y1663154D01*
X352018Y1661750D01*
X351215Y1660345D01*
X350413Y1659543D01*
X349209Y1657337D01*
X348207Y1656334D01*
X348006Y1655933D01*
X346903Y1654829D01*
X346501Y1654629D01*
X345499Y1654027D01*
X342891Y1653225D01*
X342088Y1653024D01*
X340684Y1653225D01*
X338177Y1654127D01*
X337475Y1654629D01*
X336272Y1655832D01*
X335870Y1656033D01*
X335469Y1656434D01*
X335168Y1656534D01*
X334968Y1656935D01*
X333563Y1658340D01*
X333363Y1658741D01*
X332460Y1659844D01*
X331758Y1660546D01*
X331558Y1660947D01*
X330354Y1663154D01*
X329552Y1663956D01*
X329151Y1664959D01*
X328148Y1666764D01*
X327546Y1667767D01*
X327045Y1669071D01*
X326343Y1670174D01*
X325540Y1671378D01*
X325038Y1673484D01*
X324236Y1674688D01*
X323735Y1675189D01*
X323334Y1676192D01*
X322832Y1678298D01*
X322130Y1679402D01*
X321528Y1680806D01*
X321328Y1681608D01*
X320826Y1682912D01*
X320525Y1683213D01*
X320325Y1683614D01*
X319924Y1684015D01*
X319522Y1685419D01*
X319021Y1687525D01*
X318319Y1688629D01*
X317717Y1689230D01*
X317316Y1690634D01*
X316915Y1692239D01*
X315912Y1693844D01*
X315711Y1694646D01*
X315310Y1695649D01*
X314307Y1697454D01*
X313505Y1699260D01*
X313204Y1700564D01*
X312803Y1701566D01*
X311900Y1703071D01*
X310697Y1705679D01*
X309794Y1708186D01*
X309393Y1709189D01*
X309092Y1709891D01*
X306685Y1714906D01*
X306384Y1716209D01*
X305983Y1717212D01*
X305481Y1717914D01*
X304880Y1718516D01*
X304478Y1719519D01*
X304278Y1720321D01*
X303977Y1721826D01*
X303576Y1722829D01*
X303074Y1723531D01*
X302673Y1723932D01*
X302272Y1725336D01*
X302071Y1726139D01*
X301670Y1727141D01*
X300667Y1728545D01*
X300366Y1729849D01*
X299865Y1731153D01*
X299263Y1731755D01*
X299062Y1732156D01*
X298661Y1732557D01*
X298360Y1733660D01*
X298160Y1734463D01*
X297759Y1735466D01*
X297257Y1736168D01*
X296856Y1736569D01*
X296455Y1737572D01*
X295452Y1739377D01*
X294850Y1739979D01*
X294449Y1741383D01*
X293847Y1742386D01*
X293145Y1743088D01*
X292844Y1743189D01*
X292443Y1744191D01*
X291942Y1745495D01*
X290838Y1746598D01*
X290638Y1747000D01*
X289635Y1748404D01*
X288632Y1749407D01*
X288431Y1749808D01*
X287729Y1750510D01*
X287328Y1750710D01*
X285723Y1752315D01*
X285322Y1752516D01*
X283918Y1753920D01*
X283517Y1754120D01*
X280107Y1755725D01*
X278803Y1756227D01*
X277198Y1756628D01*
X276195Y1756829D01*
X274591Y1757029D01*
X270679Y1757129D01*
X270077Y1756929D01*
X268774Y1756628D01*
X267771Y1756227D01*
X266066Y1755324D01*
X265263Y1754522D01*
X264862Y1754321D01*
X263759Y1753418D01*
X261753Y1751413D01*
X261552Y1751011D01*
X259747Y1749206D01*
X259547Y1748805D01*
X258945Y1748203D01*
X258744Y1747802D01*
X258142Y1747200D01*
X257942Y1746799D01*
X257541Y1746398D01*
X257340Y1745997D01*
X256738Y1745395D01*
X256538Y1744994D01*
X255535Y1743189D01*
X254532Y1742185D01*
X252927Y1739177D01*
X252325Y1738174D01*
X251523Y1736770D01*
X250520Y1735366D01*
X250219Y1734062D01*
X249818Y1733059D01*
X249116Y1731956D01*
X248715Y1731554D01*
X248313Y1730552D01*
X247812Y1728445D01*
X247110Y1727342D01*
X246508Y1725938D01*
X246308Y1725135D01*
X245806Y1723832D01*
X244903Y1722929D01*
X244502Y1721926D01*
X244302Y1720522D01*
X244001Y1719018D01*
X243499Y1718316D01*
X242697Y1717513D01*
X242296Y1716510D01*
X241995Y1713802D01*
X241594Y1712799D01*
X241293Y1712498D01*
X241092Y1712097D01*
X240691Y1711094D01*
X240491Y1710292D01*
X240190Y1707584D01*
X239989Y1706782D01*
X239588Y1705779D01*
X239086Y1704676D01*
X238685Y1703071D01*
X238485Y1700463D01*
X238685Y1698858D01*
X239488Y1697454D01*
X240190Y1696752D01*
X241594Y1696552D01*
X242697Y1697454D01*
X242898Y1697856D01*
X243399Y1698357D01*
X243800Y1698558D01*
X244101Y1698858D01*
X244302Y1699260D01*
X245204Y1700363D01*
X246107Y1701266D01*
X246609Y1702569D01*
X247311Y1703672D01*
X248113Y1704876D01*
X248414Y1706180D01*
X248815Y1707183D01*
X249316Y1707885D01*
X249718Y1708286D01*
X250320Y1709690D01*
X250721Y1710693D01*
X251322Y1712097D01*
X251724Y1713100D01*
X252325Y1714504D01*
X254532Y1719118D01*
X255234Y1721023D01*
X256939Y1724133D01*
X257340Y1725135D01*
X257541Y1725938D01*
X258042Y1727242D01*
X258343Y1727543D01*
X259747Y1730552D01*
X260951Y1732758D01*
X261552Y1734162D01*
X262355Y1735566D01*
X262756Y1735967D01*
X262957Y1736368D01*
X264361Y1738976D01*
X264762Y1739377D01*
X264962Y1739779D01*
X266166Y1741985D01*
X267169Y1742988D01*
X267370Y1743389D01*
X268272Y1744492D01*
X269275Y1745094D01*
X270479Y1746297D01*
X271883Y1746498D01*
X274891Y1746699D01*
X275493Y1746498D01*
X277098Y1746297D01*
X278903Y1744893D01*
X279505Y1744292D01*
X279906Y1744091D01*
X280608Y1743389D01*
X280809Y1742988D01*
X281812Y1741584D01*
X282413Y1740982D01*
X282614Y1740581D01*
X283015Y1740180D01*
X283216Y1739779D01*
X284119Y1738675D01*
X284420Y1738374D01*
X285222Y1736970D01*
X287027Y1734363D01*
X289635Y1729348D01*
X293245Y1722327D01*
X294048Y1721124D01*
X294449Y1718516D01*
X295351Y1717413D01*
X295853Y1716911D01*
X296254Y1715307D01*
X296555Y1714204D01*
X297257Y1713100D01*
X298059Y1711295D01*
X298360Y1709791D01*
X299363Y1708186D01*
X299664Y1707885D01*
X300065Y1706481D01*
X300366Y1704776D01*
X300667Y1704074D01*
X301670Y1702670D01*
X302071Y1701266D01*
X302573Y1699962D01*
X303876Y1697454D01*
X304177Y1695749D01*
X304579Y1694746D01*
X305682Y1693643D01*
X305983Y1692540D01*
X306183Y1691336D01*
X306384Y1690534D01*
X306685Y1689832D01*
X307688Y1688428D01*
X308089Y1687425D01*
X308289Y1686622D01*
X309092Y1685218D01*
X309694Y1683814D01*
X310095Y1682210D01*
X310897Y1680806D01*
X312301Y1677797D01*
X312803Y1676493D01*
X313204Y1675490D01*
X313705Y1674387D01*
X313906Y1673985D01*
X314909Y1672381D01*
X315511Y1670977D01*
X316012Y1669673D01*
X316915Y1668168D01*
X317617Y1666263D01*
X317918Y1665962D01*
X318118Y1665561D01*
X318921Y1664758D01*
X319121Y1663354D01*
X319623Y1662051D01*
X320926Y1660747D01*
X321729Y1658540D01*
X322632Y1657437D01*
X324136Y1654729D01*
X324537Y1654328D01*
X324738Y1653927D01*
X325741Y1652121D01*
X326744Y1651118D01*
X327747Y1649313D01*
X328950Y1648110D01*
X329151Y1647708D01*
X329853Y1646806D01*
X330254Y1646605D01*
X331859Y1645001D01*
X332260Y1644800D01*
X332661Y1644399D01*
X333062Y1644198D01*
X333864Y1643396D01*
X335269Y1642794D01*
X336773Y1642493D01*
X337776Y1642092D01*
X338980Y1641290D01*
X340083Y1640989D01*
X340885Y1640788D01*
X344095Y1640989D01*
X346100Y1642393D01*
X347204Y1642694D01*
X348207Y1643095D01*
X348507Y1643396D01*
X348909Y1643596D01*
X349711Y1644399D01*
X350112Y1644599D01*
X353823Y1648310D01*
X354024Y1648711D01*
X354625Y1649313D01*
X354826Y1649714D01*
X355829Y1650717D01*
X356631Y1652121D01*
X357434Y1652924D01*
X357634Y1653325D01*
X358637Y1655130D01*
X359439Y1655933D01*
X359640Y1656334D01*
X360242Y1657738D01*
X361044Y1659142D01*
X361445Y1659543D01*
X361646Y1659944D01*
X362047Y1660345D01*
X362849Y1662352D01*
X363652Y1663756D01*
X365658Y1666965D01*
X365858Y1667767D01*
X367162Y1669673D01*
X368065Y1671579D01*
X368867Y1672782D01*
X369770Y1675289D01*
X370773Y1676894D01*
X371274Y1678198D01*
X371976Y1680104D01*
X372277Y1680404D01*
X372879Y1681808D01*
X373080Y1682611D01*
X373681Y1684216D01*
X374684Y1685218D01*
X375085Y1686221D01*
X375286Y1687024D01*
X375486Y1688629D01*
X376891Y1690634D01*
X377091Y1691437D01*
X377593Y1692741D01*
X378395Y1693944D01*
X378897Y1695047D01*
X379097Y1696452D01*
X379298Y1697655D01*
X380200Y1698758D01*
X380702Y1699260D01*
X381103Y1700864D01*
X381304Y1702469D01*
X382607Y1704375D01*
X382908Y1705277D01*
X383109Y1706080D01*
X383410Y1707383D01*
X383711Y1707684D01*
X383911Y1708085D01*
X384312Y1708487D01*
X384713Y1709490D01*
X385115Y1711094D01*
X385315Y1712298D01*
X386318Y1713702D01*
X386720Y1714103D01*
X387121Y1715507D01*
X387422Y1716811D01*
X389829Y1721625D01*
X390531Y1722929D01*
X390932Y1723932D01*
X391433Y1725236D01*
X392637Y1727242D01*
X394342Y1730953D01*
X395545Y1733159D01*
X396348Y1734363D01*
X396548Y1734764D01*
X397952Y1736770D01*
X398955Y1738575D01*
X400159Y1739779D01*
X400460Y1740882D01*
X400761Y1741584D01*
X403669Y1744492D01*
X404070Y1744693D01*
X405474Y1746097D01*
X406879Y1746498D01*
X409486Y1746699D01*
X410288Y1746498D01*
X411292Y1746297D01*
X411793Y1745796D01*
X411994Y1745395D01*
X412495Y1744893D01*
X413899Y1744091D01*
X414802Y1743189D01*
X415002Y1742787D01*
X415604Y1742185D01*
X416206Y1741183D01*
X416908Y1740481D01*
X417309Y1740280D01*
X418813Y1737572D01*
X419215Y1737171D01*
X420619Y1734563D01*
X421020Y1734162D01*
X422625Y1731153D01*
X423427Y1729950D01*
X426235Y1724534D01*
X427038Y1722729D01*
X427539Y1721425D01*
X428041Y1720321D01*
X428643Y1718917D01*
X429645Y1717112D01*
X430648Y1714906D01*
X430949Y1713401D01*
X431350Y1712398D01*
X431651Y1712097D01*
X431852Y1711696D01*
X432454Y1711094D01*
X432855Y1709690D01*
X433156Y1708587D01*
X433557Y1707584D01*
X433858Y1707283D01*
X434459Y1705879D01*
X434861Y1704274D01*
X435362Y1702970D01*
X435663Y1702670D01*
X435863Y1702268D01*
X436465Y1701667D01*
X436867Y1699260D01*
X437168Y1698156D01*
X437870Y1697053D01*
X438271Y1696652D01*
X438471Y1696251D01*
X438672Y1695649D01*
X438872Y1694847D01*
X439173Y1693342D01*
X439875Y1692239D01*
X440477Y1690835D01*
X440678Y1690033D01*
X440878Y1689030D01*
X442182Y1687124D01*
X442684Y1685820D01*
X442884Y1683614D01*
X443787Y1682510D01*
X444288Y1681608D01*
X444689Y1680605D01*
X445291Y1679000D01*
X446094Y1677797D01*
X446695Y1675791D01*
X447698Y1673985D01*
X448501Y1672782D01*
X448801Y1671679D01*
X449403Y1670074D01*
X452512Y1663956D01*
X453315Y1662552D01*
X454117Y1661750D01*
X454318Y1661348D01*
X456123Y1657939D01*
X457928Y1655331D01*
X458731Y1653927D01*
X459533Y1653124D01*
X459734Y1652723D01*
X460135Y1652322D01*
X460335Y1651921D01*
X461539Y1650717D01*
X461739Y1650316D01*
X462341Y1649714D01*
X462542Y1649313D01*
X463745Y1648110D01*
X464347Y1647107D01*
X465952Y1645502D01*
X466152Y1645101D01*
X466654Y1644599D01*
X467055Y1644399D01*
X467958Y1643496D01*
X468158Y1643095D01*
X468459Y1642794D01*
X468860Y1642593D01*
X469562Y1641891D01*
X470164Y1640889D01*
X471167Y1639885D01*
X471368Y1639484D01*
X472371Y1637679D01*
X473374Y1636275D01*
X473574Y1634871D01*
X473374Y1631661D01*
X471769Y1628252D01*
X471468Y1625543D01*
X471268Y1624541D01*
X471067Y1623738D01*
X470264Y1621732D01*
X469462Y1619526D01*
X468860Y1618924D01*
X468058Y1618723D01*
X464849Y1618924D01*
X450807Y1618723D01*
X369770D01*
X195860Y1618924D01*
X194456Y1619927D01*
X193753Y1621030D01*
X192951Y1622234D01*
X192650Y1623337D01*
X192249Y1625744D01*
X192049Y1626546D01*
X190745Y1629054D01*
X190544Y1630458D01*
X190243Y1632364D01*
X189140Y1635874D01*
X188939Y1637278D01*
X188739Y1638080D01*
X188438Y1642794D01*
X188237Y1644399D01*
X188037Y1645402D01*
X187435Y1647006D01*
X186934Y1648711D01*
X186733Y1649514D01*
X186432Y1659643D01*
X186232Y1661850D01*
X185830Y1663856D01*
X185329Y1667968D01*
X185128Y1668770D01*
X184727Y1675189D01*
X184426Y1688328D01*
X184326Y1717513D01*
X184526Y1718115D01*
X184727Y1732156D01*
X184928Y1732758D01*
X185128Y1736368D01*
X185329Y1736970D01*
X185630Y1739077D01*
X186031Y1741684D01*
X186332Y1744392D01*
X186532Y1748805D01*
X186733Y1758233D01*
X186934Y1758834D01*
X187234Y1759938D01*
X187435Y1760740D01*
X188037Y1762345D01*
X188438Y1764351D01*
X188638Y1768162D01*
X189040Y1772775D01*
X189240Y1773778D01*
X189641Y1774781D01*
X190143Y1776486D01*
X190344Y1777890D01*
X190544Y1782103D01*
X191948Y1784309D01*
X192349Y1785914D01*
X192550Y1788521D01*
X193051Y1789023D01*
X196060Y1790427D01*
X201677Y1790628D01*
X211506Y1790828D01*
X215919Y1791029D01*
X225045Y1791330D01*
X229659Y1791530D01*
X233470Y1791731D01*
X238685Y1791931D01*
X286225Y1792132D01*
X287127Y1792232D01*
X287729Y1792032D01*
D02*
G37*
G36*
X909954Y1645001D02*
X910255Y1644700D01*
X910455Y1643897D01*
X910255Y1643095D01*
X909753Y1642593D01*
X906644Y1642694D01*
X900025Y1642493D01*
X899323Y1641992D01*
X898821Y1641490D01*
X898621Y1640086D01*
X898821Y1638080D01*
X899323Y1637378D01*
X900326Y1636977D01*
X907447Y1637077D01*
X908249Y1636877D01*
X908650Y1636476D01*
X908851Y1635673D01*
X908149Y1634770D01*
X906745Y1634570D01*
X904739Y1634770D01*
X899724Y1634570D01*
X899022Y1634068D01*
X898621Y1632664D01*
X898821Y1629656D01*
X899925Y1628552D01*
X901529Y1628151D01*
X907447Y1628051D01*
X908450Y1628252D01*
X909152Y1628352D01*
X910155Y1627750D01*
X910455Y1626847D01*
X910255Y1625844D01*
X909753Y1625343D01*
X904538Y1625543D01*
X903936Y1625343D01*
X899423Y1625443D01*
X898320Y1625343D01*
X897718Y1625543D01*
X896916Y1625744D01*
X896013Y1626446D01*
X895813Y1627850D01*
Y1638883D01*
Y1639083D01*
X895712Y1643596D01*
X896214Y1644298D01*
X896515Y1644599D01*
X897518Y1645001D01*
X899423Y1645101D01*
X907747Y1645001D01*
X908349Y1645201D01*
X909954Y1645001D01*
D02*
G37*
G36*
X648086Y1644900D02*
X648788Y1644399D01*
X648989Y1643596D01*
X648487Y1642894D01*
X647584Y1642593D01*
X639561Y1642393D01*
X638157Y1641591D01*
X637856Y1640688D01*
X637756Y1639585D01*
X637956Y1638381D01*
X638458Y1637679D01*
X639360Y1637378D01*
X640163Y1637178D01*
X647183Y1636977D01*
X648086Y1636275D01*
X647885Y1635272D01*
X647584Y1634971D01*
X646782Y1634770D01*
X645378Y1634570D01*
X638959Y1634369D01*
X638057Y1633667D01*
X637856Y1632865D01*
X637655Y1630257D01*
X638257Y1629254D01*
X638759Y1628753D01*
X641166Y1628151D01*
X648387Y1627951D01*
X649089Y1627248D01*
X649290Y1626446D01*
X648587Y1625543D01*
X647785Y1625343D01*
X635750Y1625543D01*
X634847Y1626245D01*
X634446Y1627650D01*
X634346Y1643596D01*
X634847Y1644298D01*
X635148Y1644599D01*
X636151Y1645001D01*
X642770D01*
X644475Y1645101D01*
X645779Y1645001D01*
X646381Y1645201D01*
X648086Y1644900D01*
D02*
G37*
G36*
X1014059Y1644599D02*
X1014360Y1644298D01*
X1014461Y1643396D01*
X1014360Y1643295D01*
X1014160Y1642493D01*
X1013658Y1641992D01*
X1012053Y1642192D01*
X1011351Y1642894D01*
X1011151Y1643697D01*
X1011853Y1644599D01*
X1012655Y1644800D01*
X1014059Y1644599D01*
D02*
G37*
G36*
X515397Y1645402D02*
X515999Y1645201D01*
X516801Y1645001D01*
X518105Y1644700D01*
X519108Y1644298D01*
X519509Y1643897D01*
X519709Y1643496D01*
X521114Y1642092D01*
X521314Y1641290D01*
X521114Y1640487D01*
X520411Y1639785D01*
X519007Y1639384D01*
X517704Y1640287D01*
X517503Y1640688D01*
X516299Y1641691D01*
X515798Y1642192D01*
X515397Y1642393D01*
X514394Y1642794D01*
X511385Y1642593D01*
X509981Y1641591D01*
X509580Y1641189D01*
X509179Y1640989D01*
X507875Y1639685D01*
X507273Y1637679D01*
X507072Y1636877D01*
X507273Y1632865D01*
X508677Y1630257D01*
X509780Y1629154D01*
X511586Y1628352D01*
X512990Y1628151D01*
X515597Y1628352D01*
X516199Y1628552D01*
X517603Y1629355D01*
X517904Y1630057D01*
Y1630257D01*
X518105Y1630859D01*
X517904Y1632263D01*
X517403Y1632765D01*
X515999Y1632965D01*
X515397Y1632765D01*
X514595Y1632965D01*
X514093Y1633266D01*
X513893Y1634068D01*
X514093Y1635673D01*
X514595Y1636175D01*
X515999Y1636375D01*
X516600Y1636175D01*
X518406Y1635974D01*
X519007Y1636175D01*
X520311Y1636275D01*
X521314Y1635874D01*
X521715Y1634470D01*
X521515Y1627850D01*
X520813Y1627148D01*
X520010Y1626947D01*
X518606Y1626145D01*
X517202Y1625543D01*
X516400Y1625343D01*
X509981Y1625543D01*
X508075Y1626847D01*
X506471Y1627850D01*
X506270Y1628252D01*
X503863Y1631661D01*
X503462Y1633066D01*
X503261Y1636877D01*
X503562Y1638381D01*
X505267Y1641490D01*
X506170Y1642593D01*
X506671Y1643095D01*
X506872Y1643496D01*
X507574Y1643997D01*
X509780Y1645001D01*
X512187Y1645602D01*
X515397Y1645402D01*
D02*
G37*
G36*
X694923Y1639384D02*
X695224Y1639083D01*
X695425Y1638281D01*
X695224Y1637479D01*
X694723Y1636977D01*
X694522D01*
X694422Y1636877D01*
X693218Y1636676D01*
X691714Y1636375D01*
X691212Y1635874D01*
X691012Y1635071D01*
X690811Y1625844D01*
X690310Y1625343D01*
X689507Y1625142D01*
X687903Y1625343D01*
X687602Y1625644D01*
X687201Y1627048D01*
X687401Y1638682D01*
X688103Y1639384D01*
X689106Y1639585D01*
X689708Y1639384D01*
X690510Y1639183D01*
X692918Y1639384D01*
X693519Y1639585D01*
X694923Y1639384D01*
D02*
G37*
G36*
X534954Y1638883D02*
X535155Y1638080D01*
X534954Y1637479D01*
X534453Y1636977D01*
X533650Y1636777D01*
X532146Y1636676D01*
X532046Y1636576D01*
X530842Y1636375D01*
X529940Y1635673D01*
X529739Y1634269D01*
X529538Y1632263D01*
X529338Y1626446D01*
X528636Y1625744D01*
X527232Y1625945D01*
X526730Y1626446D01*
X526530Y1627850D01*
X526429Y1637779D01*
X526730Y1638481D01*
X527432Y1639183D01*
X528234Y1639384D01*
X530842Y1639183D01*
X532347Y1639484D01*
X534052Y1639585D01*
X534954Y1638883D01*
D02*
G37*
G36*
X1003228Y1640186D02*
X1004331Y1639284D01*
X1004632Y1638983D01*
X1005033Y1638782D01*
X1006136Y1637880D01*
X1006738Y1636476D01*
X1006939Y1633868D01*
X1006738Y1626045D01*
X1006236Y1625543D01*
X1005434Y1625343D01*
X1004230Y1625543D01*
X1003528Y1626045D01*
X1003328Y1626847D01*
X1003127Y1635472D01*
X1002225Y1636576D01*
X1001422Y1636777D01*
X998213Y1636576D01*
X997310Y1635874D01*
Y1633868D01*
Y1633667D01*
X997110Y1625844D01*
X996608Y1625343D01*
X995806Y1625142D01*
X994201Y1625343D01*
X993700Y1625844D01*
X993499Y1626647D01*
X993399Y1637779D01*
X993599Y1638582D01*
X994402Y1639384D01*
X996407Y1639183D01*
X997009Y1638983D01*
X1000219Y1639183D01*
X1000820Y1639785D01*
X1001222Y1639986D01*
X1002225Y1640387D01*
X1003228Y1640186D01*
D02*
G37*
G36*
X883476D02*
X883777Y1639885D01*
X883978Y1638481D01*
X883777Y1637679D01*
X883075Y1636977D01*
X882273Y1636777D01*
X880668Y1636576D01*
X879966Y1636074D01*
X879766Y1635272D01*
X879565Y1625844D01*
X879064Y1625343D01*
X878261Y1625142D01*
X877659Y1624942D01*
X877057Y1625142D01*
X876155Y1625644D01*
X875954Y1626446D01*
X875854Y1637579D01*
X876055Y1638582D01*
X876556Y1639284D01*
X876857Y1639585D01*
X878662Y1639384D01*
X879665Y1638983D01*
X880668D01*
X881771Y1639885D01*
X882674Y1640387D01*
X883476Y1640186D01*
D02*
G37*
G36*
X787194Y1644599D02*
X787495Y1644298D01*
X787896Y1642694D01*
X787695Y1641891D01*
X787595Y1636777D01*
X787695Y1627248D01*
X787495Y1626647D01*
X787294Y1625844D01*
X786191Y1625343D01*
X784988Y1625543D01*
X783984Y1625945D01*
X781979Y1625744D01*
X780575Y1625142D01*
X777566Y1625343D01*
X776563Y1625945D01*
X774256Y1628252D01*
X774055Y1629054D01*
X773855Y1632263D01*
X774055Y1636275D01*
X774256Y1636476D01*
X774356Y1636576D01*
X775058Y1637278D01*
X775259Y1637679D01*
X776162Y1638582D01*
X776563Y1638782D01*
X778970Y1640387D01*
X780775Y1640186D01*
X781176Y1639785D01*
X781578Y1639585D01*
X782982Y1638983D01*
X784386Y1639183D01*
X784887Y1639685D01*
X785088Y1641089D01*
X784887Y1641691D01*
X785088Y1644098D01*
X785589Y1644599D01*
X786392Y1644800D01*
X787194Y1644599D01*
D02*
G37*
G36*
X971936Y1639384D02*
X972437Y1638883D01*
X972237Y1637278D01*
X971936Y1636977D01*
X971133Y1636777D01*
X969729Y1636576D01*
X968927Y1636375D01*
X968426Y1635874D01*
X968325Y1634570D01*
X968426Y1633066D01*
X968225Y1632464D01*
X968024Y1626446D01*
X967322Y1625543D01*
X965918Y1625142D01*
X965116Y1625543D01*
X965016Y1625644D01*
X964614Y1626647D01*
X964414Y1627449D01*
X964514Y1633366D01*
X964414Y1633868D01*
X964614Y1634470D01*
X964414Y1637880D01*
X965216Y1639284D01*
X966119Y1639384D01*
X967122Y1638983D01*
X967924Y1638782D01*
X969228Y1639083D01*
X970532Y1639585D01*
X971936Y1639384D01*
D02*
G37*
G36*
X663230Y1640387D02*
X663932Y1639885D01*
X664133Y1639484D01*
X665938Y1638281D01*
X666340Y1637278D01*
X666139Y1626045D01*
X665437Y1625343D01*
X664033Y1625543D01*
X663531Y1626045D01*
X663130Y1627449D01*
X662930Y1635272D01*
X662328Y1636275D01*
X662228Y1636375D01*
X661826Y1636777D01*
X660422Y1636977D01*
X659219Y1636777D01*
X658818Y1636375D01*
X658416Y1636175D01*
X658116Y1635272D01*
X657714Y1633667D01*
X657514Y1632263D01*
X657313Y1626647D01*
X656711Y1625644D01*
X656210Y1625142D01*
X654806Y1625343D01*
X654304Y1625844D01*
X654104Y1627850D01*
X654204Y1636977D01*
X654104Y1637479D01*
X654304Y1638080D01*
X654505Y1639484D01*
X654806Y1639986D01*
X655608Y1640186D01*
X656009Y1639986D01*
X656811Y1639183D01*
X657815Y1638782D01*
X659118Y1639284D01*
X661425Y1640387D01*
X662228Y1640588D01*
X663230Y1640387D01*
D02*
G37*
G36*
X582995Y1639785D02*
X583597Y1639183D01*
X583998Y1638983D01*
X585101Y1638080D01*
X585503Y1637679D01*
X585703Y1637278D01*
X586606Y1636175D01*
X587107Y1635071D01*
X587308Y1631260D01*
X587107Y1630658D01*
X586806Y1629355D01*
X585803Y1627750D01*
X585302Y1627248D01*
X585101Y1626847D01*
X584700Y1626446D01*
X584499Y1626045D01*
X584199Y1625744D01*
X583196Y1625343D01*
X581792Y1625142D01*
X578983Y1625343D01*
X578382Y1625543D01*
X577278Y1625243D01*
X576877Y1624240D01*
X576677Y1621632D01*
X575373Y1619727D01*
X574771Y1619526D01*
X573969Y1619727D01*
X573668Y1620027D01*
X573467Y1621431D01*
X573668Y1630257D01*
X573568Y1630358D01*
X573467Y1634670D01*
X573668Y1635272D01*
X573467Y1637278D01*
X573668Y1638682D01*
X574169Y1639384D01*
X574972Y1639585D01*
X576777Y1638782D01*
X578382Y1638983D01*
X580588Y1640387D01*
X581591Y1640588D01*
X582995Y1639785D01*
D02*
G37*
G36*
X766934Y1640186D02*
X768038Y1639284D01*
X768539Y1638782D01*
X769542Y1638181D01*
X769843Y1637880D01*
X770044Y1637077D01*
X769843Y1625844D01*
X769141Y1625142D01*
X767336D01*
X766433Y1625844D01*
X766232Y1626647D01*
X766032Y1636275D01*
X765530Y1636777D01*
X764126Y1636977D01*
X762822Y1636676D01*
X761619Y1635874D01*
X760616Y1634470D01*
X760215Y1633066D01*
X760014Y1626245D01*
X759312Y1625543D01*
X758309Y1625343D01*
X757005Y1626045D01*
X756604Y1627449D01*
X756805Y1638281D01*
X757106Y1638782D01*
X758109Y1639183D01*
X759713Y1638983D01*
X760315Y1638782D01*
X761118Y1638582D01*
X762421Y1639083D01*
X762923Y1639585D01*
X763324Y1639785D01*
X764728Y1640387D01*
X766934Y1640186D01*
D02*
G37*
G36*
X1043145D02*
X1046153Y1638582D01*
X1046655Y1638281D01*
X1046454Y1637077D01*
X1045953Y1636576D01*
X1044549Y1635974D01*
X1041941Y1637178D01*
X1039534Y1636977D01*
X1038832Y1636476D01*
X1038631Y1635673D01*
X1038832Y1635272D01*
X1039133Y1634971D01*
X1040537Y1634770D01*
X1041339Y1634570D01*
X1043746Y1634369D01*
X1044850Y1633467D01*
X1046153Y1632965D01*
X1047056Y1632464D01*
X1047257Y1631661D01*
X1047457Y1631060D01*
X1047257Y1630458D01*
X1047457Y1628452D01*
X1047056Y1627650D01*
X1046956Y1627549D01*
X1046354Y1626947D01*
X1045953Y1626747D01*
X1044749Y1625543D01*
X1043746Y1625142D01*
X1037729Y1625343D01*
X1036224Y1626245D01*
X1036024Y1626647D01*
X1035623Y1627650D01*
X1035823Y1628853D01*
X1036124Y1629154D01*
X1036926Y1629355D01*
X1038130Y1629154D01*
X1039534Y1628151D01*
X1039935Y1627951D01*
X1040938Y1627549D01*
X1042543Y1627750D01*
X1043445Y1628653D01*
X1043546Y1629555D01*
X1043345Y1630358D01*
X1042743Y1630959D01*
X1040738Y1631160D01*
X1038531Y1631360D01*
X1037428Y1632263D01*
X1036926Y1632765D01*
X1035924Y1633366D01*
X1035623Y1633667D01*
X1035422Y1634470D01*
X1035623Y1638080D01*
X1036124Y1638582D01*
X1037528Y1639384D01*
X1038130Y1639986D01*
X1039133Y1640387D01*
X1043145Y1640186D01*
D02*
G37*
G36*
X1027499D02*
X1028903Y1639183D01*
X1029304Y1638983D01*
X1029705Y1638582D01*
X1030106Y1638381D01*
X1031410Y1637077D01*
X1031511Y1636977D01*
X1031811Y1635874D01*
X1031109Y1634971D01*
X1029705Y1634770D01*
X1028301Y1635573D01*
X1027098Y1636777D01*
X1025693Y1636977D01*
X1023487Y1636777D01*
X1022384Y1635874D01*
X1022183Y1635071D01*
X1022384Y1632263D01*
X1022183Y1631661D01*
X1022384Y1629856D01*
X1023487Y1628753D01*
X1024289Y1628552D01*
X1025693Y1628352D01*
X1026496Y1628552D01*
X1027900Y1629355D01*
X1028903Y1630358D01*
X1029304Y1630558D01*
X1029906Y1630759D01*
X1031310Y1630558D01*
X1031811Y1630057D01*
X1031611Y1628452D01*
X1030708Y1627349D01*
X1029103Y1625744D01*
X1028101Y1625343D01*
X1026696Y1625142D01*
X1023086Y1625343D01*
X1021982Y1626245D01*
X1021481Y1626747D01*
X1021080Y1626947D01*
X1020177Y1627850D01*
X1019977Y1628252D01*
X1018573Y1629656D01*
X1018372Y1630458D01*
X1018573Y1635874D01*
X1019074Y1636576D01*
X1019475Y1636777D01*
X1020177Y1637479D01*
X1020378Y1637880D01*
X1020679Y1638381D01*
X1021080Y1638582D01*
X1022484Y1639384D01*
X1022885Y1639785D01*
X1023888Y1640186D01*
X1024691Y1640387D01*
X1027499Y1640186D01*
D02*
G37*
G36*
X946862D02*
X948768Y1638883D01*
X949871Y1638181D01*
X950974Y1637077D01*
X951175Y1635673D01*
X950473Y1634971D01*
X949069Y1634770D01*
X947665Y1635573D01*
X946662Y1636576D01*
X945257Y1636977D01*
X943352Y1636676D01*
X942249Y1635974D01*
X941948Y1635673D01*
X941547Y1634068D01*
X941747Y1630057D01*
X942851Y1628954D01*
X944255Y1628552D01*
X945057Y1628352D01*
X946160Y1628653D01*
X948166Y1629856D01*
X949069Y1630759D01*
X950072Y1630959D01*
X950974Y1630458D01*
X951175Y1629656D01*
X950974Y1628252D01*
X948266Y1625543D01*
X946662Y1625142D01*
X942249Y1625343D01*
X940845Y1626747D01*
X940443Y1626947D01*
X939340Y1628051D01*
X939140Y1628452D01*
X937936Y1629656D01*
X937735Y1630458D01*
X937936Y1635472D01*
X938839Y1636576D01*
X939942Y1638281D01*
X940443Y1638782D01*
X941045Y1638983D01*
X941246D01*
X942851Y1639986D01*
X944255Y1640387D01*
X946862Y1640186D01*
D02*
G37*
G36*
X847671Y1640086D02*
X848474Y1639284D01*
X848875Y1638281D01*
X849076Y1636275D01*
X849276Y1633868D01*
X850179Y1632765D01*
X851282Y1632664D01*
X851984Y1632965D01*
X852285Y1633266D01*
X852686Y1634670D01*
X852887Y1638080D01*
X853789Y1639183D01*
X854792Y1639585D01*
X855996Y1639384D01*
X856497Y1638883D01*
X856698Y1638080D01*
X856497Y1636676D01*
X855695Y1635272D01*
X855093Y1633868D01*
X854893Y1632464D01*
X854692Y1630057D01*
X854391Y1629555D01*
X854291Y1629455D01*
X853990Y1629154D01*
X853589Y1628954D01*
X853087Y1628452D01*
X852887Y1627650D01*
X852586Y1625945D01*
X851984Y1625343D01*
X851182Y1625142D01*
X849778Y1625343D01*
X849276Y1625644D01*
X848875Y1627248D01*
X848674Y1628653D01*
X847872Y1629455D01*
X847671Y1629856D01*
X846769Y1631160D01*
X845966Y1631360D01*
X845565Y1631160D01*
X845064Y1630658D01*
X844863Y1629254D01*
X844663Y1627650D01*
X843860Y1626245D01*
X843559Y1625744D01*
X843158Y1625543D01*
X842155Y1625142D01*
X840851Y1625644D01*
X839648Y1626847D01*
X839046Y1628252D01*
X838645Y1629254D01*
X838143Y1630558D01*
X837642Y1632263D01*
X837241Y1633868D01*
X836739Y1637178D01*
X836639Y1637679D01*
X836840Y1638281D01*
X837040Y1638682D01*
X837341Y1638983D01*
X838143Y1639183D01*
X839146Y1638582D01*
X839447Y1638281D01*
X839848Y1637278D01*
X840149Y1636175D01*
X840350Y1634570D01*
X840551Y1633366D01*
X841052Y1632664D01*
X841353Y1632364D01*
X842556Y1632564D01*
X843058Y1633066D01*
X843459Y1635874D01*
X843659Y1637077D01*
X844964Y1638983D01*
X845666Y1640086D01*
X846568Y1640387D01*
X847671Y1640086D01*
D02*
G37*
G36*
X866828Y1640186D02*
X869836Y1638582D01*
X870940Y1637679D01*
X871742Y1635874D01*
X871943Y1634470D01*
X871742Y1632063D01*
X871241Y1631561D01*
X869836Y1631160D01*
X865724Y1631260D01*
X863919Y1631060D01*
X863217Y1630558D01*
X862916Y1630057D01*
X863518Y1629054D01*
X863819Y1628753D01*
X864822Y1628352D01*
X866126Y1628252D01*
X866928Y1628452D01*
X867931Y1628853D01*
X868733Y1629054D01*
X869234Y1629154D01*
X870238Y1628552D01*
X870539Y1628252D01*
Y1627449D01*
Y1627248D01*
X869535Y1625844D01*
X868432Y1625343D01*
X866426Y1625142D01*
X863016Y1625343D01*
X861612Y1626145D01*
X860810Y1626947D01*
X860409Y1627148D01*
X859305Y1628252D01*
X858904Y1629254D01*
X858704Y1631260D01*
X858904Y1635874D01*
X859305Y1636275D01*
X859506Y1636676D01*
X860509Y1637679D01*
X860709Y1638080D01*
X861211Y1638582D01*
X863016Y1639585D01*
X864420Y1640186D01*
X865223Y1640387D01*
X866828Y1640186D01*
D02*
G37*
G36*
X930013D02*
X931016Y1639585D01*
X933222Y1638381D01*
X933523Y1638080D01*
X933924Y1637077D01*
X934727Y1635673D01*
X935328Y1634269D01*
X935529Y1632865D01*
X935328Y1632063D01*
X935128Y1631661D01*
X934626Y1631160D01*
X933022Y1630759D01*
X931618Y1630959D01*
X930815Y1631160D01*
X927505Y1631260D01*
X926703Y1631060D01*
X926001Y1630558D01*
X925901Y1629656D01*
X926302Y1629254D01*
X926402Y1628954D01*
X926803Y1628753D01*
X927806Y1628352D01*
X928609Y1628151D01*
X929913Y1628452D01*
X930013Y1628552D01*
X932219Y1629555D01*
X933022Y1629355D01*
X933322Y1629054D01*
X933724Y1627650D01*
X932921Y1626245D01*
X932620Y1625945D01*
X931216Y1625343D01*
X929812Y1625142D01*
X925801Y1625343D01*
X924396Y1626346D01*
X922290Y1628452D01*
X921889Y1629455D01*
X921689Y1630859D01*
X921889Y1635874D01*
X922591Y1636777D01*
X922992Y1636977D01*
X923895Y1637880D01*
X924095Y1638281D01*
X924396Y1638582D01*
X924797Y1638782D01*
X926202Y1639785D01*
X927606Y1640387D01*
X930013Y1640186D01*
D02*
G37*
G36*
X678676D02*
X680280Y1639183D01*
X680682Y1638983D01*
X682487Y1637579D01*
X682788Y1637278D01*
X683390Y1635874D01*
X683590Y1633266D01*
X683390Y1631862D01*
X682888Y1631360D01*
X680882Y1630759D01*
X678977Y1631060D01*
X677974Y1631260D01*
X676870Y1631360D01*
X676269Y1631160D01*
X675266Y1630558D01*
X674965Y1629856D01*
X675567Y1628853D01*
X676469Y1628352D01*
X677272Y1628151D01*
X678475Y1628352D01*
X680682Y1629756D01*
X681785Y1629455D01*
X682788Y1628853D01*
X682988Y1628051D01*
X682487Y1627148D01*
X682086Y1626947D01*
X680481Y1625343D01*
X678475Y1625142D01*
X674463Y1625343D01*
X673059Y1626346D01*
X671956Y1627248D01*
X671555Y1627650D01*
X671354Y1628051D01*
X670351Y1630257D01*
X670151Y1632865D01*
X670351Y1633667D01*
X670552Y1635874D01*
X671154Y1636476D01*
X671254Y1636777D01*
X671354Y1636877D01*
X671755Y1637278D01*
X671956Y1637679D01*
X672859Y1638582D01*
X673260Y1638782D01*
X675466Y1640186D01*
X676870Y1640387D01*
X678676Y1640186D01*
D02*
G37*
G36*
X567951Y1639986D02*
X568653Y1639284D01*
X568854Y1638883D01*
X569255Y1637880D01*
X569455Y1637077D01*
X569255Y1635071D01*
X569355Y1628352D01*
X569155Y1626747D01*
X568453Y1625644D01*
X567149Y1625142D01*
X565845Y1625443D01*
X564742Y1625945D01*
X562936Y1625744D01*
X561933Y1625343D01*
X560529Y1625142D01*
X558724Y1625343D01*
X557621Y1626245D01*
X557119Y1626747D01*
X556718Y1626947D01*
X556016Y1627650D01*
X555615Y1628653D01*
X555414Y1630057D01*
X555615Y1638481D01*
X556317Y1639384D01*
X557119Y1639585D01*
X558122Y1638983D01*
X558423Y1638682D01*
X558824Y1637679D01*
Y1633868D01*
Y1633667D01*
X558724Y1630558D01*
X559125Y1629555D01*
X559727Y1628954D01*
X560730Y1628552D01*
X561532Y1628352D01*
X562936Y1628552D01*
X564641Y1629856D01*
X565043Y1631260D01*
X565143Y1635773D01*
X565043Y1637880D01*
X566045Y1639685D01*
X566547Y1640186D01*
X567951Y1639986D01*
D02*
G37*
G36*
X812167Y1644499D02*
X813170Y1644098D01*
X814173Y1643095D01*
X814374Y1642694D01*
X815176Y1641490D01*
X815377Y1640287D01*
X815176Y1639685D01*
X814976Y1636676D01*
X814273Y1635372D01*
X813872Y1635172D01*
X812067Y1634169D01*
X811064Y1633567D01*
X809660Y1633166D01*
X806451Y1632965D01*
X804445Y1632765D01*
X803743Y1632263D01*
X803341Y1630859D01*
X803542Y1629856D01*
Y1629656D01*
X803341Y1626847D01*
X802439Y1625744D01*
X801235Y1625945D01*
X800734Y1627048D01*
X800834Y1635573D01*
X800734Y1643697D01*
X801235Y1644399D01*
X802639Y1644800D01*
X812167Y1644499D01*
D02*
G37*
G36*
X1013859Y1639785D02*
X1014360Y1638883D01*
X1014561Y1638080D01*
X1014761Y1636074D01*
X1014561Y1626245D01*
X1014059Y1625543D01*
X1013257Y1625343D01*
X1011853Y1625543D01*
X1011351Y1626045D01*
X1010950Y1627650D01*
X1011151Y1638481D01*
X1012053Y1639585D01*
X1012254Y1639785D01*
X1012455D01*
X1013056Y1639986D01*
X1013859Y1639785D01*
D02*
G37*
G36*
X917376Y1644599D02*
X917877Y1644298D01*
X918278Y1643295D01*
X918178Y1639986D01*
X918278Y1628653D01*
Y1628452D01*
X918078Y1626446D01*
X917376Y1625543D01*
X915972Y1625343D01*
X914969Y1625945D01*
X914668Y1626245D01*
X914467Y1628252D01*
X914568Y1641791D01*
X914467Y1643496D01*
X914969Y1644399D01*
X915972Y1644800D01*
X917376Y1644599D01*
D02*
G37*
G36*
X622511Y1645001D02*
X622812Y1644098D01*
X622210Y1643095D01*
X621909Y1642794D01*
X621508Y1642593D01*
X620605Y1641691D01*
X620806Y1640889D01*
X622210Y1639484D01*
X622611Y1638481D01*
X622411Y1637479D01*
X622110Y1637178D01*
X621709Y1636977D01*
X620405Y1636074D01*
X620204Y1634670D01*
X620405Y1633868D01*
X620204Y1626245D01*
X619703Y1625543D01*
X618900Y1625343D01*
X618098Y1625543D01*
X617797Y1625844D01*
X617597Y1626647D01*
X617396Y1628051D01*
X617496Y1635773D01*
X616995Y1636476D01*
X616694Y1636777D01*
X616293Y1636977D01*
X615591Y1637479D01*
X615390Y1638682D01*
X615992Y1640086D01*
X616092Y1640186D01*
X617396Y1641490D01*
X617597Y1642894D01*
X617897Y1643997D01*
X618299Y1644399D01*
X618700Y1644599D01*
X619703Y1645001D01*
X621709Y1645201D01*
X622511Y1645001D01*
D02*
G37*
G36*
X984172Y1640186D02*
X985776Y1639183D01*
X987180Y1638381D01*
X989487Y1636074D01*
X989688Y1634068D01*
X989487Y1633467D01*
X989688Y1632664D01*
X989487Y1629254D01*
X988685Y1627850D01*
X988183Y1627349D01*
X987782Y1627148D01*
X987381Y1626747D01*
X986980Y1626546D01*
X986378Y1625945D01*
X985375Y1625543D01*
X983770Y1625142D01*
X979558Y1625343D01*
X978555Y1625945D01*
X978455Y1626045D01*
X977352Y1627148D01*
X976951Y1627349D01*
X976248Y1628051D01*
X975847Y1629054D01*
X975647Y1629856D01*
X975446Y1631260D01*
X975647Y1635472D01*
X975847Y1636074D01*
X976850Y1637880D01*
X977352Y1638381D01*
X979257Y1639083D01*
X979558Y1639384D01*
X979959Y1639585D01*
X980561Y1640186D01*
X981364Y1640387D01*
X984172Y1640186D01*
D02*
G37*
G36*
X828014Y1640287D02*
X831223Y1638281D01*
X831825Y1637679D01*
X832026Y1637278D01*
X833430Y1635874D01*
X833630Y1634470D01*
Y1633266D01*
Y1633066D01*
X833430Y1629656D01*
X832527Y1628753D01*
X832226Y1628653D01*
X832026Y1628252D01*
X831624Y1627850D01*
X831424Y1627449D01*
X831123Y1627148D01*
X830722Y1626947D01*
X829117Y1625343D01*
X827713Y1625142D01*
X823099Y1625343D01*
X821996Y1626245D01*
X821294Y1626947D01*
X820893Y1627148D01*
X820191Y1627850D01*
X818586Y1631260D01*
X818385Y1633667D01*
X819389Y1635071D01*
X820391Y1636676D01*
X820592Y1637077D01*
X821495Y1638181D01*
X821896Y1638381D01*
X823801Y1639685D01*
X824303Y1640186D01*
X825306Y1640588D01*
X828014Y1640287D01*
D02*
G37*
G36*
X748581D02*
X749684Y1639585D01*
X750085Y1639183D01*
X750486Y1638983D01*
X751088Y1638381D01*
X751489Y1638181D01*
X752392Y1636676D01*
X752693Y1634770D01*
X752793Y1626245D01*
X752292Y1625543D01*
X750887Y1625142D01*
X750286Y1625343D01*
X748079Y1626346D01*
X747076Y1626145D01*
X746775Y1625844D01*
X746575Y1625443D01*
X745472Y1624942D01*
X745070D01*
X742062Y1625142D01*
X741159Y1626045D01*
X740958Y1626446D01*
X740056Y1627549D01*
X739755Y1627850D01*
X739354Y1628853D01*
X739554Y1630057D01*
X739955Y1630458D01*
X740156Y1630859D01*
X740958Y1631661D01*
X741159Y1632063D01*
X741861Y1632765D01*
X743767Y1633467D01*
X745873Y1634369D01*
X747478Y1634770D01*
X748480Y1635372D01*
X748581Y1636275D01*
X748079Y1636777D01*
X746475Y1637178D01*
X744268Y1636777D01*
X743165Y1635874D01*
X742262Y1635573D01*
X741460Y1635773D01*
X741159Y1636074D01*
X740958Y1636877D01*
X741159Y1638080D01*
X741861Y1638782D01*
X742262Y1638983D01*
X743666Y1639986D01*
X744669Y1640387D01*
X747778Y1640487D01*
X748581Y1640287D01*
D02*
G37*
G36*
X607467Y1640186D02*
X608069Y1639585D01*
X608470Y1639384D01*
X608871Y1638983D01*
X609874Y1638381D01*
X611479Y1636777D01*
X611880Y1636576D01*
X612381Y1635472D01*
X612482Y1631762D01*
X612281Y1629756D01*
X612080Y1628954D01*
X611378Y1627850D01*
X610676Y1627148D01*
X610275Y1626947D01*
X609974Y1626647D01*
X609774Y1626245D01*
X609272Y1625744D01*
X608269Y1625343D01*
X606865Y1625142D01*
X603154Y1625243D01*
X603054Y1625343D01*
X602051Y1625543D01*
X600948Y1626446D01*
X600045Y1627349D01*
X599644Y1627549D01*
X598942Y1628252D01*
X598741Y1629656D01*
X598541Y1630458D01*
X598741Y1636074D01*
X599243Y1636777D01*
X599644Y1636977D01*
X600547Y1637880D01*
X600747Y1638281D01*
X601048Y1638582D01*
X602452Y1639384D01*
X603255Y1640186D01*
X604057Y1640387D01*
X607467Y1640186D01*
D02*
G37*
G36*
X546488D02*
X547892Y1639183D01*
X549296Y1638582D01*
X549697Y1638381D01*
X550199Y1637880D01*
X551804Y1634470D01*
X552004Y1633066D01*
X551804Y1630458D01*
X550801Y1628853D01*
X550399Y1627850D01*
X549497Y1626947D01*
X549096Y1626747D01*
X547692Y1625343D01*
X546287Y1625142D01*
X541473Y1625343D01*
X540771Y1626045D01*
X540671Y1626145D01*
X539869Y1626947D01*
X539468Y1627148D01*
X538765Y1627850D01*
X538565Y1628252D01*
X537361Y1629455D01*
X537161Y1629856D01*
X536960Y1630458D01*
X536860Y1633166D01*
X537060Y1635172D01*
X537361Y1635874D01*
X538364Y1636877D01*
X538565Y1637278D01*
X539468Y1638381D01*
X539869Y1638782D01*
X541674Y1639785D01*
X543078Y1640387D01*
X544582Y1640487D01*
X546488Y1640186D01*
D02*
G37*
G36*
X957895Y1642995D02*
X958396Y1642493D01*
X958998Y1640086D01*
X959299Y1639585D01*
X959700Y1639384D01*
X960803Y1638481D01*
X960603Y1637278D01*
X958897Y1636375D01*
X958396Y1635071D01*
X958496Y1634770D01*
X958597Y1634670D01*
X958797Y1628653D01*
X959901Y1627549D01*
X960302Y1627349D01*
X960803Y1626847D01*
X960603Y1625644D01*
X960302Y1625343D01*
X958697Y1624942D01*
X957895Y1625142D01*
X956892Y1625744D01*
X956591Y1626045D01*
X956390Y1626446D01*
X955187Y1627650D01*
X954986Y1628452D01*
X954785Y1636074D01*
X954284Y1636777D01*
X953883Y1636977D01*
X953381Y1637479D01*
X953181Y1638281D01*
X953381Y1639284D01*
X953782Y1639685D01*
X953983Y1640086D01*
X954384Y1640487D01*
X955287Y1642393D01*
X955688Y1642593D01*
X957092Y1643195D01*
X957895Y1642995D01*
D02*
G37*
G36*
X705454Y1639885D02*
X705755Y1639585D01*
X706758Y1639183D01*
X707861Y1639083D01*
X708864Y1639284D01*
X710369Y1640186D01*
X711572Y1639986D01*
X712074Y1639083D01*
X712274Y1637679D01*
X712074Y1622635D01*
X711873Y1622234D01*
X711773Y1622133D01*
X710970Y1621331D01*
X710569Y1621131D01*
X710068Y1620629D01*
X709867Y1620228D01*
X709566Y1619927D01*
X708563Y1619526D01*
X707159Y1619325D01*
X704451Y1619225D01*
X702245Y1619426D01*
X701242Y1619827D01*
X699035Y1622033D01*
X698835Y1622835D01*
X699336Y1623939D01*
X700139Y1624139D01*
X700741Y1624340D01*
X701342Y1624139D01*
X702746Y1623337D01*
X703147Y1622936D01*
X703549Y1622735D01*
X704953Y1622133D01*
X706959Y1622334D01*
X707360Y1622735D01*
X707761Y1622936D01*
X708262Y1624039D01*
X708062Y1625844D01*
X707761Y1626145D01*
X706858Y1626245D01*
X705855Y1625844D01*
X704953Y1625343D01*
X703348Y1624942D01*
X701944Y1625142D01*
X701443Y1625644D01*
X701242Y1626045D01*
X700339Y1627148D01*
X699236Y1628051D01*
X698835Y1628452D01*
X698434Y1629856D01*
X698233Y1630658D01*
X698434Y1636074D01*
X699236Y1637479D01*
X699537Y1637980D01*
X699938Y1638181D01*
X700339Y1638582D01*
X700741Y1638782D01*
X702746Y1640186D01*
X704150Y1640387D01*
X705454Y1639885D01*
D02*
G37*
G36*
X717590Y1639384D02*
X718091Y1638883D01*
X718292Y1638481D01*
X719596Y1636576D01*
X719897Y1636275D01*
X720097Y1633667D01*
X720298Y1633266D01*
X720799Y1632564D01*
X721602Y1632364D01*
X722605Y1632564D01*
X723006Y1632965D01*
X723407Y1633166D01*
X724209Y1634369D01*
X725112Y1635874D01*
X725513Y1638281D01*
X726215Y1638983D01*
X727218Y1639183D01*
X728121Y1638481D01*
X728321Y1637077D01*
X728121Y1636476D01*
X727820Y1634770D01*
X727619Y1633968D01*
X727118Y1633266D01*
X726316Y1632464D01*
X725914Y1631461D01*
X725714Y1629054D01*
X725513Y1628452D01*
X725112Y1627449D01*
X724510Y1626045D01*
X724109Y1624641D01*
X723607Y1623337D01*
X722905Y1622234D01*
X721903Y1620830D01*
X721702Y1620429D01*
X721401Y1619927D01*
X721000Y1619727D01*
X719596Y1619125D01*
X718192Y1618924D01*
X716988Y1619125D01*
X716487Y1619626D01*
X716286Y1620429D01*
X716487Y1621231D01*
X716787Y1621732D01*
X717189Y1621933D01*
X717289Y1622033D01*
X717590Y1622334D01*
X717991Y1622535D01*
X719094Y1623437D01*
X719696Y1624039D01*
X719897Y1624841D01*
X719696Y1626647D01*
X718493Y1628653D01*
X718091Y1630257D01*
X717791Y1631762D01*
X716787Y1632965D01*
X716487Y1633266D01*
X716085Y1634871D01*
X715885Y1637479D01*
X715684Y1638080D01*
X715885Y1639083D01*
X716386Y1639585D01*
X717590Y1639384D01*
D02*
G37*
G36*
X661901Y1533097D02*
X662880D01*
Y1532118D01*
X663859D01*
Y1529180D01*
X662880D01*
Y1526242D01*
X661901D01*
Y1524284D01*
X660921D01*
Y1521346D01*
X659942D01*
Y1519388D01*
X658963D01*
Y1516450D01*
X657984D01*
Y1514491D01*
X657004D01*
Y1512533D01*
X656025D01*
Y1509595D01*
X655046D01*
Y1507637D01*
X654067D01*
Y1504699D01*
X653087D01*
Y1502741D01*
X652108D01*
Y1500782D01*
X651129D01*
Y1497845D01*
X650150D01*
Y1496865D01*
X649171D01*
Y1495886D01*
X316233D01*
Y1494907D01*
X310357D01*
Y1493928D01*
X305461D01*
Y1492948D01*
X302523D01*
Y1491969D01*
X299586D01*
Y1490990D01*
X297627D01*
Y1490011D01*
X294690D01*
Y1489031D01*
X292731D01*
Y1488052D01*
X291752D01*
Y1487073D01*
X289793D01*
Y1486094D01*
X287835D01*
Y1485114D01*
X286856D01*
Y1484135D01*
X284897D01*
Y1483156D01*
X283918D01*
Y1482177D01*
X282939D01*
Y1481198D01*
X281960D01*
Y1480218D01*
X280980D01*
Y1479239D01*
X279022D01*
Y1478260D01*
X278043D01*
Y1476301D01*
X277063D01*
Y1475322D01*
X276084D01*
Y1474343D01*
X275105D01*
Y1473364D01*
X274126D01*
Y1472384D01*
X273147D01*
Y1470426D01*
X272167D01*
Y1469447D01*
X271188D01*
Y1467488D01*
X270209D01*
Y1465530D01*
X269230D01*
Y1464551D01*
X268250D01*
Y1462592D01*
X267271D01*
Y1459654D01*
X266292D01*
Y1457696D01*
X265313D01*
Y1454758D01*
X264333D01*
Y1451821D01*
X263354D01*
Y1447904D01*
X262375D01*
Y1441049D01*
X261396D01*
Y1428319D01*
X262375D01*
Y1421465D01*
X263354D01*
Y1417548D01*
X264333D01*
Y1413631D01*
X265313D01*
Y1411672D01*
X266292D01*
Y1408735D01*
X267271D01*
Y1406776D01*
X268250D01*
Y1404818D01*
X269230D01*
Y1402859D01*
X270209D01*
Y1401880D01*
X271188D01*
Y1399922D01*
X272167D01*
Y1398942D01*
X273147D01*
Y1397963D01*
X274126D01*
Y1396005D01*
X275105D01*
Y1395025D01*
X276084D01*
Y1394046D01*
X277063D01*
Y1393067D01*
X278043D01*
Y1392088D01*
X279022D01*
Y1391108D01*
X280001D01*
Y1390129D01*
X280980D01*
Y1389150D01*
X281960D01*
Y1388171D01*
X282939D01*
Y1387192D01*
X284897D01*
Y1386212D01*
X285876D01*
Y1385233D01*
X286856D01*
Y1384254D01*
X287835D01*
Y1383275D01*
X288814D01*
Y1382295D01*
X289793D01*
Y1381316D01*
X290773D01*
Y1380337D01*
X291752D01*
Y1379358D01*
X292731D01*
Y1378378D01*
X293710D01*
Y1377399D01*
X294690D01*
Y1376420D01*
X295669D01*
Y1375441D01*
X296648D01*
Y1374462D01*
X297627D01*
Y1373482D01*
X298606D01*
Y1372503D01*
X300565D01*
Y1371524D01*
X301544D01*
Y1370545D01*
X302523D01*
Y1369565D01*
X303503D01*
Y1368586D01*
X304482D01*
Y1367607D01*
X305461D01*
Y1366628D01*
X306440D01*
Y1365649D01*
X307420D01*
Y1364669D01*
X308399D01*
Y1363690D01*
X309378D01*
Y1362711D01*
X310357D01*
Y1361732D01*
X311336D01*
Y1360752D01*
X312316D01*
Y1359773D01*
X313295D01*
Y1358794D01*
X314274D01*
Y1357815D01*
X316233D01*
Y1356835D01*
X317212D01*
Y1355856D01*
X318191D01*
Y1354877D01*
X319170D01*
Y1353898D01*
X320149D01*
Y1352919D01*
X321129D01*
Y1351939D01*
X322108D01*
Y1350960D01*
X323087D01*
Y1349981D01*
X324066D01*
Y1349002D01*
X325046D01*
Y1348022D01*
X326025D01*
Y1347043D01*
X327004D01*
Y1346064D01*
X327983D01*
Y1345085D01*
X328963D01*
Y1344106D01*
X329942D01*
Y1343126D01*
X331900D01*
Y1342147D01*
X332879D01*
Y1341168D01*
X333859D01*
Y1340189D01*
X334838D01*
Y1339209D01*
X335817D01*
Y1338230D01*
X336796D01*
Y1337251D01*
X337776D01*
Y1336272D01*
X338755D01*
Y1335292D01*
X339734D01*
Y1334313D01*
X340713D01*
Y1332355D01*
X341693D01*
Y1330396D01*
X342672D01*
Y1322563D01*
X341693D01*
Y1320604D01*
X340713D01*
Y1319625D01*
X339734D01*
Y1318646D01*
X337776D01*
Y1317666D01*
X336796D01*
Y1316687D01*
X332879D01*
Y1315708D01*
X165431D01*
Y1316687D01*
X163473D01*
Y1317666D01*
X162494D01*
Y1321583D01*
X163473D01*
Y1324521D01*
X164452D01*
Y1326479D01*
X165431D01*
Y1328438D01*
X166411D01*
Y1331376D01*
X167390D01*
Y1333334D01*
X168369D01*
Y1336272D01*
X169348D01*
Y1338230D01*
X170328D01*
Y1340189D01*
X171307D01*
Y1343126D01*
X172286D01*
Y1345085D01*
X173265D01*
Y1348022D01*
X174245D01*
Y1349981D01*
X175224D01*
Y1352919D01*
X176203D01*
Y1354877D01*
X177182D01*
Y1356835D01*
X178161D01*
Y1359773D01*
X179141D01*
Y1361732D01*
X180120D01*
Y1364669D01*
X181099D01*
Y1366628D01*
X182078D01*
Y1368586D01*
X183058D01*
Y1371524D01*
X184037D01*
Y1373482D01*
X185016D01*
Y1376420D01*
X185995D01*
Y1378378D01*
X186974D01*
Y1380337D01*
X187954D01*
Y1383275D01*
X188933D01*
Y1385233D01*
X189912D01*
Y1388171D01*
X190891D01*
Y1390129D01*
X191871D01*
Y1392088D01*
X192850D01*
Y1395025D01*
X193829D01*
Y1396984D01*
X194808D01*
Y1399922D01*
X195788D01*
Y1401880D01*
X196767D01*
Y1404818D01*
X197746D01*
Y1406776D01*
X198725D01*
Y1408735D01*
X199704D01*
Y1411672D01*
X200684D01*
Y1413631D01*
X201663D01*
Y1416568D01*
X202642D01*
Y1418527D01*
X203621D01*
Y1420485D01*
X204601D01*
Y1423423D01*
X205580D01*
Y1425381D01*
X206559D01*
Y1428319D01*
X207538D01*
Y1430278D01*
X208517D01*
Y1432236D01*
X209497D01*
Y1435174D01*
X210476D01*
Y1437132D01*
X211455D01*
Y1440070D01*
X212434D01*
Y1442028D01*
X213414D01*
Y1443987D01*
X214393D01*
Y1446924D01*
X215372D01*
Y1448883D01*
X216351D01*
Y1451821D01*
X217331D01*
Y1453779D01*
X218310D01*
Y1455738D01*
X219289D01*
Y1458675D01*
X220268D01*
Y1460634D01*
X221247D01*
Y1463571D01*
X222227D01*
Y1465530D01*
X223206D01*
Y1468468D01*
X224185D01*
Y1470426D01*
X225164D01*
Y1472384D01*
X226144D01*
Y1475322D01*
X227123D01*
Y1477281D01*
X228102D01*
Y1479239D01*
Y1480218D01*
X229081D01*
Y1482177D01*
X230060D01*
Y1484135D01*
X231040D01*
Y1487073D01*
X232019D01*
Y1489031D01*
X232998D01*
Y1491969D01*
X233977D01*
Y1493928D01*
X234957D01*
Y1495886D01*
X235936D01*
Y1497845D01*
X236915D01*
Y1499803D01*
X237894D01*
Y1501761D01*
X238874D01*
Y1502741D01*
X239853D01*
Y1504699D01*
X240832D01*
Y1505678D01*
X241811D01*
Y1507637D01*
X242790D01*
Y1508616D01*
X243770D01*
Y1509595D01*
X244749D01*
Y1511554D01*
X245728D01*
Y1512533D01*
X246707D01*
Y1513512D01*
X247687D01*
Y1514491D01*
X248666D01*
Y1515471D01*
X249645D01*
Y1516450D01*
X250624D01*
Y1517429D01*
X251604D01*
Y1518408D01*
X253562D01*
Y1519388D01*
X254541D01*
Y1520367D01*
X255520D01*
Y1521346D01*
X257479D01*
Y1522325D01*
X258458D01*
Y1523305D01*
X260417D01*
Y1524284D01*
X261396D01*
Y1525263D01*
X263354D01*
Y1526242D01*
X265313D01*
Y1527221D01*
X267271D01*
Y1528201D01*
X269230D01*
Y1529180D01*
X271188D01*
Y1530159D01*
X274126D01*
Y1531138D01*
X277063D01*
Y1532118D01*
X280980D01*
Y1533097D01*
X285876D01*
Y1534076D01*
X661901D01*
Y1533097D01*
D02*
G37*
G36*
X625669Y1444966D02*
X626648D01*
Y1443987D01*
X627627D01*
Y1441049D01*
X626648D01*
Y1439091D01*
X625669D01*
Y1436153D01*
X624690D01*
Y1434194D01*
X623710D01*
Y1432236D01*
X622731D01*
Y1429298D01*
X621752D01*
Y1427340D01*
X620773D01*
Y1424402D01*
X619794D01*
Y1422444D01*
X618814D01*
Y1420485D01*
X617835D01*
Y1417548D01*
X616856D01*
Y1415589D01*
X615877D01*
Y1412651D01*
X614897D01*
Y1410693D01*
X613918D01*
Y1407755D01*
X612939D01*
Y1405797D01*
X611960D01*
Y1403838D01*
X610980D01*
Y1400901D01*
X610001D01*
Y1398942D01*
X609022D01*
Y1396005D01*
X608043D01*
Y1394046D01*
X607064D01*
Y1392088D01*
X606084D01*
Y1389150D01*
X605105D01*
Y1387192D01*
X604126D01*
Y1384254D01*
X603147D01*
Y1382295D01*
X602167D01*
Y1379358D01*
X601188D01*
Y1377399D01*
X600209D01*
Y1375441D01*
X599230D01*
Y1372503D01*
X598251D01*
Y1370545D01*
X597271D01*
Y1367607D01*
X596292D01*
Y1365649D01*
X595313D01*
Y1363690D01*
X594334D01*
Y1360752D01*
X593354D01*
Y1358794D01*
X592375D01*
Y1355856D01*
X591396D01*
Y1353898D01*
X590417D01*
Y1350960D01*
X589437D01*
Y1349002D01*
X588458D01*
Y1347043D01*
X587479D01*
Y1344106D01*
X586500D01*
Y1342147D01*
X585521D01*
Y1339209D01*
X584541D01*
Y1337251D01*
X583562D01*
Y1335292D01*
X582583D01*
Y1332355D01*
X581604D01*
Y1330396D01*
X580624D01*
Y1327459D01*
X579645D01*
Y1325500D01*
X578666D01*
Y1323542D01*
X577687D01*
Y1320604D01*
X576708D01*
Y1318646D01*
X575728D01*
Y1315708D01*
X574749D01*
Y1313749D01*
X573770D01*
Y1310812D01*
X572791D01*
Y1308853D01*
X571811D01*
Y1306895D01*
X570832D01*
Y1304936D01*
X569853D01*
Y1302978D01*
X568874D01*
Y1301019D01*
X567894D01*
Y1299061D01*
X566915D01*
Y1298082D01*
X565936D01*
Y1296123D01*
X564957D01*
Y1295144D01*
X563978D01*
Y1294165D01*
X562998D01*
Y1292206D01*
X562019D01*
Y1291227D01*
X561040D01*
Y1290248D01*
X560061D01*
Y1289269D01*
X559081D01*
Y1288290D01*
X558102D01*
Y1287310D01*
X557123D01*
Y1286331D01*
X556144D01*
Y1285352D01*
X555164D01*
Y1284373D01*
X554185D01*
Y1283393D01*
X553206D01*
Y1282414D01*
X551248D01*
Y1281435D01*
X550268D01*
Y1280456D01*
X549289D01*
Y1279476D01*
X547331D01*
Y1278497D01*
X546351D01*
Y1277518D01*
X544393D01*
Y1276539D01*
X542435D01*
Y1275560D01*
X541455D01*
Y1274580D01*
X539497D01*
Y1273601D01*
X536559D01*
Y1272622D01*
X534601D01*
Y1271643D01*
X531663D01*
Y1270663D01*
X528725D01*
Y1269684D01*
X524808D01*
Y1268705D01*
X518933D01*
Y1267726D01*
X484660D01*
Y1268705D01*
X483681D01*
Y1270663D01*
X482702D01*
Y1271643D01*
X483681D01*
Y1274580D01*
X484660D01*
Y1276539D01*
X485639D01*
Y1279476D01*
X486619D01*
Y1281435D01*
X487598D01*
Y1284373D01*
X488577D01*
Y1286331D01*
X489556D01*
Y1289269D01*
X490535D01*
Y1291227D01*
X491515D01*
Y1293186D01*
X492494D01*
Y1296123D01*
X493473D01*
Y1298082D01*
X494452D01*
Y1301019D01*
X495432D01*
Y1302978D01*
X496411D01*
Y1304936D01*
X497390D01*
Y1307874D01*
X498369D01*
Y1309833D01*
X499349D01*
Y1312770D01*
X500328D01*
Y1314729D01*
X501307D01*
Y1316687D01*
X502286D01*
Y1319625D01*
X503265D01*
Y1321583D01*
X504245D01*
Y1322563D01*
Y1324521D01*
X505224D01*
Y1326479D01*
X506203D01*
Y1329417D01*
X507182D01*
Y1331376D01*
X508162D01*
Y1333334D01*
X509141D01*
Y1336272D01*
X510120D01*
Y1338230D01*
X511099D01*
Y1341168D01*
X512078D01*
Y1343126D01*
X513058D01*
Y1345085D01*
X514037D01*
Y1348022D01*
X515016D01*
Y1349981D01*
X515995D01*
Y1352919D01*
X516975D01*
Y1354877D01*
X517954D01*
Y1357815D01*
X518933D01*
Y1359773D01*
X519912D01*
Y1361732D01*
X520892D01*
Y1364669D01*
X521871D01*
Y1366628D01*
X522850D01*
Y1369565D01*
X523829D01*
Y1371524D01*
X524808D01*
Y1373482D01*
X525788D01*
Y1376420D01*
X526767D01*
Y1378378D01*
X527746D01*
Y1381316D01*
X528725D01*
Y1383275D01*
X529705D01*
Y1386212D01*
X530684D01*
Y1388171D01*
X531663D01*
Y1390129D01*
X532642D01*
Y1393067D01*
X533621D01*
Y1395025D01*
X534601D01*
Y1397963D01*
X535580D01*
Y1399922D01*
X536559D01*
Y1401880D01*
X537538D01*
Y1404818D01*
X538518D01*
Y1406776D01*
X539497D01*
Y1409714D01*
X540476D01*
Y1411672D01*
X541455D01*
Y1414610D01*
X542435D01*
Y1416568D01*
X543414D01*
Y1418527D01*
X544393D01*
Y1421465D01*
X545372D01*
Y1423423D01*
X546351D01*
Y1426361D01*
X547331D01*
Y1428319D01*
X548310D01*
Y1430278D01*
X549289D01*
Y1433215D01*
X550268D01*
Y1435174D01*
X551248D01*
Y1438111D01*
X552227D01*
Y1440070D01*
X553206D01*
Y1442028D01*
X554185D01*
Y1443008D01*
X555164D01*
Y1443987D01*
X556144D01*
Y1444966D01*
X558102D01*
Y1445945D01*
X625669D01*
Y1444966D01*
D02*
G37*
G36*
X501307D02*
X502286D01*
Y1441049D01*
X501307D01*
Y1438111D01*
X500328D01*
Y1436153D01*
X499349D01*
Y1433215D01*
X498369D01*
Y1431257D01*
X497390D01*
Y1428319D01*
X496411D01*
Y1426361D01*
X495432D01*
Y1424402D01*
X494452D01*
Y1421465D01*
X493473D01*
Y1419506D01*
X492494D01*
Y1416568D01*
X491515D01*
Y1414610D01*
X490535D01*
Y1412651D01*
X489556D01*
Y1409714D01*
X488577D01*
Y1407755D01*
X487598D01*
Y1404818D01*
X486619D01*
Y1402859D01*
X485639D01*
Y1399922D01*
X484660D01*
Y1397963D01*
X483681D01*
Y1396005D01*
X482702D01*
Y1393067D01*
X481722D01*
Y1391108D01*
X480743D01*
Y1388171D01*
X479764D01*
Y1386212D01*
X478785D01*
Y1384254D01*
X477805D01*
Y1381316D01*
X476826D01*
Y1379358D01*
X475847D01*
Y1376420D01*
X474868D01*
Y1374462D01*
X473889D01*
Y1371524D01*
X472909D01*
Y1369565D01*
X471930D01*
Y1367607D01*
X470951D01*
Y1364669D01*
X469972D01*
Y1362711D01*
X468992D01*
Y1359773D01*
X468013D01*
Y1357815D01*
X467034D01*
Y1355856D01*
X466055D01*
Y1352919D01*
X465076D01*
Y1350960D01*
X464096D01*
Y1348022D01*
X463117D01*
Y1346064D01*
X462138D01*
Y1343126D01*
X461159D01*
Y1341168D01*
X460179D01*
Y1339209D01*
X459200D01*
Y1336272D01*
X458221D01*
Y1334313D01*
X457242D01*
Y1331376D01*
X456262D01*
Y1329417D01*
X455283D01*
Y1327459D01*
X454304D01*
Y1324521D01*
X453325D01*
Y1322563D01*
X452346D01*
Y1319625D01*
X451366D01*
Y1317666D01*
X450387D01*
Y1314729D01*
X449408D01*
Y1312770D01*
X448429D01*
Y1310812D01*
X447449D01*
Y1307874D01*
X446470D01*
Y1305916D01*
X445491D01*
Y1302978D01*
X444512D01*
Y1301019D01*
X443533D01*
Y1299061D01*
X442553D01*
Y1296123D01*
X441574D01*
Y1294165D01*
X440595D01*
Y1291227D01*
X439616D01*
Y1289269D01*
X438636D01*
Y1286331D01*
X437657D01*
Y1284373D01*
X436678D01*
Y1282414D01*
X435699D01*
Y1279476D01*
X434719D01*
Y1277518D01*
X433740D01*
Y1274580D01*
X432761D01*
Y1272622D01*
X431782D01*
Y1271643D01*
X430803D01*
Y1270663D01*
X429823D01*
Y1269684D01*
X428844D01*
Y1268705D01*
X426886D01*
Y1267726D01*
X354423D01*
Y1268705D01*
X355402D01*
Y1269684D01*
X357360D01*
Y1270663D01*
X359319D01*
Y1271643D01*
X361277D01*
Y1272622D01*
X362256D01*
Y1273601D01*
X364215D01*
Y1274580D01*
X365194D01*
Y1275560D01*
X367153D01*
Y1276539D01*
X368132D01*
Y1277518D01*
X369111D01*
Y1278497D01*
X370090D01*
Y1279476D01*
X371070D01*
Y1280456D01*
X372049D01*
Y1281435D01*
X373028D01*
Y1282414D01*
X374007D01*
Y1283393D01*
X374986D01*
Y1284373D01*
X375966D01*
Y1285352D01*
X376945D01*
Y1286331D01*
X377924D01*
Y1287310D01*
X378903D01*
Y1289269D01*
X379883D01*
Y1290248D01*
X380862D01*
Y1292206D01*
X381841D01*
Y1293186D01*
X382820D01*
Y1295144D01*
X383800D01*
Y1297103D01*
X384779D01*
Y1298082D01*
X385758D01*
Y1300040D01*
X386737D01*
Y1302978D01*
X387716D01*
Y1304936D01*
X388696D01*
Y1307874D01*
X389675D01*
Y1310812D01*
X390654D01*
Y1314729D01*
X391633D01*
Y1320604D01*
X392613D01*
Y1335292D01*
X391633D01*
Y1340189D01*
X390654D01*
Y1344106D01*
X389675D01*
Y1347043D01*
X388696D01*
Y1349981D01*
X387716D01*
Y1351939D01*
X386737D01*
Y1353898D01*
X385758D01*
Y1355856D01*
X384779D01*
Y1357815D01*
X383800D01*
Y1358794D01*
X382820D01*
Y1360752D01*
X381841D01*
Y1361732D01*
X380862D01*
Y1363690D01*
X379883D01*
Y1364669D01*
X378903D01*
Y1365649D01*
X377924D01*
Y1367607D01*
X376945D01*
Y1368586D01*
X375966D01*
Y1369565D01*
X374986D01*
Y1370545D01*
X374007D01*
Y1371524D01*
X373028D01*
Y1372503D01*
X372049D01*
Y1373482D01*
X371070D01*
Y1374462D01*
X370090D01*
Y1375441D01*
X369111D01*
Y1376420D01*
X368132D01*
Y1377399D01*
X367153D01*
Y1378378D01*
X366173D01*
Y1379358D01*
X365194D01*
Y1380337D01*
X363236D01*
Y1381316D01*
X362256D01*
Y1382295D01*
X361277D01*
Y1383275D01*
X360298D01*
Y1384254D01*
X359319D01*
Y1385233D01*
X358339D01*
Y1386212D01*
X357360D01*
Y1387192D01*
X356381D01*
Y1388171D01*
X355402D01*
Y1389150D01*
X354423D01*
Y1390129D01*
X353443D01*
Y1391108D01*
X352464D01*
Y1392088D01*
X351485D01*
Y1393067D01*
X349526D01*
Y1394046D01*
X348547D01*
Y1395025D01*
X347568D01*
Y1396005D01*
X346589D01*
Y1396984D01*
X345609D01*
Y1397963D01*
X344630D01*
Y1398942D01*
X343651D01*
Y1399922D01*
X342672D01*
Y1400901D01*
X341693D01*
Y1401880D01*
X340713D01*
Y1402859D01*
X339734D01*
Y1403838D01*
X338755D01*
Y1404818D01*
X337776D01*
Y1405797D01*
X335817D01*
Y1406776D01*
X334838D01*
Y1407755D01*
X333859D01*
Y1408735D01*
X332879D01*
Y1409714D01*
X331900D01*
Y1410693D01*
X330921D01*
Y1411672D01*
X329942D01*
Y1412651D01*
X328963D01*
Y1413631D01*
X327983D01*
Y1414610D01*
X327004D01*
Y1415589D01*
X326025D01*
Y1416568D01*
X325046D01*
Y1417548D01*
X324066D01*
Y1418527D01*
X323087D01*
Y1419506D01*
X321129D01*
Y1420485D01*
X320149D01*
Y1421465D01*
X319170D01*
Y1422444D01*
X318191D01*
Y1423423D01*
X317212D01*
Y1424402D01*
X316233D01*
Y1425381D01*
X315253D01*
Y1426361D01*
X314274D01*
Y1427340D01*
X313295D01*
Y1429298D01*
X312316D01*
Y1431257D01*
X311336D01*
Y1434194D01*
Y1435174D01*
Y1438111D01*
X312316D01*
Y1440070D01*
X313295D01*
Y1442028D01*
X314274D01*
Y1443008D01*
X315253D01*
Y1443987D01*
X317212D01*
Y1444966D01*
X319170D01*
Y1445945D01*
X501307D01*
Y1444966D01*
D02*
G37*
G36*
X911020Y1213929D02*
Y856031D01*
Y855725D01*
X910867Y839346D01*
X536284Y839499D01*
X536437Y1214082D01*
X911020Y1213929D01*
D02*
G37*
G36*
X535978D02*
X535825Y839346D01*
X158793Y839499D01*
Y954614D01*
Y954920D01*
X158946Y1214082D01*
X535978Y1213929D01*
D02*
G37*
%LPC*%
G36*
X12251355Y6779724D02*
X12249032D01*
Y6778562D01*
X12250193D01*
Y6777401D01*
X12251355D01*
Y6779724D01*
D02*
G37*
G36*
X12256001Y6775078D02*
X12254840D01*
Y6773916D01*
X12252517D01*
Y6772755D01*
X12244385D01*
Y6771593D01*
X12240901D01*
Y6770431D01*
X12236255D01*
Y6769270D01*
X12232770D01*
Y6768108D01*
X12228124D01*
Y6766947D01*
X12223477D01*
Y6765785D01*
X12219993D01*
Y6764624D01*
X12214185D01*
Y6763462D01*
X12213023D01*
Y6761139D01*
X12211862D01*
Y6758816D01*
X12210700D01*
Y6756493D01*
X12209539D01*
Y6754170D01*
X12208377D01*
Y6750685D01*
X12207216D01*
Y6747200D01*
X12206054D01*
Y6746039D01*
X12204893D01*
Y6742554D01*
X12206054D01*
Y6739069D01*
X12207216D01*
Y6734423D01*
X12208377D01*
Y6728615D01*
X12209539D01*
Y6714677D01*
X12210700D01*
Y6713515D01*
X12211862D01*
Y6710030D01*
X12213023D01*
Y6705384D01*
X12214185D01*
Y6701899D01*
X12215346D01*
Y6697253D01*
X12216508D01*
Y6672860D01*
X12215346D01*
Y6668214D01*
X12214185D01*
Y6665891D01*
X12213023D01*
Y6663568D01*
X12211862D01*
Y6662406D01*
X12210700D01*
Y6661245D01*
X12209539D01*
Y6660083D01*
X12208377D01*
Y6658922D01*
X12207216D01*
Y6657760D01*
X12204893D01*
Y6656599D01*
X12199085D01*
Y6657760D01*
X12195600D01*
Y6658922D01*
X12190954D01*
Y6660083D01*
X12189792D01*
Y6661245D01*
X12188631D01*
Y6663568D01*
X12187469D01*
Y6664730D01*
X12186308D01*
Y6667053D01*
X12185146D01*
Y6668214D01*
X12183985D01*
Y6669376D01*
X12182823D01*
Y6670537D01*
X12181661D01*
Y6672860D01*
X12180500D01*
Y6678668D01*
X12179338D01*
Y6679830D01*
X12177015D01*
Y6678668D01*
X12175853D01*
Y6670537D01*
X12174692D01*
Y6662406D01*
X12173530D01*
Y6653114D01*
X12174692D01*
Y6646145D01*
X12173530D01*
Y6641498D01*
X12174692D01*
Y6640337D01*
X12175853D01*
Y6639175D01*
X12181661D01*
Y6638014D01*
X12183985D01*
Y6635691D01*
X12186308D01*
Y6636852D01*
X12189792D01*
Y6635691D01*
X12197923D01*
Y6636852D01*
X12203731D01*
Y6638014D01*
X12206054D01*
Y6639175D01*
X12207216D01*
Y6640337D01*
X12208377D01*
Y6641498D01*
X12209539D01*
Y6643821D01*
X12210700D01*
Y6644983D01*
X12211862D01*
Y6648468D01*
X12213023D01*
Y6650791D01*
X12214185D01*
Y6653114D01*
X12215346D01*
Y6655437D01*
X12216508D01*
Y6657760D01*
X12217670D01*
Y6661245D01*
X12218831D01*
Y6663568D01*
X12219993D01*
Y6664730D01*
X12221154D01*
Y6665891D01*
X12222316D01*
Y6667053D01*
X12223477D01*
Y6668214D01*
X12224639D01*
Y6670537D01*
X12225801D01*
Y6672860D01*
X12226962D01*
Y6676345D01*
X12228124D01*
Y6678668D01*
Y6679830D01*
X12229285D01*
Y6686799D01*
X12230447D01*
Y6691445D01*
X12231608D01*
Y6694930D01*
X12232770D01*
Y6698415D01*
X12233932D01*
Y6701899D01*
X12235093D01*
Y6704223D01*
X12236255D01*
Y6707707D01*
X12237416D01*
Y6708869D01*
X12238578D01*
Y6711192D01*
X12239739D01*
Y6713515D01*
X12240901D01*
Y6715838D01*
X12242062D01*
Y6717000D01*
X12243224D01*
Y6718161D01*
X12244385D01*
Y6719323D01*
X12246709D01*
Y6720484D01*
X12247870D01*
Y6721646D01*
X12250193D01*
Y6722807D01*
X12252517D01*
Y6723969D01*
X12256001D01*
Y6725131D01*
X12258324D01*
Y6726292D01*
X12261809D01*
Y6727454D01*
X12265293D01*
Y6728615D01*
X12271101D01*
Y6729777D01*
X12280394D01*
Y6730939D01*
X12285040D01*
Y6732100D01*
X12287363D01*
Y6733262D01*
X12288525D01*
Y6734423D01*
X12289686D01*
Y6736746D01*
X12290848D01*
Y6741392D01*
X12289686D01*
Y6742554D01*
X12288525D01*
Y6744877D01*
X12287363D01*
Y6747200D01*
X12286202D01*
Y6749523D01*
X12285040D01*
Y6751847D01*
X12283879D01*
Y6755331D01*
X12282717D01*
Y6756493D01*
X12281555D01*
Y6757654D01*
X12280394D01*
Y6758816D01*
X12279232D01*
Y6759977D01*
X12276909D01*
Y6761139D01*
X12275748D01*
Y6762300D01*
X12274586D01*
Y6763462D01*
X12272263D01*
Y6764624D01*
X12271101D01*
Y6765785D01*
X12268778D01*
Y6766947D01*
X12267617D01*
Y6768108D01*
X12265293D01*
Y6769270D01*
X12264132D01*
Y6770431D01*
X12261809D01*
Y6771593D01*
X12260647D01*
Y6772755D01*
X12259486D01*
Y6773916D01*
X12256001D01*
Y6775078D01*
D02*
G37*
%LPD*%
G36*
X12181661Y6651952D02*
Y6650791D01*
X12180500D01*
Y6653114D01*
X12181661D01*
Y6651952D01*
D02*
G37*
%LPC*%
G36*
X834432Y1759436D02*
X833430Y1759235D01*
X832326Y1758533D01*
X832026Y1758233D01*
X831825Y1757430D01*
X831624Y1756026D01*
X831825Y1755424D01*
X832026Y1732156D01*
X832928Y1731254D01*
X834332Y1731053D01*
X843960Y1731254D01*
X844161D01*
X849577Y1731454D01*
X850179Y1731655D01*
X852485Y1731956D01*
X853288Y1732156D01*
X855996Y1733259D01*
X857300Y1733761D01*
X858002Y1734262D01*
X859105Y1735165D01*
X859807Y1735666D01*
X861913Y1737772D01*
X862114Y1738174D01*
X863117Y1740380D01*
X864120Y1743590D01*
X864320Y1745595D01*
X864019Y1747702D01*
X863819Y1748504D01*
X863317Y1749607D01*
X862916Y1750610D01*
X862214Y1752516D01*
X861913Y1752817D01*
X861713Y1753218D01*
X861111Y1753820D01*
X860910Y1754221D01*
X860108Y1755023D01*
X859907Y1755424D01*
X859606Y1755725D01*
X859205Y1755926D01*
X858002Y1756728D01*
X857601Y1756929D01*
X856397Y1757731D01*
X855595Y1757932D01*
X854191Y1758533D01*
X852786Y1758935D01*
X850179Y1759135D01*
X848775Y1759336D01*
X834432Y1759436D01*
D02*
G37*
G36*
X779572Y1636977D02*
X778168Y1636175D01*
X777666Y1634871D01*
X777867Y1633467D01*
X777766Y1630759D01*
X777967Y1629956D01*
X778468Y1629254D01*
X778970Y1628753D01*
X780374Y1628352D01*
X781778Y1628552D01*
X783182Y1629355D01*
X784085Y1630257D01*
X784486Y1631862D01*
X784285Y1634470D01*
X783483Y1635874D01*
X782982Y1636375D01*
X782781D01*
X781778Y1636777D01*
X779572Y1636977D01*
D02*
G37*
G36*
X579384D02*
X578783Y1636777D01*
X577780Y1636175D01*
X577479Y1635874D01*
X577078Y1634269D01*
X576978Y1632364D01*
X577078Y1631260D01*
Y1631060D01*
X577278Y1630458D01*
X578081Y1629054D01*
X578382Y1628753D01*
X579786Y1628352D01*
X581290Y1628653D01*
X582895Y1629656D01*
X583095Y1630057D01*
X583296Y1630658D01*
X583396Y1633366D01*
X583196Y1634971D01*
X582494Y1636074D01*
X582193Y1636375D01*
X581190Y1636777D01*
X579384Y1636977D01*
D02*
G37*
G36*
X866426D02*
X863819Y1636777D01*
X862916Y1636074D01*
X863117Y1634871D01*
X863618Y1634369D01*
X864019Y1634169D01*
X864220D01*
X865624Y1633968D01*
X866727Y1634269D01*
X867730Y1634871D01*
X867931Y1635673D01*
X867730Y1636275D01*
X867429Y1636576D01*
X866426Y1636977D01*
D02*
G37*
G36*
X928609D02*
X927004Y1636777D01*
X926101Y1635874D01*
X926302Y1634670D01*
X926603Y1634369D01*
X928007Y1633968D01*
X928207D01*
X929612Y1634169D01*
X930615Y1634770D01*
X930916Y1635071D01*
X930715Y1636074D01*
X930013Y1636777D01*
X928609Y1636977D01*
D02*
G37*
G36*
X677873D02*
X675868Y1636777D01*
X674965Y1635874D01*
X675166Y1634871D01*
X675667Y1634369D01*
X676670Y1633968D01*
X678274Y1634169D01*
X679077Y1634770D01*
X679177Y1634871D01*
X679378Y1635472D01*
X679177Y1636275D01*
X678676Y1636777D01*
X677873Y1636977D01*
D02*
G37*
G36*
X806451Y1642593D02*
X805849Y1642393D01*
X804745Y1642092D01*
X804445Y1641791D01*
X804043Y1641591D01*
X803542Y1640287D01*
X803442Y1638381D01*
X803843Y1637378D01*
X804244Y1636977D01*
X805648Y1636576D01*
X807353Y1636676D01*
X807453Y1636777D01*
X810864Y1636977D01*
X811967Y1637880D01*
X812167Y1639284D01*
X811766Y1640287D01*
X811265Y1640989D01*
X810864Y1641189D01*
X809459Y1641992D01*
X808055Y1642393D01*
X806451Y1642593D01*
D02*
G37*
G36*
X982768Y1636977D02*
X980962Y1636777D01*
X979558Y1635773D01*
X979257Y1634670D01*
X979057Y1632664D01*
Y1632464D01*
Y1632263D01*
X979257Y1630257D01*
X980160Y1629154D01*
X981965Y1628352D01*
X984172Y1628552D01*
X985275Y1629455D01*
X985676Y1629856D01*
X985877Y1631260D01*
X985676Y1635673D01*
X985175Y1636375D01*
X984773Y1636576D01*
X984172Y1636777D01*
X982768Y1636977D01*
D02*
G37*
G36*
X826309D02*
X824704Y1636777D01*
X824002Y1636074D01*
X823801Y1635673D01*
X822397Y1633868D01*
X821996Y1632664D01*
X822197Y1632063D01*
X822798Y1631060D01*
X824604Y1628653D01*
X824704Y1628552D01*
X825707Y1628151D01*
X827111Y1628352D01*
X828916Y1629355D01*
X829618Y1630057D01*
X829819Y1630859D01*
X829919Y1633567D01*
X829719Y1634369D01*
X829217Y1635071D01*
X827713Y1636576D01*
X826309Y1636977D01*
D02*
G37*
G36*
X747478Y1631762D02*
X746475Y1631561D01*
X745472Y1631160D01*
X744368Y1630859D01*
X743666Y1630358D01*
X743566Y1630057D01*
Y1629856D01*
X743767Y1629054D01*
X744469Y1628352D01*
X745472Y1627951D01*
X746675Y1628151D01*
X747478Y1628954D01*
X747879Y1629154D01*
X748581Y1629856D01*
X748681Y1630759D01*
X748280Y1631561D01*
X747478Y1631762D01*
D02*
G37*
G36*
X606263Y1636977D02*
X603455Y1636777D01*
X602553Y1635874D01*
X602352Y1635071D01*
Y1634068D01*
Y1633868D01*
X602151Y1633266D01*
X602352Y1630057D01*
X603054Y1628954D01*
X603455Y1628753D01*
X604458Y1628352D01*
X607066Y1628552D01*
X608169Y1629455D01*
X608570Y1630458D01*
X608771Y1632263D01*
X608570Y1632865D01*
X608370Y1635874D01*
X607668Y1636576D01*
X606263Y1636977D01*
D02*
G37*
G36*
X545084D02*
X543279Y1636777D01*
X542677Y1636175D01*
X542276Y1635974D01*
X541874Y1635372D01*
X541473Y1635172D01*
X540571Y1633667D01*
X540771Y1631060D01*
X541373Y1630057D01*
X542476Y1628954D01*
X542878Y1628753D01*
X544282Y1628151D01*
X545485Y1628352D01*
X546889Y1629355D01*
X547391Y1630057D01*
X547993Y1630658D01*
X548394Y1631661D01*
X548494Y1631962D01*
X548594Y1632063D01*
X548394Y1634068D01*
X546789Y1635673D01*
X546588Y1636074D01*
X545886Y1636777D01*
X545084Y1636977D01*
D02*
G37*
G36*
X704351D02*
X703749Y1636777D01*
X702746Y1636175D01*
X702245Y1635673D01*
X701844Y1634068D01*
X701643Y1632664D01*
Y1632063D01*
X701743Y1631962D01*
X701944Y1631160D01*
X702345Y1630157D01*
X702847Y1629455D01*
X703749Y1628954D01*
X704552Y1628753D01*
X706557Y1628954D01*
X707861Y1629656D01*
X708062Y1630057D01*
X708262Y1630658D01*
X708363Y1633366D01*
X708162Y1635773D01*
X707560Y1636375D01*
X706156Y1636777D01*
X704351Y1636977D01*
D02*
G37*
G36*
X733908Y1141522D02*
X729928Y1141216D01*
X727785Y1139992D01*
X727173Y1139379D01*
X726560Y1139073D01*
X725795Y1138614D01*
X725489Y1138002D01*
X724264Y1136777D01*
X723346Y1135246D01*
X722733Y1133716D01*
X721968Y1131725D01*
X721509Y1131266D01*
X721203Y1129123D01*
X721509Y1126062D01*
X722427Y1124531D01*
X722733Y1123306D01*
X723652Y1121776D01*
X724264Y1121163D01*
X724570Y1120551D01*
X725642Y1119479D01*
X727173Y1118561D01*
X730081Y1116571D01*
X730387Y1115958D01*
X731153Y1115193D01*
X732071Y1114887D01*
X732990Y1113969D01*
X735133Y1112744D01*
X736663Y1111825D01*
X737888Y1110601D01*
X738500Y1110295D01*
X739725Y1109070D01*
X740337Y1108764D01*
X740949Y1108151D01*
X742021Y1107692D01*
X742174Y1107539D01*
X742787Y1106927D01*
X744930Y1105702D01*
X745542Y1105090D01*
X746154Y1104784D01*
X747379Y1103559D01*
X747991Y1103253D01*
X748604Y1102641D01*
X749216Y1102335D01*
X749828Y1101722D01*
X750440Y1101416D01*
X753502Y1099273D01*
X754114Y1098967D01*
X754727Y1098354D01*
X755339Y1098048D01*
X757023Y1096671D01*
X757788Y1095905D01*
X758401Y1095599D01*
X759013Y1094987D01*
X759625Y1094681D01*
X760850Y1093456D01*
X764830Y1091313D01*
X765748Y1090394D01*
X766361Y1090088D01*
X767892Y1088557D01*
X768504Y1088251D01*
X769728Y1087027D01*
X770341Y1086720D01*
X773249Y1084731D01*
X774933Y1083659D01*
X775851Y1082741D01*
X776464Y1082434D01*
X777688Y1081210D01*
X778301Y1080904D01*
X778913Y1080291D01*
X780444Y1079373D01*
X781056Y1078760D01*
X782587Y1077842D01*
X784730Y1076311D01*
X786720Y1075240D01*
X787026Y1074627D01*
X787485Y1074168D01*
X789016Y1073250D01*
X789322Y1072637D01*
X789935Y1072331D01*
X790853Y1071413D01*
X792384Y1070800D01*
X793915Y1069882D01*
X794527Y1069576D01*
X796058Y1068045D01*
X796670Y1067739D01*
X797895Y1066514D01*
X798507Y1066208D01*
X799119Y1065596D01*
X799732Y1065289D01*
X801875Y1063759D01*
X802487Y1063453D01*
X803406Y1062534D01*
X804324Y1062228D01*
X805549Y1061003D01*
X806161Y1060697D01*
X806773Y1060085D01*
X807386Y1059779D01*
X809070Y1058401D01*
X812590Y1057023D01*
X818713Y1057329D01*
X821469Y1058860D01*
X822387Y1059779D01*
X822846Y1059932D01*
X823153Y1060544D01*
X824377Y1061769D01*
X825296Y1063300D01*
X825908Y1063912D01*
X826673Y1065902D01*
X827133Y1066361D01*
X827439Y1067586D01*
X827133Y1073403D01*
X826520Y1074015D01*
X825296Y1076158D01*
X824683Y1076771D01*
X824377Y1077383D01*
X823918Y1077842D01*
X823306Y1078148D01*
X822540Y1079220D01*
X821469Y1080291D01*
X820857Y1080597D01*
X815958Y1084271D01*
X813815Y1085496D01*
X811978Y1087333D01*
X811366Y1087639D01*
X809223Y1089170D01*
X808610Y1089782D01*
X807998Y1090088D01*
X807386Y1090701D01*
X805242Y1091925D01*
X803559Y1092997D01*
X803406Y1093456D01*
X802793Y1093762D01*
X801109Y1095140D01*
X800650Y1095599D01*
X800038Y1095905D01*
X799119Y1096824D01*
X795752Y1098661D01*
X794833Y1099579D01*
X793302Y1100498D01*
X791466Y1102335D01*
X790853Y1102641D01*
X790241Y1103253D01*
X789629Y1103559D01*
X785342Y1106621D01*
X784730Y1106927D01*
X783046Y1108305D01*
X781975Y1109070D01*
X781362Y1109682D01*
X780750Y1109988D01*
X779525Y1111213D01*
X777995Y1111825D01*
X777076Y1112744D01*
X775545Y1113356D01*
X774627Y1114275D01*
X773249Y1115040D01*
X772943Y1115652D01*
X771106Y1117183D01*
X769422Y1118255D01*
X768810Y1118867D01*
X767279Y1119785D01*
X765136Y1121316D01*
X763452Y1122694D01*
X762993Y1123153D01*
X762380Y1123459D01*
X760237Y1124990D01*
X759625Y1125296D01*
X758707Y1126215D01*
X758094Y1126521D01*
X757482Y1127133D01*
X756870Y1127439D01*
X753961Y1129429D01*
X752890Y1130501D01*
X752277Y1130807D01*
X750747Y1132338D01*
X749216Y1133256D01*
X748604Y1133869D01*
X747379Y1134175D01*
X746767Y1134787D01*
X745542Y1135093D01*
X745083Y1135552D01*
X744777Y1136165D01*
X744317Y1136624D01*
X743705Y1136930D01*
X742787Y1137849D01*
X742174Y1138155D01*
X741562Y1138767D01*
X740949Y1139073D01*
X740031Y1139992D01*
X736970Y1141216D01*
X733908Y1141522D01*
D02*
G37*
G36*
X704670Y1141370D02*
X701302Y1141063D01*
X698853Y1140145D01*
X697016Y1138920D01*
X695945Y1137849D01*
X695332Y1137543D01*
X694414Y1136624D01*
X693802Y1136318D01*
X692577Y1135093D01*
X691046Y1134481D01*
X690434Y1133869D01*
X688903Y1132950D01*
X686147Y1130807D01*
X684464Y1129429D01*
X684004Y1128970D01*
X683392Y1128664D01*
X682780Y1128052D01*
X680637Y1126827D01*
X678494Y1125296D01*
X677881Y1124684D01*
X677269Y1124378D01*
X675126Y1122847D01*
X674667Y1122694D01*
X674361Y1122082D01*
X673901Y1121622D01*
X673289Y1121316D01*
X672371Y1120398D01*
X671452Y1120091D01*
X670840Y1119479D01*
X670228Y1119173D01*
X666400Y1116571D01*
X665635Y1115805D01*
X665023Y1115499D01*
X663798Y1114275D01*
X663186Y1113969D01*
X662573Y1113356D01*
X660430Y1112132D01*
X658287Y1110601D01*
X657675Y1109988D01*
X657063Y1109682D01*
X655838Y1108458D01*
X654307Y1107539D01*
X652164Y1106008D01*
X649256Y1104018D01*
X648184Y1103253D01*
X647572Y1102641D01*
X646960Y1102335D01*
X644204Y1100191D01*
X642520Y1098814D01*
X640989Y1098202D01*
X639918Y1096824D01*
X638693Y1096517D01*
X637928Y1096058D01*
X637775Y1095599D01*
X637163Y1095293D01*
X635632Y1093762D01*
X635019Y1093456D01*
X634101Y1092538D01*
X632570Y1091925D01*
X631652Y1091007D01*
X630733Y1090701D01*
X629049Y1089323D01*
X627978Y1088557D01*
X626294Y1087180D01*
X625835Y1086720D01*
X624304Y1085802D01*
X623692Y1085190D01*
X623079Y1084884D01*
X618793Y1081822D01*
X618181Y1081516D01*
X615425Y1079373D01*
X613129Y1077077D01*
X612823Y1076464D01*
X611292Y1074321D01*
X610986Y1073097D01*
X610680Y1069116D01*
X610986Y1066973D01*
X611598Y1065443D01*
X612823Y1063300D01*
X614048Y1062075D01*
X614354Y1061463D01*
X616650Y1059167D01*
X617262Y1058860D01*
X620630Y1057329D01*
X621855Y1057023D01*
X625835Y1057329D01*
X627366Y1057942D01*
X628896Y1058860D01*
X629509Y1059473D01*
X630733Y1059779D01*
X631652Y1060697D01*
X632264Y1061003D01*
X633795Y1062534D01*
X635019Y1062840D01*
X636244Y1064065D01*
X636856Y1064371D01*
X637469Y1064983D01*
X638081Y1065289D01*
X642520Y1068504D01*
X642827Y1069116D01*
X643286Y1069576D01*
X644816Y1070188D01*
X645735Y1071107D01*
X647878Y1072331D01*
X649562Y1073709D01*
X650021Y1074168D01*
X650633Y1074474D01*
X651858Y1075699D01*
X652470Y1076005D01*
X654307Y1077230D01*
X655838Y1078148D01*
X657981Y1079679D01*
X659665Y1081057D01*
X660124Y1081516D01*
X661196Y1081975D01*
X661502Y1082587D01*
X662573Y1083353D01*
X663186Y1083965D01*
X663492D01*
X665023Y1084884D01*
X665941Y1085802D01*
X668697Y1087333D01*
X669921Y1088557D01*
X671452Y1089476D01*
X672064Y1090394D01*
X672677Y1090701D01*
X673595Y1091619D01*
X675585Y1092384D01*
X676350Y1093150D01*
X677881Y1094068D01*
X678494Y1094681D01*
X679106Y1094987D01*
X680331Y1096211D01*
X681861Y1097130D01*
X682474Y1097742D01*
X683086Y1098048D01*
X684004Y1098967D01*
X686147Y1100191D01*
X687831Y1101569D01*
X689515Y1102641D01*
X690128Y1103253D01*
X690740Y1103559D01*
X691352Y1104172D01*
X691965Y1104478D01*
X692577Y1105090D01*
X693189Y1105396D01*
X694108Y1106315D01*
X696251Y1107539D01*
X698394Y1109070D01*
X700078Y1110448D01*
X700537Y1110907D01*
X701149Y1111213D01*
X701762Y1112132D01*
X703292Y1112744D01*
X704211Y1113662D01*
X706966Y1115193D01*
X708650Y1116571D01*
X709109Y1117030D01*
X709722Y1117336D01*
X710640Y1118255D01*
X711712Y1118714D01*
X712018Y1119326D01*
X712477Y1119785D01*
X714008Y1120704D01*
X714467Y1121163D01*
X714773Y1121776D01*
X715998Y1123612D01*
X716304Y1125755D01*
X716916Y1126368D01*
X717069Y1129889D01*
X716304Y1131573D01*
X715998Y1132797D01*
X715692Y1134634D01*
X714467Y1135859D01*
X713548Y1137389D01*
X712630Y1138308D01*
X712477Y1138767D01*
X710334Y1139992D01*
X708191Y1140910D01*
X706966Y1141216D01*
X704670Y1141370D01*
D02*
G37*
G36*
X616344Y1054880D02*
X613895Y1054574D01*
X612976Y1054880D01*
X610986Y1054421D01*
X608537Y1053503D01*
X606853Y1052431D01*
X605475Y1051053D01*
X605169Y1050441D01*
X604404Y1049676D01*
X603792Y1049370D01*
X602414Y1047379D01*
X602108Y1046155D01*
X601495Y1044012D01*
X601189Y1042787D01*
X601495Y1041869D01*
X601954Y1039879D01*
X602261Y1038654D01*
X602567Y1037123D01*
X603026Y1036052D01*
X603638Y1034521D01*
X603944Y1032684D01*
X604863Y1031765D01*
X605169Y1030541D01*
X605475Y1028704D01*
X606394Y1027173D01*
X606700Y1025948D01*
X607159Y1024265D01*
X607618Y1022887D01*
X607925Y1021662D01*
X608231Y1019825D01*
X609455Y1017070D01*
X609762Y1015845D01*
X610221Y1014161D01*
X610680Y1013702D01*
X610986Y1012478D01*
X611751Y1010487D01*
X612517Y1008804D01*
X612823Y1006967D01*
X613435Y1006354D01*
X614048Y1004823D01*
X614354Y1002374D01*
X614966Y1000844D01*
X615272Y999007D01*
X615884Y997476D01*
X616803Y994414D01*
X617875Y991506D01*
X618640Y989516D01*
X618946Y988291D01*
X619559Y987679D01*
X620018Y985689D01*
X621396Y982474D01*
X621702Y980331D01*
X622314Y978800D01*
X622620Y976963D01*
X623232Y975433D01*
X623539Y973596D01*
X624457Y971452D01*
X625222Y969462D01*
X625682Y968085D01*
X626141Y966401D01*
X626600Y965942D01*
X627212Y964411D01*
X627518Y962574D01*
X628131Y961962D01*
X628743Y960431D01*
X629049Y957369D01*
X629662Y956757D01*
X629968Y954308D01*
X630886Y952165D01*
X631499Y950634D01*
X631958Y948644D01*
X633029Y946042D01*
X633336Y944817D01*
X634560Y942061D01*
X635019Y940990D01*
X635632Y940684D01*
X635938Y940072D01*
X636091Y939918D01*
X636397Y939306D01*
X637622Y938081D01*
X637928Y937469D01*
X638693Y936704D01*
X639306Y936398D01*
X642061Y935173D01*
X644204Y934867D01*
X649103Y935173D01*
X652470Y937010D01*
X653083Y937622D01*
X653695Y937928D01*
X654613Y938847D01*
X655226Y939153D01*
X655991Y939918D01*
X656297Y940531D01*
X657216Y942061D01*
X657675Y944051D01*
X658134Y945735D01*
X657828Y950021D01*
X657522Y950940D01*
X657216Y952165D01*
X656757Y954155D01*
X656450Y955379D01*
X655685Y957063D01*
X655226Y959053D01*
X654154Y961655D01*
X653848Y962880D01*
X653236Y963492D01*
X652623Y965023D01*
X652317Y967166D01*
X651399Y968085D01*
X651093Y970840D01*
X650174Y972983D01*
X649715Y974973D01*
X648184Y979259D01*
X647878Y981096D01*
X647112Y982474D01*
X646806Y983699D01*
X646041Y985689D01*
X645582Y986148D01*
X644969Y988904D01*
X643745Y991659D01*
X643439Y993802D01*
X642827Y995333D01*
X642367Y997323D01*
X641755Y998853D01*
X640989Y1001456D01*
X640530Y1003446D01*
X640071Y1003905D01*
X639459Y1005436D01*
X639152Y1006660D01*
X638234Y1008804D01*
X637622Y1011253D01*
X637009Y1011865D01*
X636397Y1014314D01*
X636091Y1015845D01*
X635479Y1017376D01*
X635172Y1019213D01*
X634560Y1020744D01*
X634254Y1021968D01*
X633642Y1023499D01*
X633336Y1024724D01*
X633029Y1025642D01*
X632111Y1027173D01*
X631805Y1029316D01*
X631193Y1029928D01*
X630580Y1032378D01*
X629049Y1035745D01*
X628743Y1037888D01*
X628131Y1039113D01*
X628437Y1040032D01*
X627518Y1042175D01*
X626447Y1045083D01*
X626141Y1046614D01*
X625682Y1047685D01*
X624763Y1048604D01*
X624457Y1049522D01*
X623539Y1050441D01*
X623232Y1051053D01*
X622161Y1051819D01*
X621242Y1053043D01*
X618487Y1054268D01*
X616344Y1054880D01*
D02*
G37*
G36*
X822387Y1054574D02*
X821469Y1054268D01*
X820244Y1053962D01*
X818713Y1053655D01*
X818101Y1053043D01*
X817489Y1052737D01*
X815958Y1051206D01*
X815346Y1050900D01*
X814580Y1049829D01*
X813968Y1049216D01*
X813203Y1047839D01*
X812743Y1047685D01*
X812131Y1045236D01*
X811213Y1043093D01*
X810753Y1041103D01*
X810294Y1039419D01*
X809376Y1036358D01*
X809070Y1034521D01*
X808457Y1033909D01*
X807845Y1031765D01*
X807539Y1030235D01*
X806620Y1028091D01*
X805855Y1026102D01*
X805396Y1025642D01*
X805090Y1024418D01*
X804783Y1022581D01*
X804171Y1021050D01*
X803865Y1019825D01*
X803559Y1018907D01*
X803252Y1017682D01*
X802793Y1015998D01*
X802028Y1014008D01*
X801722Y1011865D01*
X801109Y1011253D01*
X800497Y1009110D01*
X800038Y1007426D01*
X799579Y1006967D01*
X798966Y1004823D01*
X798048Y1002680D01*
X797589Y1000997D01*
X797282Y999772D01*
X796211Y996251D01*
X795905Y995026D01*
X795599Y993496D01*
X794680Y991353D01*
X794374Y989210D01*
X793456Y988291D01*
X793149Y987067D01*
X792843Y984923D01*
X792231Y984311D01*
X791618Y981862D01*
X790394Y979106D01*
X790088Y977576D01*
X789475Y976045D01*
X788557Y972371D01*
X788098Y970381D01*
X787332Y968391D01*
X787026Y966554D01*
X786108Y965636D01*
X785648Y962727D01*
X784577Y960737D01*
X784271Y959512D01*
X783352Y957369D01*
X782893Y955379D01*
X782128Y953389D01*
X781515Y951246D01*
X781209Y950021D01*
X781056Y943745D01*
X781362Y941908D01*
X781822Y940837D01*
X782434Y940224D01*
X783659Y938081D01*
X784118Y937622D01*
X784730Y937316D01*
X785036Y936704D01*
X787179Y935479D01*
X788710Y934867D01*
X790394Y934408D01*
X791772Y933948D01*
X796670Y934254D01*
X797589Y934561D01*
X800956Y936398D01*
X801569Y937316D01*
X802028Y937469D01*
X803252Y939612D01*
X803865Y940224D01*
X804171Y941449D01*
X804477Y942061D01*
X805396Y942980D01*
X805702Y945429D01*
X806620Y946960D01*
X807079Y948950D01*
X807692Y950481D01*
X808151Y951858D01*
X809070Y955226D01*
X809682Y957369D01*
X810141Y959972D01*
X811213Y961962D01*
X811519Y963186D01*
X811825Y964717D01*
X812743Y966860D01*
X813203Y968544D01*
X813968Y969309D01*
X814427Y971300D01*
X815040Y972830D01*
X815499Y974514D01*
X815805Y976351D01*
X816111Y977270D01*
X816723Y978800D01*
X817030Y979719D01*
X817489Y982627D01*
X818560Y984617D01*
X819173Y987373D01*
X819785Y987985D01*
X820091Y989210D01*
X820397Y990740D01*
X821316Y991659D01*
X821622Y994108D01*
X822540Y996251D01*
X823153Y998701D01*
X823765Y1000844D01*
X824683Y1003905D01*
X824990Y1005742D01*
X825908Y1006660D01*
X826214Y1009722D01*
X827133Y1010641D01*
X827439Y1011865D01*
X827898Y1013549D01*
X828664Y1014314D01*
X829123Y1016917D01*
X829888Y1018907D01*
X830347Y1020591D01*
X830960Y1023040D01*
X831572Y1024571D01*
X831878Y1025795D01*
X832184Y1027632D01*
X832643Y1028704D01*
X833256Y1029316D01*
X833715Y1032225D01*
X834787Y1034215D01*
X835246Y1035899D01*
X836011Y1037582D01*
X836471Y1040185D01*
X836930Y1041869D01*
X836624Y1044318D01*
X836317Y1045236D01*
X836011Y1047073D01*
X835093Y1047992D01*
X834328Y1049370D01*
X833715Y1049676D01*
X832950Y1050441D01*
X832797Y1050900D01*
X832184Y1051206D01*
X830654Y1052737D01*
X829735Y1053043D01*
X827592Y1053962D01*
X826980D01*
X824990Y1054421D01*
X822387Y1054574D01*
D02*
G37*
G36*
X772484Y940990D02*
X664410Y940684D01*
X663798Y940072D01*
X662267Y939459D01*
X661655Y939153D01*
X659971Y937775D01*
X659053Y936857D01*
X658746Y936245D01*
X657828Y934102D01*
X657522Y932877D01*
X656910Y931346D01*
X656603Y930121D01*
X656910Y926141D01*
X658134Y923386D01*
X659665Y920630D01*
X660737Y919559D01*
X661349Y919253D01*
X661961Y918641D01*
X663798Y918334D01*
X665023Y917110D01*
X671758Y916804D01*
X744624D01*
X772484Y917110D01*
X773402Y918028D01*
X774627Y918334D01*
X776770Y919559D01*
X777841Y920324D01*
X778148Y920937D01*
X779066Y921855D01*
X780597Y925223D01*
X780903Y930427D01*
X780597Y931346D01*
X780291Y933795D01*
X779678Y935326D01*
X779372Y935938D01*
X777995Y937622D01*
X777382Y938235D01*
X776770Y938541D01*
X775851Y939459D01*
X773862Y940224D01*
X772484Y940990D01*
D02*
G37*
G36*
X345395Y1143359D02*
X339578Y1143053D01*
X338966Y1142441D01*
X337741Y1142135D01*
X335598Y1140910D01*
X334986Y1140298D01*
X334680D01*
X333914Y1139533D01*
X332690Y1137389D01*
X332383Y1136471D01*
X332077Y1135246D01*
X331465Y1133103D01*
X331771Y1089323D01*
X332077Y1088404D01*
X332537Y1086414D01*
X332996Y1085955D01*
X333302Y1085343D01*
X333914Y1084731D01*
X334220Y1084118D01*
X335292Y1083047D01*
X335904Y1082741D01*
X336516Y1082128D01*
X339884Y1080597D01*
X346926Y1080904D01*
X349987Y1082741D01*
X350600Y1083353D01*
X351212Y1083659D01*
X352590Y1085037D01*
X354121Y1088404D01*
X354427Y1096977D01*
X354121Y1135859D01*
X352896Y1137696D01*
X352590Y1138614D01*
X351212Y1140298D01*
X349069Y1141829D01*
X347385Y1142288D01*
X345395Y1143359D01*
D02*
G37*
G36*
X249568Y1090088D02*
X247425Y1089782D01*
X244670Y1088251D01*
X242986Y1086874D01*
X240843Y1084731D01*
X239924Y1082587D01*
X239312Y1080444D01*
X239006Y1077383D01*
X239312Y1074321D01*
X241302Y1070494D01*
X241914Y1070188D01*
X243598Y1068810D01*
X248649Y1065596D01*
X255691Y1061922D01*
X260283Y1059167D01*
X260896Y1058554D01*
X261814Y1058248D01*
X263957Y1057023D01*
X268550Y1054574D01*
X270693Y1053349D01*
X271305Y1052737D01*
X275285Y1050594D01*
X275898Y1049982D01*
X278347Y1049063D01*
X278959Y1048451D01*
X280949Y1047685D01*
X282021Y1046920D01*
X285388Y1044777D01*
X286001Y1044471D01*
X288756Y1042940D01*
X294573Y1039879D01*
X295185Y1039266D01*
X296104Y1038960D01*
X296716Y1038348D01*
X300084Y1036511D01*
X304676Y1034062D01*
X307432Y1032531D01*
X311718Y1030082D01*
X312636Y1029163D01*
X314626Y1028398D01*
X315085Y1027939D01*
X317535Y1027020D01*
X318147Y1026408D01*
X319372Y1026102D01*
X323352Y1025795D01*
X326413Y1026102D01*
X330240Y1028091D01*
X330546Y1028704D01*
X331771Y1029928D01*
X332537Y1031918D01*
X333302Y1032684D01*
X333608Y1033909D01*
X334067Y1035592D01*
X334527Y1036970D01*
X334220Y1040032D01*
X333608Y1041562D01*
X333302Y1042787D01*
X332383Y1043706D01*
X331465Y1045236D01*
X329781Y1046920D01*
X327026Y1048145D01*
X326413Y1048451D01*
X325801Y1049063D01*
X324270Y1049982D01*
X321515Y1051513D01*
X320903Y1052125D01*
X316310Y1054574D01*
X311106Y1057329D01*
X310493Y1057942D01*
X307126Y1059779D01*
X303145Y1061922D01*
X299778Y1063759D01*
X296716Y1065596D01*
X296104Y1065902D01*
X295492Y1066514D01*
X287225Y1070800D01*
X286766Y1071259D01*
X286613Y1071413D01*
X282633Y1073556D01*
X280490Y1074780D01*
X279878Y1075393D01*
X277888Y1076158D01*
X275898Y1077230D01*
X274367Y1078148D01*
X273754Y1078760D01*
X272530Y1079067D01*
X271611Y1079985D01*
X270080Y1080904D01*
X268550Y1081516D01*
X267937Y1081822D01*
X266101Y1083047D01*
X264570Y1083659D01*
X261814Y1085190D01*
X261202Y1085802D01*
X256916Y1088251D01*
X253548Y1089782D01*
X249568Y1090088D01*
D02*
G37*
G36*
X436630D02*
X431119Y1089782D01*
X427751Y1087945D01*
X424690Y1086108D01*
X423618Y1085649D01*
X423312Y1085037D01*
X421016Y1083965D01*
X417648Y1082128D01*
X413362Y1079679D01*
X412443Y1078760D01*
X408463Y1076617D01*
X403259Y1073862D01*
X402340Y1072943D01*
X400350Y1072178D01*
X399585Y1071413D01*
X398973Y1071107D01*
X398054Y1070188D01*
X396830Y1069882D01*
X395299Y1068963D01*
X390706Y1066514D01*
X388869Y1065289D01*
X388257Y1064983D01*
X387645Y1064371D01*
X385502Y1063146D01*
X382134Y1061310D01*
X377542Y1058860D01*
X374480Y1056717D01*
X373562Y1056411D01*
X372949Y1055799D01*
X371418Y1055186D01*
X369888Y1054268D01*
X367132Y1052737D01*
X364989Y1051513D01*
X361621Y1049370D01*
X361009Y1049063D01*
X360091Y1048145D01*
X357641Y1047226D01*
X354886Y1045083D01*
X354427Y1044624D01*
X353508Y1043093D01*
X352896Y1042481D01*
X352437Y1040797D01*
X351977Y1040338D01*
X351671Y1039113D01*
X351977Y1034521D01*
X352896Y1032378D01*
X353814Y1030847D01*
X355345Y1028704D01*
X356417Y1027632D01*
X357947Y1026714D01*
X359478Y1026102D01*
X360703Y1025795D01*
X362846Y1025183D01*
X364071Y1025489D01*
X366826Y1025795D01*
X368663Y1026408D01*
X369275Y1027020D01*
X374480Y1029775D01*
X375092Y1030082D01*
X375245Y1030235D01*
X377082Y1031153D01*
X377848Y1031918D01*
X379378Y1032837D01*
X384583Y1035592D01*
X387339Y1037123D01*
X389482Y1038348D01*
X390094Y1038960D01*
X392237Y1040185D01*
X392849Y1040797D01*
X394074Y1041103D01*
X395911Y1042328D01*
X399891Y1044471D01*
X402034Y1045695D01*
X402646Y1046308D01*
X404177Y1047226D01*
X404790Y1047839D01*
X406473Y1048298D01*
X406933Y1048757D01*
X407545Y1049063D01*
X412137Y1051513D01*
X413056Y1052431D01*
X415046Y1053196D01*
X415811Y1053962D01*
X417342Y1054880D01*
X420097Y1056411D01*
X424690Y1058860D01*
X426833Y1060085D01*
X428057Y1061310D01*
X429282Y1061616D01*
X429894Y1062228D01*
X430507Y1062534D01*
X433262Y1064065D01*
X437854Y1066514D01*
X438467Y1067126D01*
X439691Y1067433D01*
X440610Y1068351D01*
X441222Y1068657D01*
X442294Y1069423D01*
X442447Y1069882D01*
X443978Y1070800D01*
X444743Y1071872D01*
X446274Y1075240D01*
X446580Y1079220D01*
X446274Y1080444D01*
X445968Y1082281D01*
X444743Y1084424D01*
X443825Y1085343D01*
X443518Y1085955D01*
X442447Y1087333D01*
X441835Y1087639D01*
X441222Y1088251D01*
X440610Y1088557D01*
X438773Y1089782D01*
X436630Y1090088D01*
D02*
G37*
G36*
X285082Y1004058D02*
X282327Y1003752D01*
X281408Y1003446D01*
X279418Y1002680D01*
X278959Y1002221D01*
X275132Y1000231D01*
X274979Y999772D01*
X269774Y997017D01*
X264264Y993955D01*
X262120Y992730D01*
X259977Y991200D01*
X259365Y990587D01*
X257528Y990281D01*
X256916Y989669D01*
X251711Y986913D01*
X251099Y986301D01*
X249568Y985689D01*
X247731Y984464D01*
X247272Y984311D01*
X247119Y983852D01*
X246506Y983546D01*
X242527Y981403D01*
X240536Y979413D01*
X239312Y976657D01*
X238700Y974514D01*
X238546Y972830D01*
X239159Y969462D01*
X239465Y968238D01*
X240843Y965636D01*
X242220Y963952D01*
X242833Y963339D01*
X244976Y962115D01*
X245588Y961503D01*
X248803Y961043D01*
X250180Y960584D01*
X251864Y961043D01*
X253701Y961349D01*
X254926Y961655D01*
X255385Y962115D01*
X260743Y964717D01*
X260896Y964870D01*
X261508Y965482D01*
X265488Y967625D01*
X266407Y968544D01*
X267937Y969156D01*
X274367Y972524D01*
X276510Y973749D01*
X277122Y974361D01*
X279265Y975586D01*
X284470Y978341D01*
X287838Y980178D01*
X289981Y981709D01*
X292124Y982933D01*
X293808Y984311D01*
X294420Y984923D01*
X294726Y985536D01*
X295338Y986148D01*
X295798Y987832D01*
X296563Y989822D01*
X296257Y994414D01*
X295951Y995333D01*
X295185Y997323D01*
X293655Y999772D01*
X291205Y1002221D01*
X288450Y1003446D01*
X287225Y1003752D01*
X285082Y1004058D01*
D02*
G37*
G36*
X400503D02*
X397748Y1003752D01*
X396830Y1003446D01*
X393462Y1001609D01*
X392390Y1000537D01*
X392084Y999925D01*
X391166Y999007D01*
X389941Y996864D01*
X389635Y995945D01*
X389329Y994720D01*
X389022Y992883D01*
X388716Y991965D01*
X389482Y988444D01*
X389788Y986913D01*
X390553Y986148D01*
X391778Y984005D01*
X392237Y983546D01*
X393768Y982627D01*
X396676Y980637D01*
X398360Y979566D01*
X400503Y978341D01*
X403871Y976504D01*
X406014Y975279D01*
X406627Y974667D01*
X407239Y974361D01*
X409076Y973136D01*
X410606Y972218D01*
X413056Y970687D01*
X417648Y968238D01*
X418261Y967625D01*
X420404Y966401D01*
X423618Y964411D01*
X423771Y964258D01*
X427139Y962421D01*
X428670Y961503D01*
X430660Y960737D01*
X431119Y960278D01*
X433262Y959972D01*
X437242Y960278D01*
X440610Y962115D01*
X441222Y962727D01*
X441835Y963033D01*
X443212Y964411D01*
X443518Y965023D01*
X444743Y966248D01*
X445355Y968697D01*
X445968Y970228D01*
X446121Y972830D01*
X445662Y975433D01*
X443518Y979413D01*
X442447Y980484D01*
X441835Y980790D01*
X440916Y981709D01*
X436324Y984158D01*
X435711Y984770D01*
X434793Y985077D01*
X434180Y985689D01*
X433568Y985995D01*
X428670Y989056D01*
X424077Y991506D01*
X423465Y992118D01*
X421934Y993037D01*
X419791Y994261D01*
X419179Y994874D01*
X418567Y995180D01*
X416730Y996404D01*
X415505Y996710D01*
X413668Y997935D01*
X412137Y998853D01*
X406320Y1002527D01*
X404177Y1003446D01*
X400503Y1004058D01*
D02*
G37*
G36*
X345701Y1012631D02*
X339272Y1012324D01*
X337129Y1011406D01*
X335598Y1010487D01*
X333608Y1008497D01*
X332690Y1006967D01*
X332077Y1005436D01*
X331771Y1003905D01*
X331159Y1002374D01*
X330853Y996251D01*
X331159Y995333D01*
X331006Y918641D01*
X331312Y917416D01*
X332077Y914814D01*
X332537Y912823D01*
X332996Y912364D01*
X333302Y911752D01*
X334680Y910068D01*
X335904Y908843D01*
X339272Y907313D01*
X340497Y907007D01*
X342640Y906700D01*
X346007Y907007D01*
X346926Y907313D01*
X349681Y908843D01*
X350294Y909456D01*
X350906Y909762D01*
X352284Y911140D01*
X352590Y911752D01*
X354121Y915120D01*
X354427Y923692D01*
Y940531D01*
Y940837D01*
X354121Y1005130D01*
X353202Y1006660D01*
X351977Y1008804D01*
X349987Y1010794D01*
X347844Y1011712D01*
X347232Y1012018D01*
X345701Y1012631D01*
D02*
G37*
%LPD*%
D63*
X8158500Y5803300D02*
G03*
X8158500Y5813300I0J5000D01*
G01*
D02*
G03*
X8158500Y5803300I0J-5000D01*
G01*
X8179500Y3728300D02*
G03*
X8179500Y3738300I0J5000D01*
G01*
D02*
G03*
X8179500Y3728300I0J-5000D01*
G01*
X10807500Y647500D02*
G03*
X10807500Y637500I0J-5000D01*
G01*
D02*
G03*
X10807500Y647500I0J5000D01*
G01*
X2272500Y4665000D02*
G03*
X2272500Y4655000I0J-5000D01*
G01*
D02*
G03*
X2272500Y4665000I0J5000D01*
G01*
X7744500Y2740000D02*
G03*
X7734500Y2740000I-5000J0D01*
G01*
D02*
G03*
X7744500Y2740000I5000J0D01*
G01*
X5785000Y1380000D02*
Y1640000D01*
X6305000Y1380000D02*
Y1640000D01*
X5785000Y1250000D02*
Y1270000D01*
Y1250000D02*
X6305000D01*
Y1270000D01*
X5785000Y1750000D02*
Y1770000D01*
X6305000D01*
Y1750000D02*
Y1770000D01*
D64*
X5293100Y5492500D02*
G03*
X5293100Y5492500I-14500J0D01*
G01*
X4747500Y2392500D02*
Y5312500D01*
Y2392500D02*
X7347500D01*
Y5312500D01*
X4747500D02*
X7347500D01*
X3922500Y3240000D02*
Y5460000D01*
X2922500D02*
X3922500D01*
X2922500Y3240000D02*
Y5460000D01*
Y3240000D02*
X3922500D01*
X2970000Y5647500D02*
X7170000D01*
X2970000Y7747500D02*
X7170000D01*
X2970000Y5647500D02*
Y7747500D01*
X7170000Y5647500D02*
Y7747500D01*
X10961845Y7114324D02*
X10895200D01*
Y7014356D01*
X10961845D01*
X10895200Y7064340D02*
X10928522D01*
X10995168Y7014356D02*
X11028490D01*
X11011829D01*
Y7114324D01*
X10995168D01*
X11128458Y7014356D02*
X11095136D01*
X11078474Y7031017D01*
Y7064340D01*
X11095136Y7081001D01*
X11128458D01*
X11145119Y7064340D01*
Y7047679D01*
X11078474D01*
X11195103Y7097662D02*
Y7081001D01*
X11178442D01*
X11211764D01*
X11195103D01*
Y7031017D01*
X11211764Y7014356D01*
X11261748Y7081001D02*
Y7014356D01*
Y7047679D01*
X11278410Y7064340D01*
X11295071Y7081001D01*
X11311732D01*
X11378378Y7014356D02*
X11411700D01*
X11428361Y7031017D01*
Y7064340D01*
X11411700Y7081001D01*
X11378378D01*
X11361716Y7064340D01*
Y7031017D01*
X11378378Y7014356D01*
X11461684D02*
Y7081001D01*
X11511668D01*
X11528329Y7064340D01*
Y7014356D01*
X11561652D02*
X11594974D01*
X11578313D01*
Y7081001D01*
X11561652D01*
X11711603D02*
X11661620D01*
X11644958Y7064340D01*
Y7031017D01*
X11661620Y7014356D01*
X11711603D01*
X11761587Y7081001D02*
X11794910D01*
X11811571Y7064340D01*
Y7014356D01*
X11761587D01*
X11744926Y7031017D01*
X11761587Y7047679D01*
X11811571D01*
X10895200Y6833435D02*
Y6933402D01*
X10945184D01*
X10961845Y6916741D01*
Y6883419D01*
X10945184Y6866757D01*
X10895200D01*
X11011829Y6833435D02*
X11045152D01*
X11061813Y6850096D01*
Y6883419D01*
X11045152Y6900080D01*
X11011829D01*
X10995168Y6883419D01*
Y6850096D01*
X11011829Y6833435D01*
X11111797Y6916741D02*
Y6900080D01*
X11095136D01*
X11128458D01*
X11111797D01*
Y6850096D01*
X11128458Y6833435D01*
X11228426D02*
X11195103D01*
X11178442Y6850096D01*
Y6883419D01*
X11195103Y6900080D01*
X11228426D01*
X11245087Y6883419D01*
Y6866757D01*
X11178442D01*
X11278410Y6833435D02*
Y6900080D01*
X11328394D01*
X11345055Y6883419D01*
Y6833435D01*
X11445023Y6900080D02*
X11395039D01*
X11378378Y6883419D01*
Y6850096D01*
X11395039Y6833435D01*
X11445023D01*
X11478345D02*
X11511668D01*
X11495007D01*
Y6900080D01*
X11478345D01*
X11578313D02*
X11611636D01*
X11628297Y6883419D01*
Y6833435D01*
X11578313D01*
X11561652Y6850096D01*
X11578313Y6866757D01*
X11628297D01*
X10961845Y6652513D02*
X10895200D01*
X10961845Y6719158D01*
Y6735820D01*
X10945184Y6752481D01*
X10911861D01*
X10895200Y6735820D01*
X10995168D02*
X11011829Y6752481D01*
X11045152D01*
X11061813Y6735820D01*
Y6719158D01*
X11045152Y6702497D01*
X11028490D01*
X11045152D01*
X11061813Y6685836D01*
Y6669175D01*
X11045152Y6652513D01*
X11011829D01*
X10995168Y6669175D01*
X11095136Y6652513D02*
X11161781Y6719158D01*
X11261748Y6652513D02*
X11195103D01*
X11261748Y6719158D01*
Y6735820D01*
X11245087Y6752481D01*
X11211765D01*
X11195103Y6735820D01*
X11345055Y6652513D02*
Y6752481D01*
X11295071Y6702497D01*
X11361716D01*
X10902709Y7744380D02*
Y7644412D01*
X10952693D01*
X10969354Y7661074D01*
Y7727719D01*
X10952693Y7744380D01*
X10902709D01*
X11002677D02*
Y7644412D01*
X11052661D01*
X11069322Y7661074D01*
Y7677735D01*
X11052661Y7694396D01*
X11002677D01*
X11052661D01*
X11069322Y7711057D01*
Y7727719D01*
X11052661Y7744380D01*
X11002677D01*
X11269258D02*
X11202613D01*
Y7694396D01*
X11235935D01*
X11202613D01*
Y7644412D01*
X11369225Y7727719D02*
X11352564Y7744380D01*
X11319242D01*
X11302580Y7727719D01*
Y7661074D01*
X11319242Y7644412D01*
X11352564D01*
X11369225Y7661074D01*
X10969354Y7563459D02*
X10936032D01*
X10952693D01*
Y7480152D01*
X10936032Y7463491D01*
X10919371D01*
X10902709Y7480152D01*
X11069322Y7546797D02*
X11052661Y7563459D01*
X11019338D01*
X11002677Y7546797D01*
Y7480152D01*
X11019338Y7463491D01*
X11052661D01*
X11069322Y7480152D01*
Y7513475D01*
X11036000D01*
X11269258Y7563459D02*
X11235935D01*
X11252596D01*
Y7480152D01*
X11235935Y7463491D01*
X11219274D01*
X11202613Y7480152D01*
X11302580Y7463491D02*
Y7563459D01*
X11335903Y7530136D01*
X11369225Y7563459D01*
Y7463491D01*
X10969354Y7382537D02*
X10936032D01*
X10952693D01*
Y7299231D01*
X10936032Y7282569D01*
X10919371D01*
X10902709Y7299231D01*
X11069322Y7365876D02*
X11052661Y7382537D01*
X11019338D01*
X11002677Y7365876D01*
Y7349214D01*
X11019338Y7332553D01*
X11052661D01*
X11069322Y7315892D01*
Y7299231D01*
X11052661Y7282569D01*
X11019338D01*
X11002677Y7299231D01*
X11202613Y7282569D02*
Y7382537D01*
X11252596D01*
X11269258Y7365876D01*
Y7332553D01*
X11252596Y7315892D01*
X11202613D01*
X11235935D02*
X11269258Y7282569D01*
X11302580D02*
Y7382537D01*
X11352564D01*
X11369225Y7365876D01*
Y7332553D01*
X11352564Y7315892D01*
X11302580D01*
X2528523Y1143096D02*
X2495200D01*
X2511862D01*
Y1059790D01*
X2495200Y1043128D01*
X2478539D01*
X2461878Y1059790D01*
X2611829Y1043128D02*
Y1143096D01*
X2561846Y1093112D01*
X2628491D01*
X9084194Y7542484D02*
Y7442516D01*
X9134178D01*
X9150839Y7459177D01*
Y7525822D01*
X9134178Y7542484D01*
X9084194D01*
X9234145Y7442516D02*
Y7542484D01*
X9184161Y7492500D01*
X9250806D01*
X7143693Y5490984D02*
Y5407678D01*
X7160355Y5391016D01*
X7193677D01*
X7210338Y5407678D01*
Y5490984D01*
X7310306Y5391016D02*
X7243661D01*
X7310306Y5457661D01*
Y5474323D01*
X7293645Y5490984D01*
X7260323D01*
X7243661Y5474323D01*
X127900Y4240251D02*
Y4138684D01*
X178684Y4087900D01*
X229467Y4138684D01*
Y4240251D01*
X280251Y4087900D02*
X356426D01*
X381818Y4113292D01*
X356426Y4138684D01*
X305643D01*
X280251Y4164075D01*
X305643Y4189467D01*
X381818D01*
X508777Y4087900D02*
X457993D01*
X432602Y4113292D01*
Y4164075D01*
X457993Y4189467D01*
X508777D01*
X534169Y4164075D01*
Y4138684D01*
X432602D01*
X584952Y4087900D02*
Y4189467D01*
X661128D01*
X686520Y4164075D01*
Y4087900D01*
X737303D02*
X813478D01*
X838870Y4113292D01*
X813478Y4138684D01*
X762695D01*
X737303Y4164075D01*
X762695Y4189467D01*
X838870D01*
X145400Y3915251D02*
X196184D01*
X170792D01*
Y3762900D01*
X145400D01*
X196184D01*
X272359D02*
X348534D01*
X373926Y3788292D01*
X348534Y3813684D01*
X297751D01*
X272359Y3839075D01*
X297751Y3864467D01*
X373926D01*
X500885Y3762900D02*
X450101D01*
X424710Y3788292D01*
Y3839075D01*
X450101Y3864467D01*
X500885D01*
X526277Y3839075D01*
Y3813684D01*
X424710D01*
X577060Y3762900D02*
Y3864467D01*
X653236D01*
X678628Y3839075D01*
Y3762900D01*
X729411D02*
X805586D01*
X830978Y3788292D01*
X805586Y3813684D01*
X754803D01*
X729411Y3839075D01*
X754803Y3864467D01*
X830978D01*
X9410855Y488322D02*
X9394194Y504984D01*
X9360871D01*
X9344210Y488322D01*
Y421677D01*
X9360871Y405016D01*
X9394194D01*
X9410855Y421677D01*
X9444177Y488322D02*
X9460839Y504984D01*
X9494161D01*
X9510822Y488322D01*
Y471661D01*
X9494161Y455000D01*
X9477500D01*
X9494161D01*
X9510822Y438338D01*
Y421677D01*
X9494161Y405016D01*
X9460839D01*
X9444177Y421677D01*
X9594129Y405016D02*
Y504984D01*
X9544145Y455000D01*
X9610790D01*
X10393339Y119984D02*
X10360016D01*
X10376677D01*
Y36677D01*
X10360016Y20016D01*
X10343355D01*
X10326694Y36677D01*
X10493306Y20016D02*
X10426661D01*
X10493306Y86661D01*
Y103322D01*
X10476645Y119984D01*
X10443323D01*
X10426661Y103322D01*
X1263355Y7389984D02*
X1330000Y7290016D01*
Y7389984D02*
X1263355Y7290016D01*
X1363323D02*
X1396645D01*
X1379984D01*
Y7389984D01*
X1363323Y7373323D01*
X3988355Y5422484D02*
Y5339178D01*
X4005016Y5322516D01*
X4038339D01*
X4055000Y5339178D01*
Y5422484D01*
X4088323Y5322516D02*
X4121645D01*
X4104984D01*
Y5422484D01*
X4088323Y5405823D01*
X5880000Y1928323D02*
X5863339Y1944984D01*
X5830017D01*
X5813355Y1928323D01*
Y1911661D01*
X5830017Y1895000D01*
X5863339D01*
X5880000Y1878339D01*
Y1861678D01*
X5863339Y1845016D01*
X5830017D01*
X5813355Y1861678D01*
X5913323Y1845016D02*
X5946645D01*
X5929984D01*
Y1944984D01*
X5913323Y1928323D01*
X9897540Y3365016D02*
Y3464984D01*
X9947524D01*
X9964185Y3448323D01*
Y3415000D01*
X9947524Y3398339D01*
X9897540D01*
X9930863D02*
X9964185Y3365016D01*
X9997508D02*
X10030831D01*
X10014169D01*
Y3464984D01*
X9997508Y3448323D01*
X10080814D02*
X10097476Y3464984D01*
X10130798D01*
X10147460Y3448323D01*
Y3431661D01*
X10130798Y3415000D01*
X10147460Y3398339D01*
Y3381678D01*
X10130798Y3365016D01*
X10097476D01*
X10080814Y3381678D01*
Y3398339D01*
X10097476Y3415000D01*
X10080814Y3431661D01*
Y3448323D01*
X10097476Y3415000D02*
X10130798D01*
X4735040Y1892516D02*
Y1992484D01*
X4785024D01*
X4801685Y1975823D01*
Y1942500D01*
X4785024Y1925839D01*
X4735040D01*
X4768363D02*
X4801685Y1892516D01*
X4835008D02*
X4868331D01*
X4851669D01*
Y1992484D01*
X4835008Y1975823D01*
X4984960Y1992484D02*
X4951637Y1975823D01*
X4918315Y1942500D01*
Y1909178D01*
X4934976Y1892516D01*
X4968298D01*
X4984960Y1909178D01*
Y1925839D01*
X4968298Y1942500D01*
X4918315D01*
X9902541Y3782515D02*
Y3882483D01*
X9952524D01*
X9969186Y3865822D01*
Y3832499D01*
X9952524Y3815838D01*
X9902541D01*
X9935863D02*
X9969186Y3782515D01*
X10002508D02*
X10035831D01*
X10019170D01*
Y3882483D01*
X10002508Y3865822D01*
X10152460Y3882483D02*
X10085815D01*
Y3832499D01*
X10119137Y3849160D01*
X10135799D01*
X10152460Y3832499D01*
Y3799177D01*
X10135799Y3782515D01*
X10102476D01*
X10085815Y3799177D01*
X9900040Y3577516D02*
Y3677484D01*
X9950024D01*
X9966685Y3660822D01*
Y3627500D01*
X9950024Y3610838D01*
X9900040D01*
X9933363D02*
X9966685Y3577516D01*
X10000008D02*
X10033331D01*
X10016670D01*
Y3677484D01*
X10000008Y3660822D01*
X10133299Y3577516D02*
Y3677484D01*
X10083315Y3627500D01*
X10149960D01*
X9259983Y2367541D02*
X9160015D01*
Y2417525D01*
X9176677Y2434186D01*
X9209999D01*
X9226661Y2417525D01*
Y2367541D01*
Y2400863D02*
X9259983Y2434186D01*
Y2467508D02*
Y2500831D01*
Y2484170D01*
X9160015D01*
X9176677Y2467508D01*
Y2550815D02*
X9160015Y2567476D01*
Y2600799D01*
X9176677Y2617460D01*
X9193338D01*
X9209999Y2600799D01*
Y2584137D01*
Y2600799D01*
X9226661Y2617460D01*
X9243322D01*
X9259983Y2600799D01*
Y2567476D01*
X9243322Y2550815D01*
X9452483Y2357541D02*
X9352515D01*
Y2407525D01*
X9369177Y2424186D01*
X9402499D01*
X9419161Y2407525D01*
Y2357541D01*
Y2390863D02*
X9452483Y2424186D01*
Y2457508D02*
Y2490831D01*
Y2474170D01*
X9352515D01*
X9369177Y2457508D01*
X9452483Y2607460D02*
Y2540815D01*
X9385838Y2607460D01*
X9369177D01*
X9352515Y2590799D01*
Y2557476D01*
X9369177Y2540815D01*
X9654984Y2356702D02*
X9555016D01*
Y2406686D01*
X9571677Y2423347D01*
X9605000D01*
X9621661Y2406686D01*
Y2356702D01*
Y2390024D02*
X9654984Y2423347D01*
Y2456669D02*
Y2489992D01*
Y2473331D01*
X9555016D01*
X9571677Y2456669D01*
X9654984Y2539976D02*
Y2573298D01*
Y2556637D01*
X9555016D01*
X9571677Y2539976D01*
X11202540Y2052516D02*
Y2152484D01*
X11252524D01*
X11269185Y2135823D01*
Y2102500D01*
X11252524Y2085839D01*
X11202540D01*
X11235863D02*
X11269185Y2052516D01*
X11302508D02*
X11335831D01*
X11319170D01*
Y2152484D01*
X11302508Y2135823D01*
X11385815D02*
X11402476Y2152484D01*
X11435799D01*
X11452460Y2135823D01*
Y2069177D01*
X11435799Y2052516D01*
X11402476D01*
X11385815Y2069177D01*
Y2135823D01*
X11289194Y1850016D02*
Y1949984D01*
X11339177D01*
X11355839Y1933323D01*
Y1900000D01*
X11339177Y1883339D01*
X11289194D01*
X11322516D02*
X11355839Y1850016D01*
X11389161Y1866677D02*
X11405823Y1850016D01*
X11439145D01*
X11455806Y1866677D01*
Y1933323D01*
X11439145Y1949984D01*
X11405823D01*
X11389161Y1933323D01*
Y1916661D01*
X11405823Y1900000D01*
X11455806D01*
X10946694Y1072516D02*
Y1172484D01*
X10996678D01*
X11013339Y1155822D01*
Y1122500D01*
X10996678Y1105839D01*
X10946694D01*
X10980016D02*
X11013339Y1072516D01*
X11046661Y1155822D02*
X11063323Y1172484D01*
X11096645D01*
X11113306Y1155822D01*
Y1139161D01*
X11096645Y1122500D01*
X11113306Y1105839D01*
Y1089177D01*
X11096645Y1072516D01*
X11063323D01*
X11046661Y1089177D01*
Y1105839D01*
X11063323Y1122500D01*
X11046661Y1139161D01*
Y1155822D01*
X11063323Y1122500D02*
X11096645D01*
X10721694Y1072516D02*
Y1172484D01*
X10771677D01*
X10788339Y1155822D01*
Y1122500D01*
X10771677Y1105839D01*
X10721694D01*
X10755016D02*
X10788339Y1072516D01*
X10821661Y1172484D02*
X10888306D01*
Y1155822D01*
X10821661Y1089177D01*
Y1072516D01*
X6949194Y910016D02*
Y1009984D01*
X6999178D01*
X7015839Y993323D01*
Y960000D01*
X6999178Y943339D01*
X6949194D01*
X6982516D02*
X7015839Y910016D01*
X7115806Y1009984D02*
X7082484Y993323D01*
X7049161Y960000D01*
Y926678D01*
X7065823Y910016D01*
X7099145D01*
X7115806Y926678D01*
Y943339D01*
X7099145Y960000D01*
X7049161D01*
X3819193Y367516D02*
Y467484D01*
X3869177D01*
X3885838Y450823D01*
Y417500D01*
X3869177Y400839D01*
X3819193D01*
X3852516D02*
X3885838Y367516D01*
X3985806Y467484D02*
X3919161D01*
Y417500D01*
X3952483Y434161D01*
X3969145D01*
X3985806Y417500D01*
Y384178D01*
X3969145Y367516D01*
X3935822D01*
X3919161Y384178D01*
X3824193Y577516D02*
Y677484D01*
X3874177D01*
X3890838Y660823D01*
Y627500D01*
X3874177Y610839D01*
X3824193D01*
X3857516D02*
X3890838Y577516D01*
X3974145D02*
Y677484D01*
X3924161Y627500D01*
X3990806D01*
X6956693Y677516D02*
Y777484D01*
X7006677D01*
X7023339Y760822D01*
Y727500D01*
X7006677Y710839D01*
X6956693D01*
X6990016D02*
X7023339Y677516D01*
X7056661Y760822D02*
X7073323Y777484D01*
X7106645D01*
X7123306Y760822D01*
Y744161D01*
X7106645Y727500D01*
X7089984D01*
X7106645D01*
X7123306Y710839D01*
Y694177D01*
X7106645Y677516D01*
X7073323D01*
X7056661Y694177D01*
X4676140Y1056120D02*
Y1156088D01*
X4726124D01*
X4742785Y1139426D01*
Y1106104D01*
X4726124Y1089443D01*
X4676140D01*
X4709463D02*
X4742785Y1056120D01*
X4842753D02*
X4776108D01*
X4842753Y1122765D01*
Y1139426D01*
X4826092Y1156088D01*
X4792769D01*
X4776108Y1139426D01*
X4510855Y620016D02*
Y719984D01*
X4560839D01*
X4577500Y703322D01*
Y670000D01*
X4560839Y653339D01*
X4510855D01*
X4544177D02*
X4577500Y620016D01*
X4610823D02*
X4644145D01*
X4627484D01*
Y719984D01*
X4610823Y703322D01*
X7754620Y3337040D02*
Y3437008D01*
X7804604D01*
X7821265Y3420346D01*
Y3387024D01*
X7804604Y3370363D01*
X7754620D01*
X7921233Y3420346D02*
X7904572Y3437008D01*
X7871249D01*
X7854588Y3420346D01*
Y3403685D01*
X7871249Y3387024D01*
X7904572D01*
X7921233Y3370363D01*
Y3353701D01*
X7904572Y3337040D01*
X7871249D01*
X7854588Y3353701D01*
X7954556Y3437008D02*
Y3353701D01*
X7971217Y3337040D01*
X8004539D01*
X8021201Y3353701D01*
Y3437008D01*
X8054523Y3337040D02*
X8087846D01*
X8071185D01*
Y3437008D01*
X8054523Y3420346D01*
X2214193Y2269984D02*
Y2170016D01*
X2280838D01*
X2380806D02*
X2314161D01*
X2380806Y2236661D01*
Y2253323D01*
X2364145Y2269984D01*
X2330822D01*
X2314161Y2253323D01*
X2785855Y7724984D02*
Y7625016D01*
X2852500D01*
X2885823D02*
X2919145D01*
X2902484D01*
Y7724984D01*
X2885823Y7708323D01*
X12195145Y4097408D02*
X12161823D01*
X12178484D01*
Y4014101D01*
X12161823Y3997440D01*
X12145161D01*
X12128500Y4014101D01*
X12228468Y4080746D02*
X12245129Y4097408D01*
X12278452D01*
X12295113Y4080746D01*
Y4064085D01*
X12278452Y4047424D01*
X12261790D01*
X12278452D01*
X12295113Y4030763D01*
Y4014101D01*
X12278452Y3997440D01*
X12245129D01*
X12228468Y4014101D01*
X9072734Y5434984D02*
X9106057D01*
X9089396D01*
Y5335016D01*
X9072734D01*
X9106057D01*
X9222686Y5418322D02*
X9206025Y5434984D01*
X9172702D01*
X9156041Y5418322D01*
Y5351677D01*
X9172702Y5335016D01*
X9206025D01*
X9222686Y5351677D01*
Y5385000D01*
X9189363D01*
X9256008Y5434984D02*
Y5335016D01*
X9305992D01*
X9322653Y5351677D01*
Y5368339D01*
X9305992Y5385000D01*
X9256008D01*
X9305992D01*
X9322653Y5401661D01*
Y5418322D01*
X9305992Y5434984D01*
X9256008D01*
X9355976D02*
X9422621D01*
X9389299D01*
Y5335016D01*
X9455944D02*
X9489267D01*
X9472605D01*
Y5434984D01*
X9455944Y5418322D01*
X2702540Y2304984D02*
X2735863D01*
X2719202D01*
Y2205016D01*
X2702540D01*
X2735863D01*
X2852492Y2288323D02*
X2835831Y2304984D01*
X2802508D01*
X2785847Y2288323D01*
Y2221678D01*
X2802508Y2205016D01*
X2835831D01*
X2852492Y2221678D01*
X2885815D02*
X2902476Y2205016D01*
X2935799D01*
X2952460Y2221678D01*
Y2288323D01*
X2935799Y2304984D01*
X2902476D01*
X2885815Y2288323D01*
Y2271661D01*
X2902476Y2255000D01*
X2952460D01*
X1080041Y2099984D02*
X1113363D01*
X1096702D01*
Y2000016D01*
X1080041D01*
X1113363D01*
X1229992Y2083323D02*
X1213331Y2099984D01*
X1180008D01*
X1163347Y2083323D01*
Y2016678D01*
X1180008Y2000016D01*
X1213331D01*
X1229992Y2016678D01*
X1263315Y2083323D02*
X1279976Y2099984D01*
X1313299D01*
X1329960Y2083323D01*
Y2066661D01*
X1313299Y2050000D01*
X1329960Y2033339D01*
Y2016678D01*
X1313299Y2000016D01*
X1279976D01*
X1263315Y2016678D01*
Y2033339D01*
X1279976Y2050000D01*
X1263315Y2066661D01*
Y2083323D01*
X1279976Y2050000D02*
X1313299D01*
X3072540Y1004984D02*
X3105863D01*
X3089202D01*
Y905016D01*
X3072540D01*
X3105863D01*
X3222492Y988322D02*
X3205831Y1004984D01*
X3172508D01*
X3155847Y988322D01*
Y921677D01*
X3172508Y905016D01*
X3205831D01*
X3222492Y921677D01*
X3255815Y1004984D02*
X3322460D01*
Y988322D01*
X3255815Y921677D01*
Y905016D01*
X10887540Y3437484D02*
X10920863D01*
X10904202D01*
Y3337516D01*
X10887540D01*
X10920863D01*
X11037492Y3420822D02*
X11020831Y3437484D01*
X10987508D01*
X10970847Y3420822D01*
Y3354177D01*
X10987508Y3337516D01*
X11020831D01*
X11037492Y3354177D01*
X11137460Y3437484D02*
X11104137Y3420822D01*
X11070815Y3387500D01*
Y3354177D01*
X11087476Y3337516D01*
X11120798D01*
X11137460Y3354177D01*
Y3370839D01*
X11120798Y3387500D01*
X11070815D01*
X10782540Y1867484D02*
X10815863D01*
X10799202D01*
Y1767516D01*
X10782540D01*
X10815863D01*
X10932492Y1850823D02*
X10915831Y1867484D01*
X10882508D01*
X10865847Y1850823D01*
Y1784178D01*
X10882508Y1767516D01*
X10915831D01*
X10932492Y1784178D01*
X11032460Y1867484D02*
X10965814D01*
Y1817500D01*
X10999137Y1834161D01*
X11015798D01*
X11032460Y1817500D01*
Y1784178D01*
X11015798Y1767516D01*
X10982476D01*
X10965814Y1784178D01*
X7327900Y1438028D02*
X7361223D01*
X7344561D01*
Y1338060D01*
X7327900D01*
X7361223D01*
X7477851Y1421366D02*
X7461190Y1438028D01*
X7427868D01*
X7411206Y1421366D01*
Y1354721D01*
X7427868Y1338060D01*
X7461190D01*
X7477851Y1354721D01*
X7561158Y1338060D02*
Y1438028D01*
X7511174Y1388044D01*
X7577819D01*
X9747540Y1999984D02*
X9780863D01*
X9764202D01*
Y1900016D01*
X9747540D01*
X9780863D01*
X9897492Y1983322D02*
X9880831Y1999984D01*
X9847508D01*
X9830847Y1983322D01*
Y1916677D01*
X9847508Y1900016D01*
X9880831D01*
X9897492Y1916677D01*
X9930815Y1983322D02*
X9947476Y1999984D01*
X9980798D01*
X9997460Y1983322D01*
Y1966661D01*
X9980798Y1950000D01*
X9964137D01*
X9980798D01*
X9997460Y1933339D01*
Y1916677D01*
X9980798Y1900016D01*
X9947476D01*
X9930815Y1916677D01*
X5437540Y867484D02*
X5470863D01*
X5454202D01*
Y767516D01*
X5437540D01*
X5470863D01*
X5587492Y850823D02*
X5570831Y867484D01*
X5537508D01*
X5520847Y850823D01*
Y784178D01*
X5537508Y767516D01*
X5570831D01*
X5587492Y784178D01*
X5687460Y767516D02*
X5620815D01*
X5687460Y834161D01*
Y850823D01*
X5670798Y867484D01*
X5637476D01*
X5620815Y850823D01*
X7574202Y619984D02*
X7607524D01*
X7590863D01*
Y520016D01*
X7574202D01*
X7607524D01*
X7724153Y603322D02*
X7707492Y619984D01*
X7674170D01*
X7657508Y603322D01*
Y536677D01*
X7674170Y520016D01*
X7707492D01*
X7724153Y536677D01*
X7757476Y520016D02*
X7790798D01*
X7774137D01*
Y619984D01*
X7757476Y603322D01*
X1921693Y4662484D02*
Y4562516D01*
X1971677D01*
X1988338Y4579178D01*
Y4645823D01*
X1971677Y4662484D01*
X1921693D01*
X2021661Y4645823D02*
X2038323Y4662484D01*
X2071645D01*
X2088306Y4645823D01*
Y4629161D01*
X2071645Y4612500D01*
X2054984D01*
X2071645D01*
X2088306Y4595839D01*
Y4579178D01*
X2071645Y4562516D01*
X2038323D01*
X2021661Y4579178D01*
X12034194Y2299984D02*
Y2200016D01*
X12084178D01*
X12100839Y2216678D01*
Y2283323D01*
X12084178Y2299984D01*
X12034194D01*
X12200806Y2200016D02*
X12134161D01*
X12200806Y2266661D01*
Y2283323D01*
X12184145Y2299984D01*
X12150823D01*
X12134161Y2283323D01*
X12100855Y1792484D02*
Y1692516D01*
X12150839D01*
X12167500Y1709177D01*
Y1775822D01*
X12150839Y1792484D01*
X12100855D01*
X12200823Y1692516D02*
X12234145D01*
X12217484D01*
Y1792484D01*
X12200823Y1775822D01*
X11262739Y4295636D02*
X11246078Y4312297D01*
X11212756D01*
X11196094Y4295636D01*
Y4228991D01*
X11212756Y4212329D01*
X11246078D01*
X11262739Y4228991D01*
X11296062Y4212329D02*
Y4312297D01*
X11362707Y4212329D01*
Y4312297D01*
X11396030Y4295636D02*
X11412691Y4312297D01*
X11446014D01*
X11462675Y4295636D01*
Y4278974D01*
X11446014Y4262313D01*
X11429352D01*
X11446014D01*
X11462675Y4245652D01*
Y4228991D01*
X11446014Y4212329D01*
X11412691D01*
X11396030Y4228991D01*
X133355Y6893323D02*
X116694Y6909984D01*
X83371D01*
X66710Y6893323D01*
Y6826677D01*
X83371Y6810016D01*
X116694D01*
X133355Y6826677D01*
X166678Y6810016D02*
Y6909984D01*
X233323Y6810016D01*
Y6909984D01*
X333290Y6810016D02*
X266645D01*
X333290Y6876661D01*
Y6893323D01*
X316629Y6909984D01*
X283307D01*
X266645Y6893323D01*
X10337516Y2711823D02*
X10320855Y2728484D01*
X10287532D01*
X10270871Y2711823D01*
Y2645178D01*
X10287532Y2628516D01*
X10320855D01*
X10337516Y2645178D01*
X10370839Y2628516D02*
Y2728484D01*
X10437484Y2628516D01*
Y2728484D01*
X10470807Y2628516D02*
X10504129D01*
X10487468D01*
Y2728484D01*
X10470807Y2711823D01*
X2260855Y1960823D02*
X2244194Y1977484D01*
X2210871D01*
X2194210Y1960823D01*
Y1894178D01*
X2210871Y1877516D01*
X2244194D01*
X2260855Y1894178D01*
X2294178Y1960823D02*
X2310839Y1977484D01*
X2344161D01*
X2360823Y1960823D01*
Y1944161D01*
X2344161Y1927500D01*
X2327500D01*
X2344161D01*
X2360823Y1910839D01*
Y1894178D01*
X2344161Y1877516D01*
X2310839D01*
X2294178Y1894178D01*
X2394145Y1960823D02*
X2410807Y1977484D01*
X2444129D01*
X2460790Y1960823D01*
Y1944161D01*
X2444129Y1927500D01*
X2427468D01*
X2444129D01*
X2460790Y1910839D01*
Y1894178D01*
X2444129Y1877516D01*
X2410807D01*
X2394145Y1894178D01*
X791855Y2848323D02*
X775194Y2864984D01*
X741871D01*
X725210Y2848323D01*
Y2781678D01*
X741871Y2765016D01*
X775194D01*
X791855Y2781678D01*
X825178Y2848323D02*
X841839Y2864984D01*
X875162D01*
X891823Y2848323D01*
Y2831661D01*
X875162Y2815000D01*
X858500D01*
X875162D01*
X891823Y2798339D01*
Y2781678D01*
X875162Y2765016D01*
X841839D01*
X825178Y2781678D01*
X991790Y2765016D02*
X925145D01*
X991790Y2831661D01*
Y2848323D01*
X975129Y2864984D01*
X941807D01*
X925145Y2848323D01*
X3452516Y1465823D02*
X3435855Y1482484D01*
X3402532D01*
X3385871Y1465823D01*
Y1399178D01*
X3402532Y1382516D01*
X3435855D01*
X3452516Y1399178D01*
X3485839Y1465823D02*
X3502500Y1482484D01*
X3535823D01*
X3552484Y1465823D01*
Y1449161D01*
X3535823Y1432500D01*
X3519161D01*
X3535823D01*
X3552484Y1415839D01*
Y1399178D01*
X3535823Y1382516D01*
X3502500D01*
X3485839Y1399178D01*
X3585807Y1382516D02*
X3619129D01*
X3602468D01*
Y1482484D01*
X3585807Y1465823D01*
X183355Y2373323D02*
X166694Y2389984D01*
X133371D01*
X116710Y2373323D01*
Y2306678D01*
X133371Y2290016D01*
X166694D01*
X183355Y2306678D01*
X216677Y2373323D02*
X233339Y2389984D01*
X266661D01*
X283323Y2373323D01*
Y2356661D01*
X266661Y2340000D01*
X250000D01*
X266661D01*
X283323Y2323339D01*
Y2306678D01*
X266661Y2290016D01*
X233339D01*
X216677Y2306678D01*
X316645Y2373323D02*
X333307Y2389984D01*
X366629D01*
X383290Y2373323D01*
Y2306678D01*
X366629Y2290016D01*
X333307D01*
X316645Y2306678D01*
Y2373323D01*
X3733355Y2435822D02*
X3716694Y2452484D01*
X3683371D01*
X3666710Y2435822D01*
Y2369177D01*
X3683371Y2352516D01*
X3716694D01*
X3733355Y2369177D01*
X3833323Y2352516D02*
X3766678D01*
X3833323Y2419161D01*
Y2435822D01*
X3816662Y2452484D01*
X3783339D01*
X3766678Y2435822D01*
X3866646Y2369177D02*
X3883307Y2352516D01*
X3916629D01*
X3933291Y2369177D01*
Y2435822D01*
X3916629Y2452484D01*
X3883307D01*
X3866646Y2435822D01*
Y2419161D01*
X3883307Y2402500D01*
X3933291D01*
X2188355Y2515823D02*
X2171694Y2532484D01*
X2138371D01*
X2121710Y2515823D01*
Y2449178D01*
X2138371Y2432516D01*
X2171694D01*
X2188355Y2449178D01*
X2288323Y2432516D02*
X2221678D01*
X2288323Y2499161D01*
Y2515823D01*
X2271661Y2532484D01*
X2238339D01*
X2221678Y2515823D01*
X2321645D02*
X2338307Y2532484D01*
X2371629D01*
X2388290Y2515823D01*
Y2499161D01*
X2371629Y2482500D01*
X2388290Y2465839D01*
Y2449178D01*
X2371629Y2432516D01*
X2338307D01*
X2321645Y2449178D01*
Y2465839D01*
X2338307Y2482500D01*
X2321645Y2499161D01*
Y2515823D01*
X2338307Y2482500D02*
X2371629D01*
X3158355Y1213322D02*
X3141693Y1229984D01*
X3108371D01*
X3091710Y1213322D01*
Y1146677D01*
X3108371Y1130016D01*
X3141693D01*
X3158355Y1146677D01*
X3258322Y1130016D02*
X3191677D01*
X3258322Y1196661D01*
Y1213322D01*
X3241661Y1229984D01*
X3208339D01*
X3191677Y1213322D01*
X3291645Y1229984D02*
X3358290D01*
Y1213322D01*
X3291645Y1146677D01*
Y1130016D01*
X3143355Y720823D02*
X3126694Y737484D01*
X3093371D01*
X3076710Y720823D01*
Y654178D01*
X3093371Y637516D01*
X3126694D01*
X3143355Y654178D01*
X3243322Y637516D02*
X3176677D01*
X3243322Y704161D01*
Y720823D01*
X3226661Y737484D01*
X3193339D01*
X3176677Y720823D01*
X3343290Y737484D02*
X3309968Y720823D01*
X3276645Y687500D01*
Y654178D01*
X3293307Y637516D01*
X3326629D01*
X3343290Y654178D01*
Y670839D01*
X3326629Y687500D01*
X3276645D01*
X11514186Y3408323D02*
X11497524Y3424984D01*
X11464202D01*
X11447540Y3408323D01*
Y3341678D01*
X11464202Y3325016D01*
X11497524D01*
X11514186Y3341678D01*
X11547508Y3325016D02*
X11580831D01*
X11564170D01*
Y3424984D01*
X11547508Y3408323D01*
X11630815Y3341678D02*
X11647476Y3325016D01*
X11680799D01*
X11697460Y3341678D01*
Y3408323D01*
X11680799Y3424984D01*
X11647476D01*
X11630815Y3408323D01*
Y3391661D01*
X11647476Y3375000D01*
X11697460D01*
X9839186Y5965823D02*
X9822524Y5982484D01*
X9789202D01*
X9772541Y5965823D01*
Y5899178D01*
X9789202Y5882516D01*
X9822524D01*
X9839186Y5899178D01*
X9872508Y5882516D02*
X9905831D01*
X9889170D01*
Y5982484D01*
X9872508Y5965823D01*
X9955815Y5982484D02*
X10022460D01*
Y5965823D01*
X9955815Y5899178D01*
Y5882516D01*
X9996686Y6360823D02*
X9980024Y6377484D01*
X9946702D01*
X9930041Y6360823D01*
Y6294178D01*
X9946702Y6277516D01*
X9980024D01*
X9996686Y6294178D01*
X10030008Y6277516D02*
X10063331D01*
X10046670D01*
Y6377484D01*
X10030008Y6360823D01*
X10179960Y6377484D02*
X10146637Y6360823D01*
X10113315Y6327500D01*
Y6294178D01*
X10129976Y6277516D01*
X10163299D01*
X10179960Y6294178D01*
Y6310839D01*
X10163299Y6327500D01*
X10113315D01*
X6970685Y1715822D02*
X6954024Y1732484D01*
X6920702D01*
X6904040Y1715822D01*
Y1649177D01*
X6920702Y1632516D01*
X6954024D01*
X6970685Y1649177D01*
X7004008Y1632516D02*
X7037331D01*
X7020669D01*
Y1732484D01*
X7004008Y1715822D01*
X7153960Y1732484D02*
X7087315D01*
Y1682500D01*
X7120637Y1699161D01*
X7137298D01*
X7153960Y1682500D01*
Y1649177D01*
X7137298Y1632516D01*
X7103976D01*
X7087315Y1649177D01*
X8946685Y250822D02*
X8930024Y267484D01*
X8896702D01*
X8880040Y250822D01*
Y184177D01*
X8896702Y167516D01*
X8930024D01*
X8946685Y184177D01*
X8980008Y167516D02*
X9013331D01*
X8996670D01*
Y267484D01*
X8980008Y250822D01*
X9113299Y167516D02*
Y267484D01*
X9063315Y217500D01*
X9129960D01*
X10242685Y1788323D02*
X10226024Y1804984D01*
X10192702D01*
X10176040Y1788323D01*
Y1721678D01*
X10192702Y1705016D01*
X10226024D01*
X10242685Y1721678D01*
X10276008Y1705016D02*
X10309331D01*
X10292670D01*
Y1804984D01*
X10276008Y1788323D01*
X10359315D02*
X10375976Y1804984D01*
X10409298D01*
X10425960Y1788323D01*
Y1771661D01*
X10409298Y1755000D01*
X10392637D01*
X10409298D01*
X10425960Y1738339D01*
Y1721678D01*
X10409298Y1705016D01*
X10375976D01*
X10359315Y1721678D01*
X8374985Y2287506D02*
X8358324Y2304168D01*
X8325001D01*
X8308340Y2287506D01*
Y2220861D01*
X8325001Y2204200D01*
X8358324D01*
X8374985Y2220861D01*
X8408308Y2204200D02*
X8441630D01*
X8424969D01*
Y2304168D01*
X8408308Y2287506D01*
X8558259Y2204200D02*
X8491614D01*
X8558259Y2270845D01*
Y2287506D01*
X8541598Y2304168D01*
X8508276D01*
X8491614Y2287506D01*
X7755847Y1633323D02*
X7739186Y1649984D01*
X7705863D01*
X7689202Y1633323D01*
Y1566678D01*
X7705863Y1550016D01*
X7739186D01*
X7755847Y1566678D01*
X7789170Y1550016D02*
X7822492D01*
X7805831D01*
Y1649984D01*
X7789170Y1633323D01*
X7872476Y1550016D02*
X7905799D01*
X7889137D01*
Y1649984D01*
X7872476Y1633323D01*
X7719185Y890822D02*
X7702524Y907484D01*
X7669202D01*
X7652540Y890822D01*
Y824177D01*
X7669202Y807516D01*
X7702524D01*
X7719185Y824177D01*
X7752508Y807516D02*
X7785831D01*
X7769170D01*
Y907484D01*
X7752508Y890822D01*
X7835815D02*
X7852476Y907484D01*
X7885799D01*
X7902460Y890822D01*
Y824177D01*
X7885799Y807516D01*
X7852476D01*
X7835815Y824177D01*
Y890822D01*
X7328339Y323323D02*
X7311678Y339984D01*
X7278355D01*
X7261694Y323323D01*
Y256678D01*
X7278355Y240016D01*
X7311678D01*
X7328339Y256678D01*
X7361661D02*
X7378323Y240016D01*
X7411645D01*
X7428306Y256678D01*
Y323323D01*
X7411645Y339984D01*
X7378323D01*
X7361661Y323323D01*
Y306661D01*
X7378323Y290000D01*
X7428306D01*
X11810838Y1491823D02*
X11794177Y1508484D01*
X11760855D01*
X11744193Y1491823D01*
Y1425177D01*
X11760855Y1408516D01*
X11794177D01*
X11810838Y1425177D01*
X11844161Y1491823D02*
X11860823Y1508484D01*
X11894145D01*
X11910806Y1491823D01*
Y1475161D01*
X11894145Y1458500D01*
X11910806Y1441839D01*
Y1425177D01*
X11894145Y1408516D01*
X11860823D01*
X11844161Y1425177D01*
Y1441839D01*
X11860823Y1458500D01*
X11844161Y1475161D01*
Y1491823D01*
X11860823Y1458500D02*
X11894145D01*
X11814838Y1303323D02*
X11798177Y1319984D01*
X11764855D01*
X11748193Y1303323D01*
Y1236678D01*
X11764855Y1220016D01*
X11798177D01*
X11814838Y1236678D01*
X11848161Y1319984D02*
X11914806D01*
Y1303323D01*
X11848161Y1236678D01*
Y1220016D01*
X11863338Y1684323D02*
X11846677Y1700984D01*
X11813355D01*
X11796693Y1684323D01*
Y1617678D01*
X11813355Y1601016D01*
X11846677D01*
X11863338Y1617678D01*
X11963306Y1700984D02*
X11929984Y1684323D01*
X11896661Y1651000D01*
Y1617678D01*
X11913323Y1601016D01*
X11946645D01*
X11963306Y1617678D01*
Y1634339D01*
X11946645Y1651000D01*
X11896661D01*
X11385839Y830823D02*
X11369177Y847484D01*
X11335855D01*
X11319194Y830823D01*
Y764178D01*
X11335855Y747516D01*
X11369177D01*
X11385839Y764178D01*
X11485806Y847484D02*
X11419161D01*
Y797500D01*
X11452484Y814161D01*
X11469145D01*
X11485806Y797500D01*
Y764178D01*
X11469145Y747516D01*
X11435823D01*
X11419161Y764178D01*
X10395838Y818322D02*
X10379177Y834984D01*
X10345855D01*
X10329193Y818322D01*
Y751677D01*
X10345855Y735016D01*
X10379177D01*
X10395838Y751677D01*
X10479145Y735016D02*
Y834984D01*
X10429161Y785000D01*
X10495806D01*
X5967065Y913366D02*
X5950404Y930028D01*
X5917081D01*
X5900420Y913366D01*
Y846721D01*
X5917081Y830060D01*
X5950404D01*
X5967065Y846721D01*
X6000388Y913366D02*
X6017049Y930028D01*
X6050372D01*
X6067033Y913366D01*
Y896705D01*
X6050372Y880044D01*
X6033710D01*
X6050372D01*
X6067033Y863383D01*
Y846721D01*
X6050372Y830060D01*
X6017049D01*
X6000388Y846721D01*
X7004838Y1185823D02*
X6988177Y1202484D01*
X6954855D01*
X6938193Y1185823D01*
Y1119178D01*
X6954855Y1102516D01*
X6988177D01*
X7004838Y1119178D01*
X7104806Y1102516D02*
X7038161D01*
X7104806Y1169161D01*
Y1185823D01*
X7088145Y1202484D01*
X7054823D01*
X7038161Y1185823D01*
X7012500Y563323D02*
X6995839Y579984D01*
X6962516D01*
X6945855Y563323D01*
Y496678D01*
X6962516Y480016D01*
X6995839D01*
X7012500Y496678D01*
X7045823Y480016D02*
X7079145D01*
X7062484D01*
Y579984D01*
X7045823Y563323D01*
D65*
X10697500Y7067500D02*
G03*
X10697500Y7067500I-637500J0D01*
G01*
X5645000Y1700000D02*
G03*
X5665000Y1700000I10000J0D01*
G01*
D02*
G03*
X5645000Y1700000I-10000J0D01*
G01*
X10062500Y5892500D02*
G03*
X10062500Y5882500I0J-5000D01*
G01*
D02*
G03*
X10062500Y5892500I0J5000D01*
G01*
D02*
G03*
X10062500Y5882500I0J-5000D01*
G01*
X1080000Y50000D02*
X2370000D01*
X1080000D02*
Y990000D01*
X2620000D01*
Y550000D02*
Y990000D01*
X2370000Y50000D02*
X2619300D01*
X2620000Y50700D01*
Y550000D01*
X7902500Y6499100D02*
Y6543300D01*
Y6499100D02*
X8922500D01*
Y6543300D01*
X7923500Y4424100D02*
Y4468300D01*
Y4424100D02*
X8943500D01*
Y4468300D01*
X9151200Y2162500D02*
X9258800D01*
X9353700D02*
X9461300D01*
X9553700D02*
X9661300D01*
X11867500Y2037500D02*
Y2157500D01*
X11650000Y2041200D02*
Y2148800D01*
X11867500Y1837500D02*
Y1957500D01*
X11650000Y1841200D02*
Y1948800D01*
X11477500Y1581000D02*
X11677500D01*
X11415000Y1706000D02*
X11677500D01*
X10743700Y880000D02*
X10851300D01*
X10948700D02*
X11056300D01*
X11307500Y397500D02*
Y535000D01*
X11257500D02*
X11307500D01*
X10567500D02*
X10617500D01*
X10567500Y397500D02*
Y535000D01*
X11307500Y-20000D02*
Y117500D01*
X10567500Y-20000D02*
X11307500D01*
X10567500D02*
Y117500D01*
X10740000Y1715100D02*
X11060000D01*
Y1224900D02*
Y1715100D01*
X10740000Y1224900D02*
X11060000D01*
X10740000D02*
Y1715100D01*
X10552500Y1749000D02*
X10705000D01*
X7230000Y455000D02*
Y565000D01*
X7235000Y600000D02*
X7525000D01*
Y640000D01*
X7235000D02*
X7525000D01*
X7235000Y600000D02*
Y640000D01*
X8637500Y762500D02*
Y1692500D01*
Y762500D02*
X9567500D01*
Y1692500D01*
X8637500D02*
X9567500D01*
X7545000Y345000D02*
X7745000D01*
X7545000Y220000D02*
X7807500D01*
X4832500Y606200D02*
Y713800D01*
X4182500Y563700D02*
Y671300D01*
Y358700D02*
Y466300D01*
X6755000Y683700D02*
Y791300D01*
Y893700D02*
Y1001300D01*
X5065000Y728000D02*
X5217500D01*
X5252500Y225000D02*
Y715000D01*
Y225000D02*
X5572500D01*
Y715000D01*
X5252500D02*
X5572500D01*
X3352500Y2340000D02*
X3552500D01*
X3290000Y2465000D02*
X3552500D01*
X3460000Y1245000D02*
X3660000D01*
X3460000Y1120000D02*
X3722500D01*
X3535000Y845000D02*
X3570000D01*
X3535000D02*
Y1045000D01*
X3570000D01*
Y845000D02*
Y1045000D01*
X3605000Y830000D02*
X3710000D01*
X3467500Y745000D02*
X3667500D01*
X3467500Y620000D02*
X3730000D01*
X5187500Y1873700D02*
Y1981300D01*
X1062500Y2150000D02*
X1382500D01*
X1062500D02*
Y2640000D01*
X1382500D01*
Y2150000D02*
Y2640000D01*
X1417500Y2137000D02*
X1570000D01*
X1970000Y1795000D02*
Y2025000D01*
X1992500Y2117500D02*
Y2297500D01*
X3022500Y1615000D02*
X3372500D01*
X3022500D02*
Y2265000D01*
X3372500D01*
Y1615000D02*
Y2265000D01*
X3425000Y1627500D02*
X3600000D01*
X10259000Y2061500D02*
Y2569500D01*
X11021000Y2061500D02*
Y2570000D01*
X10259000Y2569500D02*
X10259500Y2570000D01*
X11021000D01*
X10259000Y2061500D02*
X11021000D01*
X10345000Y3361200D02*
Y3468800D01*
X10880000Y3490000D02*
X11200000D01*
X10880000D02*
Y3980000D01*
X11200000D01*
Y3490000D02*
Y3980000D01*
X11235000Y3477000D02*
X11387500D01*
X10345000Y3773700D02*
Y3881300D01*
Y3566200D02*
Y3673800D01*
X10869800Y6436300D02*
X12470000D01*
X10869800Y4376400D02*
Y6436300D01*
Y4376400D02*
X12470000D01*
Y6436300D01*
X10312500Y4532500D02*
Y5832500D01*
X9812500Y4532500D02*
X10312500D01*
X9812500D02*
Y5832500D01*
X10312500D01*
X1962500Y4715000D02*
Y7715000D01*
X2422500D01*
Y4715000D02*
Y7715000D01*
X1962500Y4715000D02*
X2422500D01*
X1350000Y7041000D02*
Y7179000D01*
X44800Y6721300D02*
X1645000D01*
X44800Y4661400D02*
Y6721300D01*
Y4661400D02*
X1645000D01*
Y6721300D01*
X4822500Y823700D02*
Y931300D01*
X7602500Y1067500D02*
Y1107500D01*
X7312500Y1067500D02*
X7602500D01*
X7312500D02*
Y1107500D01*
X7602500D01*
X7607500Y1142500D02*
Y1252500D01*
X12367000Y2642000D02*
Y3912000D01*
X12113000Y2642000D02*
Y3912000D01*
Y2642000D02*
X12367000D01*
X12113000Y3912000D02*
X12367000D01*
X7795500Y2607500D02*
X8955500D01*
X7795500D02*
Y3248000D01*
X8955500Y2607500D02*
Y3250000D01*
X7795500Y3248000D02*
X8955500Y3250000D01*
X709512Y7699012D02*
Y7549044D01*
X716653Y7699012D02*
Y7549044D01*
X688088Y7699012D02*
X773784D01*
X795208Y7691870D01*
X802349Y7684729D01*
X809490Y7670446D01*
Y7649022D01*
X802349Y7634740D01*
X795208Y7627598D01*
X773784Y7620457D01*
X716653D01*
X773784Y7699012D02*
X788066Y7691870D01*
X795208Y7684729D01*
X802349Y7670446D01*
Y7649022D01*
X795208Y7634740D01*
X788066Y7627598D01*
X773784Y7620457D01*
X688088Y7549044D02*
X738077D01*
X850910Y7699012D02*
Y7549044D01*
X858051Y7699012D02*
Y7549044D01*
X900899Y7656164D02*
Y7599033D01*
X829486Y7699012D02*
X943747D01*
Y7656164D01*
X936606Y7699012D01*
X858051Y7627598D02*
X900899D01*
X829486Y7549044D02*
X879475D01*
X1064436Y7677588D02*
X1071577Y7656164D01*
Y7699012D01*
X1064436Y7677588D01*
X1050153Y7691870D01*
X1028729Y7699012D01*
X1014446D01*
X993022Y7691870D01*
X978740Y7677588D01*
X971598Y7663305D01*
X964457Y7641881D01*
Y7606175D01*
X971598Y7584750D01*
X978740Y7570468D01*
X993022Y7556185D01*
X1014446Y7549044D01*
X1028729D01*
X1050153Y7556185D01*
X1064436Y7570468D01*
X1071577Y7584750D01*
X1014446Y7699012D02*
X1000164Y7691870D01*
X985881Y7677588D01*
X978740Y7663305D01*
X971598Y7641881D01*
Y7606175D01*
X978740Y7584750D01*
X985881Y7570468D01*
X1000164Y7556185D01*
X1014446Y7549044D01*
X1249396Y7699012D02*
Y7549044D01*
X1256537Y7699012D02*
Y7549044D01*
X1227972Y7699012D02*
X1313668D01*
X1335092Y7691870D01*
X1342233Y7684729D01*
X1349374Y7670446D01*
Y7656164D01*
X1342233Y7641881D01*
X1335092Y7634740D01*
X1313668Y7627598D01*
Y7699012D02*
X1327950Y7691870D01*
X1335092Y7684729D01*
X1342233Y7670446D01*
Y7656164D01*
X1335092Y7641881D01*
X1327950Y7634740D01*
X1313668Y7627598D01*
X1256537D02*
X1313668D01*
X1335092Y7620457D01*
X1342233Y7613316D01*
X1349374Y7599033D01*
Y7577609D01*
X1342233Y7563327D01*
X1335092Y7556185D01*
X1313668Y7549044D01*
X1227972D01*
X1313668Y7627598D02*
X1327950Y7620457D01*
X1335092Y7613316D01*
X1342233Y7599033D01*
Y7577609D01*
X1335092Y7563327D01*
X1327950Y7556185D01*
X1313668Y7549044D01*
X1412218Y7649022D02*
X1390794Y7641881D01*
X1376511Y7627598D01*
X1369370Y7606175D01*
Y7591892D01*
X1376511Y7570468D01*
X1390794Y7556185D01*
X1412218Y7549044D01*
X1426501D01*
X1447925Y7556185D01*
X1462207Y7570468D01*
X1469349Y7591892D01*
Y7606175D01*
X1462207Y7627598D01*
X1447925Y7641881D01*
X1426501Y7649022D01*
X1412218D01*
X1397935Y7641881D01*
X1383653Y7627598D01*
X1376511Y7606175D01*
Y7591892D01*
X1383653Y7570468D01*
X1397935Y7556185D01*
X1412218Y7549044D01*
X1426501D02*
X1440784Y7556185D01*
X1455066Y7570468D01*
X1462207Y7591892D01*
Y7606175D01*
X1455066Y7627598D01*
X1440784Y7641881D01*
X1426501Y7649022D01*
X1534335D02*
X1512911Y7641881D01*
X1498628Y7627598D01*
X1491487Y7606175D01*
Y7591892D01*
X1498628Y7570468D01*
X1512911Y7556185D01*
X1534335Y7549044D01*
X1548617D01*
X1570041Y7556185D01*
X1584324Y7570468D01*
X1591465Y7591892D01*
Y7606175D01*
X1584324Y7627598D01*
X1570041Y7641881D01*
X1548617Y7649022D01*
X1534335D01*
X1520052Y7641881D01*
X1505769Y7627598D01*
X1498628Y7606175D01*
Y7591892D01*
X1505769Y7570468D01*
X1520052Y7556185D01*
X1534335Y7549044D01*
X1548617D02*
X1562900Y7556185D01*
X1577183Y7570468D01*
X1584324Y7591892D01*
Y7606175D01*
X1577183Y7627598D01*
X1562900Y7641881D01*
X1548617Y7649022D01*
X1685017Y7634740D02*
X1692158Y7649022D01*
Y7620457D01*
X1685017Y7634740D01*
X1677875Y7641881D01*
X1663593Y7649022D01*
X1635027D01*
X1620745Y7641881D01*
X1613603Y7634740D01*
Y7620457D01*
X1620745Y7613316D01*
X1635027Y7606175D01*
X1670734Y7591892D01*
X1685017Y7584750D01*
X1692158Y7577609D01*
X1613603Y7627598D02*
X1620745Y7620457D01*
X1635027Y7613316D01*
X1670734Y7599033D01*
X1685017Y7591892D01*
X1692158Y7584750D01*
Y7563327D01*
X1685017Y7556185D01*
X1670734Y7549044D01*
X1642169D01*
X1627886Y7556185D01*
X1620745Y7563327D01*
X1613603Y7577609D01*
Y7549044D01*
X1620745Y7563327D01*
X1759286Y7549044D02*
X1752145Y7556185D01*
X1745004Y7577609D01*
Y7699012D01*
X1737862D01*
Y7577609D01*
X1745004Y7556185D01*
X1759286Y7549044D01*
X1773569D01*
X1787852Y7556185D01*
X1794993Y7570468D01*
X1716438Y7649022D02*
X1773569D01*
D66*
X8492500Y1677500D02*
G03*
X8492500Y1677500I-12500J0D01*
G01*
D67*
X2650600Y4181900D02*
G03*
X2650600Y4181900I-17500J0D01*
G01*
%TF.MD5,d81126574015f4cdfe42a2cb558ed5d9*%
M02*
