%TF.GenerationSoftware,Altium Limited,Altium Designer,23.6.0 (18)*%
G04 Layer_Physical_Order=1*
G04 Layer_Color=255*
%FSLAX45Y45*%
%MOMM*%
%TF.SameCoordinates,1BF17B70-E076-4422-95A1-EF062E3CA17A*%
%TF.FilePolarity,Positive*%
%TF.FileFunction,Copper,L1,Top,Signal*%
%TF.Part,Single*%
G01*
G75*
%TA.AperFunction,SMDPad,CuDef*%
%ADD10R,1.60000X3.50000*%
%ADD11R,12.20000X9.75000*%
%ADD12R,1.02000X1.47000*%
%ADD13R,1.45000X1.00000*%
%ADD14R,1.47000X1.02000*%
%ADD15R,1.10000X1.30000*%
%ADD16R,1.00000X1.45000*%
%ADD17R,1.45000X0.95000*%
%TA.AperFunction,ConnectorPad*%
%ADD18R,1.15000X1.45000*%
%ADD19R,1.75000X1.90000*%
%ADD20R,0.40000X1.40000*%
%TA.AperFunction,SMDPad,CuDef*%
%ADD21R,1.52600X0.43500*%
%ADD22R,1.00000X0.70000*%
%ADD23R,0.60000X1.10000*%
%ADD24R,0.30000X1.47500*%
%ADD25R,1.47500X0.30000*%
%ADD26R,1.52500X0.65000*%
%ADD27R,1.05000X0.50000*%
%ADD28R,1.22000X2.72000*%
%ADD29R,1.25000X2.20000*%
%ADD30R,1.75000X0.95000*%
%ADD31R,1.75000X3.20000*%
%ADD32R,1.30000X1.80000*%
G04:AMPARAMS|DCode=33|XSize=2mm|YSize=2mm|CornerRadius=0.5mm|HoleSize=0mm|Usage=FLASHONLY|Rotation=0.000|XOffset=0mm|YOffset=0mm|HoleType=Round|Shape=RoundedRectangle|*
%AMROUNDEDRECTD33*
21,1,2.00000,1.00000,0,0,0.0*
21,1,1.00000,2.00000,0,0,0.0*
1,1,1.00000,0.50000,-0.50000*
1,1,1.00000,-0.50000,-0.50000*
1,1,1.00000,-0.50000,0.50000*
1,1,1.00000,0.50000,0.50000*
%
%ADD33ROUNDEDRECTD33*%
%TA.AperFunction,Conductor*%
%ADD34C,0.65000*%
%ADD35C,0.30000*%
%ADD36C,1.00000*%
%ADD37C,0.80000*%
%ADD38C,1.50000*%
%ADD39C,0.50000*%
%ADD40C,0.60000*%
%ADD41C,0.90000*%
%ADD42C,0.38100*%
%TA.AperFunction,ViaPad*%
%ADD43C,4.00000*%
%TA.AperFunction,ComponentPad*%
%ADD44R,1.80000X1.80000*%
%ADD45C,1.80000*%
%ADD46C,1.20000*%
%ADD47R,1.20000X1.20000*%
%ADD48C,1.99500*%
%ADD49C,1.31000*%
%ADD50C,2.03000*%
%ADD51C,1.52400*%
%ADD52C,2.78100*%
%ADD53C,1.30000*%
%ADD54R,2.22000X2.22000*%
%ADD55C,2.22000*%
%ADD56C,2.80000*%
%ADD57C,1.50000*%
%ADD58R,1.50000X1.50000*%
%TA.AperFunction,ViaPad*%
%ADD59C,0.60000*%
%ADD60C,0.50000*%
%ADD61C,0.80000*%
%ADD62C,1.00000*%
G36*
X1292500Y6117500D02*
X1105000Y5930000D01*
X25528D01*
X16556Y5938990D01*
X19415Y7342500D01*
X156540D01*
X159608Y7327078D01*
X178453Y7281581D01*
X205813Y7240634D01*
X240635Y7205813D01*
X281581Y7178453D01*
X327078Y7159608D01*
X375377Y7150000D01*
X424623D01*
X472922Y7159608D01*
X518419Y7178453D01*
X559365Y7205813D01*
X594187Y7240634D01*
X621547Y7281581D01*
X640392Y7327078D01*
X643460Y7342500D01*
X1292500Y7342500D01*
Y6117500D01*
D02*
G37*
G36*
X2130000Y7070000D02*
X2502500D01*
X2585000Y6987500D01*
Y6545000D01*
X2550000Y6510000D01*
X1870000D01*
X1410000Y6970000D01*
Y7327500D01*
X1435000Y7352500D01*
X1847500D01*
X2130000Y7070000D01*
D02*
G37*
G36*
X12490000Y7762500D02*
Y5610000D01*
X12380000Y5500000D01*
X9867500D01*
X9782500Y5585000D01*
Y6472500D01*
X9702500Y6552500D01*
X7660000D01*
X7597500Y6615000D01*
Y7785000D01*
X7612500Y7800000D01*
X12452500D01*
X12490000Y7762500D01*
D02*
G37*
G36*
X5460000Y6300000D02*
Y5337500D01*
X5390000Y5267500D01*
X4995000D01*
X4890000Y5162500D01*
Y4725000D01*
X4730000Y4565000D01*
X4143117D01*
X4129262Y4574257D01*
X4114495Y4580374D01*
X4113569Y4594504D01*
X4127620Y4602617D01*
X4148883Y4623879D01*
X4163917Y4649920D01*
X4171700Y4678965D01*
Y4709035D01*
X4168675Y4720323D01*
X4099926Y4651573D01*
X4057499Y4694000D01*
X4015073Y4651573D01*
X3946324Y4720322D01*
X3943300Y4709035D01*
Y4678965D01*
X3951083Y4649920D01*
X3966117Y4623879D01*
X3987379Y4602617D01*
X4001431Y4594504D01*
X4000505Y4580374D01*
X3985738Y4574257D01*
X3971883Y4565000D01*
X3905000D01*
X3882500Y4587500D01*
Y6200000D01*
X4045000Y6362500D01*
X5397500D01*
X5460000Y6300000D01*
D02*
G37*
G36*
X7197500Y7740000D02*
Y6595000D01*
X7517500Y6275000D01*
X8867499D01*
X9152500Y5990000D01*
Y4547500D01*
X9067500Y4462500D01*
X7487500D01*
X7435000Y4515000D01*
Y5177500D01*
X7157500Y5455000D01*
X6190000D01*
X6075000Y5570000D01*
Y6655000D01*
X5860000Y6870000D01*
X4580000D01*
X4382500Y7067500D01*
Y7780000D01*
X4407500Y7805000D01*
X7132500D01*
X7197500Y7740000D01*
D02*
G37*
G36*
X2547500Y5142500D02*
Y4632500D01*
X2612500Y4567500D01*
X2704128D01*
X2715738Y4559743D01*
X2730505Y4553626D01*
X2731431Y4539496D01*
X2717379Y4531383D01*
X2696117Y4510121D01*
X2681083Y4484080D01*
X2673300Y4455035D01*
Y4424965D01*
X2676324Y4413678D01*
X2745073Y4482426D01*
X2787499Y4440000D01*
X2829926Y4482426D01*
X2898675Y4413677D01*
X2901700Y4424965D01*
Y4455035D01*
X2893917Y4484080D01*
X2878883Y4510121D01*
X2857620Y4531383D01*
X2843569Y4539496D01*
X2844495Y4553626D01*
X2859262Y4559743D01*
X2870872Y4567500D01*
X2992500D01*
X3060000Y4500000D01*
Y4017500D01*
X2985000Y3942500D01*
X1957500D01*
X1905000Y3995000D01*
Y5187500D01*
X1945000Y5227500D01*
X2462500D01*
X2547500Y5142500D01*
D02*
G37*
G36*
X12122400Y3736289D02*
X12139015Y3707512D01*
X12129548Y3699705D01*
X12128627Y3700627D01*
X12115263Y3709556D01*
X12099500Y3712691D01*
X11407450D01*
Y3724000D01*
X11214950D01*
Y3712691D01*
X11206500D01*
X11190737Y3709556D01*
X11177373Y3700627D01*
X11150425Y3673678D01*
X11138691Y3678538D01*
Y3720438D01*
X11175562Y3757308D01*
X11214950D01*
Y3746000D01*
X11407450D01*
Y3757308D01*
X12116768D01*
X12122400Y3736289D01*
D02*
G37*
G36*
X9130000Y4225000D02*
Y3710000D01*
X9087500Y3667500D01*
X8462500D01*
X8425000Y3705000D01*
Y4215000D01*
X8475000Y4265000D01*
X9090000D01*
X9130000Y4225000D01*
D02*
G37*
G36*
X3702780Y3551233D02*
X3697920Y3539500D01*
X3693044D01*
X3663669Y3531629D01*
X3637331Y3516423D01*
X3621540Y3500631D01*
X3613000Y3496339D01*
X3604460Y3500631D01*
X3588668Y3516423D01*
X3562331Y3531629D01*
X3553819Y3533909D01*
X3543863Y3548810D01*
X3471906Y3620767D01*
X3476766Y3632500D01*
X3621513D01*
X3702780Y3551233D01*
D02*
G37*
G36*
X1238664Y3618664D02*
X1255335Y3607524D01*
X1275000Y3603613D01*
X3343715D01*
X3438868Y3508460D01*
X3425327Y3494919D01*
X3410121Y3468581D01*
X3408965Y3464266D01*
X3395336Y3462472D01*
X3389826Y3472016D01*
X3375266Y3486576D01*
X3357434Y3496871D01*
X3337545Y3502200D01*
X3316955D01*
X3297066Y3496871D01*
X3279234Y3486576D01*
X3264674Y3472016D01*
X3259164Y3462472D01*
X3245535Y3464266D01*
X3244379Y3468581D01*
X3229173Y3494919D01*
X3207668Y3516423D01*
X3181331Y3531629D01*
X3151956Y3539500D01*
X3121544D01*
X3092169Y3531629D01*
X3065831Y3516423D01*
X3044327Y3494919D01*
X3029121Y3468581D01*
X3021250Y3439206D01*
Y3408794D01*
X3029121Y3379419D01*
X3044327Y3353081D01*
X3060699Y3336709D01*
Y2420751D01*
X2922249Y2282300D01*
X2191534D01*
Y2355800D01*
X2239243Y2403510D01*
X2252040Y2422662D01*
X2256534Y2445253D01*
Y2577501D01*
X2252040Y2600092D01*
X2239243Y2619244D01*
X2159244Y2699244D01*
X2140092Y2712041D01*
X2117500Y2716535D01*
X1749725D01*
X1727134Y2712041D01*
X1707982Y2699244D01*
X1653273Y2644534D01*
X1493700D01*
X1471109Y2640041D01*
X1468054Y2638000D01*
X1397450D01*
Y2533000D01*
X1462927D01*
X1465925Y2530234D01*
X1460962Y2517534D01*
X1345953D01*
X1305034Y2558453D01*
Y2716500D01*
X1317000D01*
Y2877450D01*
X2509999D01*
X2883724Y2503724D01*
X2899475Y2491638D01*
X2917817Y2484041D01*
X2937500Y2481449D01*
X2957183Y2484041D01*
X2975525Y2491638D01*
X2991276Y2503724D01*
X3003362Y2519475D01*
X3010959Y2537817D01*
X3013551Y2557500D01*
X3010959Y2577183D01*
X3003362Y2595525D01*
X2991276Y2611276D01*
X2595276Y3007276D01*
X2579525Y3019362D01*
X2561183Y3026960D01*
X2541500Y3029551D01*
X491000D01*
X471317Y3026960D01*
X452975Y3019362D01*
X437224Y3007276D01*
X206224Y2776276D01*
X194138Y2760525D01*
X186541Y2742183D01*
X183949Y2722500D01*
Y1682500D01*
X186541Y1662817D01*
X194138Y1644475D01*
X206224Y1628724D01*
X1237717Y597231D01*
X1230000Y568431D01*
Y531569D01*
X1239541Y495962D01*
X1257972Y464038D01*
X1284038Y437972D01*
X1315962Y419541D01*
X1351569Y410000D01*
X1388431D01*
X1424038Y419541D01*
X1455962Y437972D01*
X1482028Y464038D01*
X1500459Y495962D01*
X1510000Y531569D01*
Y568431D01*
X1500459Y604038D01*
X1482028Y635962D01*
X1455962Y662028D01*
X1424038Y680459D01*
X1388431Y690000D01*
X1360052D01*
X336051Y1714001D01*
Y2690999D01*
X522502Y2877450D01*
X1175000D01*
Y2716500D01*
X1186966D01*
Y2575226D01*
X1174266Y2571722D01*
X1118744Y2627244D01*
X1099592Y2640041D01*
X1077000Y2644534D01*
X951300D01*
X928708Y2640041D01*
X925654Y2638000D01*
X855050D01*
Y2533000D01*
X925654D01*
X928708Y2530959D01*
X951300Y2526466D01*
X1052547D01*
X1075966Y2503047D01*
Y2394029D01*
X1072471Y2390534D01*
X716000D01*
Y2425000D01*
X574000D01*
Y2238000D01*
X716000D01*
Y2272466D01*
X1075966D01*
Y1785000D01*
X1080459Y1762408D01*
X1093256Y1743256D01*
X2230000Y606512D01*
Y410000D01*
X2510000D01*
Y582448D01*
X2656276Y728724D01*
X2668362Y744475D01*
X2675959Y762816D01*
X2678551Y782500D01*
Y1740000D01*
X2675959Y1759684D01*
X2668362Y1778025D01*
X2656276Y1793776D01*
X2640525Y1805862D01*
X2622183Y1813459D01*
X2602500Y1816051D01*
X2582817Y1813459D01*
X2564475Y1805862D01*
X2548724Y1793776D01*
X2536638Y1778025D01*
X2529041Y1759684D01*
X2526449Y1740000D01*
Y814001D01*
X2402448Y690000D01*
X2313488D01*
X1194034Y1809453D01*
Y2369576D01*
Y2486274D01*
X1206734Y2489778D01*
X1279756Y2416756D01*
X1298909Y2403959D01*
X1321500Y2399466D01*
X1460962D01*
X1465925Y2386766D01*
X1462927Y2384000D01*
X1397450D01*
Y2279000D01*
X1468054D01*
X1471109Y2276959D01*
X1483601Y2274474D01*
Y2261526D01*
X1471109Y2259041D01*
X1468054Y2257000D01*
X1397450D01*
Y2152000D01*
X1468054D01*
X1471109Y2149959D01*
X1493700Y2145466D01*
X1800000D01*
Y2077500D01*
X1965000D01*
Y2254013D01*
X2007300Y2296313D01*
X2020000Y2291052D01*
Y2077500D01*
X2021103D01*
X2024000Y2066000D01*
X2024000D01*
Y1754000D01*
X2186000D01*
Y2065214D01*
X2186000Y2065999D01*
X2186001D01*
X2185000Y2077501D01*
X2185000D01*
Y2130199D01*
X2768962D01*
X2775000Y2120000D01*
Y1760000D01*
X2823466D01*
Y1512500D01*
Y1115000D01*
Y332500D01*
X2827960Y309908D01*
X2840757Y290756D01*
X3100756Y30756D01*
X3119908Y17959D01*
X3130635Y15826D01*
X3129385Y3125D01*
X11481Y2502D01*
X2500Y11481D01*
Y3632500D01*
X1224827D01*
X1238664Y3618664D01*
D02*
G37*
G36*
X10180000Y3527500D02*
X10198613D01*
Y3507500D01*
X10180000D01*
Y3458887D01*
X9980481D01*
X9975620Y3470620D01*
X10075000Y3570000D01*
X10180000D01*
Y3527500D01*
D02*
G37*
G36*
X12502500Y3977500D02*
Y2821246D01*
X12489800Y2819995D01*
X12488056Y2828763D01*
X12479127Y2842127D01*
X12353707Y2967547D01*
X12357599Y2974289D01*
X12366200Y3006385D01*
Y3039615D01*
X12357599Y3071711D01*
X12340985Y3100489D01*
X12317488Y3123985D01*
X12288711Y3140600D01*
X12256615Y3149200D01*
X12223385D01*
X12191289Y3140600D01*
X12162511Y3123985D01*
X12139015Y3100489D01*
X12122400Y3071711D01*
X12113800Y3039615D01*
Y3006385D01*
X12122400Y2974289D01*
X12139015Y2945512D01*
X12162511Y2922015D01*
X12191289Y2905401D01*
X12201837Y2902574D01*
Y2889426D01*
X12191289Y2886600D01*
X12162511Y2869985D01*
X12139015Y2846489D01*
X12122400Y2817711D01*
X12113800Y2785615D01*
Y2752385D01*
X12122400Y2720289D01*
X12139015Y2691512D01*
X12162511Y2668015D01*
X12191289Y2651401D01*
X12223385Y2642800D01*
X12256615D01*
X12288711Y2651401D01*
X12295453Y2655293D01*
X12358809Y2591938D01*
Y445435D01*
X12346109Y444184D01*
X12340392Y472922D01*
X12321547Y518419D01*
X12294187Y559365D01*
X12259365Y594187D01*
X12218419Y621547D01*
X12172922Y640392D01*
X12124623Y650000D01*
X12075377D01*
X12027078Y640392D01*
X11981581Y621547D01*
X11940634Y594187D01*
X11905813Y559365D01*
X11878453Y518419D01*
X11859608Y472922D01*
X11850000Y424623D01*
Y375377D01*
X11859608Y327078D01*
X11878453Y281581D01*
X11905813Y240635D01*
X11940634Y205813D01*
X11981581Y178453D01*
X12027078Y159608D01*
X12075377Y150000D01*
X12124623D01*
X12172922Y159608D01*
X12218419Y178453D01*
X12259365Y205813D01*
X12294187Y240635D01*
X12321547Y281581D01*
X12340392Y327078D01*
X12346109Y355816D01*
X12358809Y354565D01*
Y172062D01*
X12307938Y121192D01*
X11387143D01*
X11383291Y133892D01*
X11390460Y138682D01*
X11411318Y159540D01*
X11427706Y184067D01*
X11438995Y211320D01*
X11444750Y240251D01*
Y269749D01*
X11438995Y298680D01*
X11427706Y325933D01*
X11411318Y350460D01*
X11390460Y371318D01*
X11365933Y387707D01*
X11338680Y398995D01*
X11309749Y404750D01*
X11280251D01*
X11259700Y400662D01*
X11247000Y410220D01*
Y570500D01*
X11092000D01*
Y385500D01*
X11198889D01*
X11202576Y373347D01*
X11199540Y371318D01*
X11178681Y350460D01*
X11170200Y337766D01*
X11157500Y341619D01*
Y370000D01*
X10942500D01*
Y370000D01*
X10932499D01*
Y370000D01*
X10717500D01*
Y341619D01*
X10704800Y337766D01*
X10696318Y350460D01*
X10675460Y371318D01*
X10672424Y373347D01*
X10676110Y385500D01*
X10783000D01*
Y430000D01*
X11042500D01*
Y610000D01*
X11004847D01*
X10999987Y621733D01*
X11034127Y655873D01*
X11043056Y669237D01*
X11046192Y685000D01*
Y715000D01*
X11095000D01*
Y751309D01*
X11111500D01*
Y709000D01*
X11298500D01*
Y851000D01*
X11111500D01*
Y833691D01*
X11095000D01*
Y855000D01*
X10910000D01*
Y715000D01*
X10963809D01*
Y702062D01*
X10913621Y651874D01*
X10911008Y647963D01*
X10898293Y646782D01*
X10895556Y647697D01*
X10840953Y702300D01*
X10844152Y715000D01*
X10890000D01*
Y855000D01*
X10705000D01*
Y826191D01*
X10691000D01*
Y857500D01*
X10504000D01*
Y715500D01*
X10691000D01*
Y743809D01*
X10705000D01*
Y715000D01*
X10756309D01*
Y687500D01*
X10759444Y671737D01*
X10768373Y658373D01*
X10805013Y621733D01*
X10800153Y610000D01*
X10767500D01*
Y570500D01*
X10628000D01*
Y410220D01*
X10615300Y400662D01*
X10594749Y404750D01*
X10565251D01*
X10536320Y398995D01*
X10509067Y387707D01*
X10484540Y371318D01*
X10463682Y350460D01*
X10447293Y325933D01*
X10436005Y298680D01*
X10430250Y269749D01*
Y240251D01*
X10436005Y211320D01*
X10447293Y184067D01*
X10463682Y159540D01*
X10484540Y138682D01*
X10491709Y133892D01*
X10487856Y121192D01*
X10289562D01*
X9604987Y805767D01*
X9609847Y817500D01*
X9770050D01*
Y917500D01*
Y1017500D01*
Y1117500D01*
Y1217500D01*
Y1311309D01*
X10270000D01*
X10285763Y1314444D01*
X10299127Y1323373D01*
X10439562Y1463809D01*
X10532500D01*
Y1460050D01*
X10725100D01*
Y1524009D01*
X10787738D01*
X10824614Y1487133D01*
X10819584Y1474202D01*
X10803951Y1467727D01*
X10789773Y1453549D01*
X10782100Y1435025D01*
Y1432853D01*
X10736833Y1387586D01*
X10725100Y1392447D01*
Y1416550D01*
X10532500D01*
Y1333050D01*
Y1269450D01*
Y1206050D01*
X10710887D01*
X10726447Y1199605D01*
X10746498D01*
X10765022Y1207278D01*
X10779199Y1221456D01*
X10786873Y1239980D01*
Y1260030D01*
X10779199Y1278554D01*
X10769829Y1287924D01*
X10769380Y1303627D01*
X10840353Y1374600D01*
X10842525D01*
X10861049Y1382273D01*
X10875227Y1396451D01*
X10881702Y1412084D01*
X10894633Y1417113D01*
X10963374Y1348373D01*
X10976737Y1339444D01*
X10992500Y1336308D01*
X11074900D01*
Y1282242D01*
X11063550D01*
X11047787Y1279106D01*
X11034423Y1270177D01*
X10825873Y1061627D01*
X10816944Y1048263D01*
X10816295Y1045000D01*
X10705000D01*
Y905000D01*
X10890000D01*
Y989664D01*
X10893056Y994237D01*
X10895204Y1005035D01*
X10897300Y1006527D01*
X10910000Y999977D01*
Y905000D01*
X11095000D01*
Y1045000D01*
X10942347D01*
X10937487Y1056733D01*
X11080612Y1199859D01*
X11164450D01*
X11180213Y1202994D01*
X11184787Y1206050D01*
X11267500D01*
Y1270009D01*
X11339238D01*
X11358373Y1250873D01*
X11371737Y1241944D01*
X11387500Y1238809D01*
X11414500D01*
Y1179000D01*
X11556500D01*
Y1362500D01*
X11557500D01*
Y1549500D01*
X11526191D01*
Y1576000D01*
X11580000D01*
Y1632854D01*
X11582040Y1635909D01*
X11586534Y1658500D01*
Y1673293D01*
X11611706Y1698465D01*
X12035000D01*
X12057591Y1702959D01*
X12076743Y1715756D01*
X12170987Y1810000D01*
X12237500D01*
Y1980000D01*
X12231534D01*
Y2010000D01*
X12237500D01*
Y2180000D01*
X12221534D01*
Y2245000D01*
X12217041Y2267592D01*
X12204244Y2286744D01*
X12006744Y2484244D01*
X11987591Y2497041D01*
X11965000Y2501534D01*
X11492040D01*
X11490789Y2514234D01*
X11509515Y2517959D01*
X11528667Y2530756D01*
X11566744Y2568833D01*
X11579541Y2587985D01*
X11584034Y2610576D01*
Y3449000D01*
X11586000D01*
Y3630308D01*
X12082438D01*
X12126293Y3586454D01*
X12122400Y3579711D01*
X12113800Y3547615D01*
Y3514385D01*
X12122400Y3482289D01*
X12139015Y3453512D01*
X12162511Y3430015D01*
X12191289Y3413401D01*
X12223385Y3404800D01*
X12256615D01*
X12288711Y3413401D01*
X12317488Y3430015D01*
X12340985Y3453512D01*
X12357599Y3482289D01*
X12366200Y3514385D01*
Y3547615D01*
X12357599Y3579711D01*
X12340985Y3608489D01*
X12317488Y3631985D01*
X12288711Y3648600D01*
X12278163Y3651426D01*
Y3664574D01*
X12288711Y3667401D01*
X12317488Y3684015D01*
X12340985Y3707512D01*
X12357599Y3736289D01*
X12366200Y3768385D01*
Y3801615D01*
X12357599Y3833711D01*
X12340985Y3862489D01*
X12317488Y3885985D01*
X12288711Y3902600D01*
X12256615Y3911200D01*
X12223385D01*
X12191289Y3902600D01*
X12162511Y3885985D01*
X12139015Y3862489D01*
X12125853Y3839691D01*
X11407450D01*
Y3851000D01*
X11214950D01*
Y3839691D01*
X11158500D01*
X11142737Y3836556D01*
X11129373Y3827627D01*
X11068373Y3766627D01*
X11059444Y3753263D01*
X11056309Y3737500D01*
Y3462500D01*
X11059444Y3446737D01*
X11068373Y3433373D01*
X11206309Y3295438D01*
Y2747585D01*
X11204773Y2746049D01*
X11197100Y2727525D01*
Y2707475D01*
X11204773Y2688951D01*
X11218951Y2674773D01*
X11237475Y2667100D01*
X11257525D01*
X11276049Y2674773D01*
X11290227Y2688951D01*
X11297900Y2707475D01*
Y2727525D01*
X11290227Y2746049D01*
X11288691Y2747585D01*
Y3278961D01*
X11300425Y3283822D01*
X11338809Y3245438D01*
Y2730085D01*
X11337273Y2728549D01*
X11329600Y2710025D01*
Y2689975D01*
X11337273Y2671451D01*
X11351451Y2657273D01*
X11369975Y2649600D01*
X11390025D01*
X11408549Y2657273D01*
X11422727Y2671451D01*
X11430400Y2689975D01*
Y2710025D01*
X11422727Y2728549D01*
X11421192Y2730085D01*
Y3262500D01*
X11418056Y3278263D01*
X11409127Y3291626D01*
X11221453Y3479300D01*
X11226714Y3492000D01*
X11308740D01*
X11313200Y3491113D01*
X11444000D01*
Y3449000D01*
X11465966D01*
Y2635029D01*
X11462471Y2631534D01*
X11181953D01*
X10921411Y2892077D01*
X10902259Y2904874D01*
X10879667Y2909367D01*
X9430961D01*
X9426101Y2921101D01*
X9861113Y3356113D01*
X10180000D01*
Y3322500D01*
X10320000D01*
Y3507500D01*
X10301387D01*
Y3527500D01*
X10320000D01*
Y3570000D01*
X10370001D01*
Y3527500D01*
X10510000D01*
Y3560966D01*
X10555885D01*
X10560745Y3549232D01*
X10522103Y3510590D01*
X10510000Y3507500D01*
Y3507500D01*
X10509999Y3507500D01*
X10370000D01*
Y3322500D01*
X10510000D01*
Y3355966D01*
X10532592Y3360459D01*
X10551744Y3373256D01*
X10663953Y3485465D01*
X10877000D01*
X10899591Y3489959D01*
X10918743Y3502756D01*
X11016744Y3600756D01*
X11029541Y3619908D01*
X11034034Y3642500D01*
Y3834034D01*
X11182500Y3982500D01*
X12497500D01*
X12502500Y3977500D01*
D02*
G37*
G36*
X6236017Y3119800D02*
X6220475Y3113362D01*
X6204724Y3101276D01*
X6076986Y2973538D01*
X6065931Y2976500D01*
X6029069D01*
X6011223Y2971718D01*
X5862174Y3120767D01*
X5867034Y3132500D01*
X6233491D01*
X6236017Y3119800D01*
D02*
G37*
G36*
X6741242Y2958749D02*
X6723538Y2948528D01*
X6697472Y2922462D01*
X6679041Y2890538D01*
X6669500Y2854931D01*
Y2818069D01*
X6672462Y2807014D01*
X6588999Y2723551D01*
X6150501D01*
X6145240Y2736251D01*
X6159528Y2750538D01*
X6177959Y2782462D01*
X6187500Y2818069D01*
Y2854931D01*
X6184538Y2865986D01*
X6290001Y2971449D01*
X6737839D01*
X6741242Y2958749D01*
D02*
G37*
G36*
X5908642Y2859195D02*
X5907500Y2854931D01*
Y2818069D01*
X5917041Y2782462D01*
X5935472Y2750538D01*
X5949760Y2736251D01*
X5944499Y2723551D01*
X5864001D01*
X5520336Y3067216D01*
X5525196Y3078949D01*
X5688888D01*
X5908642Y2859195D01*
D02*
G37*
G36*
X8122500Y2865000D02*
Y2595000D01*
X8120000Y2592500D01*
X8770198D01*
X8775058Y2580767D01*
X8503326Y2309034D01*
X8260000D01*
X8237408Y2304541D01*
X8218256Y2291744D01*
X7782133Y1855621D01*
X7770400Y1860481D01*
Y1862525D01*
X7762727Y1881049D01*
X7748549Y1895227D01*
X7730025Y1902900D01*
X7709975D01*
X7691451Y1895227D01*
X7677273Y1881049D01*
X7669600Y1862525D01*
Y1860353D01*
X7345364Y1536118D01*
X6719636D01*
X6677691Y1578062D01*
Y1601500D01*
X6707500D01*
Y1788500D01*
X6565500D01*
Y1736191D01*
X6415000D01*
Y1750000D01*
X6275000D01*
Y1736191D01*
X5815000D01*
Y1750000D01*
X5675000D01*
Y1640000D01*
X5815000D01*
Y1653808D01*
X6275000D01*
Y1640000D01*
X6415000D01*
Y1653808D01*
X6565500D01*
Y1601500D01*
X6595308D01*
Y1561000D01*
X6598444Y1545237D01*
X6607373Y1531873D01*
X6673447Y1465799D01*
X6686811Y1456870D01*
X6702574Y1453735D01*
X7362287D01*
X7362583Y1453432D01*
X7368508Y1441996D01*
X7325547Y1399035D01*
X6485577D01*
X6462985Y1394541D01*
X6443833Y1381744D01*
X6405757Y1343667D01*
X6392960Y1324515D01*
X6388466Y1301924D01*
Y1275029D01*
X6189088Y1075651D01*
X6175756Y1066744D01*
X5910756Y801744D01*
X5897959Y782592D01*
X5893465Y760000D01*
Y756000D01*
X5873000D01*
Y719534D01*
X5841399D01*
X5838093Y721443D01*
X5821460Y725900D01*
X5804240D01*
X5787606Y721443D01*
X5784301Y719534D01*
X5683700D01*
X5661108Y715040D01*
X5658054Y713000D01*
X5587450D01*
Y608000D01*
X5658054D01*
X5661108Y605959D01*
X5683700Y601465D01*
X5783648D01*
X5791589Y597587D01*
X5788653Y584887D01*
X5779950D01*
Y586000D01*
X5695201D01*
X5690000Y587034D01*
X5684799Y586000D01*
X5587450D01*
Y481000D01*
X5630965D01*
Y459000D01*
X5587450D01*
Y397631D01*
X5575717Y392770D01*
X5544034Y424453D01*
Y1702500D01*
X5539541Y1725092D01*
X5526744Y1744244D01*
X5352500Y1918488D01*
Y2020000D01*
X5349964D01*
Y2712061D01*
X5371462Y2724472D01*
X5397528Y2750538D01*
X5415959Y2782462D01*
X5425500Y2818069D01*
Y2854931D01*
X5415959Y2890538D01*
X5397528Y2922462D01*
X5381240Y2938749D01*
X5386501Y2951449D01*
X5420999D01*
X5778724Y2593724D01*
X5794475Y2581638D01*
X5812817Y2574041D01*
X5832500Y2571449D01*
X6620500D01*
X6640183Y2574041D01*
X6658525Y2581638D01*
X6674276Y2593724D01*
X6780014Y2699462D01*
X6791069Y2696500D01*
X6827931D01*
X6863538Y2706041D01*
X6895462Y2724472D01*
X6921528Y2750538D01*
X6939959Y2782462D01*
X6949500Y2818069D01*
Y2854931D01*
X6939959Y2890538D01*
X6921528Y2922462D01*
X6895462Y2948528D01*
X6877758Y2958749D01*
X6881161Y2971449D01*
X8016051D01*
X8122500Y2865000D01*
D02*
G37*
G36*
X3621540Y3347369D02*
X3637331Y3331577D01*
X3663669Y3316371D01*
X3693044Y3308500D01*
X3723456D01*
X3752831Y3316371D01*
X3775766Y3329612D01*
X3788466Y3324419D01*
Y3178586D01*
X3643256Y3033377D01*
X3630459Y3014225D01*
X3625966Y2991634D01*
Y2632500D01*
X3629152Y2616481D01*
X3617447Y2610225D01*
X3569137Y2658536D01*
Y3320301D01*
X3588668Y3331577D01*
X3604460Y3347369D01*
X3613000Y3351661D01*
X3621540Y3347369D01*
D02*
G37*
G36*
X10676491Y2576522D02*
X10669916Y2565136D01*
X10656615Y2568700D01*
X10623385D01*
X10591289Y2560100D01*
X10562512Y2543485D01*
X10539015Y2519989D01*
X10522401Y2491211D01*
X10513800Y2459115D01*
Y2425885D01*
X10522401Y2393789D01*
X10526293Y2387047D01*
X10485438Y2346191D01*
X10434800D01*
X10434297Y2346291D01*
X10419497D01*
X10417825Y2358991D01*
X10420314Y2359658D01*
X10440586Y2371362D01*
X10457138Y2387914D01*
X10468842Y2408186D01*
X10474900Y2430796D01*
Y2446547D01*
X10428426Y2400074D01*
X10386000Y2442500D01*
X10343574Y2400074D01*
X10297100Y2446547D01*
Y2430796D01*
X10303158Y2408186D01*
X10314862Y2387914D01*
X10331414Y2371362D01*
X10351686Y2359658D01*
X10354175Y2358991D01*
X10352503Y2346291D01*
X10337703D01*
X10337200Y2346191D01*
X9972062D01*
X9844127Y2474127D01*
X9830763Y2483056D01*
X9815000Y2486191D01*
X9168850D01*
X9153087Y2483056D01*
X9139724Y2474127D01*
X8846997Y2181400D01*
X8844825D01*
X8826301Y2173727D01*
X8812124Y2159549D01*
X8804451Y2141025D01*
Y2120975D01*
X8812124Y2102451D01*
X8826301Y2088273D01*
X8844825Y2080600D01*
X8864876D01*
X8883400Y2088273D01*
X8897577Y2102451D01*
X8905250Y2120975D01*
Y2123147D01*
X9099800Y2317696D01*
X9112500Y2312436D01*
Y2187500D01*
X9297500D01*
Y2264187D01*
X9302300Y2267836D01*
X9315000Y2261537D01*
Y2187500D01*
X9500000D01*
Y2260120D01*
X9502300Y2261657D01*
X9515000Y2254869D01*
Y2187500D01*
X9700000D01*
Y2187500D01*
X9708306Y2190940D01*
X9913373Y1985873D01*
X9926737Y1976944D01*
X9942500Y1973808D01*
X9942501Y1973809D01*
X10466462D01*
X10471322Y1962075D01*
X10052938Y1543691D01*
X9676300D01*
X9660537Y1540556D01*
X9655963Y1537500D01*
X9582550D01*
Y1467500D01*
Y1367500D01*
Y1267500D01*
Y1167500D01*
Y1067500D01*
Y967500D01*
Y844797D01*
X9570817Y839937D01*
X9329127Y1081627D01*
X9315763Y1090556D01*
X9300000Y1093691D01*
X8622450D01*
Y1167500D01*
Y1262403D01*
X8632711Y1264444D01*
X8646074Y1273373D01*
X8691227Y1318526D01*
X8700156Y1331889D01*
X8703291Y1347653D01*
Y1707550D01*
X8762500D01*
Y1780963D01*
X8765556Y1785537D01*
X8768691Y1801300D01*
Y1915000D01*
X8765556Y1930763D01*
X8756627Y1944127D01*
X8692627Y2008127D01*
X8679263Y2017056D01*
X8663500Y2020192D01*
X8590410D01*
X8586195Y2032892D01*
X8586541Y2033409D01*
X8591035Y2056000D01*
Y2106665D01*
X9076870Y2592500D01*
X9097500D01*
X9184191Y2679191D01*
X10053696D01*
X10060254Y2680496D01*
X10572517D01*
X10676491Y2576522D01*
D02*
G37*
G36*
X4224716Y3242784D02*
X4219856Y3231051D01*
X4212500D01*
X4192816Y3228459D01*
X4174475Y3220862D01*
X4158724Y3208776D01*
X3811224Y2861276D01*
X3799138Y2845525D01*
X3791541Y2827183D01*
X3788949Y2807500D01*
X3791541Y2787817D01*
X3799138Y2769475D01*
X3811224Y2753724D01*
X3826975Y2741638D01*
X3845317Y2734041D01*
X3865000Y2731449D01*
X3884683Y2734041D01*
X3903025Y2741638D01*
X3918776Y2753724D01*
X4244001Y3078949D01*
X4339804D01*
X4344664Y3067216D01*
X3888724Y2611276D01*
X3876638Y2595525D01*
X3869041Y2577183D01*
X3866449Y2557500D01*
X3867208Y2551741D01*
X3855179Y2545809D01*
X3744034Y2656953D01*
Y2967181D01*
X3889244Y3112390D01*
X3902041Y3131542D01*
X3906534Y3154134D01*
Y3490000D01*
X3902041Y3512592D01*
X3889244Y3531744D01*
X3800221Y3620767D01*
X3805081Y3632500D01*
X3835000D01*
X4224716Y3242784D01*
D02*
G37*
G36*
X11115756Y2530756D02*
X11134908Y2517959D01*
X11153635Y2514234D01*
X11152384Y2501534D01*
X11005640D01*
X10994985Y2519989D01*
X10971489Y2543485D01*
X10942711Y2560100D01*
X10910615Y2568700D01*
X10877385D01*
X10856803Y2563185D01*
X10641389Y2778598D01*
X10645172Y2791298D01*
X10855214D01*
X11115756Y2530756D01*
D02*
G37*
G36*
X5189760Y2938749D02*
X5173472Y2922462D01*
X5157926Y2895534D01*
X4529000D01*
X4506409Y2891041D01*
X4487256Y2878244D01*
X4053047Y2444034D01*
X3956953D01*
X3930809Y2470179D01*
X3936741Y2482208D01*
X3942500Y2481449D01*
X3962183Y2484041D01*
X3980525Y2491638D01*
X3996276Y2503724D01*
X4444001Y2951449D01*
X5184499D01*
X5189760Y2938749D01*
D02*
G37*
G36*
X1755500Y2563194D02*
Y2502146D01*
X1753459Y2499092D01*
X1749450Y2478938D01*
X1661047Y2390534D01*
X1526438D01*
X1521475Y2403234D01*
X1524473Y2406000D01*
X1589950D01*
Y2511000D01*
X1524473D01*
X1521475Y2513766D01*
X1526438Y2526466D01*
X1677725D01*
X1700317Y2530959D01*
X1719469Y2543756D01*
X1743767Y2568054D01*
X1755500Y2563194D01*
D02*
G37*
G36*
X11209489Y2370766D02*
X11201228Y2362504D01*
X11193555Y2343980D01*
Y2341809D01*
X11032900Y2181154D01*
X11020200Y2186414D01*
Y2205115D01*
X11011600Y2237211D01*
X10994985Y2265989D01*
X10971489Y2289485D01*
X10942711Y2306100D01*
X10932163Y2308926D01*
Y2322074D01*
X10942711Y2324901D01*
X10971489Y2341515D01*
X10994985Y2365012D01*
X11005640Y2383466D01*
X11204229D01*
X11209489Y2370766D01*
D02*
G37*
G36*
X3691113Y2063715D02*
Y1390000D01*
X3695024Y1370335D01*
X3706164Y1353664D01*
X3976164Y1083664D01*
X3990496Y1074087D01*
X3988848Y1062551D01*
X3988383Y1061387D01*
X3708887D01*
Y1115000D01*
X3742500D01*
Y1250000D01*
X3557500D01*
Y1115000D01*
X3606113D01*
Y1055000D01*
X3585000D01*
Y965000D01*
X3634130D01*
X3637835Y962524D01*
X3657500Y958613D01*
X4368715D01*
X4493664Y833664D01*
X4510335Y822524D01*
X4530000Y818613D01*
X4657500D01*
Y785000D01*
X4758234D01*
X4763094Y773267D01*
X4745291Y755464D01*
X4742835Y754976D01*
X4739130Y752500D01*
X4667500D01*
Y567500D01*
X4734827D01*
X4828740Y473587D01*
X4826177Y464091D01*
X4823918Y460887D01*
X4347500D01*
Y505000D01*
X4328887D01*
Y525000D01*
X4347500D01*
Y710000D01*
X4207500D01*
Y525000D01*
X4226112D01*
Y505000D01*
X4207500D01*
Y320000D01*
X4347500D01*
Y358113D01*
X5045050D01*
Y354000D01*
X5237550D01*
Y459000D01*
X5117489D01*
X5108000Y460887D01*
X5017352D01*
X5013408Y473057D01*
X5020274Y481113D01*
X5045050D01*
Y481000D01*
X5237550D01*
Y586000D01*
X5045050D01*
Y583887D01*
X4997500D01*
Y608863D01*
X5045050D01*
Y608000D01*
X5237550D01*
Y609113D01*
X5280715D01*
X5326113Y563714D01*
Y317500D01*
X5330024Y297835D01*
X5341164Y281164D01*
X5471164Y151164D01*
X5481534Y144234D01*
X5477681Y131534D01*
X3166953D01*
X2941535Y356953D01*
Y955885D01*
X2953268Y960745D01*
X3123256Y790756D01*
X3142408Y777959D01*
X3165000Y773466D01*
X3485000D01*
X3507591Y777959D01*
X3526744Y790756D01*
X3549452Y813465D01*
X3603515D01*
Y750000D01*
X3565000D01*
Y615000D01*
X3750000D01*
Y750000D01*
X3716485D01*
Y835000D01*
X3730000D01*
Y925000D01*
X3675645D01*
X3672591Y927040D01*
X3650000Y931534D01*
X3525000D01*
X3502408Y927040D01*
X3483256Y914243D01*
X3460547Y891534D01*
X3189453D01*
X2941535Y1139453D01*
Y1367626D01*
X2951352Y1375683D01*
X2962500Y1373466D01*
X3030500D01*
Y1339000D01*
X3172500D01*
Y1526000D01*
X3030500D01*
Y1491534D01*
X2986953D01*
X2941535Y1536953D01*
Y1760000D01*
X2990000D01*
Y1863950D01*
X3512500D01*
X3532183Y1866541D01*
X3546570Y1872500D01*
X3620000D01*
Y2007500D01*
X3546570D01*
X3532183Y2013460D01*
X3512500Y2016051D01*
X2990000D01*
Y2098969D01*
X3001390Y2104587D01*
X3001975Y2104138D01*
X3020317Y2096541D01*
X3040000Y2093950D01*
X3512500D01*
X3532183Y2096541D01*
X3546570Y2102500D01*
X3620000D01*
Y2118613D01*
X3636215D01*
X3691113Y2063715D01*
D02*
G37*
G36*
X12103466Y2220547D02*
Y2180000D01*
X12087500D01*
Y2010000D01*
X12113465D01*
Y1980000D01*
X12087500D01*
Y1893487D01*
X12039233Y1845220D01*
X12027500Y1850081D01*
Y1980000D01*
X11877500D01*
Y1936191D01*
X11815000D01*
Y1987500D01*
X11675000D01*
Y1816534D01*
X11625000D01*
Y1987500D01*
X11485000D01*
Y1936191D01*
X11372500D01*
X11356737Y1933056D01*
X11343374Y1924127D01*
X11273373Y1854126D01*
X11264444Y1840763D01*
X11261308Y1825000D01*
Y1733950D01*
X11111297D01*
X11106437Y1745683D01*
X11414562Y2053808D01*
X11485000D01*
Y2002500D01*
X11625000D01*
Y2187500D01*
X11485000D01*
Y2136191D01*
X11397500D01*
X11381737Y2133056D01*
X11368373Y2124127D01*
X10979647Y1735400D01*
X10977475D01*
X10958951Y1727727D01*
X10944773Y1713549D01*
X10937100Y1695025D01*
Y1674975D01*
X10944773Y1656451D01*
X10958951Y1642273D01*
X10977475Y1634600D01*
X10997525D01*
X11016049Y1642273D01*
X11030227Y1656451D01*
X11037900Y1674975D01*
Y1677147D01*
X11063167Y1702414D01*
X11074900Y1697553D01*
Y1587050D01*
Y1523450D01*
X11267500D01*
Y1531953D01*
X11277761Y1533994D01*
X11291124Y1542924D01*
X11331627Y1583426D01*
X11340556Y1596789D01*
X11343691Y1612553D01*
Y1807938D01*
X11389562Y1853809D01*
X11485000D01*
Y1802500D01*
X11530806D01*
X11536066Y1789800D01*
X11485756Y1739490D01*
X11472959Y1720338D01*
X11471102Y1711000D01*
X11395000D01*
Y1576000D01*
X11443808D01*
Y1549500D01*
X11415500D01*
Y1479392D01*
X11267500D01*
Y1479950D01*
X11074900D01*
Y1418691D01*
X11009562D01*
X10833927Y1594327D01*
X10820563Y1603256D01*
X10804800Y1606392D01*
X10725100D01*
Y1733950D01*
X10532500D01*
Y1733691D01*
X10464906D01*
X10459645Y1746391D01*
X10562062Y1848809D01*
X10940000D01*
X10955763Y1851944D01*
X10969127Y1860873D01*
X11387854Y2279600D01*
X11390025D01*
X11408549Y2287273D01*
X11422727Y2301451D01*
X11430400Y2319975D01*
Y2340025D01*
X11422727Y2358549D01*
X11410511Y2370766D01*
X11412536Y2380039D01*
X11414404Y2383466D01*
X11940547D01*
X12103466Y2220547D01*
D02*
G37*
G36*
X8666146Y1918100D02*
X8660886Y1905400D01*
X8652075D01*
X8633551Y1897727D01*
X8619373Y1883549D01*
X8611700Y1865025D01*
Y1844975D01*
X8619373Y1826451D01*
X8620909Y1824915D01*
Y1637500D01*
X8549037D01*
X8544463Y1640556D01*
X8528700Y1643691D01*
X8302272D01*
X8297412Y1655425D01*
X8536744Y1894756D01*
X8549541Y1913909D01*
X8554034Y1936500D01*
Y1937809D01*
X8646438D01*
X8666146Y1918100D01*
D02*
G37*
G36*
X10532500Y1546191D02*
X10422500D01*
X10406737Y1543056D01*
X10393373Y1534127D01*
X10252938Y1393691D01*
X10223538D01*
X10218678Y1405425D01*
X10464562Y1651309D01*
X10532500D01*
Y1546191D01*
D02*
G37*
G36*
X8496628Y2179232D02*
X8490257Y2172861D01*
X8477460Y2153709D01*
X8472966Y2131117D01*
Y2131000D01*
X8442500D01*
Y2044646D01*
X8440459Y2041592D01*
X8435966Y2019000D01*
Y1960953D01*
X8174562Y1699550D01*
X8154409Y1695541D01*
X8151355Y1693500D01*
X8087500D01*
Y1506500D01*
X8098466D01*
Y1228691D01*
X7740000D01*
X7724237Y1225556D01*
X7710873Y1216627D01*
X7625438Y1131192D01*
X7487062D01*
X7431627Y1186627D01*
X7418263Y1195556D01*
X7412500Y1196702D01*
Y1272500D01*
X7372537D01*
X7371287Y1285200D01*
X7372592Y1285459D01*
X7391744Y1298256D01*
X8284453Y2190966D01*
X8491768D01*
X8496628Y2179232D01*
D02*
G37*
G36*
X8434950Y1517500D02*
Y1417500D01*
Y1317500D01*
Y1217500D01*
Y1093691D01*
X7721038D01*
X7716178Y1105425D01*
X7757062Y1146309D01*
X8108702D01*
X8119843Y1135167D01*
X8134756Y1126557D01*
X8151390Y1122100D01*
X8168610D01*
X8185243Y1126557D01*
X8200157Y1135167D01*
X8212333Y1147343D01*
X8220943Y1162257D01*
X8225400Y1178890D01*
Y1196110D01*
X8220943Y1212744D01*
X8216534Y1220379D01*
Y1506500D01*
X8229500D01*
Y1561309D01*
X8434950D01*
Y1517500D01*
D02*
G37*
G36*
X7312500Y1272500D02*
Y1122500D01*
X7357163D01*
X7361737Y1119444D01*
X7377500Y1116308D01*
X7385438D01*
X7436547Y1065200D01*
X7431286Y1052500D01*
X7407500D01*
Y1018691D01*
X6920000D01*
Y1040000D01*
X6900137D01*
Y1054000D01*
X6918500D01*
Y1241000D01*
X6776500D01*
Y1054000D01*
X6797363D01*
Y1040000D01*
X6780000D01*
Y855000D01*
X6920000D01*
Y936309D01*
X7407500D01*
Y902500D01*
X7507500D01*
Y936309D01*
X7566462D01*
X7571322Y924575D01*
X7441733Y794986D01*
X7430000Y799847D01*
Y805000D01*
X7330000D01*
Y771191D01*
X6920000D01*
Y830000D01*
X6780000D01*
Y645000D01*
X6799113D01*
Y626000D01*
X6780000D01*
Y439000D01*
X6922000D01*
Y626000D01*
X6901887D01*
Y645000D01*
X6920000D01*
Y688809D01*
X7330000D01*
Y655000D01*
X7430000D01*
Y691235D01*
X7437426D01*
X7453189Y694370D01*
X7466553Y703299D01*
X7724562Y961308D01*
X8434950D01*
Y917500D01*
X8622450D01*
Y961308D01*
X9257939D01*
X9460064Y759183D01*
X9455204Y747450D01*
X9442500D01*
Y674037D01*
X9439444Y669463D01*
X9436309Y653700D01*
Y358500D01*
X9366501D01*
Y358500D01*
X9358499Y359501D01*
Y359500D01*
X9354214Y359500D01*
X9323214D01*
X9317953Y372200D01*
X9356627Y410873D01*
X9365556Y424237D01*
X9368691Y440000D01*
Y559950D01*
X9412500D01*
Y747450D01*
X9242500D01*
Y559950D01*
X9286309D01*
Y457062D01*
X9238373Y409127D01*
X9229444Y395763D01*
X9226308Y380000D01*
Y359500D01*
X9171500D01*
Y345784D01*
X7916437D01*
X7911576Y357518D01*
X8200244Y646185D01*
X8213041Y665337D01*
X8217534Y687929D01*
Y759000D01*
X8229500D01*
Y811309D01*
X8528700D01*
X8544463Y814444D01*
X8549037Y817500D01*
X8622450D01*
Y887500D01*
X8549037D01*
X8544463Y890556D01*
X8528700Y893691D01*
X8229500D01*
Y946000D01*
X8087500D01*
Y759000D01*
X8099466D01*
Y712382D01*
X7763770Y376686D01*
X7749989Y380866D01*
X7748632Y387687D01*
X7739703Y401050D01*
X7641627Y499127D01*
X7628263Y508056D01*
X7612500Y511191D01*
X7525000D01*
Y585000D01*
X7425000D01*
Y435000D01*
X7469663D01*
X7474237Y431944D01*
X7490000Y428808D01*
X7595438D01*
X7661546Y362700D01*
X7656286Y350000D01*
X7642500D01*
Y253097D01*
X7520938Y131534D01*
X6162318D01*
X6158466Y144234D01*
X6168836Y151164D01*
X6662672Y645000D01*
X6730000D01*
Y830000D01*
X6654266D01*
X6649405Y841733D01*
X6662672Y855000D01*
X6730000D01*
Y1040000D01*
X6590000D01*
Y927673D01*
X6247214Y584887D01*
X6015000D01*
Y739012D01*
X6250336Y974349D01*
X6263667Y983256D01*
X6489244Y1208833D01*
X6502041Y1227985D01*
X6506535Y1250577D01*
Y1277471D01*
X6510029Y1280966D01*
X7303306D01*
X7312500Y1272500D01*
D02*
G37*
G36*
X4979628Y982700D02*
X4974367Y970000D01*
X4847500D01*
Y857673D01*
X4809233Y819406D01*
X4797500Y824266D01*
Y970000D01*
X4657500D01*
Y921387D01*
X4551285D01*
X4426336Y1046336D01*
X4412004Y1055913D01*
X4413652Y1067449D01*
X4414117Y1068613D01*
X4893715D01*
X4979628Y982700D01*
D02*
G37*
G36*
X3264674Y3375984D02*
X3279234Y3361424D01*
X3297066Y3351129D01*
X3316955Y3345800D01*
X3337545D01*
X3357434Y3351129D01*
X3375266Y3361424D01*
X3389826Y3375984D01*
X3395336Y3385528D01*
X3408965Y3383734D01*
X3410121Y3379419D01*
X3425327Y3353081D01*
X3446831Y3331577D01*
X3466363Y3320301D01*
Y2637251D01*
X3470274Y2617585D01*
X3481414Y2600914D01*
X4048613Y2033715D01*
Y1431102D01*
X4047667Y1430157D01*
X4039057Y1415244D01*
X4034600Y1398610D01*
Y1381390D01*
X4039057Y1364756D01*
X4047667Y1349843D01*
X4059843Y1337667D01*
X4074756Y1329057D01*
X4091390Y1324600D01*
X4108610D01*
X4125243Y1329057D01*
X4140157Y1337667D01*
X4152333Y1349843D01*
X4160943Y1364756D01*
X4165400Y1381390D01*
Y1398610D01*
X4160943Y1415244D01*
X4152333Y1430157D01*
X4151387Y1431102D01*
Y2055000D01*
X4147476Y2074665D01*
X4136336Y2091337D01*
X3910225Y2317447D01*
X3916481Y2329152D01*
X3932500Y2325966D01*
X4077500D01*
X4100092Y2330459D01*
X4119244Y2343256D01*
X4553453Y2777466D01*
X5157926D01*
X5173472Y2750538D01*
X5199538Y2724472D01*
X5218036Y2713793D01*
Y2020000D01*
X5212500D01*
Y1835000D01*
X5269013D01*
X5425966Y1678047D01*
Y626043D01*
X5415706Y622062D01*
X5413266Y621907D01*
X5338336Y696836D01*
X5321665Y707975D01*
X5302000Y711887D01*
X5237550D01*
Y713000D01*
X5045050D01*
Y711637D01*
X4997500D01*
Y752500D01*
X4904266D01*
X4899405Y764233D01*
X4920172Y785000D01*
X4987500D01*
Y956868D01*
X5000200Y962128D01*
X5175424Y786904D01*
X5192095Y775765D01*
X5211760Y771853D01*
X5278157D01*
X5284843Y765167D01*
X5299756Y756557D01*
X5316390Y752100D01*
X5333610D01*
X5350243Y756557D01*
X5365156Y765167D01*
X5377333Y777343D01*
X5385943Y792256D01*
X5390400Y808890D01*
Y826110D01*
X5385943Y842744D01*
X5377333Y857657D01*
X5365156Y869833D01*
X5350243Y878443D01*
X5333610Y882900D01*
X5316390D01*
X5299756Y878443D01*
X5293147Y874627D01*
X5233045D01*
X4951337Y1156336D01*
X4934666Y1167476D01*
X4915000Y1171387D01*
X4033785D01*
X3793887Y1411285D01*
Y2085000D01*
X3789976Y2104665D01*
X3778836Y2121336D01*
X3693836Y2206336D01*
X3677165Y2217476D01*
X3657500Y2221387D01*
X3620000D01*
Y2237500D01*
X3546570D01*
X3532183Y2243460D01*
X3512500Y2246051D01*
X3117696D01*
X3112836Y2257784D01*
X3184044Y2328993D01*
X3360000D01*
X3378378Y2331412D01*
X3387040Y2335000D01*
X3455000D01*
Y2470000D01*
X3383505D01*
X3380878Y2471088D01*
X3362500Y2473508D01*
X3344122Y2471088D01*
X3343928Y2471008D01*
X3212801D01*
Y3336709D01*
X3229173Y3353081D01*
X3244379Y3379419D01*
X3245535Y3383734D01*
X3259164Y3385528D01*
X3264674Y3375984D01*
D02*
G37*
G36*
X6590000Y765734D02*
Y717673D01*
X6111215Y238887D01*
X5779950D01*
Y332000D01*
X5708146D01*
X5705091Y334040D01*
X5696349Y335779D01*
Y348728D01*
X5712591Y351959D01*
X5715645Y354000D01*
X5779950D01*
Y459000D01*
X5749034D01*
Y481000D01*
X5779950D01*
Y482113D01*
X6268500D01*
X6288165Y486024D01*
X6304836Y497164D01*
X6578267Y770595D01*
X6590000Y765734D01*
D02*
G37*
G36*
X10202007Y17240D02*
X10196747Y4539D01*
X7562963Y4012D01*
X7561711Y16712D01*
X7567982Y17959D01*
X7587134Y30756D01*
X7771378Y215000D01*
X7827500D01*
Y227716D01*
X9171500D01*
Y217500D01*
X9358499D01*
Y217500D01*
X9366501Y216499D01*
Y216500D01*
X9370786Y216500D01*
X9553500D01*
Y358500D01*
X9525337D01*
X9520763Y361556D01*
X9518691Y361968D01*
Y653700D01*
X9515556Y669463D01*
X9512500Y674037D01*
Y690154D01*
X9524233Y695014D01*
X10202007Y17240D01*
D02*
G37*
%LPC*%
G36*
X864946Y6314250D02*
X835054D01*
X805736Y6308418D01*
X793855Y6303497D01*
X850001Y6247352D01*
X906146Y6303497D01*
X894264Y6308418D01*
X864946Y6314250D01*
D02*
G37*
G36*
X990998Y6218644D02*
X934853Y6162499D01*
X990998Y6106355D01*
X995919Y6118236D01*
X1001750Y6147554D01*
Y6177446D01*
X995919Y6206764D01*
X990998Y6218644D01*
D02*
G37*
G36*
X709003Y6218645D02*
X704082Y6206764D01*
X698250Y6177446D01*
Y6147554D01*
X704082Y6118236D01*
X709003Y6106355D01*
X765148Y6162499D01*
X709003Y6218645D01*
D02*
G37*
G36*
X850001Y6077647D02*
X793856Y6021502D01*
X805736Y6016582D01*
X835054Y6010750D01*
X864946D01*
X894264Y6016582D01*
X906145Y6021503D01*
X850001Y6077647D01*
D02*
G37*
G36*
X2288785Y6838700D02*
X2256214D01*
X2238421Y6833932D01*
X2272500Y6799853D01*
X2306579Y6833932D01*
X2288785Y6838700D01*
D02*
G37*
G36*
X2391432Y6749079D02*
X2357353Y6715000D01*
X2391432Y6680921D01*
X2396200Y6698715D01*
Y6731285D01*
X2391432Y6749079D01*
D02*
G37*
G36*
X2153568Y6749080D02*
X2148800Y6731285D01*
Y6698715D01*
X2153568Y6680921D01*
X2187647Y6715000D01*
X2153568Y6749080D01*
D02*
G37*
G36*
X2272500Y6630148D02*
X2238420Y6596068D01*
X2256214Y6591300D01*
X2288785D01*
X2306580Y6596068D01*
X2272500Y6630148D01*
D02*
G37*
G36*
X10074482Y7427500D02*
X10045518D01*
X10017542Y7420004D01*
X9992459Y7405522D01*
X9971979Y7385042D01*
X9957497Y7359959D01*
X9950000Y7331982D01*
Y7303018D01*
X9957497Y7275042D01*
X9971979Y7249959D01*
X9992459Y7229479D01*
X10017542Y7214997D01*
X10045518Y7207500D01*
X10074482D01*
X10102459Y7214997D01*
X10127542Y7229479D01*
X10148022Y7249959D01*
X10162504Y7275042D01*
X10170000Y7303018D01*
Y7331982D01*
X10162504Y7359959D01*
X10148022Y7385042D01*
X10127542Y7405522D01*
X10102459Y7420004D01*
X10074482Y7427500D01*
D02*
G37*
G36*
X12124623Y7650000D02*
X12075377D01*
X12027078Y7640392D01*
X11981581Y7621547D01*
X11940634Y7594187D01*
X11905813Y7559365D01*
X11878453Y7518419D01*
X11859608Y7472922D01*
X11850000Y7424623D01*
Y7375377D01*
X11859608Y7327078D01*
X11878453Y7281581D01*
X11905813Y7240634D01*
X11940634Y7205813D01*
X11981581Y7178453D01*
X12027078Y7159608D01*
X12075377Y7150000D01*
X12124623D01*
X12172922Y7159608D01*
X12218419Y7178453D01*
X12259365Y7205813D01*
X12294187Y7240634D01*
X12321547Y7281581D01*
X12340392Y7327078D01*
X12350000Y7375377D01*
Y7424623D01*
X12340392Y7472922D01*
X12321547Y7518419D01*
X12294187Y7559365D01*
X12259365Y7594187D01*
X12218419Y7621547D01*
X12172922Y7640392D01*
X12124623Y7650000D01*
D02*
G37*
G36*
X11689946Y6029250D02*
X11660054D01*
X11630736Y6023418D01*
X11618856Y6018497D01*
X11675000Y5962353D01*
X11731144Y6018497D01*
X11719264Y6023418D01*
X11689946Y6029250D01*
D02*
G37*
G36*
X11815997Y5933645D02*
X11759853Y5877501D01*
X11815997Y5821356D01*
X11820918Y5833236D01*
X11826750Y5862554D01*
Y5892446D01*
X11820918Y5921764D01*
X11815997Y5933645D01*
D02*
G37*
G36*
X11534003D02*
X11529082Y5921764D01*
X11523250Y5892446D01*
Y5862554D01*
X11529082Y5833236D01*
X11534003Y5821356D01*
X11590147Y5877501D01*
X11534003Y5933645D01*
D02*
G37*
G36*
X11675000Y5792648D02*
X11618855Y5736503D01*
X11630736Y5731582D01*
X11660054Y5725750D01*
X11689946D01*
X11719264Y5731582D01*
X11731145Y5736503D01*
X11675000Y5792648D01*
D02*
G37*
G36*
X5085040Y6100200D02*
X5054960D01*
X5025459Y6094332D01*
X5013128Y6089224D01*
X5070000Y6032352D01*
X5126871Y6089225D01*
X5114541Y6094332D01*
X5085040Y6100200D01*
D02*
G37*
G36*
X4928275Y6004371D02*
X4923168Y5992041D01*
X4917300Y5962540D01*
Y5932461D01*
X4923168Y5902959D01*
X4928276Y5890629D01*
X4985147Y5947500D01*
X4928275Y6004371D01*
D02*
G37*
G36*
X5211724Y6004372D02*
X5154852Y5947500D01*
X5211724Y5890628D01*
X5216832Y5902959D01*
X5222700Y5932461D01*
Y5962540D01*
X5216832Y5992041D01*
X5211724Y6004372D01*
D02*
G37*
G36*
X5070000Y5862647D02*
X5013128Y5805776D01*
X5025459Y5800668D01*
X5054960Y5794800D01*
X5085040D01*
X5114541Y5800668D01*
X5126871Y5805776D01*
X5070000Y5862647D01*
D02*
G37*
G36*
X4072535Y4808200D02*
X4042465D01*
X4031177Y4805175D01*
X4057499Y4778853D01*
X4083822Y4805176D01*
X4072535Y4808200D01*
D02*
G37*
G36*
X5085040Y7600200D02*
X5054960D01*
X5025459Y7594332D01*
X5013128Y7589224D01*
X5070000Y7532352D01*
X5126871Y7589225D01*
X5114541Y7594332D01*
X5085040Y7600200D01*
D02*
G37*
G36*
X4928275Y7504371D02*
X4923168Y7492041D01*
X4917300Y7462540D01*
Y7432461D01*
X4923168Y7402959D01*
X4928276Y7390629D01*
X4985147Y7447500D01*
X4928275Y7504371D01*
D02*
G37*
G36*
X5211724Y7504372D02*
X5154852Y7447500D01*
X5211724Y7390628D01*
X5216832Y7402959D01*
X5222700Y7432461D01*
Y7462540D01*
X5216832Y7492041D01*
X5211724Y7504372D01*
D02*
G37*
G36*
X5070000Y7362647D02*
X5013128Y7305776D01*
X5025459Y7300668D01*
X5054960Y7294800D01*
X5085040D01*
X5114541Y7300668D01*
X5126871Y7305776D01*
X5070000Y7362647D01*
D02*
G37*
G36*
X2311347Y5088700D02*
X2233653D01*
X2272500Y5049853D01*
X2311347Y5088700D01*
D02*
G37*
G36*
X2396200Y5003847D02*
X2357353Y4965000D01*
X2396200Y4926153D01*
Y5003847D01*
D02*
G37*
G36*
X2148800Y5003848D02*
Y4926153D01*
X2187647Y4965000D01*
X2148800Y5003848D01*
D02*
G37*
G36*
X2272500Y4880147D02*
X2233652Y4841300D01*
X2311348D01*
X2272500Y4880147D01*
D02*
G37*
G36*
X2787499Y4355147D02*
X2761177Y4328825D01*
X2772465Y4325800D01*
X2802535D01*
X2813822Y4328824D01*
X2787499Y4355147D01*
D02*
G37*
G36*
X2802535Y4300200D02*
X2772465D01*
X2761177Y4297175D01*
X2787499Y4270853D01*
X2813822Y4297176D01*
X2802535Y4300200D01*
D02*
G37*
G36*
X2676324Y4212322D02*
X2673300Y4201035D01*
Y4170965D01*
X2676324Y4159678D01*
X2702646Y4186000D01*
X2676324Y4212322D01*
D02*
G37*
G36*
X2898675Y4212323D02*
X2872352Y4186000D01*
X2898675Y4159677D01*
X2901700Y4170965D01*
Y4201035D01*
X2898675Y4212323D01*
D02*
G37*
G36*
X2787499Y4101147D02*
X2761177Y4074825D01*
X2772465Y4071800D01*
X2802535D01*
X2813822Y4074824D01*
X2787499Y4101147D01*
D02*
G37*
G36*
X1883521Y652700D02*
X1856479D01*
X1853066Y651785D01*
X1870000Y634852D01*
X1886933Y651786D01*
X1883521Y652700D01*
D02*
G37*
G36*
X1768214Y566932D02*
X1767300Y563521D01*
Y536479D01*
X1768214Y533067D01*
X1785147Y549999D01*
X1768214Y566932D01*
D02*
G37*
G36*
X1971786Y566933D02*
X1954852Y549999D01*
X1971785Y533066D01*
X1972700Y536479D01*
Y563521D01*
X1971786Y566933D01*
D02*
G37*
G36*
X1870000Y465147D02*
X1853067Y448214D01*
X1856479Y447300D01*
X1883521D01*
X1886932Y448214D01*
X1870000Y465147D01*
D02*
G37*
G36*
X424623Y650000D02*
X375377D01*
X327078Y640392D01*
X281581Y621547D01*
X240635Y594187D01*
X205813Y559365D01*
X178453Y518419D01*
X159608Y472922D01*
X150000Y424623D01*
Y375377D01*
X159608Y327078D01*
X178453Y281581D01*
X205813Y240635D01*
X240635Y205813D01*
X281581Y178453D01*
X327078Y159608D01*
X375377Y150000D01*
X424623D01*
X472922Y159608D01*
X518419Y178453D01*
X559365Y205813D01*
X594187Y240635D01*
X621547Y281581D01*
X640392Y327078D01*
X650000Y375377D01*
Y424623D01*
X640392Y472922D01*
X621547Y518419D01*
X594187Y559365D01*
X559365Y594187D01*
X518419Y621547D01*
X472922Y640392D01*
X424623Y650000D01*
D02*
G37*
G36*
X12244047Y3365900D02*
X12235953D01*
X12240000Y3361853D01*
X12244047Y3365900D01*
D02*
G37*
G36*
X12151100Y3281047D02*
Y3272953D01*
X12155147Y3277000D01*
X12151100Y3281047D01*
D02*
G37*
G36*
X12328900D02*
X12324853Y3277000D01*
X12328900Y3272953D01*
Y3281047D01*
D02*
G37*
G36*
X12240000Y3192147D02*
X12235953Y3188100D01*
X12244047D01*
X12240000Y3192147D01*
D02*
G37*
G36*
X7997347Y2827700D02*
X7991653D01*
X7994500Y2824853D01*
X7997347Y2827700D01*
D02*
G37*
G36*
X8082200Y2742847D02*
X8079353Y2740000D01*
X8082200Y2737153D01*
Y2742847D01*
D02*
G37*
G36*
X7906800D02*
Y2737153D01*
X7909647Y2740000D01*
X7906800Y2742847D01*
D02*
G37*
G36*
X7994500Y2655147D02*
X7991653Y2652300D01*
X7997347D01*
X7994500Y2655147D01*
D02*
G37*
G36*
X10390047Y2531400D02*
X10381953D01*
X10386000Y2527353D01*
X10390047Y2531400D01*
D02*
G37*
G36*
X9700000Y2137500D02*
X9515000D01*
Y1997500D01*
X9515000D01*
X9519173Y1987426D01*
X9461391Y1929645D01*
X9448691Y1934905D01*
Y1997500D01*
X9500000D01*
Y2137500D01*
X9315000D01*
Y1997500D01*
X9366308D01*
Y1909547D01*
X9367239Y1904867D01*
X9359182Y1895050D01*
X9207850D01*
X9202989Y1906783D01*
X9229127Y1932920D01*
X9238056Y1946284D01*
X9241191Y1962047D01*
Y1997500D01*
X9297500D01*
Y2137500D01*
X9112500D01*
Y1997500D01*
X9158808D01*
Y1979109D01*
X9098373Y1918674D01*
X9089444Y1905311D01*
X9087403Y1895050D01*
X8792500D01*
Y1707550D01*
X9512500D01*
Y1780963D01*
X9515556Y1785537D01*
X9518691Y1801300D01*
Y1870438D01*
X9609200Y1960947D01*
X9618129Y1974311D01*
X9621265Y1990074D01*
Y1997500D01*
X9700000D01*
Y2137500D01*
D02*
G37*
G36*
X9972500Y1848500D02*
X9830500D01*
Y1661500D01*
X9834007D01*
X9840375Y1648800D01*
X9836562Y1643691D01*
X9676300D01*
X9660537Y1640556D01*
X9655963Y1637500D01*
X9582550D01*
Y1567500D01*
X9655963D01*
X9660537Y1564444D01*
X9676300Y1561309D01*
X9860000D01*
X9875763Y1564444D01*
X9889127Y1573373D01*
X9930627Y1614873D01*
X9939556Y1628237D01*
X9942691Y1644000D01*
Y1661500D01*
X9972500D01*
Y1848500D01*
D02*
G37*
G36*
X4098610Y900400D02*
X4081390D01*
X4064756Y895943D01*
X4049843Y887333D01*
X4037667Y875156D01*
X4029057Y860243D01*
X4024600Y843610D01*
Y826390D01*
X4029057Y809756D01*
X4037363Y795371D01*
Y710000D01*
X4017500D01*
Y525000D01*
X4157499D01*
Y710000D01*
X4140137D01*
Y792647D01*
X4142333Y794843D01*
X4150943Y809756D01*
X4155400Y826390D01*
Y843610D01*
X4150943Y860243D01*
X4142333Y875156D01*
X4130157Y887333D01*
X4115243Y895943D01*
X4098610Y900400D01*
D02*
G37*
G36*
X11815000Y2187500D02*
X11675000D01*
Y2002500D01*
X11815000D01*
Y2056309D01*
X11877500D01*
Y2010000D01*
X12027500D01*
Y2180000D01*
X11877500D01*
Y2138691D01*
X11815000D01*
Y2187500D01*
D02*
G37*
G36*
X9212500Y747450D02*
X8692500D01*
Y559950D01*
X9212500D01*
Y747450D01*
D02*
G37*
%LPD*%
D10*
X8158500Y6032500D02*
D03*
X8666500D02*
D03*
X8179500Y3957500D02*
D03*
X8687500D02*
D03*
D11*
X8412500Y7060000D02*
D03*
X8433500Y4985000D02*
D03*
D12*
X6798500Y1695000D02*
D03*
X6636500D02*
D03*
X11677000Y3542500D02*
D03*
X11515000D02*
D03*
X11648500Y1456000D02*
D03*
X11486500D02*
D03*
X11647500Y1272500D02*
D03*
X11485500D02*
D03*
X10063500Y1755000D02*
D03*
X9901500D02*
D03*
X7996500Y1600000D02*
D03*
X8158500D02*
D03*
X7996500Y852500D02*
D03*
X8158500D02*
D03*
X6689000Y532500D02*
D03*
X6851000D02*
D03*
X6685500Y1147500D02*
D03*
X6847500D02*
D03*
X3263500Y1432500D02*
D03*
X3101500D02*
D03*
X1826500Y2495000D02*
D03*
X1988500D02*
D03*
X483000Y2331500D02*
D03*
X645000D02*
D03*
X1084000Y2810000D02*
D03*
X1246000D02*
D03*
X5944000Y662500D02*
D03*
X6106000D02*
D03*
X8513500Y2037500D02*
D03*
X8351500D02*
D03*
D13*
X9205000Y2257500D02*
D03*
Y2067500D02*
D03*
X9407500Y2257500D02*
D03*
Y2067500D02*
D03*
X9607500Y2257500D02*
D03*
Y2067500D02*
D03*
X10797500Y975000D02*
D03*
Y785000D02*
D03*
X11002500Y975000D02*
D03*
Y785000D02*
D03*
D14*
X11205000Y942000D02*
D03*
Y780000D02*
D03*
X10597500Y948500D02*
D03*
Y786500D02*
D03*
X9460000Y287500D02*
D03*
Y125500D02*
D03*
X9265000Y126500D02*
D03*
Y288500D02*
D03*
D15*
X11952500Y2095000D02*
D03*
X12162500D02*
D03*
X11952500Y1895000D02*
D03*
X12162500D02*
D03*
D16*
X11745000Y2095000D02*
D03*
X11555000D02*
D03*
X11745000Y1895000D02*
D03*
X11555000D02*
D03*
X4927500Y660000D02*
D03*
X4737500D02*
D03*
X4277500Y617500D02*
D03*
X4087500D02*
D03*
Y412500D02*
D03*
X4277500D02*
D03*
X6850000Y737500D02*
D03*
X6660000D02*
D03*
X6850000Y947500D02*
D03*
X6660000D02*
D03*
X5092500Y1927500D02*
D03*
X5282500D02*
D03*
X10250000Y3415000D02*
D03*
X10440000D02*
D03*
X10440000Y3827500D02*
D03*
X10250000D02*
D03*
X10440000Y3620000D02*
D03*
X10250000D02*
D03*
X4727500Y877500D02*
D03*
X4917500D02*
D03*
D17*
X11667500Y1643500D02*
D03*
X11487500D02*
D03*
X7555000Y282500D02*
D03*
X7735000D02*
D03*
X3542500Y2402500D02*
D03*
X3362500D02*
D03*
X3470000Y1182500D02*
D03*
X3650000D02*
D03*
X3477500Y682500D02*
D03*
X3657500D02*
D03*
D18*
X11169500Y478000D02*
D03*
X10705500D02*
D03*
D19*
X11050000Y255000D02*
D03*
X10825000D02*
D03*
D20*
X11067500Y520000D02*
D03*
X11002500D02*
D03*
X10937500D02*
D03*
X10872500D02*
D03*
X10807500D02*
D03*
D21*
X10628800Y1692200D02*
D03*
Y1628800D02*
D03*
Y1565200D02*
D03*
Y1501800D02*
D03*
Y1438200D02*
D03*
Y1374800D02*
D03*
Y1311200D02*
D03*
Y1247800D02*
D03*
X11171200D02*
D03*
Y1311200D02*
D03*
Y1374800D02*
D03*
Y1438200D02*
D03*
Y1501800D02*
D03*
Y1565200D02*
D03*
Y1628800D02*
D03*
Y1692200D02*
D03*
D22*
X5745000Y1695000D02*
D03*
X6345000D02*
D03*
X5745000Y1325000D02*
D03*
X6345000D02*
D03*
D23*
X7380000Y730000D02*
D03*
X7475000Y510000D02*
D03*
X7285000D02*
D03*
X7552500Y1197500D02*
D03*
X7362500D02*
D03*
X7457500Y977500D02*
D03*
D24*
X8727500Y1801300D02*
D03*
X8777500D02*
D03*
X8827500D02*
D03*
X8877500D02*
D03*
X8927500D02*
D03*
X8977500D02*
D03*
X9027500D02*
D03*
X9077500D02*
D03*
X9127500D02*
D03*
X9177500D02*
D03*
X9227500D02*
D03*
X9277500D02*
D03*
X9327500D02*
D03*
X9377500D02*
D03*
X9427500D02*
D03*
X9477500D02*
D03*
Y653700D02*
D03*
X9427500D02*
D03*
X9377500D02*
D03*
X9327500D02*
D03*
X9277500D02*
D03*
X9227500D02*
D03*
X9177500D02*
D03*
X9127500D02*
D03*
X9077500D02*
D03*
X9027500D02*
D03*
X8977500D02*
D03*
X8927500D02*
D03*
X8877500D02*
D03*
X8827500D02*
D03*
X8777500D02*
D03*
X8727500D02*
D03*
D25*
X9676300Y1602500D02*
D03*
Y1552500D02*
D03*
Y1502500D02*
D03*
Y1452500D02*
D03*
Y1402500D02*
D03*
Y1352500D02*
D03*
Y1302500D02*
D03*
Y1252500D02*
D03*
Y1202500D02*
D03*
Y1152500D02*
D03*
Y1102500D02*
D03*
Y1052500D02*
D03*
Y1002500D02*
D03*
Y952500D02*
D03*
Y902500D02*
D03*
Y852500D02*
D03*
X8528700D02*
D03*
Y902500D02*
D03*
Y952500D02*
D03*
Y1002500D02*
D03*
Y1052500D02*
D03*
Y1102500D02*
D03*
Y1152500D02*
D03*
Y1202500D02*
D03*
Y1252500D02*
D03*
Y1302500D02*
D03*
Y1352500D02*
D03*
Y1402500D02*
D03*
Y1452500D02*
D03*
Y1502500D02*
D03*
Y1552500D02*
D03*
Y1602500D02*
D03*
D26*
X5683700Y660500D02*
D03*
Y533500D02*
D03*
Y406500D02*
D03*
Y279500D02*
D03*
X5141300D02*
D03*
Y406500D02*
D03*
Y533500D02*
D03*
Y660500D02*
D03*
X1493700Y2204500D02*
D03*
Y2331500D02*
D03*
Y2458500D02*
D03*
Y2585500D02*
D03*
X951300D02*
D03*
Y2458500D02*
D03*
Y2331500D02*
D03*
Y2204500D02*
D03*
X11311200Y3544500D02*
D03*
Y3671500D02*
D03*
Y3798500D02*
D03*
Y3925500D02*
D03*
X10768800D02*
D03*
Y3798500D02*
D03*
Y3671500D02*
D03*
Y3544500D02*
D03*
D27*
X3657500Y880000D02*
D03*
Y1010000D02*
D03*
X3447500Y945000D02*
D03*
D28*
X1835000Y1910000D02*
D03*
X2105000D02*
D03*
D29*
X2102500Y2207500D02*
D03*
X1882500D02*
D03*
D30*
X3512500Y1710000D02*
D03*
Y1940000D02*
D03*
Y2170000D02*
D03*
D31*
X2882500Y1940000D02*
D03*
D32*
X1490500Y7110000D02*
D03*
X1209500D02*
D03*
D33*
X1077500Y3852500D02*
D03*
X1062500Y4120000D02*
D03*
D34*
X9139108Y2738225D02*
X10053696D01*
X10596970Y2739530D02*
X10894000Y2442500D01*
X10053696Y2738225D02*
X10055001Y2739530D01*
X10596970D01*
X8532000Y2131117D02*
X9139108Y2738225D01*
X8527779Y2250000D02*
X9128112Y2850333D01*
X10879667D02*
X11157500Y2572500D01*
X9128112Y2850333D02*
X10879667D01*
X8495000Y2019000D02*
X8532000Y2056000D01*
Y2131117D01*
X8260000Y2250000D02*
X8527779D01*
X4529000Y2836500D02*
X5285500D01*
X1062500Y4129471D02*
Y4130000D01*
X4077500Y2385000D02*
X4529000Y2836500D01*
X3932500Y2385000D02*
X4077500D01*
X3685000Y2632500D02*
X3932500Y2385000D01*
X3685000Y2632500D02*
Y2991634D01*
X3847500Y3154134D01*
Y3490000D01*
X3590000Y3747500D02*
X3847500Y3490000D01*
X1445000Y3747500D02*
X3590000D01*
X1129197Y4063303D02*
X1445000Y3747500D01*
X1128668Y4063303D02*
X1129197D01*
X1062500Y4129471D02*
X1128668Y4063303D01*
X1062500Y4120000D02*
Y4129471D01*
X6221924Y1025000D02*
X6447500Y1250577D01*
Y1301924D01*
X6217500Y1025000D02*
X6221924D01*
X6485577Y1340000D02*
X7350000D01*
X6447500Y1301924D02*
X6485577Y1340000D01*
X5952500Y760000D02*
X6217500Y1025000D01*
X2370000Y581250D02*
Y612500D01*
Y550000D02*
Y581250D01*
X10640500Y3544500D02*
X10768800D01*
X10877000D01*
X10975000Y3642500D01*
Y4285555D01*
X10440000Y3415000D02*
X10510000D01*
X10640000Y3545000D02*
X10640500Y3544500D01*
X10510000Y3415000D02*
X10640000Y3545000D01*
X5690000Y406500D02*
Y528000D01*
X1135000Y1785000D02*
X2338750Y581250D01*
X951300Y2331500D02*
X1096924D01*
X645000D02*
X951300D01*
X1135000Y1785000D02*
Y2369576D01*
X8199500Y1641000D02*
X8495000Y1936500D01*
Y2019000D01*
X8158500Y1600000D02*
Y1622500D01*
X8177000Y1641000D01*
X8199500D01*
X7350000Y1340000D02*
X8260000Y2250000D01*
X10440000Y3620000D02*
X10572500D01*
X10624000Y3671500D02*
X10679000D01*
X10572500Y3620000D02*
X10624000Y3671500D01*
X10679000D02*
X10679000Y3671500D01*
X10768800D01*
X10440000Y3815000D02*
Y3827500D01*
Y3815000D02*
X10457501Y3797500D01*
X10680000D01*
X10681000Y3798500D02*
X10768800D01*
X10680000Y3797500D02*
X10681000Y3798500D01*
X11157500Y2572500D02*
X11486924D01*
X11515000Y3542500D02*
X11525000Y3532500D01*
Y2610576D02*
Y3532500D01*
X11486924Y2572500D02*
X11525000Y2610576D01*
X5944000Y662500D02*
X5952500Y671000D01*
Y760000D01*
X5812850Y660500D02*
X5942000D01*
X5944000Y662500D01*
X5284000Y1903500D02*
Y1929000D01*
Y1903500D02*
X5485000Y1702500D01*
Y400000D02*
Y1702500D01*
X11527500Y1697746D02*
X11587253Y1757500D01*
X12035000D02*
X12162500Y1885000D01*
X11587253Y1757500D02*
X12035000D01*
X11487500Y1643500D02*
X11512500D01*
X11527500Y1658500D01*
Y1697746D01*
X12162500Y1885000D02*
Y1895000D01*
Y2095000D02*
X12172500Y2085000D01*
Y1905000D02*
Y2085000D01*
X12162500Y1895000D02*
X12172500Y1905000D01*
X12162500Y2095000D02*
Y2245000D01*
X10894000Y2442500D02*
X11965000D01*
X12162500Y2245000D01*
X9265000Y288500D02*
X9269000Y292500D01*
X9263250Y286750D02*
X9265000Y288500D01*
X7764250Y286750D02*
X9263250D01*
X7757321D02*
X7764250D01*
X9269000Y292500D02*
X9465000D01*
X9469500Y288000D01*
X7775000Y304429D02*
X8158500Y687929D01*
X7764250Y286750D02*
X7775000Y297500D01*
Y304429D01*
X7545391Y72500D02*
X7745195Y272305D01*
X8158500Y687929D02*
Y851000D01*
X2882500Y332500D02*
Y1115000D01*
Y332500D02*
X3142500Y72500D01*
X7545391D01*
X8157500Y1599000D02*
X8158500Y1600000D01*
X8157500Y1187500D02*
Y1599000D01*
X8158500Y851000D02*
X8160000Y852500D01*
X3525000Y872500D02*
X3650000D01*
X3485000Y832500D02*
X3525000Y872500D01*
X3165000Y832500D02*
X3485000D01*
X2882500Y1115000D02*
Y1512500D01*
Y1115000D02*
X3165000Y832500D01*
X2962500Y1432500D02*
X3101500D01*
X2882500Y1512500D02*
X2962500Y1432500D01*
X2882500Y1512500D02*
Y1940000D01*
X5485000Y400000D02*
X5605500Y279500D01*
X5683700Y660500D02*
X5812850D01*
X5605500Y279500D02*
X5682500D01*
X5683700Y406500D02*
X5690000D01*
X1882500Y2255000D02*
X1970000Y2342501D01*
Y2476500D01*
X1882500Y2207500D02*
Y2255000D01*
X1493700Y2331500D02*
X1685500D01*
X1808000Y2454000D02*
Y2476500D01*
X1685500Y2331500D02*
X1808000Y2454000D01*
Y2476500D02*
X1826500Y2495000D01*
X2102500Y2207500D02*
X2132500Y2237500D01*
Y2380253D01*
X2197500Y2445253D01*
Y2577501D01*
X2102500Y2207500D02*
X2103750Y2206250D01*
X2117500Y2657500D02*
X2197500Y2577501D01*
X1677725Y2585500D02*
X1749725Y2657500D01*
X2117500D01*
X1493700Y2585500D02*
X1677725D01*
X2102500Y1987500D02*
X2103750Y1988750D01*
Y2206250D01*
X2105000Y1910000D02*
Y1985000D01*
X2102500Y1987500D02*
X2105000Y1985000D01*
X1970000Y2476500D02*
X1988500Y2495000D01*
X1493700Y2204500D02*
X1879500D01*
X1321500Y2458500D02*
X1493700D01*
X1246000Y2534000D02*
X1321500Y2458500D01*
X1246000Y2534000D02*
Y2810000D01*
X1096924Y2331500D02*
X1135000Y2369576D01*
Y2527500D01*
X1077000Y2585500D02*
X1135000Y2527500D01*
X951300Y2585500D02*
X1077000D01*
D35*
X8854850Y2131000D02*
X9168850Y2445000D01*
X9815000D01*
X10447500Y1432500D02*
X10617500D01*
X10625000Y1440000D01*
X10626800Y1438200D02*
X10628800D01*
X10625000Y1440000D02*
X10626800Y1438200D01*
X11325000Y1500000D02*
X11327500Y1502500D01*
X11171200Y1501800D02*
X11173000Y1500000D01*
X11325000D01*
X11067500Y520000D02*
Y635000D01*
X11072500Y640000D01*
X8582500Y902500D02*
Y902500D01*
X8700000D01*
X8702500Y905000D01*
X8528700Y902500D02*
X8582500D01*
X9227500Y653700D02*
Y842500D01*
X9225000Y845000D02*
X9227500Y842500D01*
X9235000Y805000D02*
X9385000D01*
X9427500Y762500D01*
Y653700D02*
Y762500D01*
X9445000Y1552500D02*
X9676300D01*
X9442500Y1555000D02*
X9445000Y1552500D01*
X8777500Y1635000D02*
X8782500Y1630000D01*
X8777500Y1635000D02*
Y1801300D01*
X8528700Y1052500D02*
X9300000D01*
X10272500Y80000D01*
X12325000D01*
X12240000Y2769000D02*
X12400000Y2609000D01*
Y155000D02*
Y2609000D01*
X12325000Y80000D02*
X12400000Y155000D01*
X9275000Y1002500D02*
X10242500Y35000D01*
X12355000D02*
X12450000Y130000D01*
X10242500Y35000D02*
X12355000D01*
X8528700Y1002500D02*
X9275000D01*
X12240000Y3023000D02*
X12450000Y2813000D01*
Y130000D02*
Y2813000D01*
X6636500Y1561000D02*
X6702574Y1494926D01*
X7362426D01*
X7720000Y1852500D01*
X6636500Y1561000D02*
Y1695000D01*
X5745000D02*
X6345000D01*
X6636500D01*
X11380000Y2700000D02*
Y3262500D01*
X11247500Y2717500D02*
Y3312500D01*
X11097500Y3462500D02*
X11247500Y3312500D01*
X11311200Y3671500D02*
X12099500D01*
X12240000Y3531000D01*
X11158500Y3798500D02*
X12226500D01*
X12240000Y3785000D01*
X11160000Y3482500D02*
X11380000Y3262500D01*
X11160000Y3625000D02*
X11206500Y3671500D01*
X11160000Y3482500D02*
Y3625000D01*
X11206500Y3671500D02*
X11311200D01*
X11097500Y3737500D02*
X11158500Y3798500D01*
X11097500Y3462500D02*
Y3737500D01*
X10545000Y1890000D02*
X10940000D01*
X11380000Y2330000D01*
X10107500Y1452500D02*
X10545000Y1890000D01*
X9676300Y1452500D02*
X10107500D01*
X10522500Y1955000D02*
X10865000D01*
X10070000Y1502500D02*
X10522500Y1955000D01*
X10865000D02*
X11243955Y2333955D01*
X9676300Y1502500D02*
X10070000D01*
X9941500Y2188500D02*
X10386000D01*
X9365000Y2395000D02*
X9735000D01*
X9941500Y2188500D01*
X9614926Y2250074D02*
X9707426D01*
X9942500Y2015000D02*
X10720500D01*
X9607500Y2257500D02*
X9614926Y2250074D01*
X9707426D02*
X9942500Y2015000D01*
X11485000Y1641000D02*
X11487500Y1643500D01*
X9815000Y2445000D02*
X9955000Y2305000D01*
X10502500D02*
X10640000Y2442500D01*
X9955000Y2305000D02*
X10337603D01*
X10434397D02*
X10502500D01*
X10337703Y2305100D02*
X10434297D01*
X10434397Y2305000D01*
X10337603D02*
X10337703Y2305100D01*
X9195000Y2257500D02*
X9227499D01*
X9365000Y2395000D01*
X9195000Y2257500D02*
X9205000D01*
X9195000Y2257500D02*
X9195000Y2257500D01*
X10523400Y2071900D02*
X10640000Y2188500D01*
X9975600Y2071900D02*
X10523400D01*
X9413529Y2249192D02*
X9421692D01*
X9515000Y2342500D01*
X9705000D01*
X9975600Y2071900D01*
X9407500Y2255221D02*
Y2257500D01*
Y2255221D02*
X9413529Y2249192D01*
X10720500Y2015000D02*
X10894000Y2188500D01*
X9477500Y1801300D02*
Y1887500D01*
X9580074Y1990074D01*
Y2040074D01*
X9607500Y2067500D01*
X9407500Y1909547D02*
Y2067500D01*
X9427500Y1801300D02*
Y1889547D01*
X9407500Y1909547D02*
X9427500Y1889547D01*
X9200000Y2062500D02*
X9205000Y2067500D01*
X9200000Y1962047D02*
Y2062500D01*
X9127500Y1889547D02*
X9200000Y1962047D01*
X9127500Y1801300D02*
Y1870000D01*
X9127500Y1870000D01*
Y1889547D01*
X8616947Y1302500D02*
X8662100Y1347653D01*
Y1855000D01*
X8727500Y1801300D02*
Y1915000D01*
X8663500Y1979000D02*
X8727500Y1915000D01*
X8549500Y1979000D02*
X8663500D01*
X8513500Y2015000D02*
X8549500Y1979000D01*
X11030000Y792500D02*
X11192500D01*
X11205000Y780000D01*
X11002500Y785000D02*
X11022500D01*
X11030000Y792500D01*
X10635000Y785000D02*
X10797500D01*
X10597500Y786500D02*
X10633500D01*
X10635000Y785000D01*
X11475400Y1280000D02*
X11484200Y1271200D01*
X11171200Y1311200D02*
X11356300D01*
X11387500Y1280000D02*
X11475400D01*
X11356300Y1311200D02*
X11387500Y1280000D01*
X11468700Y1438200D02*
X11486500Y1456000D01*
X11171200Y1438200D02*
X11468700D01*
X11302500Y1825000D02*
X11372500Y1895000D01*
X11302500Y1612553D02*
Y1825000D01*
X11372500Y1895000D02*
X11555000D01*
X11261998Y1572050D02*
X11302500Y1612553D01*
X11171200Y1565200D02*
X11177950Y1571950D01*
X11249974D02*
X11250074Y1572050D01*
X11177950Y1571950D02*
X11249974D01*
X11250074Y1572050D02*
X11261998D01*
X11397500Y2095000D02*
X11555000D01*
X10987500Y1685000D02*
X11397500Y2095000D01*
X10992500Y1377500D02*
X11168500D01*
X10639150Y1565200D02*
X10804800D01*
X10992500Y1377500D01*
X10628800Y1311200D02*
X10635550Y1317950D01*
X10725450D01*
X10832500Y1425000D01*
X11950000Y2097500D02*
X11952500Y2095000D01*
X11747500Y2097500D02*
X11950000D01*
X11745000Y2095000D02*
X11747500Y2097500D01*
X11745000Y1895000D02*
X11952500D01*
X11485000Y1457500D02*
Y1641000D01*
X11171200Y1374800D02*
X11172500Y1373500D01*
Y1312500D02*
Y1373500D01*
X11171200Y1311200D02*
X11172500Y1312500D01*
X10632500Y1558550D02*
X10639150Y1565200D01*
X11168500Y1377500D02*
X11171200Y1374800D01*
X10628800Y1562250D02*
Y1565200D01*
Y1562250D02*
X10632500Y1558550D01*
X10625600Y1505000D02*
X10628800Y1501800D01*
X10422500Y1505000D02*
X10625600D01*
X9676300Y1352500D02*
X10270000D01*
X10422500Y1505000D01*
X10628500Y1692500D02*
X10628800Y1692200D01*
X10447500Y1692500D02*
X10628500D01*
X10157500Y1402500D02*
X10447500Y1692500D01*
X9676300Y1402500D02*
X10157500D01*
X11002500Y975000D02*
X11007500Y980000D01*
X11010000D01*
X10735370Y1248903D02*
X10736473Y1250005D01*
X10628800Y1247800D02*
X10629902Y1248903D01*
X10735370D01*
X11063550Y1241050D02*
X11164450D01*
X10797500Y975000D02*
X10820000D01*
X10855000Y1010000D01*
Y1032500D02*
X11063550Y1241050D01*
X10855000Y1010000D02*
Y1032500D01*
X11164450Y1241050D02*
X11171200Y1247800D01*
X10942748Y480974D02*
Y622748D01*
X11002500Y785000D02*
X11005000Y782500D01*
Y685000D02*
Y782500D01*
X10942748Y622748D02*
X11005000Y685000D01*
X10937500Y485974D02*
Y520000D01*
Y485974D02*
X10942500Y480974D01*
X10942748D01*
X10797500Y687500D02*
Y785000D01*
X10867500Y525000D02*
X10872500Y520000D01*
X10867500Y525000D02*
Y617500D01*
X10797500Y687500D02*
X10867500Y617500D01*
X9860000Y1602500D02*
X9901500Y1644000D01*
Y1755000D01*
X9676300Y1602500D02*
X9860000D01*
X8528700Y1302500D02*
X8616947D01*
X8527500D02*
X8528700D01*
X9267500Y294000D02*
X9269000Y292500D01*
X9267500Y294000D02*
Y380000D01*
X9327500Y440000D02*
Y653700D01*
X9267500Y380000D02*
X9327500Y440000D01*
X9469500Y288000D02*
X9505000Y323500D01*
X9465000Y292500D02*
X9477500Y305000D01*
Y653700D01*
X7475000Y485000D02*
Y510000D01*
Y485000D02*
X7490000Y470000D01*
X7612500D01*
X7710577Y371923D01*
Y306923D02*
Y371923D01*
Y306923D02*
X7735000Y282500D01*
X8158500Y1600000D02*
X8161000Y1602500D01*
X8157500Y1187500D02*
X8160000D01*
X7740000D02*
X8157500D01*
X7382426Y732426D02*
X7437426D01*
X7380000Y730000D02*
X7382426Y732426D01*
X7437426D02*
X7707500Y1002500D01*
X6850500Y737000D02*
X6857500Y730000D01*
X7380000D01*
X7642500Y1090000D02*
X7740000Y1187500D01*
X7470000Y1090000D02*
X7642500D01*
X7362500Y1172500D02*
Y1197500D01*
Y1172500D02*
X7377500Y1157500D01*
X7402500D01*
X7470000Y1090000D01*
X8160000Y852500D02*
X8528700D01*
X8161000Y1602500D02*
X8528700D01*
X7707500Y1002500D02*
X8528700D01*
X7457500Y977500D02*
X7590000D01*
X7665000Y1052500D02*
X8528700D01*
X7590000Y977500D02*
X7665000Y1052500D01*
X6850000Y958750D02*
X6868750Y977500D01*
X7457500D01*
X6850000Y947500D02*
Y958750D01*
Y947500D02*
X6855000Y942500D01*
D36*
X6258500Y3047500D02*
X8165000D01*
X8245000Y2732500D02*
X8247500Y2735000D01*
X8165000Y3047500D02*
X8247500Y2965000D01*
Y2735000D02*
Y2965000D01*
Y2735000D02*
X8248500Y2736000D01*
Y2740000D01*
X4412500Y3027500D02*
X5452500D01*
X3942500Y2557500D02*
X4412500Y3027500D01*
X4212500Y3155000D02*
X5720389D01*
X3865000Y2807500D02*
X4212500Y3155000D01*
X6809500Y2836500D02*
X6816500D01*
X6047500D02*
X6258500Y3047500D01*
X5452500Y3027500D02*
X5832500Y2647500D01*
X6620500D01*
X6809500Y2836500D01*
X5720389Y3155000D02*
X6038889Y2836500D01*
X6047500D01*
X2602500Y782500D02*
Y1740000D01*
X2390000Y570000D02*
X2602500Y782500D01*
X2541500Y2953500D02*
X2937500Y2557500D01*
X491000Y2953500D02*
X2541500D01*
X260000Y2722500D02*
X491000Y2953500D01*
X1379148Y562500D02*
X1380000D01*
X1354693Y586955D02*
X1379148Y562500D01*
X1354693Y586955D02*
Y587807D01*
X260000Y1682500D02*
X1354693Y587807D01*
X260000Y1682500D02*
Y2722500D01*
X1370000Y550000D02*
Y552500D01*
X1380000Y562500D01*
X2978750Y2231250D02*
X3040000Y2170000D01*
X3512500D01*
X2953750Y2206250D02*
X3136750Y2389250D01*
Y2400000D02*
Y3424000D01*
Y2389250D02*
Y2400000D01*
X2103750Y2206250D02*
X2953750D01*
X2882500Y1940000D02*
X3512500D01*
D37*
X5284000Y1929000D02*
Y2835000D01*
X5285500Y2836500D01*
D38*
X3327250Y3304750D02*
Y3424000D01*
X3317500Y3295000D02*
X3327250Y3304750D01*
Y3424000D02*
Y3491905D01*
X3316955Y3502200D02*
X3327250Y3491905D01*
D39*
X8185000Y3645000D02*
Y3953500D01*
X8179500Y3957500D02*
X8180300Y3956700D01*
X8181000D01*
X8182700Y3955000D01*
X8183500D01*
X8185000Y3953500D01*
X10242500Y3407500D02*
X10250000Y3415000D01*
X8422500Y3407500D02*
X10242500D01*
X8185000Y3645000D02*
X8422500Y3407500D01*
X4100000Y1390000D02*
Y2055000D01*
X3517750Y2637251D02*
X4100000Y2055000D01*
X6268500Y533500D02*
X6660000Y925000D01*
X5683700Y533500D02*
X6268500D01*
X6132500Y187500D02*
X6660000Y715000D01*
X5507500Y187500D02*
X6132500D01*
X4057500Y4694000D02*
X4098902D01*
X4182902Y4610000D02*
X4185000D01*
X4057500Y4692500D02*
Y4694000D01*
X11675000Y4907500D02*
Y4925000D01*
Y4907500D02*
X11677500Y4905000D01*
X10062500Y4682500D02*
X10062500D01*
X10057500Y4687500D02*
X10062500Y4682500D01*
X1077500Y3852500D02*
X1275000Y3655000D01*
X3365000D01*
X3507527Y3434223D02*
X3517750Y3424000D01*
X3507527Y3434223D02*
Y3512474D01*
X3365000Y3655000D02*
X3507527Y3512474D01*
X3517750Y2637251D02*
Y3424000D01*
X10250000Y3790000D02*
X10270000Y3810000D01*
X10250000Y3620000D02*
Y3790000D01*
Y3827500D02*
X10252500D01*
X10270000Y3810000D01*
X10250000Y3445000D02*
Y3620000D01*
X10250000Y3620000D01*
X4012500Y1120000D02*
X4915000D01*
X5211760Y823240D01*
X5319260D01*
X5325000Y817500D01*
X3657500Y2170000D02*
X3742500Y2085000D01*
Y1390000D02*
X4012500Y1120000D01*
X3742500Y1390000D02*
Y2085000D01*
X3512500Y2170000D02*
X3657500D01*
Y1010000D02*
X4390000D01*
X4530000Y870000D01*
X11313200Y3542500D02*
X11515000D01*
X8756500Y2740000D02*
X8775000Y2758500D01*
X8755000Y2740000D02*
X8756500D01*
X8745000Y2750000D02*
X8755000Y2740000D01*
X9460000Y287500D02*
X9469000D01*
X9469500Y288000D01*
X6850000Y958750D02*
Y970000D01*
X5377500Y317500D02*
Y585000D01*
Y317500D02*
X5507500Y187500D01*
X5141300Y660500D02*
X5302000D01*
X5377500Y585000D01*
X4087500Y617500D02*
X4088750Y618751D01*
Y833750D01*
X4090000Y835000D01*
X4272499Y417500D02*
X4277500Y422501D01*
X5108000Y409500D02*
X5111000Y406500D01*
X4280500Y409500D02*
X5108000D01*
X5111000Y406500D02*
X5141300D01*
X4272499Y417500D02*
X4280500Y409500D01*
X4720000Y870000D02*
X4727500Y877500D01*
X4530000Y870000D02*
X4720000D01*
X3650000Y1182500D02*
X3657500Y1175000D01*
X4892499Y830000D02*
X4892500D01*
X4737500Y660000D02*
Y682500D01*
X4762500Y707500D01*
X4770000D01*
X4892499Y830000D01*
X4892500D02*
X4917500Y855000D01*
Y877500D01*
X4737500Y637500D02*
X4867500Y507500D01*
X4972500D01*
X4997500Y532500D01*
X5140300D01*
X5141300Y533500D01*
X4935000Y660000D02*
X4935250Y660250D01*
X5141050D01*
X5141300Y660500D01*
X4927500Y660000D02*
X4935000D01*
X4277500Y422501D02*
Y617500D01*
X6660000Y715000D02*
Y737500D01*
Y925000D02*
Y947500D01*
X6847500Y532500D02*
X6850500Y535500D01*
Y737000D01*
X6847500Y532500D02*
X6851000D01*
X6842500Y977500D02*
X6848750Y983750D01*
Y1146250D01*
X6847500Y1147500D02*
X6848750Y1146250D01*
X6842500Y977500D02*
X6850000Y970000D01*
X5689200Y528000D02*
X5690000D01*
X5683700Y533500D02*
X5689200Y528000D01*
X3657500Y1010000D02*
Y1175000D01*
D40*
X3660000Y685000D02*
Y860000D01*
X3657500Y682500D02*
X3660000Y685000D01*
D41*
X3360000Y2400000D02*
X3362500Y2402500D01*
X3136750Y2400000D02*
X3360000D01*
D42*
X850000Y6162500D02*
X895922Y6208422D01*
D43*
X12100000Y400000D02*
D03*
X400000D02*
D03*
Y7400000D02*
D03*
X12100000D02*
D03*
D44*
X2370000Y550000D02*
D03*
D45*
X1870000D02*
D03*
X1370000D02*
D03*
X5285500Y2836500D02*
D03*
X6047500D02*
D03*
X6809500D02*
D03*
X5285500Y4868500D02*
D03*
X6809500D02*
D03*
D46*
X10060000Y7317500D02*
D03*
D47*
Y6817500D02*
D03*
D48*
X11295000Y255000D02*
D03*
X10580000D02*
D03*
D49*
X3136750Y3424000D02*
D03*
X3327250D02*
D03*
X3517750D02*
D03*
X3708250D02*
D03*
D50*
X4057500Y4186000D02*
D03*
Y4440000D02*
D03*
Y4694000D02*
D03*
X2787500D02*
D03*
Y4440000D02*
D03*
Y4186000D02*
D03*
D51*
X10894000Y2188500D02*
D03*
X10386000D02*
D03*
X10640000D02*
D03*
X10386000Y2442500D02*
D03*
X10640000D02*
D03*
X10894000D02*
D03*
X12240000Y2769000D02*
D03*
Y3023000D02*
D03*
Y3277000D02*
D03*
Y3531000D02*
D03*
Y3785000D02*
D03*
D52*
X11675000Y4925000D02*
D03*
Y5877500D02*
D03*
X850000Y5210000D02*
D03*
Y6162500D02*
D03*
D53*
X10062500Y5682500D02*
D03*
Y4682500D02*
D03*
D54*
X2272500Y4965000D02*
D03*
D55*
Y5965000D02*
D03*
Y6715000D02*
D03*
Y7465000D02*
D03*
D56*
X5070000Y5947500D02*
D03*
Y7447500D02*
D03*
D57*
X8756500Y2740000D02*
D03*
X8502500D02*
D03*
X8248500D02*
D03*
D58*
X7994500D02*
D03*
D59*
X10189683Y2632379D02*
D03*
Y2527353D02*
D03*
X9941500D02*
D03*
X9735000Y2576945D02*
D03*
X6155002Y3107500D02*
D03*
X12155000Y2507500D02*
D03*
X12305000Y1607500D02*
D03*
X12155000Y1307500D02*
D03*
X12305000Y1007500D02*
D03*
X12155000Y707500D02*
D03*
X12005000Y3407500D02*
D03*
X11855000Y3107500D02*
D03*
X12005000Y2807500D02*
D03*
Y1607500D02*
D03*
X11855000Y1307500D02*
D03*
X12005000Y1007500D02*
D03*
X11855000Y707500D02*
D03*
X11705000Y3407500D02*
D03*
Y2807500D02*
D03*
Y1007500D02*
D03*
X11555000Y707500D02*
D03*
X11705000Y407501D02*
D03*
X11405000Y3407500D02*
D03*
Y2207500D02*
D03*
Y1007500D02*
D03*
Y407501D02*
D03*
X10955000Y3107500D02*
D03*
X11105000Y2807500D02*
D03*
X10955000Y1307500D02*
D03*
X10805000Y3407500D02*
D03*
X10655001Y3107500D02*
D03*
X10355001D02*
D03*
Y1907500D02*
D03*
Y1307500D02*
D03*
Y707500D02*
D03*
X10055001Y3107500D02*
D03*
X10205001Y1007500D02*
D03*
X10055001Y707500D02*
D03*
X10205001Y407501D02*
D03*
X10055001Y107501D02*
D03*
X9755001Y3107500D02*
D03*
Y1907500D02*
D03*
X9905001Y1007500D02*
D03*
X9755001Y707500D02*
D03*
Y107501D02*
D03*
X9455001Y1307500D02*
D03*
X9605001Y407501D02*
D03*
X9305001Y1607500D02*
D03*
X9155001Y1307500D02*
D03*
X9005001Y1607500D02*
D03*
X8855001Y1307500D02*
D03*
X9005001Y407501D02*
D03*
X8855001Y107501D02*
D03*
X8555001Y2507500D02*
D03*
Y707500D02*
D03*
X8705001Y407501D02*
D03*
X8555001Y107501D02*
D03*
X8255001Y1307500D02*
D03*
Y707500D02*
D03*
X8405001Y407501D02*
D03*
X8255001Y107501D02*
D03*
X7955001Y2507500D02*
D03*
Y1307500D02*
D03*
Y707500D02*
D03*
X8105001Y407501D02*
D03*
X7955001Y107501D02*
D03*
X7805001Y2807500D02*
D03*
X7655001Y2507500D02*
D03*
X7805001Y2207500D02*
D03*
X7655001Y1907500D02*
D03*
X7805001Y1607500D02*
D03*
X7655001Y1307500D02*
D03*
Y707500D02*
D03*
X7505002Y2807500D02*
D03*
X7355002Y2507500D02*
D03*
X7505002Y2207500D02*
D03*
X7355002Y1907500D02*
D03*
X7205002Y2807500D02*
D03*
X7055002Y2507500D02*
D03*
X7205002Y2207500D02*
D03*
X7055002Y1907500D02*
D03*
X7205002Y1607500D02*
D03*
Y407501D02*
D03*
X6905002Y2207500D02*
D03*
X6755002Y1907500D02*
D03*
X6905002Y1607500D02*
D03*
X6605002Y2807500D02*
D03*
X6455002Y2507500D02*
D03*
X6605002Y2207500D02*
D03*
X6455002Y1907500D02*
D03*
X6605002Y407501D02*
D03*
X6305002Y2807500D02*
D03*
Y2207500D02*
D03*
X6155002Y1907500D02*
D03*
Y1307500D02*
D03*
X5855002Y2507500D02*
D03*
X6005002Y2207500D02*
D03*
X5855002Y1907500D02*
D03*
X6005002Y1607500D02*
D03*
X5855002Y1307500D02*
D03*
X6005002Y1007500D02*
D03*
Y407501D02*
D03*
X5555002Y2507500D02*
D03*
X5705002Y2207500D02*
D03*
X5555002Y1907500D02*
D03*
X5705002Y1007500D02*
D03*
X5405002Y2207500D02*
D03*
X5255002Y1307500D02*
D03*
X4955002Y2507500D02*
D03*
X5105002Y2207500D02*
D03*
X4955002Y1907500D02*
D03*
X5105002Y1607500D02*
D03*
X4955002Y1307500D02*
D03*
X4655002Y2507500D02*
D03*
X4805002Y2207500D02*
D03*
X4655002Y1907500D02*
D03*
X4805002Y1607500D02*
D03*
X4655002Y1307500D02*
D03*
X4805002Y1007500D02*
D03*
X4355002Y2507500D02*
D03*
X4505002Y2207500D02*
D03*
X4355002Y1907500D02*
D03*
X4505002Y1607500D02*
D03*
X4355002Y1307500D02*
D03*
X4055003Y2507500D02*
D03*
X4205003Y2207500D02*
D03*
Y1607500D02*
D03*
X3905003D02*
D03*
Y407501D02*
D03*
X3605003Y1607500D02*
D03*
X3455003Y1307500D02*
D03*
X3605003Y407501D02*
D03*
X3305003Y1607500D02*
D03*
Y1007500D02*
D03*
X3155003Y707500D02*
D03*
X3305003Y407501D02*
D03*
X2855003Y3107500D02*
D03*
X3005003Y1607500D02*
D03*
Y407501D02*
D03*
X2855003Y107501D02*
D03*
X2555003Y3107500D02*
D03*
X2705003Y407501D02*
D03*
X2555003Y107501D02*
D03*
X2405003Y3407500D02*
D03*
X2255003Y3107500D02*
D03*
X2405003Y2807500D02*
D03*
X2255003Y1907500D02*
D03*
X2405003Y1607500D02*
D03*
X2255003Y1307500D02*
D03*
X2405003Y1007500D02*
D03*
X2255003Y107501D02*
D03*
X2105003Y3407500D02*
D03*
X1955003Y3107500D02*
D03*
X2105003Y2807500D02*
D03*
X1955003Y1907500D02*
D03*
X2105003Y1607500D02*
D03*
X1955003Y1307500D02*
D03*
X2105003Y1007500D02*
D03*
X1955003Y707500D02*
D03*
X2105003Y407501D02*
D03*
X1955003Y107501D02*
D03*
X1805003Y3407500D02*
D03*
X1655003Y3107500D02*
D03*
X1805003Y2807500D02*
D03*
X1655003Y1907500D02*
D03*
X1805003Y1607500D02*
D03*
X1655003Y707500D02*
D03*
X1805003Y407501D02*
D03*
X1655003Y107501D02*
D03*
X1505003Y3407500D02*
D03*
X1355003Y3107500D02*
D03*
X1505003Y2807500D02*
D03*
X1355003Y1907500D02*
D03*
X1505003Y1607500D02*
D03*
X1355003Y1307500D02*
D03*
X1505003Y1007500D02*
D03*
Y407501D02*
D03*
X1355003Y107501D02*
D03*
X1205003Y3407500D02*
D03*
X1055003Y3107500D02*
D03*
Y1307500D02*
D03*
X1205003Y1007500D02*
D03*
X1055003Y707500D02*
D03*
X1205003Y407501D02*
D03*
X1055003Y107501D02*
D03*
X905004Y3407500D02*
D03*
X755004Y3107500D02*
D03*
X905004Y2807500D02*
D03*
X755004Y2507500D02*
D03*
Y1907500D02*
D03*
X905004Y1607500D02*
D03*
X755004Y707500D02*
D03*
X905004Y407501D02*
D03*
X755004Y107501D02*
D03*
X605004Y3407500D02*
D03*
X455004Y3107500D02*
D03*
X605004Y2807500D02*
D03*
X455004Y2507500D02*
D03*
Y1907500D02*
D03*
X605004Y1607500D02*
D03*
X455004Y1307500D02*
D03*
X605004Y1007500D02*
D03*
X455004Y707500D02*
D03*
Y107501D02*
D03*
X305004Y3407500D02*
D03*
X155004Y3107500D02*
D03*
Y1307500D02*
D03*
X305004Y1007500D02*
D03*
X155004Y707500D02*
D03*
Y107501D02*
D03*
D60*
X10055001Y2739530D02*
D03*
X8854850Y2131000D02*
D03*
X2602500Y1740000D02*
D03*
X10975000Y4285555D02*
D03*
X9901500Y1755000D02*
D03*
X3942500Y2557500D02*
D03*
X2937500D02*
D03*
X3865000Y2807500D02*
D03*
X7720000Y1852500D02*
D03*
X11380000Y2700000D02*
D03*
X11247500Y2717500D02*
D03*
X11380000Y2330000D02*
D03*
X11243955Y2333955D02*
D03*
X10768800Y3925500D02*
D03*
X8662100Y1855000D02*
D03*
X10987500Y1685000D02*
D03*
X10832500Y1425000D02*
D03*
X11010000Y980000D02*
D03*
X10736473Y1250005D02*
D03*
D61*
X4100000Y1390000D02*
D03*
X8160000Y1187500D02*
D03*
Y852500D02*
D03*
X5325000Y817500D02*
D03*
X4090000Y835000D02*
D03*
X5812850Y660500D02*
D03*
D62*
X8872500Y3750000D02*
D03*
X8805000Y4202500D02*
D03*
X8507500Y4097500D02*
D03*
X8505000Y3922500D02*
D03*
X8510000Y3750000D02*
D03*
X8905000Y3907500D02*
D03*
X8902500Y4080000D02*
D03*
X9025000Y3842500D02*
D03*
X9020000Y4007500D02*
D03*
X9012500Y4175000D02*
D03*
%TF.MD5,7c7b4f4ecdc7886ba0ff43b71626bbcf*%
M02*
