%TF.GenerationSoftware,Altium Limited,Altium Designer,23.6.0 (18)*%
G04 Layer_Color=32896*
%FSLAX45Y45*%
%MOMM*%
%TF.SameCoordinates,1BF17B70-E076-4422-95A1-EF062E3CA17A*%
%TF.FilePolarity,Positive*%
%TF.FileFunction,Legend,Bot*%
%TF.Part,Single*%
G01*
G75*
%TA.AperFunction,NonConductor*%
%ADD64C,0.25400*%
%ADD65C,0.20000*%
D64*
X5634960Y3802516D02*
Y3902484D01*
X5584976D01*
X5568315Y3885823D01*
Y3852500D01*
X5584976Y3835839D01*
X5634960D01*
X5601637D02*
X5568315Y3802516D01*
X5534992D02*
X5501669D01*
X5518331D01*
Y3902484D01*
X5534992Y3885823D01*
X5451686Y3902484D02*
X5385041D01*
Y3885823D01*
X5451686Y3819178D01*
Y3802516D01*
X8731677Y3516645D02*
X8715016Y3533306D01*
Y3566629D01*
X8731677Y3583290D01*
X8798322D01*
X8814983Y3566629D01*
Y3533306D01*
X8798322Y3516645D01*
X8814983Y3416677D02*
Y3483322D01*
X8748338Y3416677D01*
X8731677D01*
X8715016Y3433339D01*
Y3466661D01*
X8731677Y3483322D01*
X8715016Y3316710D02*
Y3383355D01*
X8764999D01*
X8748338Y3350032D01*
Y3333371D01*
X8764999Y3316710D01*
X8798322D01*
X8814983Y3333371D01*
Y3366693D01*
X8798322Y3383355D01*
X8214177Y2115645D02*
X8197515Y2132306D01*
Y2165629D01*
X8214177Y2182290D01*
X8280822D01*
X8297483Y2165629D01*
Y2132306D01*
X8280822Y2115645D01*
X8297483Y2015677D02*
Y2082322D01*
X8230838Y2015677D01*
X8214177D01*
X8197515Y2032339D01*
Y2065661D01*
X8214177Y2082322D01*
X8297483Y1932371D02*
X8197515D01*
X8247499Y1982355D01*
Y1915710D01*
X6776677Y2256645D02*
X6760016Y2273306D01*
Y2306629D01*
X6776677Y2323290D01*
X6843322D01*
X6859984Y2306629D01*
Y2273306D01*
X6843322Y2256645D01*
X6859984Y2156677D02*
Y2223322D01*
X6793339Y2156677D01*
X6776677D01*
X6760016Y2173339D01*
Y2206661D01*
X6776677Y2223322D01*
Y2123355D02*
X6760016Y2106693D01*
Y2073371D01*
X6776677Y2056710D01*
X6793339D01*
X6810000Y2073371D01*
Y2090032D01*
Y2073371D01*
X6826661Y2056710D01*
X6843322D01*
X6859984Y2073371D01*
Y2106693D01*
X6843322Y2123355D01*
X6019177Y2260145D02*
X6002516Y2276806D01*
Y2310129D01*
X6019177Y2326790D01*
X6085822D01*
X6102484Y2310129D01*
Y2276806D01*
X6085822Y2260145D01*
X6102484Y2160178D02*
Y2226823D01*
X6035839Y2160178D01*
X6019177D01*
X6002516Y2176839D01*
Y2210161D01*
X6019177Y2226823D01*
X6102484Y2060210D02*
Y2126855D01*
X6035839Y2060210D01*
X6019177D01*
X6002516Y2076871D01*
Y2110193D01*
X6019177Y2126855D01*
X2524984Y3463323D02*
X2541645Y3479984D01*
X2574967D01*
X2591629Y3463323D01*
Y3396677D01*
X2574967Y3380016D01*
X2541645D01*
X2524984Y3396677D01*
X2425016Y3380016D02*
X2491661D01*
X2425016Y3446661D01*
Y3463323D01*
X2441677Y3479984D01*
X2475000D01*
X2491661Y3463323D01*
X2391693Y3380016D02*
X2358371D01*
X2375032D01*
Y3479984D01*
X2391693Y3463323D01*
X10491678Y4380145D02*
X10475016Y4396807D01*
Y4430129D01*
X10491678Y4446790D01*
X10558323D01*
X10574984Y4430129D01*
Y4396807D01*
X10558323Y4380145D01*
X10574984Y4280178D02*
Y4346823D01*
X10508339Y4280178D01*
X10491678D01*
X10475016Y4296839D01*
Y4330161D01*
X10491678Y4346823D01*
Y4246855D02*
X10475016Y4230193D01*
Y4196871D01*
X10491678Y4180210D01*
X10558323D01*
X10574984Y4196871D01*
Y4230193D01*
X10558323Y4246855D01*
X10491678D01*
X10309177Y4361814D02*
X10292516Y4378476D01*
Y4411798D01*
X10309177Y4428460D01*
X10375822D01*
X10392484Y4411798D01*
Y4378476D01*
X10375822Y4361814D01*
X10392484Y4328492D02*
Y4295169D01*
Y4311830D01*
X10292516D01*
X10309177Y4328492D01*
Y4245185D02*
X10292516Y4228524D01*
Y4195201D01*
X10309177Y4178540D01*
X10325839D01*
X10342500Y4195201D01*
X10359161Y4178540D01*
X10375822D01*
X10392484Y4195201D01*
Y4228524D01*
X10375822Y4245185D01*
X10359161D01*
X10342500Y4228524D01*
X10325839Y4245185D01*
X10309177D01*
X10342500Y4228524D02*
Y4195201D01*
D65*
X5845000Y3793700D02*
Y3901300D01*
%TF.MD5,0331bdf3c3e19243e931131925799d1c*%
M02*
