%TF.GenerationSoftware,Altium Limited,Altium Designer,23.6.0 (18)*%
G04 Layer_Color=32768*
%FSLAX45Y45*%
%MOMM*%
%TF.SameCoordinates,1BF17B70-E076-4422-95A1-EF062E3CA17A*%
%TF.FilePolarity,Positive*%
%TF.FileFunction,Other,Mechanical_15*%
%TF.Part,Single*%
G01*
G75*
%TA.AperFunction,NonConductor*%
%ADD63C,0.10000*%
%ADD65C,0.20000*%
%ADD108C,0.05000*%
D63*
X10697500Y7067500D02*
G03*
X10697500Y7067500I-637500J0D01*
G01*
X1080000Y50000D02*
X2620000D01*
X1080000D02*
Y990000D01*
X2620000D01*
Y50000D02*
Y990000D01*
X7902500Y7414100D02*
X8922500D01*
Y6499100D02*
Y7414100D01*
X7902500Y6499100D02*
X8922500D01*
X7902500D02*
Y7414100D01*
X7923500Y5339100D02*
X8943500D01*
Y4424100D02*
Y5339100D01*
X7923500Y4424100D02*
X8943500D01*
X7923500D02*
Y5339100D01*
X11957500Y2157500D02*
X12157500D01*
Y2032500D02*
Y2157500D01*
X11957500Y2032500D02*
X12157500D01*
X11957500D02*
Y2157500D01*
Y1957500D02*
X12157500D01*
Y1832500D02*
Y1957500D01*
X11957500Y1832500D02*
X12157500D01*
X11957500D02*
Y1957500D01*
X11477500Y1658500D02*
X11525000Y1706000D01*
X11477500Y1581000D02*
Y1706000D01*
Y1581000D02*
X11677500D01*
Y1706000D01*
X11477500D02*
X11677500D01*
X10567500Y-20000D02*
Y535000D01*
Y-20000D02*
X11307500D01*
Y535000D01*
X10567500D02*
X11307500D01*
X10705000Y1715100D02*
X11095000D01*
Y1224900D02*
Y1715100D01*
X10705000Y1224900D02*
X11095000D01*
X10705000D02*
Y1715100D01*
Y1651600D02*
X10768600Y1715100D01*
X7235000Y650000D02*
X7330000Y555000D01*
X7235000D02*
X7525000D01*
Y685000D01*
X7235000D02*
X7525000D01*
X7235000Y555000D02*
Y685000D01*
X7697500Y220000D02*
X7745000Y267500D01*
Y220000D02*
Y345000D01*
X7545000D02*
X7745000D01*
X7545000Y220000D02*
Y345000D01*
Y220000D02*
X7745000D01*
X3352500Y2417500D02*
X3400000Y2465000D01*
X3352500Y2340000D02*
Y2465000D01*
Y2340000D02*
X3552500D01*
Y2465000D01*
X3352500D02*
X3552500D01*
X3612500Y1120000D02*
X3660000Y1167500D01*
Y1120000D02*
Y1245000D01*
X3460000D02*
X3660000D01*
X3460000Y1120000D02*
Y1245000D01*
Y1120000D02*
X3660000D01*
X3490000Y845000D02*
X3615000D01*
X3490000D02*
Y1045000D01*
X3615000D01*
Y845000D02*
Y1045000D01*
X3550000Y845000D02*
X3615000Y910000D01*
X3620000Y620000D02*
X3667500Y667500D01*
Y620000D02*
Y745000D01*
X3467500D02*
X3667500D01*
X3467500Y620000D02*
Y745000D01*
Y620000D02*
X3667500D01*
X2130000Y1785000D02*
Y2035000D01*
X1810000D02*
X2130000D01*
X1810000Y1785000D02*
Y2035000D01*
Y1785000D02*
X2130000D01*
X1867500Y2107500D02*
Y2307500D01*
Y2107500D02*
X2117500D01*
Y2307500D01*
X1867500D02*
X2117500D01*
X3022500Y1615000D02*
X3372500D01*
X3022500D02*
Y2265000D01*
X3372500D01*
Y1615000D02*
Y2265000D01*
X3142500Y1615000D02*
X3372500Y1845000D01*
X10869800Y6436300D02*
X12470000D01*
X10869800Y4376400D02*
Y6436300D01*
Y4376400D02*
X12470000D01*
Y6436300D01*
X9812500Y4532500D02*
Y5832500D01*
Y4532500D02*
X10312500D01*
Y5832500D01*
X9812500D02*
X10312500D01*
X1962500Y4715000D02*
Y7715000D01*
X2422500D01*
Y4715000D02*
Y7715000D01*
X1962500Y4715000D02*
X2422500D01*
X1190000Y7031000D02*
Y7189000D01*
Y7031000D02*
X1510000D01*
Y7189000D01*
X1190000D02*
X1510000D01*
X44800Y6721300D02*
X1645000D01*
X44800Y4661400D02*
Y6721300D01*
Y4661400D02*
X1645000D01*
Y6721300D01*
X7602500Y1022500D02*
Y1152500D01*
X7312500Y1022500D02*
X7602500D01*
X7312500D02*
Y1152500D01*
X7602500D01*
X7507500D02*
X7602500Y1057500D01*
X7795500Y2650000D02*
Y3250000D01*
X8955500Y2650000D02*
Y3250000D01*
X7795500D02*
X8955500D01*
D65*
X5785000Y1770000D02*
X6305000D01*
Y1250000D02*
Y1770000D01*
X5785000Y1250000D02*
X6305000D01*
X5785000D02*
Y1770000D01*
D108*
X2927000Y3333500D02*
Y3511500D01*
X2633000Y3333500D02*
X2927000D01*
X2633000D02*
Y3511500D01*
X2927000D01*
X6570500Y1606000D02*
Y1784000D01*
Y1606000D02*
X6864500D01*
Y1784000D01*
X6570500D02*
X6864500D01*
X10438500Y3863000D02*
X10616500D01*
X10438500D02*
Y4157000D01*
X10616500D01*
Y3863000D02*
Y4157000D01*
X10248500Y3863000D02*
X10426500D01*
X10248500D02*
Y4157000D01*
X10426500D01*
Y3863000D02*
Y4157000D01*
X11449000Y3453500D02*
Y3631500D01*
Y3453500D02*
X11743000D01*
Y3631500D01*
X11449000D02*
X11743000D01*
X8668500Y2999000D02*
X8846500D01*
X8668500D02*
Y3293000D01*
X8846500D01*
Y2999000D02*
Y3293000D01*
X8158500Y2498500D02*
X8336500D01*
Y2204500D02*
Y2498500D01*
X8158500Y2204500D02*
X8336500D01*
X8158500D02*
Y2498500D01*
X9105000Y1992500D02*
X9305000D01*
Y2332500D01*
X9105000D02*
X9305000D01*
X9105000Y1992500D02*
Y2332500D01*
X9307500Y1992500D02*
X9507500D01*
Y2332500D01*
X9307500D02*
X9507500D01*
X9307500Y1992500D02*
Y2332500D01*
X9507500Y1992500D02*
X9707500D01*
Y2332500D01*
X9507500D02*
X9707500D01*
X9507500Y1992500D02*
Y2332500D01*
X11116000Y714000D02*
X11294000D01*
Y1008000D01*
X11116000D02*
X11294000D01*
X11116000Y714000D02*
Y1008000D01*
X10508500Y720500D02*
X10686500D01*
Y1014500D01*
X10508500D02*
X10686500D01*
X10508500Y720500D02*
Y1014500D01*
X11480000Y1995000D02*
Y2195000D01*
Y1995000D02*
X11820000D01*
Y2195000D01*
X11480000D02*
X11820000D01*
X11480000Y1795000D02*
Y1995000D01*
Y1795000D02*
X11820000D01*
Y1995000D01*
X11480000D02*
X11820000D01*
X11420500Y1367000D02*
Y1545000D01*
Y1367000D02*
X11714500D01*
Y1545000D01*
X11420500D02*
X11714500D01*
X10697500Y710000D02*
X10897500D01*
Y1050000D01*
X10697500D02*
X10897500D01*
X10697500Y710000D02*
Y1050000D01*
X10902500Y710000D02*
X11102500D01*
Y1050000D01*
X10902500D02*
X11102500D01*
X10902500Y710000D02*
Y1050000D01*
X11419500Y1183500D02*
Y1361500D01*
Y1183500D02*
X11713500D01*
Y1361500D01*
X11419500D02*
X11713500D01*
X9549000Y59500D02*
Y353500D01*
X9371000Y59500D02*
X9549000D01*
X9371000D02*
Y353500D01*
X9549000D01*
X9176000Y354500D02*
X9354000D01*
X9176000Y60500D02*
Y354500D01*
Y60500D02*
X9354000D01*
Y354500D01*
X9835500Y1666000D02*
Y1844000D01*
Y1666000D02*
X10129500D01*
Y1844000D01*
X9835500D02*
X10129500D01*
X8224500Y1511000D02*
Y1689000D01*
X7930500D02*
X8224500D01*
X7930500Y1511000D02*
Y1689000D01*
Y1511000D02*
X8224500D01*
X8430000Y555000D02*
Y1900000D01*
Y555000D02*
X9775000D01*
Y1900000D01*
X8430000D02*
X9775000D01*
X8224500Y763500D02*
Y941500D01*
X7930500D02*
X8224500D01*
X7930500Y763500D02*
Y941500D01*
Y763500D02*
X8224500D01*
X4662500Y560000D02*
Y760000D01*
Y560000D02*
X5002500D01*
Y760000D01*
X4662500D02*
X5002500D01*
X4012500Y517500D02*
Y717500D01*
Y517500D02*
X4352500D01*
Y717500D01*
X4012500D02*
X4352500D01*
Y312500D02*
Y512500D01*
X4012500D02*
X4352500D01*
X4012500Y312500D02*
Y512500D01*
Y312500D02*
X4352500D01*
X6917000Y443500D02*
Y621500D01*
X6623000D02*
X6917000D01*
X6623000Y443500D02*
Y621500D01*
Y443500D02*
X6917000D01*
X6585000Y637500D02*
Y837500D01*
Y637500D02*
X6925000D01*
Y837500D01*
X6585000D02*
X6925000D01*
X6913500Y1058500D02*
Y1236500D01*
X6619500D02*
X6913500D01*
X6619500Y1058500D02*
Y1236500D01*
Y1058500D02*
X6913500D01*
X6585000Y847500D02*
Y1047500D01*
Y847500D02*
X6925000D01*
Y1047500D01*
X6585000D02*
X6925000D01*
X5040000Y195000D02*
Y745000D01*
Y195000D02*
X5785000D01*
Y745000D01*
X5040000D02*
X5785000D01*
X5675000Y3747500D02*
Y3947500D01*
X6015000D01*
Y3747500D02*
Y3947500D01*
X5675000Y3747500D02*
X6015000D01*
X3035500Y1343500D02*
Y1521500D01*
Y1343500D02*
X3329500D01*
Y1521500D01*
X3035500D02*
X3329500D01*
X6721000Y2647000D02*
X6899000D01*
Y2353000D02*
Y2647000D01*
X6721000Y2353000D02*
X6899000D01*
X6721000D02*
Y2647000D01*
X5961000D02*
X6139000D01*
Y2353000D02*
Y2647000D01*
X5961000Y2353000D02*
X6139000D01*
X5961000D02*
Y2647000D01*
X5357500Y1827500D02*
Y2027500D01*
X5017500D02*
X5357500D01*
X5017500Y1827500D02*
Y2027500D01*
Y1827500D02*
X5357500D01*
X1760500Y2584000D02*
X2054500D01*
Y2406000D02*
Y2584000D01*
X1760500Y2406000D02*
X2054500D01*
X1760500D02*
Y2584000D01*
X850000Y2120000D02*
X1595000D01*
X850000D02*
Y2670000D01*
X1595000D01*
Y2120000D02*
Y2670000D01*
X711000Y2242500D02*
Y2420500D01*
X417000D02*
X711000D01*
X417000Y2242500D02*
Y2420500D01*
Y2242500D02*
X711000D01*
X1312000Y2721000D02*
Y2899000D01*
X1018000D02*
X1312000D01*
X1018000Y2721000D02*
Y2899000D01*
Y2721000D02*
X1312000D01*
X10175000Y3515000D02*
X10515000D01*
Y3315000D02*
Y3515000D01*
X10175000Y3315000D02*
X10515000D01*
X10175000D02*
Y3515000D01*
X10667500Y3460000D02*
X11412500D01*
X10667500D02*
Y4010000D01*
X11412500D01*
Y3460000D02*
Y4010000D01*
X10175000Y3727500D02*
X10515000D01*
X10175000D02*
Y3927500D01*
X10515000D01*
Y3727500D02*
Y3927500D01*
X10175000Y3520000D02*
X10515000D01*
X10175000D02*
Y3720000D01*
X10515000D01*
Y3520000D02*
Y3720000D01*
X4652500Y977500D02*
X4992500D01*
Y777500D02*
Y977500D01*
X4652500Y777500D02*
X4992500D01*
X4652500D02*
Y977500D01*
X5878000Y751500D02*
X6172000D01*
Y573500D02*
Y751500D01*
X5878000Y573500D02*
X6172000D01*
X5878000D02*
Y751500D01*
X8285500Y1948500D02*
X8579500D01*
X8285500D02*
Y2126500D01*
X8579500D01*
Y1948500D02*
Y2126500D01*
%TF.MD5,a343a50e4057b40da67c91728c2acce2*%
M02*
