%TF.GenerationSoftware,Altium Limited,Altium Designer,23.6.0 (18)*%
G04 Layer_Color=8421504*
%FSLAX45Y45*%
%MOMM*%
%TF.SameCoordinates,1BF17B70-E076-4422-95A1-EF062E3CA17A*%
%TF.FilePolarity,Positive*%
%TF.FileFunction,Paste,Top*%
%TF.Part,Single*%
G01*
G75*
%TA.AperFunction,SMDPad,CuDef*%
%ADD10R,1.60000X3.50000*%
%ADD11R,12.20000X9.75000*%
%ADD12R,1.02000X1.47000*%
%ADD13R,1.45000X1.00000*%
%ADD14R,1.47000X1.02000*%
%ADD15R,1.10000X1.30000*%
%ADD16R,1.00000X1.45000*%
%ADD17R,1.45000X0.95000*%
%TA.AperFunction,ConnectorPad*%
%ADD18R,1.15000X1.45000*%
%ADD19R,1.75000X1.90000*%
%ADD20R,0.40000X1.40000*%
%TA.AperFunction,SMDPad,CuDef*%
%ADD21R,1.52600X0.43500*%
%ADD22R,1.00000X0.70000*%
%ADD23R,0.60000X1.10000*%
%ADD24R,0.30000X1.47500*%
%ADD25R,1.47500X0.30000*%
%ADD26R,1.52500X0.65000*%
%ADD27R,1.05000X0.50000*%
%ADD28R,1.22000X2.72000*%
%ADD29R,1.25000X2.20000*%
%ADD30R,1.75000X0.95000*%
%ADD31R,1.75000X3.20000*%
%ADD32R,1.30000X1.80000*%
G04:AMPARAMS|DCode=33|XSize=2mm|YSize=2mm|CornerRadius=0.5mm|HoleSize=0mm|Usage=FLASHONLY|Rotation=0.000|XOffset=0mm|YOffset=0mm|HoleType=Round|Shape=RoundedRectangle|*
%AMROUNDEDRECTD33*
21,1,2.00000,1.00000,0,0,0.0*
21,1,1.00000,2.00000,0,0,0.0*
1,1,1.00000,0.50000,-0.50000*
1,1,1.00000,-0.50000,-0.50000*
1,1,1.00000,-0.50000,0.50000*
1,1,1.00000,0.50000,0.50000*
%
%ADD33ROUNDEDRECTD33*%
D10*
X8158500Y6032500D02*
D03*
X8666500D02*
D03*
X8179500Y3957500D02*
D03*
X8687500D02*
D03*
D11*
X8412500Y7060000D02*
D03*
X8433500Y4985000D02*
D03*
D12*
X6798500Y1695000D02*
D03*
X6636500D02*
D03*
X11677000Y3542500D02*
D03*
X11515000D02*
D03*
X11648500Y1456000D02*
D03*
X11486500D02*
D03*
X11647500Y1272500D02*
D03*
X11485500D02*
D03*
X10063500Y1755000D02*
D03*
X9901500D02*
D03*
X7996500Y1600000D02*
D03*
X8158500D02*
D03*
X7996500Y852500D02*
D03*
X8158500D02*
D03*
X6689000Y532500D02*
D03*
X6851000D02*
D03*
X6685500Y1147500D02*
D03*
X6847500D02*
D03*
X3263500Y1432500D02*
D03*
X3101500D02*
D03*
X1826500Y2495000D02*
D03*
X1988500D02*
D03*
X483000Y2331500D02*
D03*
X645000D02*
D03*
X1084000Y2810000D02*
D03*
X1246000D02*
D03*
X5944000Y662500D02*
D03*
X6106000D02*
D03*
X8513500Y2037500D02*
D03*
X8351500D02*
D03*
D13*
X9205000Y2257500D02*
D03*
Y2067500D02*
D03*
X9407500Y2257500D02*
D03*
Y2067500D02*
D03*
X9607500Y2257500D02*
D03*
Y2067500D02*
D03*
X10797500Y975000D02*
D03*
Y785000D02*
D03*
X11002500Y975000D02*
D03*
Y785000D02*
D03*
D14*
X11205000Y942000D02*
D03*
Y780000D02*
D03*
X10597500Y948500D02*
D03*
Y786500D02*
D03*
X9460000Y287500D02*
D03*
Y125500D02*
D03*
X9265000Y126500D02*
D03*
Y288500D02*
D03*
D15*
X11952500Y2095000D02*
D03*
X12162500D02*
D03*
X11952500Y1895000D02*
D03*
X12162500D02*
D03*
D16*
X11745000Y2095000D02*
D03*
X11555000D02*
D03*
X11745000Y1895000D02*
D03*
X11555000D02*
D03*
X4927500Y660000D02*
D03*
X4737500D02*
D03*
X4277500Y617500D02*
D03*
X4087500D02*
D03*
Y412500D02*
D03*
X4277500D02*
D03*
X6850000Y737500D02*
D03*
X6660000D02*
D03*
X6850000Y947500D02*
D03*
X6660000D02*
D03*
X5092500Y1927500D02*
D03*
X5282500D02*
D03*
X10250000Y3415000D02*
D03*
X10440000D02*
D03*
X10440000Y3827500D02*
D03*
X10250000D02*
D03*
X10440000Y3620000D02*
D03*
X10250000D02*
D03*
X4727500Y877500D02*
D03*
X4917500D02*
D03*
D17*
X11667500Y1643500D02*
D03*
X11487500D02*
D03*
X7555000Y282500D02*
D03*
X7735000D02*
D03*
X3542500Y2402500D02*
D03*
X3362500D02*
D03*
X3470000Y1182500D02*
D03*
X3650000D02*
D03*
X3477500Y682500D02*
D03*
X3657500D02*
D03*
D18*
X11169500Y478000D02*
D03*
X10705500D02*
D03*
D19*
X11050000Y255000D02*
D03*
X10825000D02*
D03*
D20*
X11067500Y520000D02*
D03*
X11002500D02*
D03*
X10937500D02*
D03*
X10872500D02*
D03*
X10807500D02*
D03*
D21*
X10628800Y1692200D02*
D03*
Y1628800D02*
D03*
Y1565200D02*
D03*
Y1501800D02*
D03*
Y1438200D02*
D03*
Y1374800D02*
D03*
Y1311200D02*
D03*
Y1247800D02*
D03*
X11171200D02*
D03*
Y1311200D02*
D03*
Y1374800D02*
D03*
Y1438200D02*
D03*
Y1501800D02*
D03*
Y1565200D02*
D03*
Y1628800D02*
D03*
Y1692200D02*
D03*
D22*
X5745000Y1695000D02*
D03*
X6345000D02*
D03*
X5745000Y1325000D02*
D03*
X6345000D02*
D03*
D23*
X7380000Y730000D02*
D03*
X7475000Y510000D02*
D03*
X7285000D02*
D03*
X7552500Y1197500D02*
D03*
X7362500D02*
D03*
X7457500Y977500D02*
D03*
D24*
X8727500Y1801300D02*
D03*
X8777500D02*
D03*
X8827500D02*
D03*
X8877500D02*
D03*
X8927500D02*
D03*
X8977500D02*
D03*
X9027500D02*
D03*
X9077500D02*
D03*
X9127500D02*
D03*
X9177500D02*
D03*
X9227500D02*
D03*
X9277500D02*
D03*
X9327500D02*
D03*
X9377500D02*
D03*
X9427500D02*
D03*
X9477500D02*
D03*
Y653700D02*
D03*
X9427500D02*
D03*
X9377500D02*
D03*
X9327500D02*
D03*
X9277500D02*
D03*
X9227500D02*
D03*
X9177500D02*
D03*
X9127500D02*
D03*
X9077500D02*
D03*
X9027500D02*
D03*
X8977500D02*
D03*
X8927500D02*
D03*
X8877500D02*
D03*
X8827500D02*
D03*
X8777500D02*
D03*
X8727500D02*
D03*
D25*
X9676300Y1602500D02*
D03*
Y1552500D02*
D03*
Y1502500D02*
D03*
Y1452500D02*
D03*
Y1402500D02*
D03*
Y1352500D02*
D03*
Y1302500D02*
D03*
Y1252500D02*
D03*
Y1202500D02*
D03*
Y1152500D02*
D03*
Y1102500D02*
D03*
Y1052500D02*
D03*
Y1002500D02*
D03*
Y952500D02*
D03*
Y902500D02*
D03*
Y852500D02*
D03*
X8528700D02*
D03*
Y902500D02*
D03*
Y952500D02*
D03*
Y1002500D02*
D03*
Y1052500D02*
D03*
Y1102500D02*
D03*
Y1152500D02*
D03*
Y1202500D02*
D03*
Y1252500D02*
D03*
Y1302500D02*
D03*
Y1352500D02*
D03*
Y1402500D02*
D03*
Y1452500D02*
D03*
Y1502500D02*
D03*
Y1552500D02*
D03*
Y1602500D02*
D03*
D26*
X5683700Y660500D02*
D03*
Y533500D02*
D03*
Y406500D02*
D03*
Y279500D02*
D03*
X5141300D02*
D03*
Y406500D02*
D03*
Y533500D02*
D03*
Y660500D02*
D03*
X1493700Y2204500D02*
D03*
Y2331500D02*
D03*
Y2458500D02*
D03*
Y2585500D02*
D03*
X951300D02*
D03*
Y2458500D02*
D03*
Y2331500D02*
D03*
Y2204500D02*
D03*
X11311200Y3544500D02*
D03*
Y3671500D02*
D03*
Y3798500D02*
D03*
Y3925500D02*
D03*
X10768800D02*
D03*
Y3798500D02*
D03*
Y3671500D02*
D03*
Y3544500D02*
D03*
D27*
X3657500Y880000D02*
D03*
Y1010000D02*
D03*
X3447500Y945000D02*
D03*
D28*
X1835000Y1910000D02*
D03*
X2105000D02*
D03*
D29*
X2102500Y2207500D02*
D03*
X1882500D02*
D03*
D30*
X3512500Y1710000D02*
D03*
Y1940000D02*
D03*
Y2170000D02*
D03*
D31*
X2882500Y1940000D02*
D03*
D32*
X1490500Y7110000D02*
D03*
X1209500D02*
D03*
D33*
X1077500Y3852500D02*
D03*
X1062500Y4120000D02*
D03*
%TF.MD5,8fefd4fd2177f2a62ef9792f12b5b0a6*%
M02*
